<svg width="237" height="147" viewBox="0 0 237 147" fill="none" xmlns="http://www.w3.org/2000/svg">
<rect x="2.5" y="2.5" width="232" height="142" fill="#161616" stroke="white" stroke-width="5"/>
<path d="M23.204 62.34H31.842V72H30.652V63.32H24.394V72H23.204V62.34ZM34.0705 65.084H35.1485V66.372C35.4285 65.868 35.8298 65.504 36.3525 65.28C36.8752 65.0467 37.5005 64.93 38.2285 64.93C39.4232 64.93 40.3472 65.2053 41.0005 65.756C41.6538 66.3067 41.9805 67.2353 41.9805 68.542C41.9805 69.8487 41.6538 70.7773 41.0005 71.328C40.3472 71.8787 39.4232 72.154 38.2285 72.154C37.5192 72.154 36.9078 72.0467 36.3945 71.832C35.8812 71.608 35.4798 71.258 35.1905 70.782V74.8H34.0705V65.084ZM40.8465 68.878V68.206C40.8465 67.3287 40.5992 66.7033 40.1045 66.33C39.6098 65.9473 38.9145 65.756 38.0185 65.756C37.0945 65.756 36.3898 65.9473 35.9045 66.33C35.4285 66.7127 35.1905 67.338 35.1905 68.206V68.878C35.1905 69.718 35.4378 70.334 35.9325 70.726C36.4272 71.118 37.1225 71.314 38.0185 71.314C38.9145 71.314 39.6098 71.118 40.1045 70.726C40.5992 70.334 40.8465 69.718 40.8465 68.878ZM43.2472 68.542C43.2472 67.2353 43.5925 66.3067 44.2832 65.756C44.9739 65.2053 45.9445 64.93 47.1952 64.93C48.4645 64.93 49.4399 65.2053 50.1212 65.756C50.8119 66.3067 51.1572 67.2353 51.1572 68.542C51.1572 69.8767 50.8119 70.8147 50.1212 71.356C49.4399 71.888 48.4645 72.154 47.1952 72.154C45.9445 72.154 44.9739 71.888 44.2832 71.356C43.5925 70.8147 43.2472 69.8767 43.2472 68.542ZM50.0372 68.878V68.206C50.0372 67.3567 49.7945 66.736 49.3092 66.344C48.8239 65.952 48.1192 65.756 47.1952 65.756C46.2899 65.756 45.5899 65.952 45.0952 66.344C44.6099 66.736 44.3672 67.3567 44.3672 68.206V68.878C44.3672 69.7273 44.6099 70.348 45.0952 70.74C45.5899 71.1227 46.2899 71.314 47.1952 71.314C48.1192 71.314 48.8239 71.1227 49.3092 70.74C49.7945 70.348 50.0372 69.7273 50.0372 68.878ZM52.883 65.084H53.961V66.372C54.241 65.868 54.6423 65.504 55.165 65.28C55.6877 65.0467 56.313 64.93 57.041 64.93C58.2357 64.93 59.1597 65.2053 59.813 65.756C60.4663 66.3067 60.793 67.2353 60.793 68.542C60.793 69.8487 60.4663 70.7773 59.813 71.328C59.1597 71.8787 58.2357 72.154 57.041 72.154C56.3317 72.154 55.7203 72.0467 55.207 71.832C54.6937 71.608 54.2923 71.258 54.003 70.782V74.8H52.883V65.084ZM59.659 68.878V68.206C59.659 67.3287 59.4117 66.7033 58.917 66.33C58.4223 65.9473 57.727 65.756 56.831 65.756C55.907 65.756 55.2023 65.9473 54.717 66.33C54.241 66.7127 54.003 67.338 54.003 68.206V68.878C54.003 69.718 54.2503 70.334 54.745 70.726C55.2397 71.118 55.935 71.314 56.831 71.314C57.727 71.314 58.4223 71.118 58.917 70.726C59.4117 70.334 59.659 69.718 59.659 68.878ZM62.0597 68.542C62.0597 67.2353 62.405 66.3067 63.0957 65.756C63.7864 65.2053 64.757 64.93 66.0077 64.93C67.277 64.93 68.2524 65.2053 68.9337 65.756C69.6244 66.3067 69.9697 67.2353 69.9697 68.542C69.9697 69.8767 69.6244 70.8147 68.9337 71.356C68.2524 71.888 67.277 72.154 66.0077 72.154C64.757 72.154 63.7864 71.888 63.0957 71.356C62.405 70.8147 62.0597 69.8767 62.0597 68.542ZM68.8497 68.878V68.206C68.8497 67.3567 68.607 66.736 68.1217 66.344C67.6364 65.952 66.9317 65.756 66.0077 65.756C65.1024 65.756 64.4024 65.952 63.9077 66.344C63.4224 66.736 63.1797 67.3567 63.1797 68.206V68.878C63.1797 69.7273 63.4224 70.348 63.9077 70.74C64.4024 71.1227 65.1024 71.314 66.0077 71.314C66.9317 71.314 67.6364 71.1227 68.1217 70.74C68.607 70.348 68.8497 69.7273 68.8497 68.878ZM71.2335 68.556C71.2335 67.324 71.5462 66.414 72.1715 65.826C72.8062 65.2287 73.7628 64.93 75.0415 64.93C76.0775 64.93 76.8988 65.1073 77.5055 65.462C78.1122 65.8073 78.4808 66.344 78.6115 67.072H77.4775C77.3282 66.5867 77.0575 66.246 76.6655 66.05C76.2735 65.854 75.7275 65.756 75.0275 65.756C74.1128 65.756 73.4408 65.952 73.0115 66.344C72.5822 66.736 72.3675 67.352 72.3675 68.192V68.906C72.3675 69.7833 72.6008 70.404 73.0675 70.768C73.5342 71.132 74.1875 71.314 75.0275 71.314C75.7555 71.314 76.3108 71.2067 76.6935 70.992C77.0855 70.768 77.3562 70.4553 77.5055 70.054H78.6255C78.4762 70.7353 78.0982 71.258 77.4915 71.622C76.8942 71.9767 76.0728 72.154 75.0275 72.154C73.8235 72.154 72.8902 71.888 72.2275 71.356C71.5648 70.8147 71.2335 69.8813 71.2335 68.556ZM82.1764 65.938H79.1804V65.084H86.2924V65.938H83.2964V72H82.1764V65.938ZM86.8741 70.124C86.8741 69.5173 87.0748 69.0367 87.4761 68.682C87.8868 68.3273 88.6241 68.1267 89.6881 68.08L92.9781 67.954V67.744C92.9781 67.0347 92.7775 66.526 92.3761 66.218C91.9748 65.9007 91.3681 65.742 90.5561 65.742C89.9215 65.742 89.3988 65.84 88.9881 66.036C88.5868 66.2227 88.3301 66.5587 88.2181 67.044H87.0841C87.2055 66.344 87.5508 65.8167 88.1201 65.462C88.6988 65.1073 89.5108 64.93 90.5561 64.93C91.7508 64.93 92.6375 65.154 93.2161 65.602C93.8041 66.05 94.0981 66.764 94.0981 67.744V72H93.0201V70.698C92.7588 71.1647 92.3388 71.524 91.7601 71.776C91.1815 72.028 90.5001 72.154 89.7161 72.154C88.6895 72.154 87.9568 71.972 87.5181 71.608C87.0888 71.2347 86.8741 70.74 86.8741 70.124ZM87.9941 70.166C87.9941 70.5487 88.1481 70.8427 88.4561 71.048C88.7735 71.244 89.2541 71.342 89.8981 71.342C90.3088 71.342 90.7008 71.3047 91.0741 71.23C91.4568 71.146 91.7881 71.0153 92.0681 70.838C92.3481 70.6513 92.5675 70.4087 92.7261 70.11C92.8941 69.8113 92.9781 69.4473 92.9781 69.018V68.682L89.8841 68.808C89.2495 68.8453 88.7735 68.9527 88.4561 69.13C88.1481 69.3073 87.9941 69.6013 87.9941 70.012V70.166ZM95.7198 68.542C95.7198 67.2633 96.0512 66.344 96.7138 65.784C97.3765 65.2147 98.2912 64.93 99.4578 64.93C100.653 64.93 101.577 65.196 102.23 65.728C102.883 66.26 103.21 67.1093 103.21 68.276V68.584H96.8398V68.906C96.8398 69.718 97.0592 70.3293 97.4978 70.74C97.9458 71.1413 98.5992 71.342 99.4578 71.342C100.149 71.342 100.709 71.2393 101.138 71.034C101.577 70.8193 101.871 70.4927 102.02 70.054H103.126C102.921 70.782 102.496 71.314 101.852 71.65C101.217 71.986 100.419 72.154 99.4578 72.154C98.2912 72.154 97.3765 71.874 96.7138 71.314C96.0512 70.754 95.7198 69.83 95.7198 68.542ZM99.4578 65.728C98.7018 65.728 98.0858 65.8913 97.6098 66.218C97.1432 66.5447 96.8912 67.0907 96.8538 67.856H102.104C102.067 67.0907 101.824 66.5447 101.376 66.218C100.937 65.8913 100.298 65.728 99.4578 65.728ZM106.758 65.938H103.762V65.084H110.874V65.938H107.878V72H106.758V65.938ZM115.227 65.084H119.637C120.421 65.084 120.985 65.238 121.331 65.546C121.676 65.854 121.849 66.2507 121.849 66.736C121.849 67.0813 121.769 67.408 121.611 67.716C121.452 68.0147 121.135 68.2247 120.659 68.346C121.219 68.4767 121.601 68.7007 121.807 69.018C122.021 69.326 122.129 69.6573 122.129 70.012C122.129 70.7027 121.937 71.2067 121.555 71.524C121.172 71.8413 120.57 72 119.749 72H115.227V65.084ZM120.729 67.058V66.792C120.729 66.512 120.645 66.288 120.477 66.12C120.309 65.952 119.991 65.868 119.525 65.868H116.347V68.066H119.539C119.996 68.066 120.309 67.968 120.477 67.772C120.645 67.576 120.729 67.338 120.729 67.058ZM121.009 70.138V69.83C121.009 69.494 120.892 69.2373 120.659 69.06C120.425 68.8827 120.061 68.794 119.567 68.794H116.347V71.216H119.567C120.061 71.216 120.425 71.132 120.659 70.964C120.892 70.7867 121.009 70.5113 121.009 70.138ZM127.285 65.084H134.131V72H133.011V65.938H128.405V72H127.285V65.084ZM136.309 65.084H137.387V66.372C137.667 65.868 138.068 65.504 138.591 65.28C139.113 65.0467 139.739 64.93 140.467 64.93C141.661 64.93 142.585 65.2053 143.239 65.756C143.892 66.3067 144.219 67.2353 144.219 68.542C144.219 69.8487 143.892 70.7773 143.239 71.328C142.585 71.8787 141.661 72.154 140.467 72.154C139.757 72.154 139.146 72.0467 138.633 71.832C138.119 71.608 137.718 71.258 137.429 70.782V74.8H136.309V65.084ZM143.085 68.878V68.206C143.085 67.3287 142.837 66.7033 142.343 66.33C141.848 65.9473 141.153 65.756 140.257 65.756C139.333 65.756 138.628 65.9473 138.143 66.33C137.667 66.7127 137.429 67.338 137.429 68.206V68.878C137.429 69.718 137.676 70.334 138.171 70.726C138.665 71.118 139.361 71.314 140.257 71.314C141.153 71.314 141.848 71.118 142.343 70.726C142.837 70.334 143.085 69.718 143.085 68.878ZM145.485 68.542C145.485 67.2633 145.817 66.344 146.479 65.784C147.142 65.2147 148.057 64.93 149.223 64.93C150.418 64.93 151.342 65.196 151.995 65.728C152.649 66.26 152.975 67.1093 152.975 68.276V68.584H146.605V68.906C146.605 69.718 146.825 70.3293 147.263 70.74C147.711 71.1413 148.365 71.342 149.223 71.342C149.914 71.342 150.474 71.2393 150.903 71.034C151.342 70.8193 151.636 70.4927 151.785 70.054H152.891C152.686 70.782 152.261 71.314 151.617 71.65C150.983 71.986 150.185 72.154 149.223 72.154C148.057 72.154 147.142 71.874 146.479 71.314C145.817 70.754 145.485 69.83 145.485 68.542ZM149.223 65.728C148.467 65.728 147.851 65.8913 147.375 66.218C146.909 66.5447 146.657 67.0907 146.619 67.856H151.869C151.832 67.0907 151.589 66.5447 151.141 66.218C150.703 65.8913 150.063 65.728 149.223 65.728ZM153.595 73.96V71.16H154.421C154.683 70.7307 154.874 70.2033 154.995 69.578C155.117 68.9527 155.177 68.2107 155.177 67.352V65.084H161.449V71.146H162.569V73.96H161.533V72H154.617V73.96H153.595ZM160.329 65.938H156.185V67.352C156.185 68.2107 156.125 68.9527 156.003 69.578C155.891 70.194 155.733 70.7167 155.527 71.146H160.329V65.938ZM163.423 68.542C163.423 67.2633 163.754 66.344 164.417 65.784C165.08 65.2147 165.994 64.93 167.161 64.93C168.356 64.93 169.28 65.196 169.933 65.728C170.586 66.26 170.913 67.1093 170.913 68.276V68.584H164.543V68.906C164.543 69.718 164.762 70.3293 165.201 70.74C165.649 71.1413 166.302 71.342 167.161 71.342C167.852 71.342 168.412 71.2393 168.841 71.034C169.28 70.8193 169.574 70.4927 169.723 70.054H170.829C170.624 70.782 170.199 71.314 169.555 71.65C168.92 71.986 168.122 72.154 167.161 72.154C165.994 72.154 165.08 71.874 164.417 71.314C163.754 70.754 163.423 69.83 163.423 68.542ZM167.161 65.728C166.405 65.728 165.789 65.8913 165.313 66.218C164.846 66.5447 164.594 67.0907 164.557 67.856H169.807C169.77 67.0907 169.527 66.5447 169.079 66.218C168.64 65.8913 168.001 65.728 167.161 65.728ZM171.603 72V71.048H171.743C171.976 71.048 172.177 71.0107 172.345 70.936C172.513 70.8613 172.653 70.7167 172.765 70.502C172.877 70.2873 172.961 69.9887 173.017 69.606C173.073 69.214 173.101 68.7053 173.101 68.08V65.084H179.163V72H178.043V65.938H174.123V68.094C174.123 68.8967 174.081 69.5547 173.997 70.068C173.913 70.5813 173.778 70.9827 173.591 71.272C173.404 71.552 173.162 71.7433 172.863 71.846C172.574 71.9487 172.224 72 171.813 72H171.603ZM180.882 70.124C180.882 69.5173 181.083 69.0367 181.484 68.682C181.895 68.3273 182.632 68.1267 183.696 68.08L186.986 67.954V67.744C186.986 67.0347 186.785 66.526 186.384 66.218C185.983 65.9007 185.376 65.742 184.564 65.742C183.929 65.742 183.407 65.84 182.996 66.036C182.595 66.2227 182.338 66.5587 182.226 67.044H181.092C181.213 66.344 181.559 65.8167 182.128 65.462C182.707 65.1073 183.519 64.93 184.564 64.93C185.759 64.93 186.645 65.154 187.224 65.602C187.812 66.05 188.106 66.764 188.106 67.744V72H187.028V70.698C186.767 71.1647 186.347 71.524 185.768 71.776C185.189 72.028 184.508 72.154 183.724 72.154C182.697 72.154 181.965 71.972 181.526 71.608C181.097 71.2347 180.882 70.74 180.882 70.124ZM182.002 70.166C182.002 70.5487 182.156 70.8427 182.464 71.048C182.781 71.244 183.262 71.342 183.906 71.342C184.317 71.342 184.709 71.3047 185.082 71.23C185.465 71.146 185.796 71.0153 186.076 70.838C186.356 70.6513 186.575 70.4087 186.734 70.11C186.902 69.8113 186.986 69.4473 186.986 69.018V68.682L183.892 68.808C183.257 68.8453 182.781 68.9527 182.464 69.13C182.156 69.3073 182.002 69.6013 182.002 70.012V70.166ZM195.734 72L193.088 69.116L190.386 72H189.168L192.43 68.5L189.28 65.084H190.652L193.186 67.8L195.734 65.084H196.952L193.83 68.416L197.092 72H195.734ZM22.63 86.542C22.63 85.2353 22.9753 84.3067 23.666 83.756C24.3567 83.2053 25.3273 82.93 26.578 82.93C27.8473 82.93 28.8227 83.2053 29.504 83.756C30.1947 84.3067 30.54 85.2353 30.54 86.542C30.54 87.8767 30.1947 88.8147 29.504 89.356C28.8227 89.888 27.8473 90.154 26.578 90.154C25.3273 90.154 24.3567 89.888 23.666 89.356C22.9753 88.8147 22.63 87.8767 22.63 86.542ZM29.42 86.878V86.206C29.42 85.3567 29.1773 84.736 28.692 84.344C28.2067 83.952 27.502 83.756 26.578 83.756C25.6727 83.756 24.9727 83.952 24.478 84.344C23.9927 84.736 23.75 85.3567 23.75 86.206V86.878C23.75 87.7273 23.9927 88.348 24.478 88.74C24.9727 89.1227 25.6727 89.314 26.578 89.314C27.502 89.314 28.2067 89.1227 28.692 88.74C29.1773 88.348 29.42 87.7273 29.42 86.878ZM32.2658 83.084H39.1118V90H37.9918V83.938H33.3858V90H32.2658V83.084ZM40.8273 86.542C40.8273 85.2633 41.1586 84.344 41.8213 83.784C42.4839 83.2147 43.3986 82.93 44.5653 82.93C45.7599 82.93 46.6839 83.196 47.3373 83.728C47.9906 84.26 48.3173 85.1093 48.3173 86.276V86.584H41.9473V86.906C41.9473 87.718 42.1666 88.3293 42.6053 88.74C43.0533 89.1413 43.7066 89.342 44.5653 89.342C45.2559 89.342 45.8159 89.2393 46.2453 89.034C46.6839 88.8193 46.9779 88.4927 47.1273 88.054H48.2333C48.0279 88.782 47.6033 89.314 46.9593 89.65C46.3246 89.986 45.5266 90.154 44.5653 90.154C43.3986 90.154 42.4839 89.874 41.8213 89.314C41.1586 88.754 40.8273 87.83 40.8273 86.542ZM44.5653 83.728C43.8093 83.728 43.1933 83.8913 42.7173 84.218C42.2506 84.5447 41.9986 85.0907 41.9613 85.856H47.2113C47.1739 85.0907 46.9313 84.5447 46.4833 84.218C46.0446 83.8913 45.4053 83.728 44.5653 83.728ZM49.9983 83.084H51.0763V84.372C51.3563 83.868 51.7576 83.504 52.2803 83.28C52.8029 83.0467 53.4283 82.93 54.1563 82.93C55.3509 82.93 56.2749 83.2053 56.9283 83.756C57.5816 84.3067 57.9083 85.2353 57.9083 86.542C57.9083 87.8487 57.5816 88.7773 56.9283 89.328C56.2749 89.8787 55.3509 90.154 54.1563 90.154C53.4469 90.154 52.8356 90.0467 52.3223 89.832C51.8089 89.608 51.4076 89.258 51.1183 88.782V92.8H49.9983V83.084ZM56.7743 86.878V86.206C56.7743 85.3287 56.5269 84.7033 56.0323 84.33C55.5376 83.9473 54.8423 83.756 53.9463 83.756C53.0223 83.756 52.3176 83.9473 51.8323 84.33C51.3563 84.7127 51.1183 85.338 51.1183 86.206V86.878C51.1183 87.718 51.3656 88.334 51.8603 88.726C52.3549 89.118 53.0503 89.314 53.9463 89.314C54.8423 89.314 55.5376 89.118 56.0323 88.726C56.5269 88.334 56.7743 87.718 56.7743 86.878ZM59.1749 88.124C59.1749 87.5173 59.3756 87.0367 59.7769 86.682C60.1876 86.3273 60.9249 86.1267 61.9889 86.08L65.2789 85.954V85.744C65.2789 85.0347 65.0783 84.526 64.6769 84.218C64.2756 83.9007 63.6689 83.742 62.8569 83.742C62.2223 83.742 61.6996 83.84 61.2889 84.036C60.8876 84.2227 60.6309 84.5587 60.5189 85.044H59.3849C59.5063 84.344 59.8516 83.8167 60.4209 83.462C60.9996 83.1073 61.8116 82.93 62.8569 82.93C64.0516 82.93 64.9383 83.154 65.5169 83.602C66.1049 84.05 66.3989 84.764 66.3989 85.744V90H65.3209V88.698C65.0596 89.1647 64.6396 89.524 64.0609 89.776C63.4823 90.028 62.8009 90.154 62.0169 90.154C60.9903 90.154 60.2576 89.972 59.8189 89.608C59.3896 89.2347 59.1749 88.74 59.1749 88.124ZM60.2949 88.166C60.2949 88.5487 60.4489 88.8427 60.7569 89.048C61.0743 89.244 61.5549 89.342 62.1989 89.342C62.6096 89.342 63.0016 89.3047 63.3749 89.23C63.7576 89.146 64.0889 89.0153 64.3689 88.838C64.6489 88.6513 64.8683 88.4087 65.0269 88.11C65.1949 87.8113 65.2789 87.4473 65.2789 87.018V86.682L62.1849 86.808C61.5503 86.8453 61.0743 86.9527 60.7569 87.13C60.4489 87.3073 60.2949 87.6013 60.2949 88.012V88.166ZM75.4266 91.96V90H68.4826V83.084H69.6026V89.146H74.2086V83.084H75.3286V89.146H76.4486V91.96H75.4266ZM77.8752 83.084H78.9952V88.796L83.6992 83.084H84.9732V90H83.8672V84.274L79.1632 90H77.8752V83.084ZM86.7101 86.542C86.7101 85.2353 87.0554 84.3067 87.7461 83.756C88.4367 83.2053 89.4074 82.93 90.6581 82.93C91.9274 82.93 92.9027 83.2053 93.5841 83.756C94.2747 84.3067 94.6201 85.2353 94.6201 86.542C94.6201 87.8767 94.2747 88.8147 93.5841 89.356C92.9027 89.888 91.9274 90.154 90.6581 90.154C89.4074 90.154 88.4367 89.888 87.7461 89.356C87.0554 88.8147 86.7101 87.8767 86.7101 86.542ZM93.5001 86.878V86.206C93.5001 85.3567 93.2574 84.736 92.7721 84.344C92.2867 83.952 91.5821 83.756 90.6581 83.756C89.7527 83.756 89.0527 83.952 88.5581 84.344C88.0727 84.736 87.8301 85.3567 87.8301 86.206V86.878C87.8301 87.7273 88.0727 88.348 88.5581 88.74C89.0527 89.1227 89.7527 89.314 90.6581 89.314C91.5821 89.314 92.2867 89.1227 92.7721 88.74C93.2574 88.348 93.5001 87.7273 93.5001 86.878ZM96.3459 83.084H97.4659V86.052H102.212V83.084H103.332V90H102.212V86.92H97.4659V90H96.3459V83.084ZM105.52 83.084H106.64V86.052H111.386V83.084H112.506V90H111.386V86.92H106.64V90H105.52V83.084ZM114.694 90V83.084H115.814V85.562H119.104C119.925 85.562 120.532 85.744 120.924 86.108C121.325 86.472 121.526 87.004 121.526 87.704C121.526 88.432 121.325 88.9967 120.924 89.398C120.532 89.7993 119.925 90 119.104 90H114.694ZM120.406 87.886V87.536C120.406 87.1907 120.294 86.9153 120.07 86.71C119.855 86.4953 119.491 86.388 118.978 86.388H115.814V89.174H118.978C119.491 89.174 119.855 89.062 120.07 88.838C120.294 88.6047 120.406 88.2873 120.406 87.886ZM122.492 83.084H123.612V90H122.492V83.084ZM131.353 90L128.707 87.116L126.005 90H124.787L128.049 86.5L124.899 83.084H126.271L128.805 85.8L131.353 83.084H132.571L129.449 86.416L132.711 90H131.353ZM136.818 86.556C136.818 85.324 137.13 84.414 137.756 83.826C138.39 83.2287 139.347 82.93 140.626 82.93C141.662 82.93 142.483 83.1073 143.09 83.462C143.696 83.8073 144.065 84.344 144.196 85.072H143.062C142.912 84.5867 142.642 84.246 142.25 84.05C141.858 83.854 141.312 83.756 140.612 83.756C139.697 83.756 139.025 83.952 138.596 84.344C138.166 84.736 137.952 85.352 137.952 86.192V86.906C137.952 87.7833 138.185 88.404 138.652 88.768C139.118 89.132 139.772 89.314 140.612 89.314C141.34 89.314 141.895 89.2067 142.278 88.992C142.67 88.768 142.94 88.4553 143.09 88.054H144.21C144.06 88.7353 143.682 89.258 143.076 89.622C142.478 89.9767 141.657 90.154 140.612 90.154C139.408 90.154 138.474 89.888 137.812 89.356C137.149 88.8147 136.818 87.8813 136.818 86.556ZM145.797 83.084H146.917V88.796L151.621 83.084H152.895V90H151.789V84.274L147.085 90H145.797V83.084ZM154.632 86.556C154.632 85.324 154.945 84.414 155.57 83.826C156.205 83.2287 157.161 82.93 158.44 82.93C159.476 82.93 160.297 83.1073 160.904 83.462C161.511 83.8073 161.879 84.344 162.01 85.072H160.876C160.727 84.5867 160.456 84.246 160.064 84.05C159.672 83.854 159.126 83.756 158.426 83.756C157.511 83.756 156.839 83.952 156.41 84.344C155.981 84.736 155.766 85.352 155.766 86.192V86.906C155.766 87.7833 155.999 88.404 156.466 88.768C156.933 89.132 157.586 89.314 158.426 89.314C159.154 89.314 159.709 89.2067 160.092 88.992C160.484 88.768 160.755 88.4553 160.904 88.054H162.024C161.875 88.7353 161.497 89.258 160.89 89.622C160.293 89.9767 159.471 90.154 158.426 90.154C157.222 90.154 156.289 89.888 155.626 89.356C154.963 88.8147 154.632 87.8813 154.632 86.556ZM165.575 83.938H162.579V83.084H169.691V83.938H166.695V90H165.575V83.938ZM170.191 86.542C170.191 85.2633 170.522 84.344 171.185 83.784C171.847 83.2147 172.762 82.93 173.929 82.93C175.123 82.93 176.047 83.196 176.701 83.728C177.354 84.26 177.681 85.1093 177.681 86.276V86.584H171.311V86.906C171.311 87.718 171.53 88.3293 171.969 88.74C172.417 89.1413 173.07 89.342 173.929 89.342C174.619 89.342 175.179 89.2393 175.609 89.034C176.047 88.8193 176.341 88.4927 176.491 88.054H177.597C177.391 88.782 176.967 89.314 176.323 89.65C175.688 89.986 174.89 90.154 173.929 90.154C172.762 90.154 171.847 89.874 171.185 89.314C170.522 88.754 170.191 87.83 170.191 86.542ZM173.929 83.728C173.173 83.728 172.557 83.8913 172.081 84.218C171.614 84.5447 171.362 85.0907 171.325 85.856H176.575C176.537 85.0907 176.295 84.5447 175.847 84.218C175.408 83.8913 174.769 83.728 173.929 83.728ZM183.184 88.964L180.37 83.952V90H179.362V83.084H180.972L183.814 88.124L186.67 83.084H188.252V90H187.146V83.98L184.332 88.964H183.184ZM26.452 98.34H28.104L32.472 108H31.212L29.938 105.158H24.506L23.232 108H22.098L26.452 98.34ZM24.926 104.234H29.518L27.222 99.138L24.926 104.234ZM39.7367 108V103.828C39.7367 103.016 39.536 102.47 39.1347 102.19C38.7427 101.91 38.1594 101.77 37.3847 101.77C36.582 101.77 35.9427 101.929 35.4667 102.246C35 102.563 34.7667 103.109 34.7667 103.884V108H33.6467V101.084H34.7247V102.372C34.958 101.859 35.3407 101.49 35.8727 101.266C36.414 101.042 37.016 100.93 37.6787 100.93C38.668 100.93 39.4427 101.14 40.0027 101.56C40.572 101.98 40.8567 102.675 40.8567 103.646V108H39.7367ZM42.4816 104.584C42.4816 103.277 42.8129 102.344 43.4756 101.784C44.1382 101.215 45.0669 100.93 46.2616 100.93C46.9802 100.93 47.5916 101.037 48.0956 101.252C48.5996 101.457 48.9916 101.793 49.2716 102.26V97.78H50.3916V108H49.3276V106.684C49.0569 107.188 48.6602 107.561 48.1376 107.804C47.6242 108.037 46.9989 108.154 46.2616 108.154C45.0856 108.154 44.1616 107.883 43.4896 107.342C42.8176 106.791 42.4816 105.872 42.4816 104.584ZM49.2716 104.878V104.206C49.2716 103.357 49.0196 102.736 48.5156 102.344C48.0209 101.952 47.3256 101.756 46.4296 101.756C45.5429 101.756 44.8476 101.952 44.3436 102.344C43.8489 102.736 43.6016 103.366 43.6016 104.234V104.92C43.6016 105.751 43.8536 106.357 44.3576 106.74C44.8616 107.123 45.5569 107.314 46.4436 107.314C47.3302 107.314 48.0209 107.118 48.5156 106.726C49.0196 106.334 49.2716 105.718 49.2716 104.878ZM52.5822 101.084H53.6602V102.456C53.8562 101.999 54.1596 101.658 54.5702 101.434C54.9902 101.201 55.4802 101.084 56.0402 101.084H57.1602V102.064H55.9562C55.2282 102.064 54.6682 102.223 54.2762 102.54C53.8936 102.857 53.7022 103.394 53.7022 104.15V108H52.5822V101.084ZM57.7257 104.542C57.7257 103.235 58.071 102.307 58.7617 101.756C59.4524 101.205 60.423 100.93 61.6737 100.93C62.943 100.93 63.9184 101.205 64.5997 101.756C65.2904 102.307 65.6357 103.235 65.6357 104.542C65.6357 105.877 65.2904 106.815 64.5997 107.356C63.9184 107.888 62.943 108.154 61.6737 108.154C60.423 108.154 59.4524 107.888 58.7617 107.356C58.071 106.815 57.7257 105.877 57.7257 104.542ZM64.5157 104.878V104.206C64.5157 103.357 64.273 102.736 63.7877 102.344C63.3024 101.952 62.5977 101.756 61.6737 101.756C60.7684 101.756 60.0684 101.952 59.5737 102.344C59.0884 102.736 58.8457 103.357 58.8457 104.206V104.878C58.8457 105.727 59.0884 106.348 59.5737 106.74C60.0684 107.123 60.7684 107.314 61.6737 107.314C62.5977 107.314 63.3024 107.123 63.7877 106.74C64.273 106.348 64.5157 105.727 64.5157 104.878ZM67.3615 101.084H68.4815V108H67.3615V101.084ZM67.1515 98.816C67.1515 98.592 67.2169 98.4193 67.3475 98.298C67.4875 98.1767 67.6789 98.116 67.9215 98.116C68.1829 98.116 68.3789 98.1767 68.5095 98.298C68.6402 98.4193 68.7055 98.592 68.7055 98.816C68.7055 99.0493 68.6402 99.2267 68.5095 99.348C68.3789 99.4693 68.1829 99.53 67.9215 99.53C67.6789 99.53 67.4875 99.4693 67.3475 99.348C67.2169 99.2267 67.1515 99.0493 67.1515 98.816ZM70.2081 104.584C70.2081 103.277 70.5395 102.344 71.2021 101.784C71.8648 101.215 72.7935 100.93 73.9881 100.93C74.7068 100.93 75.3181 101.037 75.8221 101.252C76.3261 101.457 76.7181 101.793 76.9981 102.26V97.78H78.1181V108H77.0541V106.684C76.7835 107.188 76.3868 107.561 75.8641 107.804C75.3508 108.037 74.7255 108.154 73.9881 108.154C72.8121 108.154 71.8881 107.883 71.2161 107.342C70.5441 106.791 70.2081 105.872 70.2081 104.584ZM76.9981 104.878V104.206C76.9981 103.357 76.7461 102.736 76.2421 102.344C75.7475 101.952 75.0521 101.756 74.1561 101.756C73.2695 101.756 72.5741 101.952 72.0701 102.344C71.5755 102.736 71.3281 103.366 71.3281 104.234V104.92C71.3281 105.751 71.5801 106.357 72.0841 106.74C72.5881 107.123 73.2835 107.314 74.1701 107.314C75.0568 107.314 75.7475 107.118 76.2421 106.726C76.7461 106.334 76.9981 105.718 76.9981 104.878ZM80.0008 109.204C80.2341 109.204 80.4068 109.139 80.5188 109.008C80.6308 108.877 80.6868 108.672 80.6868 108.392V108.154H80.6308C80.3695 108.154 80.1735 108.093 80.0428 107.972C79.9121 107.841 79.8468 107.655 79.8468 107.412C79.8468 107.169 79.9121 106.987 80.0428 106.866C80.1828 106.745 80.3835 106.684 80.6448 106.684C80.9155 106.684 81.1208 106.745 81.2608 106.866C81.4008 106.987 81.4708 107.179 81.4708 107.44V108.308C81.4708 108.868 81.3495 109.269 81.1068 109.512C80.8641 109.764 80.4955 109.89 80.0008 109.89V109.204ZM86.3244 101.084H87.4444V108H86.3244V101.084ZM86.1144 98.816C86.1144 98.592 86.1798 98.4193 86.3104 98.298C86.4504 98.1767 86.6418 98.116 86.8844 98.116C87.1458 98.116 87.3418 98.1767 87.4724 98.298C87.6031 98.4193 87.6684 98.592 87.6684 98.816C87.6684 99.0493 87.6031 99.2267 87.4724 99.348C87.3418 99.4693 87.1458 99.53 86.8844 99.53C86.6418 99.53 86.4504 99.4693 86.3104 99.348C86.1798 99.2267 86.1144 99.0493 86.1144 98.816ZM89.255 103.17C89.255 101.378 89.7077 100.099 90.613 99.334C91.5277 98.5687 92.8717 98.186 94.645 98.186C96.4183 98.186 97.7577 98.5687 98.663 99.334C99.5777 100.099 100.035 101.378 100.035 103.17C100.035 104.934 99.5777 106.208 98.663 106.992C97.7577 107.767 96.4183 108.154 94.645 108.154C92.8717 108.154 91.5277 107.767 90.613 106.992C89.7077 106.208 89.255 104.934 89.255 103.17ZM98.831 103.618V102.652C98.831 101.439 98.481 100.552 97.781 99.992C97.081 99.432 96.0357 99.152 94.645 99.152C93.2543 99.152 92.209 99.432 91.509 99.992C90.809 100.552 90.459 101.439 90.459 102.652V103.618C90.459 104.822 90.809 105.718 91.509 106.306C92.209 106.894 93.2543 107.188 94.645 107.188C96.0357 107.188 97.081 106.894 97.781 106.306C98.481 105.718 98.831 104.822 98.831 103.618ZM101.338 105.424H102.57C102.747 106.124 103.107 106.6 103.648 106.852C104.189 107.095 104.997 107.216 106.07 107.216C107.181 107.216 107.988 107.067 108.492 106.768C108.996 106.469 109.248 106.017 109.248 105.41C109.248 104.589 108.842 104.094 108.03 103.926C107.227 103.749 106.345 103.618 105.384 103.534C104.423 103.441 103.536 103.249 102.724 102.96C101.921 102.671 101.52 101.994 101.52 100.93C101.52 99.9967 101.898 99.306 102.654 98.858C103.419 98.41 104.497 98.186 105.888 98.186C107.251 98.186 108.296 98.396 109.024 98.816C109.752 99.2267 110.167 99.8987 110.27 100.832H109.052C108.959 100.179 108.632 99.7307 108.072 99.488C107.512 99.2453 106.784 99.124 105.888 99.124C104.871 99.124 104.087 99.2593 103.536 99.53C102.985 99.8007 102.71 100.263 102.71 100.916C102.71 101.7 103.111 102.167 103.914 102.316C104.726 102.465 105.613 102.587 106.574 102.68C107.535 102.764 108.417 102.96 109.22 103.268C110.032 103.576 110.438 104.276 110.438 105.368C110.438 106.32 110.088 107.025 109.388 107.482C108.697 107.93 107.591 108.154 106.07 108.154C104.558 108.154 103.429 107.949 102.682 107.538C101.935 107.118 101.487 106.413 101.338 105.424ZM115.569 101.084H116.689V106.796L121.393 101.084H122.667V108H121.561V102.274L116.857 108H115.569V101.084ZM127.458 98.34H128.662L130.916 106.95L133.506 98.34H135.004L137.524 106.908L139.834 98.34H140.898L138.28 108H136.712L134.192 99.446L131.602 108H129.978L127.458 98.34ZM142.229 101.084H143.349V108H142.229V101.084ZM142.019 98.816C142.019 98.592 142.084 98.4193 142.215 98.298C142.355 98.1767 142.546 98.116 142.789 98.116C143.05 98.116 143.246 98.1767 143.377 98.298C143.507 98.4193 143.573 98.592 143.573 98.816C143.573 99.0493 143.507 99.2267 143.377 99.348C143.246 99.4693 143.05 99.53 142.789 99.53C142.546 99.53 142.355 99.4693 142.215 99.348C142.084 99.2267 142.019 99.0493 142.019 98.816ZM151.627 108V103.828C151.627 103.016 151.427 102.47 151.025 102.19C150.633 101.91 150.05 101.77 149.275 101.77C148.473 101.77 147.833 101.929 147.357 102.246C146.891 102.563 146.657 103.109 146.657 103.884V108H145.537V101.084H146.615V102.372C146.849 101.859 147.231 101.49 147.763 101.266C148.305 101.042 148.907 100.93 149.569 100.93C150.559 100.93 151.333 101.14 151.893 101.56C152.463 101.98 152.747 102.675 152.747 103.646V108H151.627ZM154.372 104.584C154.372 103.277 154.704 102.344 155.366 101.784C156.029 101.215 156.958 100.93 158.152 100.93C158.871 100.93 159.482 101.037 159.986 101.252C160.49 101.457 160.882 101.793 161.162 102.26V97.78H162.282V108H161.218V106.684C160.948 107.188 160.551 107.561 160.028 107.804C159.515 108.037 158.89 108.154 158.152 108.154C156.976 108.154 156.052 107.883 155.38 107.342C154.708 106.791 154.372 105.872 154.372 104.584ZM161.162 104.878V104.206C161.162 103.357 160.91 102.736 160.406 102.344C159.912 101.952 159.216 101.756 158.32 101.756C157.434 101.756 156.738 101.952 156.234 102.344C155.74 102.736 155.492 103.366 155.492 104.234V104.92C155.492 105.751 155.744 106.357 156.248 106.74C156.752 107.123 157.448 107.314 158.334 107.314C159.221 107.314 159.912 107.118 160.406 106.726C160.91 106.334 161.162 105.718 161.162 104.878ZM164.011 104.542C164.011 103.235 164.356 102.307 165.047 101.756C165.738 101.205 166.708 100.93 167.959 100.93C169.228 100.93 170.204 101.205 170.885 101.756C171.576 102.307 171.921 103.235 171.921 104.542C171.921 105.877 171.576 106.815 170.885 107.356C170.204 107.888 169.228 108.154 167.959 108.154C166.708 108.154 165.738 107.888 165.047 107.356C164.356 106.815 164.011 105.877 164.011 104.542ZM170.801 104.878V104.206C170.801 103.357 170.558 102.736 170.073 102.344C169.588 101.952 168.883 101.756 167.959 101.756C167.054 101.756 166.354 101.952 165.859 102.344C165.374 102.736 165.131 103.357 165.131 104.206V104.878C165.131 105.727 165.374 106.348 165.859 106.74C166.354 107.123 167.054 107.314 167.959 107.314C168.883 107.314 169.588 107.123 170.073 106.74C170.558 106.348 170.801 105.727 170.801 104.878ZM175.146 108L172.654 101.084H173.746L175.916 107.118L177.96 101.084H179.29L181.362 107.104L183.504 101.084H184.498L182.02 108H180.634L178.562 101.966L176.532 108H175.146ZM185.173 105.9H186.293C186.358 106.451 186.601 106.829 187.021 107.034C187.45 107.23 188.043 107.328 188.799 107.328C189.611 107.328 190.217 107.23 190.619 107.034C191.029 106.838 191.235 106.516 191.235 106.068C191.235 105.527 190.927 105.205 190.311 105.102C189.695 104.999 189.018 104.92 188.281 104.864C187.553 104.799 186.881 104.659 186.265 104.444C185.649 104.22 185.341 103.716 185.341 102.932C185.341 102.269 185.635 101.765 186.223 101.42C186.811 101.075 187.646 100.902 188.729 100.902C189.783 100.902 190.595 101.07 191.165 101.406C191.743 101.733 192.065 102.246 192.131 102.946H190.997C190.95 102.461 190.712 102.134 190.283 101.966C189.863 101.789 189.345 101.7 188.729 101.7C188.019 101.7 187.459 101.798 187.049 101.994C186.647 102.181 186.447 102.484 186.447 102.904C186.447 103.427 186.755 103.739 187.371 103.842C187.987 103.935 188.659 104.015 189.387 104.08C190.115 104.136 190.787 104.281 191.403 104.514C192.019 104.747 192.327 105.256 192.327 106.04C192.327 106.777 192.014 107.309 191.389 107.636C190.773 107.963 189.909 108.126 188.799 108.126C187.66 108.126 186.787 107.953 186.181 107.608C185.583 107.253 185.247 106.684 185.173 105.9ZM196.626 99.81L198.838 98.34H200.042V108H198.838V99.446L196.626 100.93V99.81ZM201.657 99.81L203.869 98.34H205.073V108H203.869V99.446L201.657 100.93V99.81ZM207.038 107.412C207.038 107.169 207.108 106.987 207.248 106.866C207.388 106.745 207.589 106.684 207.85 106.684C208.121 106.684 208.326 106.745 208.466 106.866C208.606 106.987 208.676 107.169 208.676 107.412C208.676 107.664 208.606 107.851 208.466 107.972C208.326 108.093 208.121 108.154 207.85 108.154C207.589 108.154 207.388 108.093 207.248 107.972C207.108 107.851 207.038 107.664 207.038 107.412Z" fill="white"/>
<path d="M27.808 31.248V32.544H34.264V31.248H32.992V28.656H31.696V26.088H30.4V28.656H29.104V31.248H27.808ZM25.24 36.408V39H22.648V36.408H23.944V33.84H25.24V31.248H26.512V28.656H27.808V26.088H29.104V23.496H30.4V22.2H31.696V23.496H32.992V26.088H34.288V28.656H35.56V31.248H36.856V33.84H38.152V36.408H39.448V39H36.856V36.408H35.56V35.136H26.536V36.408H25.24ZM44.6298 29.952V31.272H43.3098V35.112H44.6298V36.432H49.7898V35.112H51.0618V31.272H49.7898V29.952H44.6298ZM44.6298 37.728H43.3098V42.888H40.7418V27.336H43.3098V28.656H44.6298V27.336H51.0858V28.656H52.3578V29.952H53.6537V36.408H52.3578V37.728H51.0858V39.024H44.6298V37.728ZM63.9689 29.928H58.8089V31.248H63.9689V29.928ZM57.5129 33.84V35.112H58.8089V36.408H63.9689V35.112H67.8569V36.408H66.5609V37.704H65.2649V39H57.5369V37.704H56.2409V36.408H54.9449V29.952H56.2409V28.656H57.5369V27.384H65.2649V28.656H66.5609V29.952H67.8569V33.84H57.5129ZM74.332 33.84V35.136H71.74V36.408H75.628V35.112H78.196V33.84H74.332ZM70.444 37.704H69.148V33.84H70.444V32.544H73.036V31.248H78.196V29.952H71.74V31.248H69.148V28.656H70.444V27.36H79.468V28.656H80.764V36.408H82.06V39H79.492V37.704H76.924V39H70.444V37.704ZM89.8071 29.952V36.408H88.5111V37.704H87.2151V39H83.3511V36.408H85.9191V35.112H87.2151V27.36H97.5351V39H94.9911V29.952H89.8071Z" fill="white"/>
</svg>
