<svg width="237" height="282" viewBox="0 0 237 282" fill="none" xmlns="http://www.w3.org/2000/svg">
<rect x="2.5" y="2.5" width="232" height="277" fill="#161616" stroke="white" stroke-width="5"/>
<path d="M23.204 87.34H31.842V97H30.652V88.32H24.394V97H23.204V87.34ZM33.5948 93.542C33.5948 92.2353 33.9402 91.3067 34.6308 90.756C35.3215 90.2053 36.2922 89.93 37.5428 89.93C38.8122 89.93 39.7875 90.2053 40.4688 90.756C41.1595 91.3067 41.5048 92.2353 41.5048 93.542C41.5048 94.8767 41.1595 95.8147 40.4688 96.356C39.7875 96.888 38.8122 97.154 37.5428 97.154C36.2922 97.154 35.3215 96.888 34.6308 96.356C33.9402 95.8147 33.5948 94.8767 33.5948 93.542ZM40.3848 93.878V93.206C40.3848 92.3567 40.1422 91.736 39.6568 91.344C39.1715 90.952 38.4668 90.756 37.5428 90.756C36.6375 90.756 35.9375 90.952 35.4428 91.344C34.9575 91.736 34.7148 92.3567 34.7148 93.206V93.878C34.7148 94.7273 34.9575 95.348 35.4428 95.74C35.9375 96.1227 36.6375 96.314 37.5428 96.314C38.4668 96.314 39.1715 96.1227 39.6568 95.74C40.1422 95.348 40.3848 94.7273 40.3848 93.878ZM43.2307 90.084H47.6407C48.4247 90.084 48.9893 90.238 49.3347 90.546C49.68 90.854 49.8527 91.2507 49.8527 91.736C49.8527 92.0813 49.7733 92.408 49.6147 92.716C49.456 93.0147 49.1387 93.2247 48.6627 93.346C49.2227 93.4767 49.6053 93.7007 49.8107 94.018C50.0253 94.326 50.1327 94.6573 50.1327 95.012C50.1327 95.7027 49.9413 96.2067 49.5587 96.524C49.176 96.8413 48.574 97 47.7527 97H43.2307V90.084ZM48.7327 92.058V91.792C48.7327 91.512 48.6487 91.288 48.4807 91.12C48.3127 90.952 47.9953 90.868 47.5287 90.868H44.3507V93.066H47.5427C48 93.066 48.3127 92.968 48.4807 92.772C48.6487 92.576 48.7327 92.338 48.7327 92.058ZM49.0127 95.138V94.83C49.0127 94.494 48.896 94.2373 48.6627 94.06C48.4293 93.8827 48.0653 93.794 47.5707 93.794H44.3507V96.216H47.5707C48.0653 96.216 48.4293 96.132 48.6627 95.964C48.896 95.7867 49.0127 95.5113 49.0127 95.138ZM51.423 93.542C51.423 92.2633 51.7543 91.344 52.417 90.784C53.0796 90.2147 53.9943 89.93 55.161 89.93C56.3556 89.93 57.2796 90.196 57.933 90.728C58.5863 91.26 58.913 92.1093 58.913 93.276V93.584H52.543V93.906C52.543 94.718 52.7623 95.3293 53.201 95.74C53.649 96.1413 54.3023 96.342 55.161 96.342C55.8516 96.342 56.4116 96.2393 56.841 96.034C57.2796 95.8193 57.5736 95.4927 57.723 95.054H58.829C58.6236 95.782 58.199 96.314 57.555 96.65C56.9203 96.986 56.1223 97.154 55.161 97.154C53.9943 97.154 53.0796 96.874 52.417 96.314C51.7543 95.754 51.423 94.83 51.423 93.542ZM55.161 90.728C54.405 90.728 53.789 90.8913 53.313 91.218C52.8463 91.5447 52.5943 92.0907 52.557 92.856H57.807C57.7696 92.0907 57.527 91.5447 57.079 91.218C56.6403 90.8913 56.001 90.728 55.161 90.728ZM60.594 90.084H61.672V91.372C61.952 90.868 62.3533 90.504 62.876 90.28C63.3986 90.0467 64.024 89.93 64.752 89.93C65.9466 89.93 66.8706 90.2053 67.524 90.756C68.1773 91.3067 68.504 92.2353 68.504 93.542C68.504 94.8487 68.1773 95.7773 67.524 96.328C66.8706 96.8787 65.9466 97.154 64.752 97.154C64.0426 97.154 63.4313 97.0467 62.918 96.832C62.4046 96.608 62.0033 96.258 61.714 95.782V99.8H60.594V90.084ZM67.37 93.878V93.206C67.37 92.3287 67.1226 91.7033 66.628 91.33C66.1333 90.9473 65.438 90.756 64.542 90.756C63.618 90.756 62.9133 90.9473 62.428 91.33C61.952 91.7127 61.714 92.338 61.714 93.206V93.878C61.714 94.718 61.9613 95.334 62.456 95.726C62.9506 96.118 63.646 96.314 64.542 96.314C65.438 96.314 66.1333 96.118 66.628 95.726C67.1226 95.334 67.37 94.718 67.37 93.878ZM75.4075 97L72.7615 94.116L70.0595 97H68.8415L72.1035 93.5L68.9535 90.084H70.3255L72.8595 92.8L75.4075 90.084H76.6255L73.5035 93.416L76.7655 97H75.4075ZM77.9299 90.084H79.0499V93.052H83.7959V90.084H84.9159V97H83.7959V93.92H79.0499V97H77.9299V90.084ZM86.6417 93.542C86.6417 92.2353 86.9871 91.3067 87.6777 90.756C88.3684 90.2053 89.3391 89.93 90.5897 89.93C91.8591 89.93 92.8344 90.2053 93.5157 90.756C94.2064 91.3067 94.5517 92.2353 94.5517 93.542C94.5517 94.8767 94.2064 95.8147 93.5157 96.356C92.8344 96.888 91.8591 97.154 90.5897 97.154C89.3391 97.154 88.3684 96.888 87.6777 96.356C86.9871 95.8147 86.6417 94.8767 86.6417 93.542ZM93.4317 93.878V93.206C93.4317 92.3567 93.1891 91.736 92.7037 91.344C92.2184 90.952 91.5137 90.756 90.5897 90.756C89.6844 90.756 88.9844 90.952 88.4897 91.344C88.0044 91.736 87.7617 92.3567 87.7617 93.206V93.878C87.7617 94.7273 88.0044 95.348 88.4897 95.74C88.9844 96.1227 89.6844 96.314 90.5897 96.314C91.5137 96.314 92.2184 96.1227 92.7037 95.74C93.1891 95.348 93.4317 94.7273 93.4317 93.878ZM95.8155 93.556C95.8155 92.324 96.1282 91.414 96.7535 90.826C97.3882 90.2287 98.3449 89.93 99.6235 89.93C100.66 89.93 101.481 90.1073 102.088 90.462C102.694 90.8073 103.063 91.344 103.194 92.072H102.06C101.91 91.5867 101.64 91.246 101.248 91.05C100.856 90.854 100.31 90.756 99.6095 90.756C98.6949 90.756 98.0229 90.952 97.5935 91.344C97.1642 91.736 96.9495 92.352 96.9495 93.192V93.906C96.9495 94.7833 97.1829 95.404 97.6495 95.768C98.1162 96.132 98.7695 96.314 99.6095 96.314C100.338 96.314 100.893 96.2067 101.276 95.992C101.668 95.768 101.938 95.4553 102.088 95.054H103.208C103.058 95.7353 102.68 96.258 102.074 96.622C101.476 96.9767 100.655 97.154 99.6095 97.154C98.4055 97.154 97.4722 96.888 96.8095 96.356C96.1469 95.8147 95.8155 94.8813 95.8155 93.556ZM106.758 90.938H103.762V90.084H110.874V90.938H107.878V97H106.758V90.938ZM112.164 97V90.084H113.284V92.562H116.574C117.396 92.562 118.002 92.744 118.394 93.108C118.796 93.472 118.996 94.004 118.996 94.704C118.996 95.432 118.796 95.9967 118.394 96.398C118.002 96.7993 117.396 97 116.574 97H112.164ZM117.876 94.886V94.536C117.876 94.1907 117.764 93.9153 117.54 93.71C117.326 93.4953 116.962 93.388 116.448 93.388H113.284V96.174H116.448C116.962 96.174 117.326 96.062 117.54 95.838C117.764 95.6047 117.876 95.2873 117.876 94.886ZM123.31 93.556C123.31 92.324 123.622 91.414 124.248 90.826C124.882 90.2287 125.839 89.93 127.118 89.93C128.154 89.93 128.975 90.1073 129.582 90.462C130.188 90.8073 130.557 91.344 130.688 92.072H129.554C129.404 91.5867 129.134 91.246 128.742 91.05C128.35 90.854 127.804 90.756 127.104 90.756C126.189 90.756 125.517 90.952 125.088 91.344C124.658 91.736 124.444 92.352 124.444 93.192V93.906C124.444 94.7833 124.677 95.404 125.144 95.768C125.61 96.132 126.264 96.314 127.104 96.314C127.832 96.314 128.387 96.2067 128.77 95.992C129.162 95.768 129.432 95.4553 129.582 95.054H130.702C130.552 95.7353 130.174 96.258 129.568 96.622C128.97 96.9767 128.149 97.154 127.104 97.154C125.9 97.154 124.966 96.888 124.304 96.356C123.641 95.8147 123.31 94.8813 123.31 93.556ZM131.827 93.542C131.827 92.2353 132.173 91.3067 132.863 90.756C133.554 90.2053 134.525 89.93 135.775 89.93C137.045 89.93 138.02 90.2053 138.701 90.756C139.392 91.3067 139.737 92.2353 139.737 93.542C139.737 94.8767 139.392 95.8147 138.701 96.356C138.02 96.888 137.045 97.154 135.775 97.154C134.525 97.154 133.554 96.888 132.863 96.356C132.173 95.8147 131.827 94.8767 131.827 93.542ZM138.617 93.878V93.206C138.617 92.3567 138.375 91.736 137.889 91.344C137.404 90.952 136.699 90.756 135.775 90.756C134.87 90.756 134.17 90.952 133.675 91.344C133.19 91.736 132.947 92.3567 132.947 93.206V93.878C132.947 94.7273 133.19 95.348 133.675 95.74C134.17 96.1227 134.87 96.314 135.775 96.314C136.699 96.314 137.404 96.1227 137.889 95.74C138.375 95.348 138.617 94.7273 138.617 93.878ZM141.001 93.556C141.001 92.324 141.314 91.414 141.939 90.826C142.574 90.2287 143.53 89.93 144.809 89.93C145.845 89.93 146.666 90.1073 147.273 90.462C147.88 90.8073 148.248 91.344 148.379 92.072H147.245C147.096 91.5867 146.825 91.246 146.433 91.05C146.041 90.854 145.495 90.756 144.795 90.756C143.88 90.756 143.208 90.952 142.779 91.344C142.35 91.736 142.135 92.352 142.135 93.192V93.906C142.135 94.7833 142.368 95.404 142.835 95.768C143.302 96.132 143.955 96.314 144.795 96.314C145.523 96.314 146.078 96.2067 146.461 95.992C146.853 95.768 147.124 95.4553 147.273 95.054H148.393C148.244 95.7353 147.866 96.258 147.259 96.622C146.662 96.9767 145.84 97.154 144.795 97.154C143.591 97.154 142.658 96.888 141.995 96.356C141.332 95.8147 141.001 94.8813 141.001 93.556ZM151.944 90.938H148.948V90.084H156.06V90.938H153.064V97H151.944V90.938ZM156.56 93.542C156.56 92.2353 156.905 91.3067 157.596 90.756C158.286 90.2053 159.257 89.93 160.508 89.93C161.777 89.93 162.752 90.2053 163.434 90.756C164.124 91.3067 164.47 92.2353 164.47 93.542C164.47 94.8767 164.124 95.8147 163.434 96.356C162.752 96.888 161.777 97.154 160.508 97.154C159.257 97.154 158.286 96.888 157.596 96.356C156.905 95.8147 156.56 94.8767 156.56 93.542ZM163.35 93.878V93.206C163.35 92.3567 163.107 91.736 162.622 91.344C162.136 90.952 161.432 90.756 160.508 90.756C159.602 90.756 158.902 90.952 158.408 91.344C157.922 91.736 157.68 92.3567 157.68 93.206V93.878C157.68 94.7273 157.922 95.348 158.408 95.74C158.902 96.1227 159.602 96.314 160.508 96.314C161.432 96.314 162.136 96.1227 162.622 95.74C163.107 95.348 163.35 94.7273 163.35 93.878ZM166.196 90.084H167.316V95.796L172.02 90.084H173.294V97H172.188V91.274L167.484 97H166.196V90.084ZM177.592 90.938H174.596V90.084H181.708V90.938H178.712V97H177.592V90.938ZM23.092 108.084H24.212V113.796L28.916 108.084H30.19V115H29.084V109.274L24.38 115H23.092V108.084ZM31.7309 113.026H32.8649C32.9022 113.493 33.1309 113.833 33.5509 114.048C33.9709 114.253 34.5635 114.356 35.3289 114.356C36.1222 114.356 36.7149 114.263 37.1069 114.076C37.5082 113.889 37.7089 113.572 37.7089 113.124V112.9C37.7089 112.527 37.5455 112.247 37.2189 112.06C36.9015 111.873 36.4162 111.78 35.7629 111.78H34.1109V110.996H35.7349C36.3789 110.996 36.8315 110.912 37.0929 110.744C37.3635 110.567 37.4989 110.31 37.4989 109.974V109.722C37.4989 109.377 37.3262 109.125 36.9809 108.966C36.6355 108.807 36.0849 108.728 35.3289 108.728C34.5822 108.728 34.0175 108.821 33.6349 109.008C33.2522 109.185 33.0235 109.475 32.9489 109.876H31.8289C31.9035 109.204 32.2489 108.714 32.8649 108.406C33.4809 108.089 34.3022 107.93 35.3289 107.93C36.4209 107.93 37.2422 108.084 37.7929 108.392C38.3529 108.691 38.6329 109.157 38.6329 109.792C38.6329 110.137 38.5349 110.45 38.3389 110.73C38.1522 111.01 37.7789 111.211 37.2189 111.332C37.7509 111.453 38.1522 111.659 38.4229 111.948C38.6935 112.228 38.8289 112.583 38.8289 113.012C38.8289 113.749 38.5349 114.291 37.9469 114.636C37.3682 114.981 36.4955 115.154 35.3289 115.154C34.2835 115.154 33.4342 114.991 32.7809 114.664C32.1369 114.337 31.7869 113.791 31.7309 113.026ZM43.9279 108.084H50.7739V115H49.6539V108.938H45.0479V115H43.9279V108.084ZM52.9514 108.084H54.0714V113.796L58.7754 108.084H60.0494V115H58.9434V109.274L54.2394 115H52.9514V108.084ZM62.2483 108.084H63.3683V111.038H64.6283L67.7083 108.084H69.0383L65.5803 111.388L69.4023 115H67.9323L64.6703 111.906H63.3683V115H62.2483V108.084ZM69.5245 111.556C69.5245 110.324 69.8372 109.414 70.4625 108.826C71.0972 108.229 72.0539 107.93 73.3325 107.93C74.3685 107.93 75.1899 108.107 75.7965 108.462C76.4032 108.807 76.7719 109.344 76.9025 110.072H75.7685C75.6192 109.587 75.3485 109.246 74.9565 109.05C74.5645 108.854 74.0185 108.756 73.3185 108.756C72.4039 108.756 71.7319 108.952 71.3025 109.344C70.8732 109.736 70.6585 110.352 70.6585 111.192V111.906C70.6585 112.783 70.8919 113.404 71.3585 113.768C71.8252 114.132 72.4785 114.314 73.3185 114.314C74.0465 114.314 74.6019 114.207 74.9845 113.992C75.3765 113.768 75.6472 113.455 75.7965 113.054H76.9165C76.7672 113.735 76.3892 114.258 75.7825 114.622C75.1852 114.977 74.3639 115.154 73.3185 115.154C72.1145 115.154 71.1812 114.888 70.5185 114.356C69.8559 113.815 69.5245 112.881 69.5245 111.556ZM78.0421 111.542C78.0421 110.263 78.3734 109.344 79.0361 108.784C79.6988 108.215 80.6134 107.93 81.7801 107.93C82.9748 107.93 83.8988 108.196 84.5521 108.728C85.2054 109.26 85.5321 110.109 85.5321 111.276V111.584H79.1621V111.906C79.1621 112.718 79.3814 113.329 79.8201 113.74C80.2681 114.141 80.9214 114.342 81.7801 114.342C82.4708 114.342 83.0308 114.239 83.4601 114.034C83.8988 113.819 84.1928 113.493 84.3421 113.054H85.4481C85.2428 113.782 84.8181 114.314 84.1741 114.65C83.5394 114.986 82.7414 115.154 81.7801 115.154C80.6134 115.154 79.6988 114.874 79.0361 114.314C78.3734 113.754 78.0421 112.83 78.0421 111.542ZM81.7801 108.728C81.0241 108.728 80.4081 108.891 79.9321 109.218C79.4654 109.545 79.2134 110.091 79.1761 110.856H84.4261C84.3888 110.091 84.1461 109.545 83.6981 109.218C83.2594 108.891 82.6201 108.728 81.7801 108.728ZM86.222 115V114.048H86.362C86.5954 114.048 86.796 114.011 86.964 113.936C87.132 113.861 87.272 113.717 87.384 113.502C87.496 113.287 87.58 112.989 87.636 112.606C87.692 112.214 87.72 111.705 87.72 111.08V108.084H93.782V115H92.662V108.938H88.742V111.094C88.742 111.897 88.7 112.555 88.616 113.068C88.532 113.581 88.3967 113.983 88.21 114.272C88.0234 114.552 87.7807 114.743 87.482 114.846C87.1927 114.949 86.8427 115 86.432 115H86.222ZM95.5011 111.542C95.5011 110.263 95.8324 109.344 96.4951 108.784C97.1578 108.215 98.0724 107.93 99.2391 107.93C100.434 107.93 101.358 108.196 102.011 108.728C102.664 109.26 102.991 110.109 102.991 111.276V111.584H96.6211V111.906C96.6211 112.718 96.8404 113.329 97.2791 113.74C97.7271 114.141 98.3804 114.342 99.2391 114.342C99.9298 114.342 100.49 114.239 100.919 114.034C101.358 113.819 101.652 113.493 101.801 113.054H102.907C102.702 113.782 102.277 114.314 101.633 114.65C100.998 114.986 100.2 115.154 99.2391 115.154C98.0724 115.154 97.1578 114.874 96.4951 114.314C95.8324 113.754 95.5011 112.83 95.5011 111.542ZM99.2391 108.728C98.4831 108.728 97.8671 108.891 97.3911 109.218C96.9244 109.545 96.6724 110.091 96.6351 110.856H101.885C101.848 110.091 101.605 109.545 101.157 109.218C100.718 108.891 100.079 108.728 99.2391 108.728ZM105.848 104.738H106.856C106.856 105.251 106.963 105.643 107.178 105.914C107.393 106.175 107.738 106.306 108.214 106.306C108.671 106.306 109.012 106.175 109.236 105.914C109.46 105.643 109.572 105.251 109.572 104.738H110.566C110.566 105.494 110.361 106.068 109.95 106.46C109.549 106.852 108.97 107.048 108.214 107.048C107.458 107.048 106.875 106.857 106.464 106.474C106.063 106.082 105.857 105.503 105.848 104.738ZM104.672 108.084H105.792V113.936L110.426 108.084H111.77V115H110.65V109.148L106.016 115H104.672V108.084ZM113.661 116.204C113.894 116.204 114.067 116.139 114.179 116.008C114.291 115.877 114.347 115.672 114.347 115.392V115.154H114.291C114.03 115.154 113.834 115.093 113.703 114.972C113.572 114.841 113.507 114.655 113.507 114.412C113.507 114.169 113.572 113.987 113.703 113.866C113.843 113.745 114.044 113.684 114.305 113.684C114.576 113.684 114.781 113.745 114.921 113.866C115.061 113.987 115.131 114.179 115.131 114.44V115.308C115.131 115.868 115.01 116.269 114.767 116.512C114.524 116.764 114.156 116.89 113.661 116.89V116.204ZM119.985 108.084H121.105V111.038H122.365L125.445 108.084H126.775L123.317 111.388L127.139 115H125.669L122.407 111.906H121.105V115H119.985V108.084ZM127.261 111.542C127.261 110.235 127.606 109.307 128.297 108.756C128.988 108.205 129.958 107.93 131.209 107.93C132.478 107.93 133.454 108.205 134.135 108.756C134.826 109.307 135.171 110.235 135.171 111.542C135.171 112.877 134.826 113.815 134.135 114.356C133.454 114.888 132.478 115.154 131.209 115.154C129.958 115.154 128.988 114.888 128.297 114.356C127.606 113.815 127.261 112.877 127.261 111.542ZM134.051 111.878V111.206C134.051 110.357 133.808 109.736 133.323 109.344C132.838 108.952 132.133 108.756 131.209 108.756C130.304 108.756 129.604 108.952 129.109 109.344C128.624 109.736 128.381 110.357 128.381 111.206V111.878C128.381 112.727 128.624 113.348 129.109 113.74C129.604 114.123 130.304 114.314 131.209 114.314C132.133 114.314 132.838 114.123 133.323 113.74C133.808 113.348 134.051 112.727 134.051 111.878ZM138.682 108.938H135.686V108.084H142.798V108.938H139.802V115H138.682V108.938ZM143.298 111.542C143.298 110.235 143.643 109.307 144.334 108.756C145.025 108.205 145.995 107.93 147.246 107.93C148.515 107.93 149.491 108.205 150.172 108.756C150.863 109.307 151.208 110.235 151.208 111.542C151.208 112.877 150.863 113.815 150.172 114.356C149.491 114.888 148.515 115.154 147.246 115.154C145.995 115.154 145.025 114.888 144.334 114.356C143.643 113.815 143.298 112.877 143.298 111.542ZM150.088 111.878V111.206C150.088 110.357 149.845 109.736 149.36 109.344C148.875 108.952 148.17 108.756 147.246 108.756C146.341 108.756 145.641 108.952 145.146 109.344C144.661 109.736 144.418 110.357 144.418 111.206V111.878C144.418 112.727 144.661 113.348 145.146 113.74C145.641 114.123 146.341 114.314 147.246 114.314C148.17 114.314 148.875 114.123 149.36 113.74C149.845 113.348 150.088 112.727 150.088 111.878ZM152.934 108.084H154.012V109.372C154.292 108.868 154.693 108.504 155.216 108.28C155.738 108.047 156.364 107.93 157.092 107.93C158.286 107.93 159.21 108.205 159.864 108.756C160.517 109.307 160.844 110.235 160.844 111.542C160.844 112.849 160.517 113.777 159.864 114.328C159.21 114.879 158.286 115.154 157.092 115.154C156.382 115.154 155.771 115.047 155.258 114.832C154.744 114.608 154.343 114.258 154.054 113.782V117.8H152.934V108.084ZM159.71 111.878V111.206C159.71 110.329 159.462 109.703 158.968 109.33C158.473 108.947 157.778 108.756 156.882 108.756C155.958 108.756 155.253 108.947 154.768 109.33C154.292 109.713 154.054 110.338 154.054 111.206V111.878C154.054 112.718 154.301 113.334 154.796 113.726C155.29 114.118 155.986 114.314 156.882 114.314C157.778 114.314 158.473 114.118 158.968 113.726C159.462 113.334 159.71 112.718 159.71 111.878ZM162.572 115V108.084H163.692V110.562H166.982C167.804 110.562 168.41 110.744 168.802 111.108C169.204 111.472 169.404 112.004 169.404 112.704C169.404 113.432 169.204 113.997 168.802 114.398C168.41 114.799 167.804 115 166.982 115H162.572ZM168.284 112.886V112.536C168.284 112.191 168.172 111.915 167.948 111.71C167.734 111.495 167.37 111.388 166.856 111.388H163.692V114.174H166.856C167.37 114.174 167.734 114.062 167.948 113.838C168.172 113.605 168.284 113.287 168.284 112.886ZM170.37 108.084H171.49V115H170.37V108.084ZM173.226 111.542C173.226 110.263 173.557 109.344 174.22 108.784C174.882 108.215 175.797 107.93 176.964 107.93C178.158 107.93 179.082 108.196 179.736 108.728C180.389 109.26 180.716 110.109 180.716 111.276V111.584H174.346V111.906C174.346 112.718 174.565 113.329 175.004 113.74C175.452 114.141 176.105 114.342 176.964 114.342C177.654 114.342 178.214 114.239 178.644 114.034C179.082 113.819 179.376 113.493 179.526 113.054H180.632C180.426 113.782 180.002 114.314 179.358 114.65C178.723 114.986 177.925 115.154 176.964 115.154C175.797 115.154 174.882 114.874 174.22 114.314C173.557 113.754 173.226 112.83 173.226 111.542ZM176.964 108.728C176.208 108.728 175.592 108.891 175.116 109.218C174.649 109.545 174.397 110.091 174.36 110.856H179.61C179.572 110.091 179.33 109.545 178.882 109.218C178.443 108.891 177.804 108.728 176.964 108.728ZM23.092 126.084H29.938V133H28.818V126.938H24.212V133H23.092V126.084ZM32.1154 126.084H33.1934V127.372C33.4734 126.868 33.8748 126.504 34.3974 126.28C34.9201 126.047 35.5454 125.93 36.2734 125.93C37.4681 125.93 38.3921 126.205 39.0454 126.756C39.6988 127.307 40.0254 128.235 40.0254 129.542C40.0254 130.849 39.6988 131.777 39.0454 132.328C38.3921 132.879 37.4681 133.154 36.2734 133.154C35.5641 133.154 34.9528 133.047 34.4394 132.832C33.9261 132.608 33.5248 132.258 33.2354 131.782V135.8H32.1154V126.084ZM38.8914 129.878V129.206C38.8914 128.329 38.6441 127.703 38.1494 127.33C37.6548 126.947 36.9594 126.756 36.0634 126.756C35.1394 126.756 34.4348 126.947 33.9494 127.33C33.4734 127.713 33.2354 128.338 33.2354 129.206V129.878C33.2354 130.718 33.4828 131.334 33.9774 131.726C34.4721 132.118 35.1674 132.314 36.0634 132.314C36.9594 132.314 37.6548 132.118 38.1494 131.726C38.6441 131.334 38.8914 130.718 38.8914 129.878ZM41.2921 129.542C41.2921 128.263 41.6234 127.344 42.2861 126.784C42.9488 126.215 43.8634 125.93 45.0301 125.93C46.2248 125.93 47.1488 126.196 47.8021 126.728C48.4554 127.26 48.7821 128.109 48.7821 129.276V129.584H42.4121V129.906C42.4121 130.718 42.6314 131.329 43.0701 131.74C43.5181 132.141 44.1714 132.342 45.0301 132.342C45.7208 132.342 46.2808 132.239 46.7101 132.034C47.1488 131.819 47.4428 131.493 47.5921 131.054H48.6981C48.4928 131.782 48.0681 132.314 47.4241 132.65C46.7894 132.986 45.9914 133.154 45.0301 133.154C43.8634 133.154 42.9488 132.874 42.2861 132.314C41.6234 131.754 41.2921 130.83 41.2921 129.542ZM45.0301 126.728C44.2741 126.728 43.6581 126.891 43.1821 127.218C42.7154 127.545 42.4634 128.091 42.4261 128.856H47.6761C47.6388 128.091 47.3961 127.545 46.9481 127.218C46.5094 126.891 45.8701 126.728 45.0301 126.728ZM49.402 134.96V132.16H50.228C50.4894 131.731 50.6807 131.203 50.802 130.578C50.9234 129.953 50.984 129.211 50.984 128.352V126.084H57.256V132.146H58.376V134.96H57.34V133H50.424V134.96H49.402ZM56.136 126.938H51.992V128.352C51.992 129.211 51.9314 129.953 51.81 130.578C51.698 131.194 51.5394 131.717 51.334 132.146H56.136V126.938ZM59.2296 129.556C59.2296 128.324 59.5423 127.414 60.1676 126.826C60.8023 126.229 61.7589 125.93 63.0376 125.93C64.0736 125.93 64.8949 126.107 65.5016 126.462C66.1083 126.807 66.4769 127.344 66.6076 128.072H65.4736C65.3243 127.587 65.0536 127.246 64.6616 127.05C64.2696 126.854 63.7236 126.756 63.0236 126.756C62.1089 126.756 61.4369 126.952 61.0076 127.344C60.5783 127.736 60.3636 128.352 60.3636 129.192V129.906C60.3636 130.783 60.5969 131.404 61.0636 131.768C61.5303 132.132 62.1836 132.314 63.0236 132.314C63.7516 132.314 64.3069 132.207 64.6896 131.992C65.0816 131.768 65.3523 131.455 65.5016 131.054H66.6216C66.4723 131.735 66.0943 132.258 65.4876 132.622C64.8903 132.977 64.0689 133.154 63.0236 133.154C61.8196 133.154 60.8863 132.888 60.2236 132.356C59.5609 131.815 59.2296 130.881 59.2296 129.556ZM70.1725 126.938H67.1765V126.084H74.2885V126.938H71.2925V133H70.1725V126.938ZM74.8702 131.124C74.8702 130.517 75.0709 130.037 75.4722 129.682C75.8829 129.327 76.6202 129.127 77.6842 129.08L80.9742 128.954V128.744C80.9742 128.035 80.7736 127.526 80.3722 127.218C79.9709 126.901 79.3642 126.742 78.5522 126.742C77.9176 126.742 77.3949 126.84 76.9842 127.036C76.5829 127.223 76.3262 127.559 76.2142 128.044H75.0802C75.2016 127.344 75.5469 126.817 76.1162 126.462C76.6949 126.107 77.5069 125.93 78.5522 125.93C79.7469 125.93 80.6336 126.154 81.2122 126.602C81.8002 127.05 82.0942 127.764 82.0942 128.744V133H81.0162V131.698C80.7549 132.165 80.3349 132.524 79.7562 132.776C79.1776 133.028 78.4962 133.154 77.7122 133.154C76.6856 133.154 75.9529 132.972 75.5142 132.608C75.0849 132.235 74.8702 131.74 74.8702 131.124ZM75.9902 131.166C75.9902 131.549 76.1442 131.843 76.4522 132.048C76.7696 132.244 77.2502 132.342 77.8942 132.342C78.3049 132.342 78.6969 132.305 79.0702 132.23C79.4529 132.146 79.7842 132.015 80.0642 131.838C80.3442 131.651 80.5636 131.409 80.7222 131.11C80.8902 130.811 80.9742 130.447 80.9742 130.018V129.682L77.8802 129.808C77.2456 129.845 76.7696 129.953 76.4522 130.13C76.1442 130.307 75.9902 130.601 75.9902 131.012V131.166ZM84.1779 126.084H88.5879C89.3719 126.084 89.9366 126.238 90.2819 126.546C90.6273 126.854 90.7999 127.251 90.7999 127.736C90.7999 128.081 90.7206 128.408 90.5619 128.716C90.4033 129.015 90.0859 129.225 89.6099 129.346C90.1699 129.477 90.5526 129.701 90.7579 130.018C90.9726 130.326 91.0799 130.657 91.0799 131.012C91.0799 131.703 90.8886 132.207 90.5059 132.524C90.1233 132.841 89.5213 133 88.6999 133H84.1779V126.084ZM89.6799 128.058V127.792C89.6799 127.512 89.5959 127.288 89.4279 127.12C89.2599 126.952 88.9426 126.868 88.4759 126.868H85.2979V129.066H88.4899C88.9473 129.066 89.2599 128.968 89.4279 128.772C89.5959 128.576 89.6799 128.338 89.6799 128.058ZM89.9599 131.138V130.83C89.9599 130.494 89.8433 130.237 89.6099 130.06C89.3766 129.883 89.0126 129.794 88.5179 129.794H85.2979V132.216H88.5179C89.0126 132.216 89.3766 132.132 89.6099 131.964C89.8433 131.787 89.9599 131.511 89.9599 131.138ZM91.9095 133V132.048H92.0495C92.2829 132.048 92.4835 132.011 92.6515 131.936C92.8195 131.861 92.9595 131.717 93.0715 131.502C93.1835 131.287 93.2675 130.989 93.3235 130.606C93.3795 130.214 93.4075 129.705 93.4075 129.08V126.084H99.4695V133H98.3495V126.938H94.4295V129.094C94.4295 129.897 94.3875 130.555 94.3035 131.068C94.2195 131.581 94.0842 131.983 93.8975 132.272C93.7109 132.552 93.4682 132.743 93.1695 132.846C92.8802 132.949 92.5302 133 92.1195 133H91.9095ZM106.887 130.34H104.213L102.267 133H101.049L103.051 130.242C102.435 130.149 101.973 129.929 101.665 129.584C101.366 129.229 101.217 128.781 101.217 128.24C101.217 127.577 101.413 127.055 101.805 126.672C102.197 126.28 102.789 126.084 103.583 126.084H108.007V133H106.887V130.34ZM106.887 126.896H103.737C103.307 126.896 102.967 126.994 102.715 127.19C102.463 127.386 102.337 127.671 102.337 128.044V128.436C102.337 128.791 102.458 129.061 102.701 129.248C102.943 129.435 103.289 129.528 103.737 129.528H106.887V126.896ZM110.196 126.084H111.316V128.996H112.954C113.047 127.885 113.43 127.097 114.102 126.63C114.774 126.163 115.679 125.93 116.818 125.93C118.059 125.93 119.016 126.205 119.688 126.756C120.36 127.297 120.696 128.226 120.696 129.542C120.696 130.858 120.36 131.791 119.688 132.342C119.016 132.883 118.059 133.154 116.818 133.154C115.632 133.154 114.699 132.902 114.018 132.398C113.346 131.894 112.982 131.045 112.926 129.85H111.316V133H110.196V126.084ZM119.562 129.864V129.206C119.562 128.31 119.319 127.68 118.834 127.316C118.358 126.943 117.686 126.756 116.818 126.756C115.95 126.756 115.273 126.943 114.788 127.316C114.302 127.68 114.06 128.31 114.06 129.206V129.864C114.06 130.76 114.302 131.395 114.788 131.768C115.273 132.132 115.95 132.314 116.818 132.314C117.686 132.314 118.358 132.132 118.834 131.768C119.319 131.395 119.562 130.76 119.562 129.864ZM124.204 126.938H121.208V126.084H128.32V126.938H125.324V133H124.204V126.938ZM132.672 126.084H133.792V131.796L138.496 126.084H139.77V133H138.664V127.274L133.96 133H132.672V126.084ZM141.311 131.026H142.445C142.482 131.493 142.711 131.833 143.131 132.048C143.551 132.253 144.144 132.356 144.909 132.356C145.702 132.356 146.295 132.263 146.687 132.076C147.088 131.889 147.289 131.572 147.289 131.124V130.9C147.289 130.527 147.126 130.247 146.799 130.06C146.482 129.873 145.996 129.78 145.343 129.78H143.691V128.996H145.315C145.959 128.996 146.412 128.912 146.673 128.744C146.944 128.567 147.079 128.31 147.079 127.974V127.722C147.079 127.377 146.906 127.125 146.561 126.966C146.216 126.807 145.665 126.728 144.909 126.728C144.162 126.728 143.598 126.821 143.215 127.008C142.832 127.185 142.604 127.475 142.529 127.876H141.409C141.484 127.204 141.829 126.714 142.445 126.406C143.061 126.089 143.882 125.93 144.909 125.93C146.001 125.93 146.822 126.084 147.373 126.392C147.933 126.691 148.213 127.157 148.213 127.792C148.213 128.137 148.115 128.45 147.919 128.73C147.732 129.01 147.359 129.211 146.799 129.332C147.331 129.453 147.732 129.659 148.003 129.948C148.274 130.228 148.409 130.583 148.409 131.012C148.409 131.749 148.115 132.291 147.527 132.636C146.948 132.981 146.076 133.154 144.909 133.154C143.864 133.154 143.014 132.991 142.361 132.664C141.717 132.337 141.367 131.791 141.311 131.026ZM153.046 129.556C153.046 128.324 153.359 127.414 153.984 126.826C154.619 126.229 155.575 125.93 156.854 125.93C157.89 125.93 158.711 126.107 159.318 126.462C159.925 126.807 160.293 127.344 160.424 128.072H159.29C159.141 127.587 158.87 127.246 158.478 127.05C158.086 126.854 157.54 126.756 156.84 126.756C155.925 126.756 155.253 126.952 154.824 127.344C154.395 127.736 154.18 128.352 154.18 129.192V129.906C154.18 130.783 154.413 131.404 154.88 131.768C155.347 132.132 156 132.314 156.84 132.314C157.568 132.314 158.123 132.207 158.506 131.992C158.898 131.768 159.169 131.455 159.318 131.054H160.438C160.289 131.735 159.911 132.258 159.304 132.622C158.707 132.977 157.885 133.154 156.84 133.154C155.636 133.154 154.703 132.888 154.04 132.356C153.377 131.815 153.046 130.881 153.046 129.556ZM161.564 129.542C161.564 128.263 161.895 127.344 162.558 126.784C163.22 126.215 164.135 125.93 165.302 125.93C166.496 125.93 167.42 126.196 168.074 126.728C168.727 127.26 169.054 128.109 169.054 129.276V129.584H162.684V129.906C162.684 130.718 162.903 131.329 163.342 131.74C163.79 132.141 164.443 132.342 165.302 132.342C165.992 132.342 166.552 132.239 166.982 132.034C167.42 131.819 167.714 131.493 167.864 131.054H168.97C168.764 131.782 168.34 132.314 167.696 132.65C167.061 132.986 166.263 133.154 165.302 133.154C164.135 133.154 163.22 132.874 162.558 132.314C161.895 131.754 161.564 130.83 161.564 129.542ZM165.302 126.728C164.546 126.728 163.93 126.891 163.454 127.218C162.987 127.545 162.735 128.091 162.698 128.856H167.948C167.91 128.091 167.668 127.545 167.22 127.218C166.781 126.891 166.142 126.728 165.302 126.728ZM170.539 129.374C170.539 128.095 170.609 127.041 170.749 126.21C170.889 125.379 171.131 124.721 171.477 124.236C171.822 123.751 172.293 123.41 172.891 123.214C173.497 123.009 174.253 122.892 175.159 122.864C175.943 122.845 176.549 122.822 176.979 122.794C177.408 122.757 177.739 122.719 177.973 122.682V123.62C177.767 123.667 177.445 123.709 177.007 123.746C176.577 123.774 175.975 123.793 175.201 123.802C174.519 123.811 173.95 123.877 173.493 123.998C173.045 124.11 172.681 124.311 172.401 124.6C172.13 124.889 171.929 125.281 171.799 125.776C171.668 126.271 171.579 126.901 171.533 127.666C171.794 127.162 172.191 126.775 172.723 126.504C173.255 126.233 173.927 126.098 174.739 126.098C175.943 126.098 176.862 126.369 177.497 126.91C178.131 127.451 178.449 128.333 178.449 129.556C178.449 130.835 178.113 131.754 177.441 132.314C176.769 132.874 175.784 133.154 174.487 133.154C173.208 133.154 172.228 132.869 171.547 132.3C170.875 131.721 170.539 130.746 170.539 129.374ZM177.315 129.864V129.276C177.315 128.445 177.067 127.848 176.573 127.484C176.087 127.12 175.392 126.938 174.487 126.938C173.591 126.938 172.895 127.12 172.401 127.484C171.906 127.848 171.659 128.445 171.659 129.276V129.864C171.659 130.732 171.906 131.357 172.401 131.74C172.895 132.123 173.591 132.314 174.487 132.314C175.411 132.314 176.111 132.123 176.587 131.74C177.072 131.357 177.315 130.732 177.315 129.864ZM185.404 130.34H182.73L180.784 133H179.566L181.568 130.242C180.952 130.149 180.49 129.929 180.182 129.584C179.884 129.229 179.734 128.781 179.734 128.24C179.734 127.577 179.93 127.055 180.322 126.672C180.714 126.28 181.307 126.084 182.1 126.084H186.524V133H185.404V130.34ZM185.404 126.896H182.254C181.825 126.896 181.484 126.994 181.232 127.19C180.98 127.386 180.854 127.671 180.854 128.044V128.436C180.854 128.791 180.976 129.061 181.218 129.248C181.461 129.435 181.806 129.528 182.254 129.528H185.404V126.896ZM22.63 147.542C22.63 146.235 22.9753 145.307 23.666 144.756C24.3567 144.205 25.3273 143.93 26.578 143.93C27.8473 143.93 28.8227 144.205 29.504 144.756C30.1947 145.307 30.54 146.235 30.54 147.542C30.54 148.877 30.1947 149.815 29.504 150.356C28.8227 150.888 27.8473 151.154 26.578 151.154C25.3273 151.154 24.3567 150.888 23.666 150.356C22.9753 149.815 22.63 148.877 22.63 147.542ZM29.42 147.878V147.206C29.42 146.357 29.1773 145.736 28.692 145.344C28.2067 144.952 27.502 144.756 26.578 144.756C25.6727 144.756 24.9727 144.952 24.478 145.344C23.9927 145.736 23.75 146.357 23.75 147.206V147.878C23.75 148.727 23.9927 149.348 24.478 149.74C24.9727 150.123 25.6727 150.314 26.578 150.314C27.502 150.314 28.2067 150.123 28.692 149.74C29.1773 149.348 29.42 148.727 29.42 147.878ZM34.0514 144.938H31.0554V144.084H38.1674V144.938H35.1714V151H34.0514V144.938ZM41.5572 144.938H38.5612V144.084H45.6732V144.938H42.6772V151H41.5572V144.938ZM46.173 147.542C46.173 146.263 46.5043 145.344 47.167 144.784C47.8296 144.215 48.7443 143.93 49.911 143.93C51.1056 143.93 52.0296 144.196 52.683 144.728C53.3363 145.26 53.663 146.109 53.663 147.276V147.584H47.293V147.906C47.293 148.718 47.5123 149.329 47.951 149.74C48.399 150.141 49.0523 150.342 49.911 150.342C50.6016 150.342 51.1616 150.239 51.591 150.034C52.0296 149.819 52.3236 149.493 52.473 149.054H53.579C53.3736 149.782 52.949 150.314 52.305 150.65C51.6703 150.986 50.8723 151.154 49.911 151.154C48.7443 151.154 47.8296 150.874 47.167 150.314C46.5043 149.754 46.173 148.83 46.173 147.542ZM49.911 144.728C49.155 144.728 48.539 144.891 48.063 145.218C47.5963 145.545 47.3443 146.091 47.307 146.856H52.557C52.5196 146.091 52.277 145.545 51.829 145.218C51.3903 144.891 50.751 144.728 49.911 144.728ZM55.344 144.084H56.464V147.052H61.21V144.084H62.33V151H61.21V147.92H56.464V151H55.344V144.084ZM64.5178 144.084H65.6378V147.038H66.8978L69.9778 144.084H71.3078L67.8498 147.388L71.6718 151H70.2018L66.9398 147.906H65.6378V151H64.5178V144.084ZM72.6799 144.084H73.7999V149.796L78.5039 144.084H79.7779V151H78.6719V145.274L73.9679 151H72.6799V144.084ZM84.9191 147.556C84.9191 146.324 85.2317 145.414 85.8571 144.826C86.4917 144.229 87.4484 143.93 88.7271 143.93C89.7631 143.93 90.5844 144.107 91.1911 144.462C91.7977 144.807 92.1664 145.344 92.2971 146.072H91.1631C91.0137 145.587 90.7431 145.246 90.3511 145.05C89.9591 144.854 89.4131 144.756 88.7131 144.756C87.7984 144.756 87.1264 144.952 86.6971 145.344C86.2677 145.736 86.0531 146.352 86.0531 147.192V147.906C86.0531 148.783 86.2864 149.404 86.7531 149.768C87.2197 150.132 87.8731 150.314 88.7131 150.314C89.4411 150.314 89.9964 150.207 90.3791 149.992C90.7711 149.768 91.0417 149.455 91.1911 149.054H92.3111C92.1617 149.735 91.7837 150.258 91.1771 150.622C90.5797 150.977 89.7584 151.154 88.7131 151.154C87.5091 151.154 86.5757 150.888 85.9131 150.356C85.2504 149.815 84.9191 148.881 84.9191 147.556ZM93.4366 147.542C93.4366 146.263 93.768 145.344 94.4306 144.784C95.0933 144.215 96.008 143.93 97.1746 143.93C98.3693 143.93 99.2933 144.196 99.9466 144.728C100.6 145.26 100.927 146.109 100.927 147.276V147.584H94.5566V147.906C94.5566 148.718 94.776 149.329 95.2146 149.74C95.6626 150.141 96.316 150.342 97.1746 150.342C97.8653 150.342 98.4253 150.239 98.8546 150.034C99.2933 149.819 99.5873 149.493 99.7366 149.054H100.843C100.637 149.782 100.213 150.314 99.5686 150.65C98.934 150.986 98.136 151.154 97.1746 151.154C96.008 151.154 95.0933 150.874 94.4306 150.314C93.768 149.754 93.4366 148.83 93.4366 147.542ZM97.1746 144.728C96.4186 144.728 95.8026 144.891 95.3266 145.218C94.86 145.545 94.608 146.091 94.5706 146.856H99.8206C99.7833 146.091 99.5406 145.545 99.0926 145.218C98.654 144.891 98.0146 144.728 97.1746 144.728ZM102.608 144.084H103.686V145.372C103.966 144.868 104.367 144.504 104.89 144.28C105.412 144.047 106.038 143.93 106.766 143.93C107.96 143.93 108.884 144.205 109.538 144.756C110.191 145.307 110.518 146.235 110.518 147.542C110.518 148.849 110.191 149.777 109.538 150.328C108.884 150.879 107.96 151.154 106.766 151.154C106.056 151.154 105.445 151.047 104.932 150.832C104.418 150.608 104.017 150.258 103.728 149.782V153.8H102.608V144.084ZM109.384 147.878V147.206C109.384 146.329 109.136 145.703 108.642 145.33C108.147 144.947 107.452 144.756 106.556 144.756C105.632 144.756 104.927 144.947 104.442 145.33C103.966 145.713 103.728 146.338 103.728 147.206V147.878C103.728 148.718 103.975 149.334 104.47 149.726C104.964 150.118 105.66 150.314 106.556 150.314C107.452 150.314 108.147 150.118 108.642 149.726C109.136 149.334 109.384 148.718 109.384 147.878ZM111.784 147.542C111.784 146.235 112.13 145.307 112.82 144.756C113.511 144.205 114.482 143.93 115.732 143.93C117.002 143.93 117.977 144.205 118.658 144.756C119.349 145.307 119.694 146.235 119.694 147.542C119.694 148.877 119.349 149.815 118.658 150.356C117.977 150.888 117.002 151.154 115.732 151.154C114.482 151.154 113.511 150.888 112.82 150.356C112.13 149.815 111.784 148.877 111.784 147.542ZM118.574 147.878V147.206C118.574 146.357 118.332 145.736 117.846 145.344C117.361 144.952 116.656 144.756 115.732 144.756C114.827 144.756 114.127 144.952 113.632 145.344C113.147 145.736 112.904 146.357 112.904 147.206V147.878C112.904 148.727 113.147 149.348 113.632 149.74C114.127 150.123 114.827 150.314 115.732 150.314C116.656 150.314 117.361 150.123 117.846 149.74C118.332 149.348 118.574 148.727 118.574 147.878ZM121.42 144.084H126.922V144.938H122.54V151H121.42V144.084ZM127.398 147.542C127.398 146.235 127.743 145.307 128.434 144.756C129.124 144.205 130.095 143.93 131.346 143.93C132.615 143.93 133.59 144.205 134.272 144.756C134.962 145.307 135.308 146.235 135.308 147.542C135.308 148.877 134.962 149.815 134.272 150.356C133.59 150.888 132.615 151.154 131.346 151.154C130.095 151.154 129.124 150.888 128.434 150.356C127.743 149.815 127.398 148.877 127.398 147.542ZM134.188 147.878V147.206C134.188 146.357 133.945 145.736 133.46 145.344C132.974 144.952 132.27 144.756 131.346 144.756C130.44 144.756 129.74 144.952 129.246 145.344C128.76 145.736 128.518 146.357 128.518 147.206V147.878C128.518 148.727 128.76 149.348 129.246 149.74C129.74 150.123 130.44 150.314 131.346 150.314C132.27 150.314 132.974 150.123 133.46 149.74C133.945 149.348 134.188 148.727 134.188 147.878ZM136.548 152.204C136.781 152.204 136.954 152.139 137.066 152.008C137.178 151.877 137.234 151.672 137.234 151.392V151.154H137.178C136.916 151.154 136.72 151.093 136.59 150.972C136.459 150.841 136.394 150.655 136.394 150.412C136.394 150.169 136.459 149.987 136.59 149.866C136.73 149.745 136.93 149.684 137.192 149.684C137.462 149.684 137.668 149.745 137.808 149.866C137.948 149.987 138.018 150.179 138.018 150.44V151.308C138.018 151.868 137.896 152.269 137.654 152.512C137.411 152.764 137.042 152.89 136.548 152.89V152.204ZM23.092 162.084H28.594V162.938H24.212V169H23.092V162.084ZM28.4157 170.96V168.16H29.2417C29.5031 167.731 29.6944 167.203 29.8157 166.578C29.9371 165.953 29.9977 165.211 29.9977 164.352V162.084H36.2697V168.146H37.3897V170.96H36.3537V169H29.4377V170.96H28.4157ZM35.1497 162.938H31.0057V164.352C31.0057 165.211 30.9451 165.953 30.8237 166.578C30.7117 167.194 30.5531 167.717 30.3477 168.146H35.1497V162.938ZM38.2433 165.542C38.2433 164.263 38.5746 163.344 39.2373 162.784C39.8999 162.215 40.8146 161.93 41.9813 161.93C43.1759 161.93 44.0999 162.196 44.7533 162.728C45.4066 163.26 45.7333 164.109 45.7333 165.276V165.584H39.3633V165.906C39.3633 166.718 39.5826 167.329 40.0213 167.74C40.4693 168.141 41.1226 168.342 41.9813 168.342C42.6719 168.342 43.2319 168.239 43.6613 168.034C44.0999 167.819 44.3939 167.493 44.5433 167.054H45.6493C45.4439 167.782 45.0193 168.314 44.3753 168.65C43.7406 168.986 42.9426 169.154 41.9813 169.154C40.8146 169.154 39.8999 168.874 39.2373 168.314C38.5746 167.754 38.2433 166.83 38.2433 165.542ZM41.9813 162.728C41.2253 162.728 40.6093 162.891 40.1333 163.218C39.6666 163.545 39.4146 164.091 39.3773 164.856H44.6273C44.5899 164.091 44.3473 163.545 43.8993 163.218C43.4606 162.891 42.8213 162.728 41.9813 162.728ZM50.8186 162.084H51.9386V165.038H53.1986L56.2786 162.084H57.6086L54.1506 165.388L57.9726 169H56.5026L53.2406 165.906H51.9386V169H50.8186V162.084ZM58.3546 167.124C58.3546 166.517 58.5553 166.037 58.9566 165.682C59.3673 165.327 60.1046 165.127 61.1686 165.08L64.4586 164.954V164.744C64.4586 164.035 64.2579 163.526 63.8566 163.218C63.4553 162.901 62.8486 162.742 62.0366 162.742C61.4019 162.742 60.8793 162.84 60.4686 163.036C60.0673 163.223 59.8106 163.559 59.6986 164.044H58.5646C58.6859 163.344 59.0313 162.817 59.6006 162.462C60.1793 162.107 60.9913 161.93 62.0366 161.93C63.2313 161.93 64.1179 162.154 64.6966 162.602C65.2846 163.05 65.5786 163.764 65.5786 164.744V169H64.5006V167.698C64.2393 168.165 63.8193 168.524 63.2406 168.776C62.6619 169.028 61.9806 169.154 61.1966 169.154C60.1699 169.154 59.4373 168.972 58.9986 168.608C58.5693 168.235 58.3546 167.74 58.3546 167.124ZM59.4746 167.166C59.4746 167.549 59.6286 167.843 59.9366 168.048C60.2539 168.244 60.7346 168.342 61.3786 168.342C61.7893 168.342 62.1813 168.305 62.5546 168.23C62.9373 168.146 63.2686 168.015 63.5486 167.838C63.8286 167.651 64.0479 167.409 64.2066 167.11C64.3746 166.811 64.4586 166.447 64.4586 166.018V165.682L61.3646 165.808C60.7299 165.845 60.2539 165.953 59.9366 166.13C59.6286 166.307 59.4746 166.601 59.4746 167.012V167.166ZM72.0023 162.084H73.1223V165.038H74.2283L76.9863 162.084H78.2743L75.1943 165.374L78.5963 169H77.1823L74.2843 165.906H73.1223V169H72.0023V165.906H70.8543L67.9563 169H66.6123L69.9443 165.43L66.8083 162.084H68.1523L70.9103 165.038H72.0023V162.084ZM78.8103 170.96V168.16H79.6363C79.8976 167.731 80.0889 167.203 80.2103 166.578C80.3316 165.953 80.3923 165.211 80.3923 164.352V162.084H86.6643V168.146H87.7843V170.96H86.7483V169H79.8323V170.96H78.8103ZM85.5443 162.938H81.4003V164.352C81.4003 165.211 81.3396 165.953 81.2183 166.578C81.1063 167.194 80.9476 167.717 80.7423 168.146H85.5443V162.938ZM89.1955 169V162.084H90.3155V164.562H93.6055C94.4268 164.562 95.0335 164.744 95.4255 165.108C95.8268 165.472 96.0275 166.004 96.0275 166.704C96.0275 167.432 95.8268 167.997 95.4255 168.398C95.0335 168.799 94.4268 169 93.6055 169H89.1955ZM94.9075 166.886V166.536C94.9075 166.191 94.7955 165.915 94.5715 165.71C94.3568 165.495 93.9928 165.388 93.4795 165.388H90.3155V168.174H93.4795C93.9928 168.174 94.3568 168.062 94.5715 167.838C94.7955 167.605 94.9075 167.287 94.9075 166.886ZM96.9935 162.084H98.1135V169H96.9935V162.084ZM101.487 158.738H102.495C102.495 159.251 102.602 159.643 102.817 159.914C103.031 160.175 103.377 160.306 103.853 160.306C104.31 160.306 104.651 160.175 104.875 159.914C105.099 159.643 105.211 159.251 105.211 158.738H106.205C106.205 159.494 105.999 160.068 105.589 160.46C105.187 160.852 104.609 161.048 103.853 161.048C103.097 161.048 102.513 160.857 102.103 160.474C101.701 160.082 101.496 159.503 101.487 158.738ZM100.311 162.084H101.431V167.936L106.065 162.084H107.409V169H106.289V163.148L101.655 169H100.311V162.084ZM113.012 162.084H119.858V169H118.738V162.938H114.132V169H113.012V162.084ZM122.035 162.084H123.155V167.796L127.859 162.084H129.133V169H128.027V163.274L123.323 169H122.035V162.084ZM131.332 162.084H132.452V165.038H133.712L136.792 162.084H138.122L134.664 165.388L138.486 169H137.016L133.754 165.906H132.452V169H131.332V162.084ZM138.609 165.556C138.609 164.324 138.921 163.414 139.547 162.826C140.181 162.229 141.138 161.93 142.417 161.93C143.453 161.93 144.274 162.107 144.881 162.462C145.487 162.807 145.856 163.344 145.987 164.072H144.853C144.703 163.587 144.433 163.246 144.041 163.05C143.649 162.854 143.103 162.756 142.403 162.756C141.488 162.756 140.816 162.952 140.387 163.344C139.957 163.736 139.743 164.352 139.743 165.192V165.906C139.743 166.783 139.976 167.404 140.443 167.768C140.909 168.132 141.563 168.314 142.403 168.314C143.131 168.314 143.686 168.207 144.069 167.992C144.461 167.768 144.731 167.455 144.881 167.054H146.001C145.851 167.735 145.473 168.258 144.867 168.622C144.269 168.977 143.448 169.154 142.403 169.154C141.199 169.154 140.265 168.888 139.603 168.356C138.94 167.815 138.609 166.881 138.609 165.556ZM147.126 165.542C147.126 164.263 147.457 163.344 148.12 162.784C148.783 162.215 149.697 161.93 150.864 161.93C152.059 161.93 152.983 162.196 153.636 162.728C154.289 163.26 154.616 164.109 154.616 165.276V165.584H148.246V165.906C148.246 166.718 148.465 167.329 148.904 167.74C149.352 168.141 150.005 168.342 150.864 168.342C151.555 168.342 152.115 168.239 152.544 168.034C152.983 167.819 153.277 167.493 153.426 167.054H154.532C154.327 167.782 153.902 168.314 153.258 168.65C152.623 168.986 151.825 169.154 150.864 169.154C149.697 169.154 148.783 168.874 148.12 168.314C147.457 167.754 147.126 166.83 147.126 165.542ZM150.864 162.728C150.108 162.728 149.492 162.891 149.016 163.218C148.549 163.545 148.297 164.091 148.26 164.856H153.51C153.473 164.091 153.23 163.545 152.782 163.218C152.343 162.891 151.704 162.728 150.864 162.728ZM155.306 169V168.048H155.446C155.679 168.048 155.88 168.011 156.048 167.936C156.216 167.861 156.356 167.717 156.468 167.502C156.58 167.287 156.664 166.989 156.72 166.606C156.776 166.214 156.804 165.705 156.804 165.08V162.084H162.866V169H161.746V162.938H157.826V165.094C157.826 165.897 157.784 166.555 157.7 167.068C157.616 167.581 157.481 167.983 157.294 168.272C157.107 168.552 156.865 168.743 156.566 168.846C156.277 168.949 155.927 169 155.516 169H155.306ZM165.047 169V162.084H166.167V164.562H169.457C170.278 164.562 170.885 164.744 171.277 165.108C171.678 165.472 171.879 166.004 171.879 166.704C171.879 167.432 171.678 167.997 171.277 168.398C170.885 168.799 170.278 169 169.457 169H165.047ZM170.759 166.886V166.536C170.759 166.191 170.647 165.915 170.423 165.71C170.208 165.495 169.844 165.388 169.331 165.388H166.167V168.174H169.331C169.844 168.174 170.208 168.062 170.423 167.838C170.647 167.605 170.759 167.287 170.759 166.886ZM23.092 180.084H24.212V185.796L28.916 180.084H30.19V187H29.084V181.274L24.38 187H23.092V180.084ZM36.2109 185.964L33.3969 180.952V187H32.3889V180.084H33.9989L36.8409 185.124L39.6969 180.084H41.2789V187H40.1729V180.98L37.3589 185.964H36.2109ZM43.0148 183.542C43.0148 182.263 43.3461 181.344 44.0088 180.784C44.6714 180.215 45.5861 179.93 46.7528 179.93C47.9474 179.93 48.8714 180.196 49.5248 180.728C50.1781 181.26 50.5048 182.109 50.5048 183.276V183.584H44.1348V183.906C44.1348 184.718 44.3541 185.329 44.7928 185.74C45.2408 186.141 45.8941 186.342 46.7528 186.342C47.4434 186.342 48.0034 186.239 48.4328 186.034C48.8714 185.819 49.1654 185.493 49.3148 185.054H50.4208C50.2154 185.782 49.7908 186.314 49.1468 186.65C48.5121 186.986 47.7141 187.154 46.7528 187.154C45.5861 187.154 44.6714 186.874 44.0088 186.314C43.3461 185.754 43.0148 184.83 43.0148 183.542ZM46.7528 180.728C45.9968 180.728 45.3808 180.891 44.9048 181.218C44.4381 181.545 44.1861 182.091 44.1488 182.856H49.3988C49.3614 182.091 49.1188 181.545 48.6708 181.218C48.2321 180.891 47.5928 180.728 46.7528 180.728ZM51.7238 183.542C51.7238 182.263 52.0551 181.344 52.7178 180.784C53.3804 180.215 54.2951 179.93 55.4618 179.93C56.6564 179.93 57.5804 180.196 58.2338 180.728C58.8871 181.26 59.2138 182.109 59.2138 183.276V183.584H52.8438V183.906C52.8438 184.718 53.0631 185.329 53.5018 185.74C53.9498 186.141 54.6031 186.342 55.4618 186.342C56.1524 186.342 56.7124 186.239 57.1418 186.034C57.5804 185.819 57.8744 185.493 58.0238 185.054H59.1298C58.9244 185.782 58.4998 186.314 57.8558 186.65C57.2211 186.986 56.4231 187.154 55.4618 187.154C54.2951 187.154 53.3804 186.874 52.7178 186.314C52.0551 185.754 51.7238 184.83 51.7238 183.542ZM55.4618 180.728C54.7058 180.728 54.0898 180.891 53.6138 181.218C53.1471 181.545 52.8951 182.091 52.8578 182.856H58.1078C58.0704 182.091 57.8278 181.545 57.3798 181.218C56.9411 180.891 56.3018 180.728 55.4618 180.728ZM62.7623 180.938H59.7663V180.084H66.8783V180.938H63.8823V187H62.7623V180.938ZM70.5727 185.026H71.7067C71.744 185.493 71.9727 185.833 72.3927 186.048C72.8127 186.253 73.4053 186.356 74.1707 186.356C74.964 186.356 75.5567 186.263 75.9487 186.076C76.35 185.889 76.5507 185.572 76.5507 185.124V184.9C76.5507 184.527 76.3873 184.247 76.0607 184.06C75.7433 183.873 75.258 183.78 74.6047 183.78H72.9527V182.996H74.5767C75.2207 182.996 75.6733 182.912 75.9347 182.744C76.2053 182.567 76.3407 182.31 76.3407 181.974V181.722C76.3407 181.377 76.168 181.125 75.8227 180.966C75.4773 180.807 74.9267 180.728 74.1707 180.728C73.424 180.728 72.8593 180.821 72.4767 181.008C72.094 181.185 71.8653 181.475 71.7907 181.876H70.6707C70.7453 181.204 71.0907 180.714 71.7067 180.406C72.3227 180.089 73.144 179.93 74.1707 179.93C75.2627 179.93 76.084 180.084 76.6347 180.392C77.1947 180.691 77.4747 181.157 77.4747 181.792C77.4747 182.137 77.3767 182.45 77.1807 182.73C76.994 183.01 76.6207 183.211 76.0607 183.332C76.5927 183.453 76.994 183.659 77.2647 183.948C77.5353 184.228 77.6707 184.583 77.6707 185.012C77.6707 185.749 77.3767 186.291 76.7887 186.636C76.21 186.981 75.3373 187.154 74.1707 187.154C73.1253 187.154 72.276 186.991 71.6227 186.664C70.9787 186.337 70.6287 185.791 70.5727 185.026ZM79.3654 180.084H80.4854V183.052H85.2314V180.084H86.3514V187H85.2314V183.92H80.4854V187H79.3654V180.084ZM88.0773 185.124C88.0773 184.517 88.2779 184.037 88.6793 183.682C89.0899 183.327 89.8273 183.127 90.8913 183.08L94.1813 182.954V182.744C94.1813 182.035 93.9806 181.526 93.5793 181.218C93.1779 180.901 92.5713 180.742 91.7593 180.742C91.1246 180.742 90.6019 180.84 90.1913 181.036C89.7899 181.223 89.5333 181.559 89.4213 182.044H88.2873C88.4086 181.344 88.7539 180.817 89.3233 180.462C89.9019 180.107 90.7139 179.93 91.7593 179.93C92.9539 179.93 93.8406 180.154 94.4193 180.602C95.0073 181.05 95.3013 181.764 95.3013 182.744V187H94.2233V185.698C93.9619 186.165 93.5419 186.524 92.9633 186.776C92.3846 187.028 91.7033 187.154 90.9193 187.154C89.8926 187.154 89.1599 186.972 88.7213 186.608C88.2919 186.235 88.0773 185.74 88.0773 185.124ZM89.1973 185.166C89.1973 185.549 89.3513 185.843 89.6593 186.048C89.9766 186.244 90.4573 186.342 91.1013 186.342C91.5119 186.342 91.9039 186.305 92.2773 186.23C92.6599 186.146 92.9913 186.015 93.2713 185.838C93.5513 185.651 93.7706 185.409 93.9293 185.11C94.0973 184.811 94.1813 184.447 94.1813 184.018V183.682L91.0873 183.808C90.4526 183.845 89.9766 183.953 89.6593 184.13C89.3513 184.307 89.1973 184.601 89.1973 185.012V185.166ZM102.524 184.186C102.169 184.242 101.796 184.284 101.404 184.312C101.021 184.34 100.601 184.354 100.144 184.354C98.949 184.354 98.095 184.153 97.5816 183.752C97.0776 183.351 96.8256 182.665 96.8256 181.694V180.084H97.9456V181.666C97.9456 182.385 98.1323 182.87 98.5056 183.122C98.8883 183.365 99.5276 183.486 100.424 183.486C100.816 183.486 101.189 183.472 101.544 183.444C101.908 183.416 102.234 183.379 102.524 183.332V180.084H103.644V187H102.524V184.186ZM105.372 183.542C105.372 182.263 105.704 181.344 106.366 180.784C107.029 180.215 107.944 179.93 109.11 179.93C110.305 179.93 111.229 180.196 111.882 180.728C112.536 181.26 112.862 182.109 112.862 183.276V183.584H106.492V183.906C106.492 184.718 106.712 185.329 107.15 185.74C107.598 186.141 108.252 186.342 109.11 186.342C109.801 186.342 110.361 186.239 110.79 186.034C111.229 185.819 111.523 185.493 111.672 185.054H112.778C112.573 185.782 112.148 186.314 111.504 186.65C110.87 186.986 110.072 187.154 109.11 187.154C107.944 187.154 107.029 186.874 106.366 186.314C105.704 185.754 105.372 184.83 105.372 183.542ZM109.11 180.728C108.354 180.728 107.738 180.891 107.262 181.218C106.796 181.545 106.544 182.091 106.506 182.856H111.756C111.719 182.091 111.476 181.545 111.028 181.218C110.59 180.891 109.95 180.728 109.11 180.728ZM114.543 180.084H115.663V183.052H120.409V180.084H121.529V187H120.409V183.92H115.663V187H114.543V180.084ZM123.717 180.084H124.837V185.796L129.541 180.084H130.815V187H129.709V181.274L125.005 187H123.717V180.084ZM132.552 183.542C132.552 182.263 132.883 181.344 133.546 180.784C134.209 180.215 135.123 179.93 136.29 179.93C137.485 179.93 138.409 180.196 139.062 180.728C139.715 181.26 140.042 182.109 140.042 183.276V183.584H133.672V183.906C133.672 184.718 133.891 185.329 134.33 185.74C134.778 186.141 135.431 186.342 136.29 186.342C136.981 186.342 137.541 186.239 137.97 186.034C138.409 185.819 138.703 185.493 138.852 185.054H139.958C139.753 185.782 139.328 186.314 138.684 186.65C138.049 186.986 137.251 187.154 136.29 187.154C135.123 187.154 134.209 186.874 133.546 186.314C132.883 185.754 132.552 184.83 132.552 183.542ZM136.29 180.728C135.534 180.728 134.918 180.891 134.442 181.218C133.975 181.545 133.723 182.091 133.686 182.856H138.936C138.899 182.091 138.656 181.545 138.208 181.218C137.769 180.891 137.13 180.728 136.29 180.728ZM150.363 184.34H147.689L145.743 187H144.525L146.527 184.242C145.911 184.149 145.449 183.929 145.141 183.584C144.842 183.229 144.693 182.781 144.693 182.24C144.693 181.577 144.889 181.055 145.281 180.672C145.673 180.28 146.266 180.084 147.059 180.084H151.483V187H150.363V184.34ZM150.363 180.896H147.213C146.784 180.896 146.443 180.994 146.191 181.19C145.939 181.386 145.813 181.671 145.813 182.044V182.436C145.813 182.791 145.934 183.061 146.177 183.248C146.42 183.435 146.765 183.528 147.213 183.528H150.363V180.896ZM153.672 180.084H154.75V181.372C155.03 180.868 155.431 180.504 155.954 180.28C156.477 180.047 157.102 179.93 157.83 179.93C159.025 179.93 159.949 180.205 160.602 180.756C161.255 181.307 161.582 182.235 161.582 183.542C161.582 184.849 161.255 185.777 160.602 186.328C159.949 186.879 159.025 187.154 157.83 187.154C157.121 187.154 156.509 187.047 155.996 186.832C155.483 186.608 155.081 186.258 154.792 185.782V189.8H153.672V180.084ZM160.448 183.878V183.206C160.448 182.329 160.201 181.703 159.706 181.33C159.211 180.947 158.516 180.756 157.62 180.756C156.696 180.756 155.991 180.947 155.506 181.33C155.03 181.713 154.792 182.338 154.792 183.206V183.878C154.792 184.718 155.039 185.334 155.534 185.726C156.029 186.118 156.724 186.314 157.62 186.314C158.516 186.314 159.211 186.118 159.706 185.726C160.201 185.334 160.448 184.718 160.448 183.878ZM163.311 180.084H164.431V183.038H165.691L168.771 180.084H170.101L166.643 183.388L170.465 187H168.995L165.733 183.906H164.431V187H163.311V180.084ZM170.587 183.542C170.587 182.235 170.932 181.307 171.623 180.756C172.314 180.205 173.284 179.93 174.535 179.93C175.804 179.93 176.78 180.205 177.461 180.756C178.152 181.307 178.497 182.235 178.497 183.542C178.497 184.877 178.152 185.815 177.461 186.356C176.78 186.888 175.804 187.154 174.535 187.154C173.284 187.154 172.314 186.888 171.623 186.356C170.932 185.815 170.587 184.877 170.587 183.542ZM177.377 183.878V183.206C177.377 182.357 177.134 181.736 176.649 181.344C176.164 180.952 175.459 180.756 174.535 180.756C173.63 180.756 172.93 180.952 172.435 181.344C171.95 181.736 171.707 182.357 171.707 183.206V183.878C171.707 184.727 171.95 185.348 172.435 185.74C172.93 186.123 173.63 186.314 174.535 186.314C175.459 186.314 176.164 186.123 176.649 185.74C177.134 185.348 177.377 184.727 177.377 183.878ZM179.761 183.556C179.761 182.324 180.074 181.414 180.699 180.826C181.334 180.229 182.29 179.93 183.569 179.93C184.605 179.93 185.426 180.107 186.033 180.462C186.64 180.807 187.008 181.344 187.139 182.072H186.005C185.856 181.587 185.585 181.246 185.193 181.05C184.801 180.854 184.255 180.756 183.555 180.756C182.64 180.756 181.968 180.952 181.539 181.344C181.11 181.736 180.895 182.352 180.895 183.192V183.906C180.895 184.783 181.128 185.404 181.595 185.768C182.062 186.132 182.715 186.314 183.555 186.314C184.283 186.314 184.838 186.207 185.221 185.992C185.613 185.768 185.884 185.455 186.033 185.054H187.153C187.004 185.735 186.626 186.258 186.019 186.622C185.422 186.977 184.6 187.154 183.555 187.154C182.351 187.154 181.418 186.888 180.755 186.356C180.092 185.815 179.761 184.881 179.761 183.556ZM190.704 180.938H187.708V180.084H194.82V180.938H191.824V187H190.704V180.938ZM196.11 180.084H197.23V185.796L201.934 180.084H203.208V187H202.102V181.274L197.398 187H196.11V180.084ZM205.098 188.204C205.332 188.204 205.504 188.139 205.616 188.008C205.728 187.877 205.784 187.672 205.784 187.392V187.154H205.728C205.467 187.154 205.271 187.093 205.14 186.972C205.01 186.841 204.944 186.655 204.944 186.412C204.944 186.169 205.01 185.987 205.14 185.866C205.28 185.745 205.481 185.684 205.742 185.684C206.013 185.684 206.218 185.745 206.358 185.866C206.498 185.987 206.568 186.179 206.568 186.44V187.308C206.568 187.868 206.447 188.269 206.204 188.512C205.962 188.764 205.593 188.89 205.098 188.89V188.204ZM22.63 203.124C22.63 202.517 22.8307 202.037 23.232 201.682C23.6427 201.327 24.38 201.127 25.444 201.08L28.734 200.954V200.744C28.734 200.035 28.5333 199.526 28.132 199.218C27.7307 198.901 27.124 198.742 26.312 198.742C25.6773 198.742 25.1547 198.84 24.744 199.036C24.3427 199.223 24.086 199.559 23.974 200.044H22.84C22.9613 199.344 23.3067 198.817 23.876 198.462C24.4547 198.107 25.2667 197.93 26.312 197.93C27.5067 197.93 28.3933 198.154 28.972 198.602C29.56 199.05 29.854 199.764 29.854 200.744V205H28.776V203.698C28.5147 204.165 28.0947 204.524 27.516 204.776C26.9373 205.028 26.256 205.154 25.472 205.154C24.4453 205.154 23.7127 204.972 23.274 204.608C22.8447 204.235 22.63 203.74 22.63 203.124ZM23.75 203.166C23.75 203.549 23.904 203.843 24.212 204.048C24.5293 204.244 25.01 204.342 25.654 204.342C26.0647 204.342 26.4567 204.305 26.83 204.23C27.2127 204.146 27.544 204.015 27.824 203.838C28.104 203.651 28.3233 203.409 28.482 203.11C28.65 202.811 28.734 202.447 28.734 202.018V201.682L25.64 201.808C25.0053 201.845 24.5293 201.953 24.212 202.13C23.904 202.307 23.75 202.601 23.75 203.012V203.166ZM35.342 198.084H36.462V201.052H41.208V198.084H42.328V205H41.208V201.92H36.462V205H35.342V198.084ZM44.0538 201.542C44.0538 200.263 44.3852 199.344 45.0478 198.784C45.7105 198.215 46.6252 197.93 47.7918 197.93C48.9865 197.93 49.9105 198.196 50.5638 198.728C51.2172 199.26 51.5438 200.109 51.5438 201.276V201.584H45.1738V201.906C45.1738 202.718 45.3932 203.329 45.8318 203.74C46.2798 204.141 46.9332 204.342 47.7918 204.342C48.4825 204.342 49.0425 204.239 49.4718 204.034C49.9105 203.819 50.2045 203.493 50.3538 203.054H51.4598C51.2545 203.782 50.8298 204.314 50.1858 204.65C49.5512 204.986 48.7532 205.154 47.7918 205.154C46.6252 205.154 45.7105 204.874 45.0478 204.314C44.3852 203.754 44.0538 202.83 44.0538 201.542ZM47.7918 198.728C47.0358 198.728 46.4198 198.891 45.9438 199.218C45.4772 199.545 45.2252 200.091 45.1878 200.856H50.4378C50.4005 200.091 50.1578 199.545 49.7098 199.218C49.2712 198.891 48.6318 198.728 47.7918 198.728ZM63.5731 206.96V205H56.6291V198.084H57.7491V204.146H62.3551V198.084H63.4751V204.146H64.5951V206.96H63.5731ZM66.0217 198.084H70.4317C71.2157 198.084 71.7804 198.238 72.1257 198.546C72.471 198.854 72.6437 199.251 72.6437 199.736C72.6437 200.081 72.5644 200.408 72.4057 200.716C72.247 201.015 71.9297 201.225 71.4537 201.346C72.0137 201.477 72.3964 201.701 72.6017 202.018C72.8164 202.326 72.9237 202.657 72.9237 203.012C72.9237 203.703 72.7324 204.207 72.3497 204.524C71.967 204.841 71.365 205 70.5437 205H66.0217V198.084ZM71.5237 200.058V199.792C71.5237 199.512 71.4397 199.288 71.2717 199.12C71.1037 198.952 70.7864 198.868 70.3197 198.868H67.1417V201.066H70.3337C70.791 201.066 71.1037 200.968 71.2717 200.772C71.4397 200.576 71.5237 200.338 71.5237 200.058ZM71.8037 203.138V202.83C71.8037 202.494 71.687 202.237 71.4537 202.06C71.2204 201.883 70.8564 201.794 70.3617 201.794H67.1417V204.216H70.3617C70.8564 204.216 71.2204 204.132 71.4537 203.964C71.687 203.787 71.8037 203.511 71.8037 203.138ZM74.214 201.542C74.214 200.263 74.5453 199.344 75.208 198.784C75.8707 198.215 76.7853 197.93 77.952 197.93C79.1467 197.93 80.0707 198.196 80.724 198.728C81.3773 199.26 81.704 200.109 81.704 201.276V201.584H75.334V201.906C75.334 202.718 75.5533 203.329 75.992 203.74C76.44 204.141 77.0933 204.342 77.952 204.342C78.6427 204.342 79.2027 204.239 79.632 204.034C80.0707 203.819 80.3647 203.493 80.514 203.054H81.62C81.4147 203.782 80.99 204.314 80.346 204.65C79.7113 204.986 78.9133 205.154 77.952 205.154C76.7853 205.154 75.8707 204.874 75.208 204.314C74.5453 203.754 74.214 202.83 74.214 201.542ZM77.952 198.728C77.196 198.728 76.58 198.891 76.104 199.218C75.6373 199.545 75.3853 200.091 75.348 200.856H80.598C80.5607 200.091 80.318 199.545 79.87 199.218C79.4313 198.891 78.792 198.728 77.952 198.728ZM85.2525 198.938H82.2565V198.084H89.3685V198.938H86.3725V205H85.2525V198.938ZM89.9503 203.124C89.9503 202.517 90.151 202.037 90.5523 201.682C90.963 201.327 91.7003 201.127 92.7643 201.08L96.0543 200.954V200.744C96.0543 200.035 95.8536 199.526 95.4523 199.218C95.051 198.901 94.4443 198.742 93.6323 198.742C92.9976 198.742 92.475 198.84 92.0643 199.036C91.663 199.223 91.4063 199.559 91.2943 200.044H90.1603C90.2816 199.344 90.627 198.817 91.1963 198.462C91.775 198.107 92.587 197.93 93.6323 197.93C94.827 197.93 95.7136 198.154 96.2923 198.602C96.8803 199.05 97.1743 199.764 97.1743 200.744V205H96.0963V203.698C95.835 204.165 95.415 204.524 94.8363 204.776C94.2576 205.028 93.5763 205.154 92.7923 205.154C91.7656 205.154 91.033 204.972 90.5943 204.608C90.165 204.235 89.9503 203.74 89.9503 203.124ZM91.0703 203.166C91.0703 203.549 91.2243 203.843 91.5323 204.048C91.8496 204.244 92.3303 204.342 92.9743 204.342C93.385 204.342 93.777 204.305 94.1503 204.23C94.533 204.146 94.8643 204.015 95.1443 203.838C95.4243 203.651 95.6436 203.409 95.8023 203.11C95.9703 202.811 96.0543 202.447 96.0543 202.018V201.682L92.9603 201.808C92.3256 201.845 91.8496 201.953 91.5323 202.13C91.2243 202.307 91.0703 202.601 91.0703 203.012V203.166ZM98.95 206.204C99.1833 206.204 99.356 206.139 99.468 206.008C99.58 205.877 99.636 205.672 99.636 205.392V205.154H99.58C99.3187 205.154 99.1227 205.093 98.992 204.972C98.8613 204.841 98.796 204.655 98.796 204.412C98.796 204.169 98.8613 203.987 98.992 203.866C99.132 203.745 99.3327 203.684 99.594 203.684C99.8647 203.684 100.07 203.745 100.21 203.866C100.35 203.987 100.42 204.179 100.42 204.44V205.308C100.42 205.868 100.299 206.269 100.056 206.512C99.8133 206.764 99.4447 206.89 98.95 206.89V206.204ZM104.812 201.542C104.812 200.235 105.157 199.307 105.848 198.756C106.538 198.205 107.509 197.93 108.76 197.93C110.029 197.93 111.004 198.205 111.686 198.756C112.376 199.307 112.722 200.235 112.722 201.542C112.722 202.877 112.376 203.815 111.686 204.356C111.004 204.888 110.029 205.154 108.76 205.154C107.509 205.154 106.538 204.888 105.848 204.356C105.157 203.815 104.812 202.877 104.812 201.542ZM111.602 201.878V201.206C111.602 200.357 111.359 199.736 110.874 199.344C110.388 198.952 109.684 198.756 108.76 198.756C107.854 198.756 107.154 198.952 106.66 199.344C106.174 199.736 105.932 200.357 105.932 201.206V201.878C105.932 202.727 106.174 203.348 106.66 203.74C107.154 204.123 107.854 204.314 108.76 204.314C109.684 204.314 110.388 204.123 110.874 203.74C111.359 203.348 111.602 202.727 111.602 201.878ZM114.251 201.374C114.251 200.095 114.321 199.041 114.461 198.21C114.601 197.379 114.844 196.721 115.189 196.236C115.535 195.751 116.006 195.41 116.603 195.214C117.21 195.009 117.966 194.892 118.871 194.864C119.655 194.845 120.262 194.822 120.691 194.794C121.121 194.757 121.452 194.719 121.685 194.682V195.62C121.48 195.667 121.158 195.709 120.719 195.746C120.29 195.774 119.688 195.793 118.913 195.802C118.232 195.811 117.663 195.877 117.205 195.998C116.757 196.11 116.393 196.311 116.113 196.6C115.843 196.889 115.642 197.281 115.511 197.776C115.381 198.271 115.292 198.901 115.245 199.666C115.507 199.162 115.903 198.775 116.435 198.504C116.967 198.233 117.639 198.098 118.451 198.098C119.655 198.098 120.575 198.369 121.209 198.91C121.844 199.451 122.161 200.333 122.161 201.556C122.161 202.835 121.825 203.754 121.153 204.314C120.481 204.874 119.497 205.154 118.199 205.154C116.921 205.154 115.941 204.869 115.259 204.3C114.587 203.721 114.251 202.746 114.251 201.374ZM121.027 201.864V201.276C121.027 200.445 120.78 199.848 120.285 199.484C119.8 199.12 119.105 198.938 118.199 198.938C117.303 198.938 116.608 199.12 116.113 199.484C115.619 199.848 115.371 200.445 115.371 201.276V201.864C115.371 202.732 115.619 203.357 116.113 203.74C116.608 204.123 117.303 204.314 118.199 204.314C119.123 204.314 119.823 204.123 120.299 203.74C120.785 203.357 121.027 202.732 121.027 201.864ZM123.881 205V198.084H125.001V200.562H128.291C129.112 200.562 129.719 200.744 130.111 201.108C130.512 201.472 130.713 202.004 130.713 202.704C130.713 203.432 130.512 203.997 130.111 204.398C129.719 204.799 129.112 205 128.291 205H123.881ZM129.593 202.886V202.536C129.593 202.191 129.481 201.915 129.257 201.71C129.042 201.495 128.678 201.388 128.165 201.388H125.001V204.174H128.165C128.678 204.174 129.042 204.062 129.257 203.838C129.481 203.605 129.593 203.287 129.593 202.886ZM131.679 198.084H132.799V205H131.679V198.084ZM140.162 202.186C139.808 202.242 139.434 202.284 139.042 202.312C138.66 202.34 138.24 202.354 137.782 202.354C136.588 202.354 135.734 202.153 135.22 201.752C134.716 201.351 134.464 200.665 134.464 199.694V198.084H135.584V199.666C135.584 200.385 135.771 200.87 136.144 201.122C136.527 201.365 137.166 201.486 138.062 201.486C138.454 201.486 138.828 201.472 139.182 201.444C139.546 201.416 139.873 201.379 140.162 201.332V198.084H141.282V205H140.162V202.186ZM143.473 198.084H144.593V201.052H149.339V198.084H150.459V205H149.339V201.92H144.593V205H143.473V198.084ZM152.185 201.542C152.185 200.235 152.53 199.307 153.221 198.756C153.911 198.205 154.882 197.93 156.133 197.93C157.402 197.93 158.377 198.205 159.059 198.756C159.749 199.307 160.095 200.235 160.095 201.542C160.095 202.877 159.749 203.815 159.059 204.356C158.377 204.888 157.402 205.154 156.133 205.154C154.882 205.154 153.911 204.888 153.221 204.356C152.53 203.815 152.185 202.877 152.185 201.542ZM158.975 201.878V201.206C158.975 200.357 158.732 199.736 158.247 199.344C157.761 198.952 157.057 198.756 156.133 198.756C155.227 198.756 154.527 198.952 154.033 199.344C153.547 199.736 153.305 200.357 153.305 201.206V201.878C153.305 202.727 153.547 203.348 154.033 203.74C154.527 204.123 155.227 204.314 156.133 204.314C157.057 204.314 157.761 204.123 158.247 203.74C158.732 203.348 158.975 202.727 158.975 201.878ZM22.63 219.542C22.63 218.235 22.9753 217.307 23.666 216.756C24.3567 216.205 25.3273 215.93 26.578 215.93C27.8473 215.93 28.8227 216.205 29.504 216.756C30.1947 217.307 30.54 218.235 30.54 219.542C30.54 220.877 30.1947 221.815 29.504 222.356C28.8227 222.888 27.8473 223.154 26.578 223.154C25.3273 223.154 24.3567 222.888 23.666 222.356C22.9753 221.815 22.63 220.877 22.63 219.542ZM29.42 219.878V219.206C29.42 218.357 29.1773 217.736 28.692 217.344C28.2067 216.952 27.502 216.756 26.578 216.756C25.6727 216.756 24.9727 216.952 24.478 217.344C23.9927 217.736 23.75 218.357 23.75 219.206V219.878C23.75 220.727 23.9927 221.348 24.478 221.74C24.9727 222.123 25.6727 222.314 26.578 222.314C27.502 222.314 28.2067 222.123 28.692 221.74C29.1773 221.348 29.42 220.727 29.42 219.878ZM34.0514 216.938H31.0554V216.084H38.1674V216.938H35.1714V223H34.0514V216.938ZM42.2117 218.142C42.2117 216.397 42.6271 215.137 43.4577 214.362C44.2977 213.578 45.4691 213.186 46.9717 213.186C48.4744 213.186 49.6411 213.578 50.4717 214.362C51.3117 215.137 51.7317 216.397 51.7317 218.142C51.7317 219.859 51.3117 221.124 50.4717 221.936C49.6411 222.748 48.4744 223.154 46.9717 223.154C45.4691 223.154 44.2977 222.748 43.4577 221.936C42.6271 221.124 42.2117 219.859 42.2117 218.142ZM50.5137 218.562V217.652C50.5137 216.457 50.2151 215.575 49.6177 215.006C49.0204 214.437 48.1384 214.152 46.9717 214.152C45.8051 214.152 44.9184 214.437 44.3117 215.006C43.7144 215.566 43.4157 216.453 43.4157 217.666V218.576C43.4157 219.752 43.7144 220.648 44.3117 221.264C44.9184 221.88 45.8051 222.188 46.9717 222.188C48.1384 222.188 49.0204 221.88 49.6177 221.264C50.2151 220.648 50.5137 219.747 50.5137 218.562ZM56.5783 219.29C56.5783 218.142 56.6903 217.162 56.9143 216.35C57.1476 215.529 57.4603 214.852 57.8523 214.32C58.2536 213.788 58.7249 213.382 59.2663 213.102C59.8076 212.822 60.3909 212.645 61.0163 212.57V213.508C60.5403 213.583 60.1016 213.746 59.7003 213.998C59.3083 214.25 58.9676 214.581 58.6783 214.992C58.3889 215.403 58.1649 215.897 58.0063 216.476C57.8476 217.045 57.7683 217.689 57.7683 218.408V220.13C57.7683 220.858 57.8476 221.516 58.0063 222.104C58.1649 222.683 58.3889 223.177 58.6783 223.588C58.9676 223.999 59.3083 224.33 59.7003 224.582C60.1016 224.834 60.5403 224.997 61.0163 225.072V226.01C60.3816 225.935 59.7889 225.758 59.2383 225.478C58.6969 225.198 58.2303 224.792 57.8383 224.26C57.4463 223.728 57.1383 223.051 56.9143 222.23C56.6903 221.409 56.5783 220.429 56.5783 219.29ZM67.0725 220.186C66.7178 220.242 66.3445 220.284 65.9525 220.312C65.5698 220.34 65.1498 220.354 64.6925 220.354C63.4978 220.354 62.6438 220.153 62.1305 219.752C61.6265 219.351 61.3745 218.665 61.3745 217.694V216.084H62.4945V217.666C62.4945 218.385 62.6811 218.87 63.0545 219.122C63.4371 219.365 64.0765 219.486 64.9725 219.486C65.3645 219.486 65.7378 219.472 66.0925 219.444C66.4565 219.416 66.7831 219.379 67.0725 219.332V216.084H68.1925V223H67.0725V220.186ZM69.921 219.542C69.921 218.263 70.2523 217.344 70.915 216.784C71.5777 216.215 72.4923 215.93 73.659 215.93C74.8537 215.93 75.7777 216.196 76.431 216.728C77.0843 217.26 77.411 218.109 77.411 219.276V219.584H71.041V219.906C71.041 220.718 71.2603 221.329 71.699 221.74C72.147 222.141 72.8003 222.342 73.659 222.342C74.3497 222.342 74.9097 222.239 75.339 222.034C75.7777 221.819 76.0717 221.493 76.221 221.054H77.327C77.1217 221.782 76.697 222.314 76.053 222.65C75.4183 222.986 74.6203 223.154 73.659 223.154C72.4923 223.154 71.5777 222.874 70.915 222.314C70.2523 221.754 69.921 220.83 69.921 219.542ZM73.659 216.728C72.903 216.728 72.287 216.891 71.811 217.218C71.3443 217.545 71.0923 218.091 71.055 218.856H76.305C76.2677 218.091 76.025 217.545 75.577 217.218C75.1383 216.891 74.499 216.728 73.659 216.728ZM79.092 216.084H80.17V217.372C80.45 216.868 80.8513 216.504 81.374 216.28C81.8967 216.047 82.522 215.93 83.25 215.93C84.4447 215.93 85.3687 216.205 86.022 216.756C86.6753 217.307 87.002 218.235 87.002 219.542C87.002 220.849 86.6753 221.777 86.022 222.328C85.3687 222.879 84.4447 223.154 83.25 223.154C82.5407 223.154 81.9293 223.047 81.416 222.832C80.9027 222.608 80.5013 222.258 80.212 221.782V225.8H79.092V216.084ZM85.868 219.878V219.206C85.868 218.329 85.6207 217.703 85.126 217.33C84.6313 216.947 83.936 216.756 83.04 216.756C82.116 216.756 81.4113 216.947 80.926 217.33C80.45 217.713 80.212 218.338 80.212 219.206V219.878C80.212 220.718 80.4593 221.334 80.954 221.726C81.4487 222.118 82.144 222.314 83.04 222.314C83.936 222.314 84.6313 222.118 85.126 221.726C85.6207 221.334 85.868 220.718 85.868 219.878ZM88.7307 216.084H89.8507V219.052H94.5967V216.084H95.7167V223H94.5967V219.92H89.8507V223H88.7307V216.084ZM97.9045 223V216.084H99.0245V218.562H102.315C103.136 218.562 103.743 218.744 104.135 219.108C104.536 219.472 104.737 220.004 104.737 220.704C104.737 221.432 104.536 221.997 104.135 222.398C103.743 222.799 103.136 223 102.315 223H97.9045ZM103.617 220.886V220.536C103.617 220.191 103.505 219.915 103.281 219.71C103.066 219.495 102.702 219.388 102.189 219.388H99.0245V222.174H102.189C102.702 222.174 103.066 222.062 103.281 221.838C103.505 221.605 103.617 221.287 103.617 220.886ZM105.703 216.084H106.823V223H105.703V216.084ZM110.196 212.738H111.204C111.204 213.251 111.311 213.643 111.526 213.914C111.74 214.175 112.086 214.306 112.562 214.306C113.019 214.306 113.36 214.175 113.584 213.914C113.808 213.643 113.92 213.251 113.92 212.738H114.914C114.914 213.494 114.708 214.068 114.298 214.46C113.896 214.852 113.318 215.048 112.562 215.048C111.806 215.048 111.222 214.857 110.812 214.474C110.41 214.082 110.205 213.503 110.196 212.738ZM109.02 216.084H110.14V221.936L114.774 216.084H116.118V223H114.998V217.148L110.364 223H109.02V216.084ZM121.6 219.29C121.6 220.438 121.483 221.423 121.25 222.244C121.026 223.056 120.713 223.728 120.312 224.26C119.92 224.792 119.453 225.198 118.912 225.478C118.37 225.758 117.787 225.935 117.162 226.01V225.072C117.638 224.997 118.072 224.834 118.464 224.582C118.865 224.33 119.21 223.999 119.5 223.588C119.789 223.177 120.013 222.687 120.172 222.118C120.33 221.539 120.41 220.891 120.41 220.172V218.45C120.41 217.722 120.33 217.069 120.172 216.49C120.013 215.902 119.789 215.403 119.5 214.992C119.21 214.581 118.865 214.25 118.464 213.998C118.072 213.746 117.638 213.583 117.162 213.508V212.57C117.796 212.645 118.384 212.822 118.926 213.102C119.476 213.382 119.948 213.788 120.34 214.32C120.732 214.852 121.04 215.529 121.264 216.35C121.488 217.171 121.6 218.151 121.6 219.29ZM125.705 224.96V222.16H126.531C126.792 221.731 126.983 221.203 127.105 220.578C127.226 219.953 127.287 219.211 127.287 218.352V216.084H133.559V222.146H134.679V224.96H133.643V223H126.727V224.96H125.705ZM132.439 216.938H128.295V218.352C128.295 219.211 128.234 219.953 128.113 220.578C128.001 221.194 127.842 221.717 127.637 222.146H132.439V216.938ZM135.532 219.542C135.532 218.235 135.878 217.307 136.568 216.756C137.259 216.205 138.23 215.93 139.48 215.93C140.75 215.93 141.725 216.205 142.406 216.756C143.097 217.307 143.442 218.235 143.442 219.542C143.442 220.877 143.097 221.815 142.406 222.356C141.725 222.888 140.75 223.154 139.48 223.154C138.23 223.154 137.259 222.888 136.568 222.356C135.878 221.815 135.532 220.877 135.532 219.542ZM142.322 219.878V219.206C142.322 218.357 142.08 217.736 141.594 217.344C141.109 216.952 140.404 216.756 139.48 216.756C138.575 216.756 137.875 216.952 137.38 217.344C136.895 217.736 136.652 218.357 136.652 219.206V219.878C136.652 220.727 136.895 221.348 137.38 221.74C137.875 222.123 138.575 222.314 139.48 222.314C140.404 222.314 141.109 222.123 141.594 221.74C142.08 221.348 142.322 220.727 142.322 219.878ZM148.152 222.58C148.152 221.255 148.507 220.331 149.216 219.808C149.926 219.276 150.7 218.884 151.54 218.632C152.38 218.371 153.155 218.105 153.864 217.834C154.574 217.554 154.928 216.999 154.928 216.168V215.776C154.928 215.16 154.686 214.735 154.2 214.502C153.715 214.259 153.099 214.138 152.352 214.138C151.456 214.138 150.775 214.278 150.308 214.558C149.842 214.838 149.571 215.351 149.496 216.098H148.278C148.362 215.034 148.759 214.283 149.468 213.844C150.187 213.405 151.148 213.186 152.352 213.186C153.51 213.186 154.429 213.396 155.11 213.816C155.801 214.236 156.146 214.95 156.146 215.958C156.146 217.059 155.801 217.815 155.11 218.226C154.42 218.637 153.659 218.963 152.828 219.206C151.998 219.439 151.223 219.729 150.504 220.074C149.795 220.41 149.412 221.059 149.356 222.02H156.174V223H148.152V222.58ZM157.572 220.76H158.818C158.967 221.264 159.294 221.633 159.798 221.866C160.311 222.09 160.983 222.202 161.814 222.202C162.728 222.202 163.433 222.034 163.928 221.698C164.432 221.362 164.684 220.821 164.684 220.074V219.626C164.684 218.935 164.436 218.427 163.942 218.1C163.447 217.773 162.752 217.61 161.856 217.61C161.286 217.61 160.745 217.689 160.232 217.848C159.728 218.007 159.308 218.282 158.972 218.674L157.852 218.506L158.398 213.34H158.412H165.342V214.306H159.336L158.972 217.764C159.252 217.475 159.648 217.232 160.162 217.036C160.684 216.831 161.31 216.728 162.038 216.728C163.316 216.728 164.278 216.989 164.922 217.512C165.566 218.035 165.888 218.819 165.888 219.864C165.888 220.947 165.552 221.768 164.88 222.328C164.208 222.879 163.186 223.154 161.814 223.154C160.563 223.154 159.569 222.953 158.832 222.552C158.104 222.141 157.684 221.544 157.572 220.76ZM167.156 220.76H168.402C168.551 221.264 168.878 221.633 169.382 221.866C169.895 222.09 170.567 222.202 171.398 222.202C172.312 222.202 173.017 222.034 173.512 221.698C174.016 221.362 174.268 220.821 174.268 220.074V219.626C174.268 218.935 174.02 218.427 173.526 218.1C173.031 217.773 172.336 217.61 171.44 217.61C170.87 217.61 170.329 217.689 169.816 217.848C169.312 218.007 168.892 218.282 168.556 218.674L167.436 218.506L167.982 213.34H167.996H174.926V214.306H168.92L168.556 217.764C168.836 217.475 169.232 217.232 169.746 217.036C170.268 216.831 170.894 216.728 171.622 216.728C172.9 216.728 173.862 216.989 174.506 217.512C175.15 218.035 175.472 218.819 175.472 219.864C175.472 220.947 175.136 221.768 174.464 222.328C173.792 222.879 172.77 223.154 171.398 223.154C170.147 223.154 169.153 222.953 168.416 222.552C167.688 222.141 167.268 221.544 167.156 220.76ZM22.672 237.29C22.672 236.142 22.784 235.162 23.008 234.35C23.2413 233.529 23.554 232.852 23.946 232.32C24.3473 231.788 24.8187 231.382 25.36 231.102C25.9013 230.822 26.4847 230.645 27.11 230.57V231.508C26.634 231.583 26.1953 231.746 25.794 231.998C25.402 232.25 25.0613 232.581 24.772 232.992C24.4827 233.403 24.2587 233.897 24.1 234.476C23.9413 235.045 23.862 235.689 23.862 236.408V238.13C23.862 238.858 23.9413 239.516 24.1 240.104C24.2587 240.683 24.4827 241.177 24.772 241.588C25.0613 241.999 25.402 242.33 25.794 242.582C26.1953 242.834 26.634 242.997 27.11 243.072V244.01C26.4753 243.935 25.8827 243.758 25.332 243.478C24.7907 243.198 24.324 242.792 23.932 242.26C23.54 241.728 23.232 241.051 23.008 240.23C22.784 239.409 22.672 238.429 22.672 237.29ZM28.105 237.374C28.105 236.095 28.175 235.041 28.315 234.21C28.455 233.379 28.6977 232.721 29.043 232.236C29.3883 231.751 29.8597 231.41 30.457 231.214C31.0637 231.009 31.8197 230.892 32.725 230.864C33.509 230.845 34.1157 230.822 34.545 230.794C34.9743 230.757 35.3057 230.719 35.539 230.682V231.62C35.3337 231.667 35.0117 231.709 34.573 231.746C34.1437 231.774 33.5417 231.793 32.767 231.802C32.0857 231.811 31.5163 231.877 31.059 231.998C30.611 232.11 30.247 232.311 29.967 232.6C29.6963 232.889 29.4957 233.281 29.365 233.776C29.2343 234.271 29.1457 234.901 29.099 235.666C29.3603 235.162 29.757 234.775 30.289 234.504C30.821 234.233 31.493 234.098 32.305 234.098C33.509 234.098 34.4283 234.369 35.063 234.91C35.6977 235.451 36.015 236.333 36.015 237.556C36.015 238.835 35.679 239.754 35.007 240.314C34.335 240.874 33.3503 241.154 32.053 241.154C30.7743 241.154 29.7943 240.869 29.113 240.3C28.441 239.721 28.105 238.746 28.105 237.374ZM34.881 237.864V237.276C34.881 236.445 34.6337 235.848 34.139 235.484C33.6537 235.12 32.9583 234.938 32.053 234.938C31.157 234.938 30.4617 235.12 29.967 235.484C29.4723 235.848 29.225 236.445 29.225 237.276V237.864C29.225 238.732 29.4723 239.357 29.967 239.74C30.4617 240.123 31.157 240.314 32.053 240.314C32.977 240.314 33.677 240.123 34.153 239.74C34.6383 239.357 34.881 238.732 34.881 237.864ZM37.2726 237.542C37.2726 236.263 37.6039 235.344 38.2666 234.784C38.9292 234.215 39.8439 233.93 41.0106 233.93C42.2052 233.93 43.1292 234.196 43.7826 234.728C44.4359 235.26 44.7626 236.109 44.7626 237.276V237.584H38.3926V237.906C38.3926 238.718 38.6119 239.329 39.0506 239.74C39.4986 240.141 40.1519 240.342 41.0106 240.342C41.7012 240.342 42.2612 240.239 42.6906 240.034C43.1292 239.819 43.4232 239.493 43.5726 239.054H44.6786C44.4732 239.782 44.0486 240.314 43.4046 240.65C42.7699 240.986 41.9719 241.154 41.0106 241.154C39.8439 241.154 38.9292 240.874 38.2666 240.314C37.6039 239.754 37.2726 238.83 37.2726 237.542ZM41.0106 234.728C40.2546 234.728 39.6386 234.891 39.1626 235.218C38.6959 235.545 38.4439 236.091 38.4066 236.856H43.6566C43.6192 236.091 43.3766 235.545 42.9286 235.218C42.4899 234.891 41.8506 234.728 41.0106 234.728ZM45.4525 241V240.048H45.5925C45.8258 240.048 46.0265 240.011 46.1945 239.936C46.3625 239.861 46.5025 239.717 46.6145 239.502C46.7265 239.287 46.8105 238.989 46.8665 238.606C46.9225 238.214 46.9505 237.705 46.9505 237.08V234.084H53.0125V241H51.8925V234.938H47.9725V237.094C47.9725 237.897 47.9305 238.555 47.8465 239.068C47.7625 239.581 47.6272 239.983 47.4405 240.272C47.2538 240.552 47.0112 240.743 46.7125 240.846C46.4232 240.949 46.0732 241 45.6625 241H45.4525ZM55.1936 241V234.084H56.3136V236.562H59.6036C60.4249 236.562 61.0316 236.744 61.4236 237.108C61.8249 237.472 62.0256 238.004 62.0256 238.704C62.0256 239.432 61.8249 239.997 61.4236 240.398C61.0316 240.799 60.4249 241 59.6036 241H55.1936ZM60.9056 238.886V238.536C60.9056 238.191 60.7936 237.915 60.5696 237.71C60.3549 237.495 59.9909 237.388 59.4776 237.388H56.3136V240.174H59.4776C59.9909 240.174 60.3549 240.062 60.5696 239.838C60.7936 239.605 60.9056 239.287 60.9056 238.886ZM62.9916 234.084H64.1116V241H62.9916V234.084ZM67.4848 230.738H68.4928C68.4928 231.251 68.6001 231.643 68.8148 231.914C69.0295 232.175 69.3748 232.306 69.8508 232.306C70.3081 232.306 70.6488 232.175 70.8728 231.914C71.0968 231.643 71.2088 231.251 71.2088 230.738H72.2028C72.2028 231.494 71.9975 232.068 71.5868 232.46C71.1855 232.852 70.6068 233.048 69.8508 233.048C69.0948 233.048 68.5115 232.857 68.1008 232.474C67.6995 232.082 67.4941 231.503 67.4848 230.738ZM66.3088 234.084H67.4288V239.936L72.0628 234.084H73.4068V241H72.2868V235.148L67.6528 241H66.3088V234.084ZM78.8889 237.29C78.8889 238.438 78.7722 239.423 78.5389 240.244C78.3149 241.056 78.0022 241.728 77.6009 242.26C77.2089 242.792 76.7422 243.198 76.2009 243.478C75.6596 243.758 75.0762 243.935 74.4509 244.01V243.072C74.9269 242.997 75.3609 242.834 75.7529 242.582C76.1542 242.33 76.4996 241.999 76.7889 241.588C77.0782 241.177 77.3022 240.687 77.4609 240.118C77.6196 239.539 77.6989 238.891 77.6989 238.172V236.45C77.6989 235.722 77.6196 235.069 77.4609 234.49C77.3022 233.902 77.0782 233.403 76.7889 232.992C76.4996 232.581 76.1542 232.25 75.7529 231.998C75.3609 231.746 74.9269 231.583 74.4509 231.508V230.57C75.0856 230.645 75.6736 230.822 76.2149 231.102C76.7656 231.382 77.2369 231.788 77.6289 232.32C78.0209 232.852 78.3289 233.529 78.5529 234.35C78.7769 235.171 78.8889 236.151 78.8889 237.29ZM84.0549 234.084H88.4649C89.2489 234.084 89.8136 234.238 90.1589 234.546C90.5042 234.854 90.6769 235.251 90.6769 235.736C90.6769 236.081 90.5976 236.408 90.4389 236.716C90.2802 237.015 89.9629 237.225 89.4869 237.346C90.0469 237.477 90.4296 237.701 90.6349 238.018C90.8496 238.326 90.9569 238.657 90.9569 239.012C90.9569 239.703 90.7656 240.207 90.3829 240.524C90.0002 240.841 89.3982 241 88.5769 241H84.0549V234.084ZM89.5569 236.058V235.792C89.5569 235.512 89.4729 235.288 89.3049 235.12C89.1369 234.952 88.8196 234.868 88.3529 234.868H85.1749V237.066H88.3669C88.8242 237.066 89.1369 236.968 89.3049 236.772C89.4729 236.576 89.5569 236.338 89.5569 236.058ZM89.8369 239.138V238.83C89.8369 238.494 89.7202 238.237 89.4869 238.06C89.2536 237.883 88.8896 237.794 88.3949 237.794H85.1749V240.216H88.3949C88.8896 240.216 89.2536 240.132 89.4869 239.964C89.7202 239.787 89.8369 239.511 89.8369 239.138ZM95.7635 238.298C95.7635 237.626 95.9688 237.085 96.3795 236.674C96.7902 236.254 97.3688 235.979 98.1155 235.848C97.4435 235.717 96.9488 235.47 96.6315 235.106C96.3235 234.733 96.1695 234.271 96.1695 233.72C96.1695 233.244 96.2675 232.847 96.4635 232.53C96.6688 232.203 96.9488 231.942 97.3035 231.746C97.6582 231.541 98.0828 231.396 98.5775 231.312C99.0815 231.228 99.6275 231.186 100.215 231.186C100.803 231.186 101.345 231.228 101.839 231.312C102.343 231.396 102.773 231.541 103.127 231.746C103.482 231.942 103.757 232.203 103.953 232.53C104.159 232.847 104.261 233.244 104.261 233.72C104.261 234.271 104.112 234.733 103.813 235.106C103.515 235.47 103.029 235.717 102.357 235.848C103.085 235.979 103.65 236.254 104.051 236.674C104.462 237.085 104.667 237.626 104.667 238.298C104.667 239.297 104.28 240.025 103.505 240.482C102.74 240.93 101.643 241.154 100.215 241.154C98.7782 241.154 97.6768 240.93 96.9115 240.482C96.1462 240.025 95.7635 239.297 95.7635 238.298ZM103.057 233.986V233.664C103.057 233.132 102.838 232.74 102.399 232.488C101.961 232.236 101.233 232.11 100.215 232.11C99.1982 232.11 98.4702 232.236 98.0315 232.488C97.5928 232.74 97.3735 233.132 97.3735 233.664V233.986C97.3735 234.462 97.5928 234.831 98.0315 235.092C98.4702 235.353 99.1982 235.484 100.215 235.484C101.233 235.475 101.961 235.344 102.399 235.092C102.838 234.831 103.057 234.462 103.057 233.986ZM103.463 238.48V238.116C103.463 237.5 103.183 237.052 102.623 236.772C102.073 236.483 101.27 236.338 100.215 236.338C99.1608 236.338 98.3535 236.478 97.7935 236.758C97.2335 237.029 96.9535 237.472 96.9535 238.088V238.48C96.9535 239.087 97.2335 239.53 97.7935 239.81C98.3628 240.09 99.1702 240.23 100.215 240.23C101.261 240.23 102.063 240.095 102.623 239.824C103.183 239.544 103.463 239.096 103.463 238.48ZM106.14 236.884H110.886V237.906H106.14V236.884ZM112.529 237.374C112.529 236.095 112.599 235.041 112.739 234.21C112.879 233.379 113.121 232.721 113.467 232.236C113.812 231.751 114.283 231.41 114.881 231.214C115.487 231.009 116.243 230.892 117.149 230.864C117.933 230.845 118.539 230.822 118.969 230.794C119.398 230.757 119.729 230.719 119.963 230.682V231.62C119.757 231.667 119.435 231.709 118.997 231.746C118.567 231.774 117.965 231.793 117.191 231.802C116.509 231.811 115.94 231.877 115.483 231.998C115.035 232.11 114.671 232.311 114.391 232.6C114.12 232.889 113.919 233.281 113.789 233.776C113.658 234.271 113.569 234.901 113.523 235.666C113.784 235.162 114.181 234.775 114.713 234.504C115.245 234.233 115.917 234.098 116.729 234.098C117.933 234.098 118.852 234.369 119.487 234.91C120.121 235.451 120.439 236.333 120.439 237.556C120.439 238.835 120.103 239.754 119.431 240.314C118.759 240.874 117.774 241.154 116.477 241.154C115.198 241.154 114.218 240.869 113.537 240.3C112.865 239.721 112.529 238.746 112.529 237.374ZM119.305 237.864V237.276C119.305 236.445 119.057 235.848 118.563 235.484C118.077 235.12 117.382 234.938 116.477 234.938C115.581 234.938 114.885 235.12 114.391 235.484C113.896 235.848 113.649 236.445 113.649 237.276V237.864C113.649 238.732 113.896 239.357 114.391 239.74C114.885 240.123 115.581 240.314 116.477 240.314C117.401 240.314 118.101 240.123 118.577 239.74C119.062 239.357 119.305 238.732 119.305 237.864ZM122.158 234.084H123.278V239.796L127.982 234.084H129.256V241H128.15V235.274L123.446 241H122.158V234.084ZM133.555 234.938H130.559V234.084H137.671V234.938H134.675V241H133.555V234.938ZM138.961 234.084H140.081V237.052H144.827V234.084H145.947V241H144.827V237.92H140.081V241H138.961V234.084ZM147.673 237.542C147.673 236.235 148.018 235.307 148.709 234.756C149.4 234.205 150.37 233.93 151.621 233.93C152.89 233.93 153.866 234.205 154.547 234.756C155.238 235.307 155.583 236.235 155.583 237.542C155.583 238.877 155.238 239.815 154.547 240.356C153.866 240.888 152.89 241.154 151.621 241.154C150.37 241.154 149.4 240.888 148.709 240.356C148.018 239.815 147.673 238.877 147.673 237.542ZM154.463 237.878V237.206C154.463 236.357 154.22 235.736 153.735 235.344C153.25 234.952 152.545 234.756 151.621 234.756C150.716 234.756 150.016 234.952 149.521 235.344C149.036 235.736 148.793 236.357 148.793 237.206V237.878C148.793 238.727 149.036 239.348 149.521 239.74C150.016 240.123 150.716 240.314 151.621 240.314C152.545 240.314 153.25 240.123 153.735 239.74C154.22 239.348 154.463 238.727 154.463 237.878ZM161.131 239.964L158.317 234.952V241H157.309V234.084H158.919L161.761 239.124L164.617 234.084H166.199V241H165.093V234.98L162.279 239.964H161.131ZM27.236 259.154C25.78 259.154 24.646 258.888 23.834 258.356C23.022 257.815 22.616 256.877 22.616 255.542C22.616 254.235 23.022 253.307 23.834 252.756C24.646 252.205 25.78 251.93 27.236 251.93V248.78H28.356V251.93C29.812 251.93 30.946 252.205 31.758 252.756C32.5793 253.307 32.99 254.235 32.99 255.542C32.99 256.877 32.5793 257.815 31.758 258.356C30.946 258.888 29.812 259.154 28.356 259.154V261.8H27.236V259.154ZM27.236 252.756C26.1533 252.756 25.2993 252.947 24.674 253.33C24.0487 253.703 23.736 254.338 23.736 255.234V255.808C23.736 256.713 24.0393 257.357 24.646 257.74C25.262 258.123 26.1253 258.314 27.236 258.314V252.756ZM31.87 255.808V255.22C31.87 254.324 31.562 253.689 30.946 253.316C30.33 252.943 29.4667 252.756 28.356 252.756V258.314C29.4573 258.314 30.316 258.123 30.932 257.74C31.5573 257.357 31.87 256.713 31.87 255.808ZM34.2374 255.542C34.2374 254.235 34.5828 253.307 35.2734 252.756C35.9641 252.205 36.9348 251.93 38.1854 251.93C39.4548 251.93 40.4301 252.205 41.1114 252.756C41.8021 253.307 42.1474 254.235 42.1474 255.542C42.1474 256.877 41.8021 257.815 41.1114 258.356C40.4301 258.888 39.4548 259.154 38.1854 259.154C36.9348 259.154 35.9641 258.888 35.2734 258.356C34.5828 257.815 34.2374 256.877 34.2374 255.542ZM41.0274 255.878V255.206C41.0274 254.357 40.7848 253.736 40.2994 253.344C39.8141 252.952 39.1094 252.756 38.1854 252.756C37.2801 252.756 36.5801 252.952 36.0854 253.344C35.6001 253.736 35.3574 254.357 35.3574 255.206V255.878C35.3574 256.727 35.6001 257.348 36.0854 257.74C36.5801 258.123 37.2801 258.314 38.1854 258.314C39.1094 258.314 39.8141 258.123 40.2994 257.74C40.7848 257.348 41.0274 256.727 41.0274 255.878ZM43.8733 252.084H44.9513V253.372C45.2313 252.868 45.6326 252.504 46.1553 252.28C46.6779 252.047 47.3033 251.93 48.0313 251.93C49.2259 251.93 50.1499 252.205 50.8033 252.756C51.4566 253.307 51.7833 254.235 51.7833 255.542C51.7833 256.849 51.4566 257.777 50.8033 258.328C50.1499 258.879 49.2259 259.154 48.0313 259.154C47.3219 259.154 46.7106 259.047 46.1973 258.832C45.6839 258.608 45.2826 258.258 44.9933 257.782V261.8H43.8733V252.084ZM50.6493 255.878V255.206C50.6493 254.329 50.4019 253.703 49.9073 253.33C49.4126 252.947 48.7173 252.756 47.8213 252.756C46.8973 252.756 46.1926 252.947 45.7073 253.33C45.2313 253.713 44.9933 254.338 44.9933 255.206V255.878C44.9933 256.718 45.2406 257.334 45.7353 257.726C46.2299 258.118 46.9253 258.314 47.8213 258.314C48.7173 258.314 49.4126 258.118 49.9073 257.726C50.4019 257.334 50.6493 256.718 50.6493 255.878ZM57.3339 257.964L54.5199 252.952V259H53.5119V252.084H55.1219L57.9639 257.124L60.8199 252.084H62.4019V259H61.2959V252.98L58.4819 257.964H57.3339ZM64.1378 257.124C64.1378 256.517 64.3385 256.037 64.7398 255.682C65.1505 255.327 65.8878 255.127 66.9518 255.08L70.2418 254.954V254.744C70.2418 254.035 70.0411 253.526 69.6398 253.218C69.2385 252.901 68.6318 252.742 67.8198 252.742C67.1851 252.742 66.6625 252.84 66.2518 253.036C65.8505 253.223 65.5938 253.559 65.4818 254.044H64.3478C64.4691 253.344 64.8145 252.817 65.3838 252.462C65.9625 252.107 66.7745 251.93 67.8198 251.93C69.0145 251.93 69.9011 252.154 70.4798 252.602C71.0678 253.05 71.3618 253.764 71.3618 254.744V259H70.2838V257.698C70.0225 258.165 69.6025 258.524 69.0238 258.776C68.4451 259.028 67.7638 259.154 66.9798 259.154C65.9531 259.154 65.2205 258.972 64.7818 258.608C64.3525 258.235 64.1378 257.74 64.1378 257.124ZM65.2578 257.166C65.2578 257.549 65.4118 257.843 65.7198 258.048C66.0371 258.244 66.5178 258.342 67.1618 258.342C67.5725 258.342 67.9645 258.305 68.3378 258.23C68.7205 258.146 69.0518 258.015 69.3318 257.838C69.6118 257.651 69.8311 257.409 69.9898 257.11C70.1578 256.811 70.2418 256.447 70.2418 256.018V255.682L67.1478 255.808C66.5131 255.845 66.0371 255.953 65.7198 256.13C65.4118 256.307 65.2578 256.601 65.2578 257.012V257.166ZM75.2858 252.938H72.2898V252.084H79.4018V252.938H76.4058V259H75.2858V252.938ZM79.9015 255.542C79.9015 254.263 80.2328 253.344 80.8955 252.784C81.5582 252.215 82.4728 251.93 83.6395 251.93C84.8342 251.93 85.7582 252.196 86.4115 252.728C87.0648 253.26 87.3915 254.109 87.3915 255.276V255.584H81.0215V255.906C81.0215 256.718 81.2408 257.329 81.6795 257.74C82.1275 258.141 82.7808 258.342 83.6395 258.342C84.3302 258.342 84.8902 258.239 85.3195 258.034C85.7582 257.819 86.0522 257.493 86.2015 257.054H87.3075C87.1022 257.782 86.6775 258.314 86.0335 258.65C85.3988 258.986 84.6008 259.154 83.6395 259.154C82.4728 259.154 81.5582 258.874 80.8955 258.314C80.2328 257.754 79.9015 256.83 79.9015 255.542ZM83.6395 252.728C82.8835 252.728 82.2675 252.891 81.7915 253.218C81.3248 253.545 81.0728 254.091 81.0355 254.856H86.2855C86.2482 254.091 86.0055 253.545 85.5575 253.218C85.1188 252.891 84.4795 252.728 83.6395 252.728ZM88.6124 258.412C88.6124 258.169 88.6824 257.987 88.8224 257.866C88.9624 257.745 89.1631 257.684 89.4244 257.684C89.6951 257.684 89.9004 257.745 90.0404 257.866C90.1804 257.987 90.2504 258.169 90.2504 258.412C90.2504 258.664 90.1804 258.851 90.0404 258.972C89.9004 259.093 89.6951 259.154 89.4244 259.154C89.1631 259.154 88.9624 259.093 88.8224 258.972C88.6824 258.851 88.6124 258.664 88.6124 258.412Z" fill="white"/>
<path d="M23.944 35.112H22.648V26.088H23.944V24.792H25.24V23.496H26.512V22.2H32.992V23.496H34.264V24.792H35.56V26.088H36.856V28.632H34.288V27.384H32.992V26.088H31.72V24.792H27.808V26.088H26.536V27.384H25.24V33.816H26.536V35.112H27.808V36.408H31.72V35.112H32.992V33.816H34.288V32.544H36.856V35.112H35.56V36.408H34.264V37.704H32.992V39H26.512V37.704H25.24V36.408H23.944V35.112ZM39.4596 36.408H38.1636V29.952H39.4596V28.656H40.7316V27.384H47.2116V28.656H48.4836V29.952H49.7796V36.408H48.4836V37.704H47.2116V39H40.7316V37.704H39.4596V36.408ZM42.0276 29.952V31.248H40.7556V35.112H42.0276V36.408H45.9156V35.112H47.1876V31.248H45.9156V29.952H42.0276ZM52.3737 36.408H51.0777V29.952H52.3737V28.656H53.6697V27.384H60.1257V28.656H61.4217V29.952H62.7177V32.52H60.1257V31.224H58.8297V29.928H54.9657V31.224H53.6697V35.136H54.9657V36.432H58.8297V35.136H60.1257V33.84H62.7177V36.408H61.4217V37.704H60.1257V39H53.6697V37.704H52.3737V36.408ZM67.9096 29.904H62.7496V27.36H75.6616V29.904H70.5016V39H67.9096V29.904ZM82.1367 33.84V35.136H79.5447V36.408H83.4327V35.112H86.0007V33.84H82.1367ZM78.2487 37.704H76.9527V33.84H78.2487V32.544H80.8407V31.248H86.0007V29.952H79.5447V31.248H76.9527V28.656H78.2487V27.36H87.2727V28.656H88.5687V36.408H89.8647V39H87.2967V37.704H84.7287V39H78.2487V37.704ZM93.7478 29.952V31.248H100.204V29.952H93.7478ZM93.7478 33.84V36.408H100.204V33.84H93.7478ZM101.5 28.656H102.796V32.544H101.5V33.84H102.796V37.704H101.5V39H91.1558V27.36H101.5V28.656ZM29.104 55.952V62.408H27.808V63.704H26.512V65H22.648V62.408H25.216V61.112H26.512V53.36H36.832V65H34.288V55.952H29.104ZM47.1408 55.928H41.9808V57.248H47.1408V55.928ZM40.6848 59.84V61.112H41.9808V62.408H47.1408V61.112H51.0287V62.408H49.7328V63.704H48.4368V65H40.7088V63.704H39.4128V62.408H38.1168V55.952H39.4128V54.656H40.7088V53.384H48.4368V54.656H49.7328V55.952H51.0287V59.84H40.6848ZM61.3679 55.952H54.9119V65H52.3199V53.36H63.9119V65H61.3679V55.952ZM74.2345 55.928H69.0745V57.248H74.2345V55.928ZM67.7785 59.84V61.112H69.0745V62.408H74.2345V61.112H78.1225V62.408H76.8265V63.704H75.5305V65H67.8025V63.704H66.5065V62.408H65.2105V55.952H66.5065V54.656H67.8025V53.384H75.5305V54.656H76.8265V55.952H78.1225V59.84H67.7785ZM80.7096 62.408H79.4136V55.952H80.7096V54.656H82.0056V53.384H88.4616V54.656H89.7576V55.952H91.0536V58.52H88.4616V57.224H87.1656V55.928H83.3016V57.224H82.0056V61.136H83.3016V62.432H87.1656V61.136H88.4616V59.84H91.0536V62.408H89.7576V63.704H88.4616V65H82.0056V63.704H80.7096V62.408ZM96.2455 55.904H91.0855V53.36H103.997V55.904H98.8375V65H96.2455V55.904ZM113.041 62.408H110.449V61.136H109.153V62.408H107.881V65H105.289V53.36H107.881V58.544H109.153V57.248H110.449V55.952H111.745V54.656H113.041V53.36H115.633V55.952H114.337V57.248H113.041V58.544H111.745V59.816H114.337V61.112H115.633V62.408H116.905V65H114.337V63.704H113.041V62.408ZM118.233 62.408H116.937V55.952H118.233V54.656H119.505V53.384H125.985V54.656H127.257V55.952H128.553V62.408H127.257V63.704H125.985V65H119.505V63.704H118.233V62.408ZM120.801 55.952V57.248H119.529V61.112H120.801V62.408H124.689V61.112H125.961V57.248H124.689V55.952H120.801ZM132.443 55.952V57.248H138.899V55.952H132.443ZM132.443 59.84V62.408H138.899V59.84H132.443ZM140.195 54.656H141.491V58.544H140.195V59.84H141.491V63.704H140.195V65H129.851V53.36H140.195V54.656Z" fill="white"/>
</svg>
