<svg width="237" height="288" viewBox="0 0 237 288" fill="none" xmlns="http://www.w3.org/2000/svg">
<rect x="2.5" y="2.5" width="232" height="283" fill="#161616" stroke="white" stroke-width="5"/>
<path d="M22.7 93.954H34.894V94.864H22.7V93.954ZM39.4281 95.998H40.5621C40.6835 96.4273 40.9308 96.7587 41.3041 96.992C41.6868 97.216 42.2841 97.328 43.0961 97.328C43.9828 97.328 44.6455 97.1273 45.0841 96.726C45.5228 96.3247 45.7421 95.732 45.7421 94.948V94.892H41.8641V94.108H45.7421C45.7328 93.3333 45.5135 92.75 45.0841 92.358C44.6548 91.9567 43.9921 91.756 43.0961 91.756C42.3401 91.756 41.7708 91.854 41.3881 92.05C41.0055 92.246 40.7395 92.568 40.5901 93.016H39.4701C39.6288 92.3347 40.0068 91.8167 40.6041 91.462C41.2108 91.1073 42.0461 90.93 43.1101 90.93C44.3608 90.93 45.2941 91.224 45.9101 91.812C46.5355 92.4 46.8481 93.3147 46.8481 94.556C46.8481 95.7973 46.5355 96.7073 45.9101 97.286C45.2848 97.8647 44.3468 98.154 43.0961 98.154C42.0508 98.154 41.2155 97.9813 40.5901 97.636C39.9648 97.2813 39.5775 96.7353 39.4281 95.998ZM50.3619 91.938H47.3659V91.084H54.4779V91.938H51.4819V98H50.3619V91.938ZM54.9777 94.542C54.9777 93.2353 55.323 92.3067 56.0137 91.756C56.7043 91.2053 57.675 90.93 58.9257 90.93C60.195 90.93 61.1703 91.2053 61.8517 91.756C62.5423 92.3067 62.8877 93.2353 62.8877 94.542C62.8877 95.8767 62.5423 96.8147 61.8517 97.356C61.1703 97.888 60.195 98.154 58.9257 98.154C57.675 98.154 56.7043 97.888 56.0137 97.356C55.323 96.8147 54.9777 95.8767 54.9777 94.542ZM61.7677 94.878V94.206C61.7677 93.3567 61.525 92.736 61.0397 92.344C60.5543 91.952 59.8497 91.756 58.9257 91.756C58.0203 91.756 57.3203 91.952 56.8257 92.344C56.3403 92.736 56.0977 93.3567 56.0977 94.206V94.878C56.0977 95.7273 56.3403 96.348 56.8257 96.74C57.3203 97.1227 58.0203 97.314 58.9257 97.314C59.8497 97.314 60.5543 97.1227 61.0397 96.74C61.525 96.348 61.7677 95.7273 61.7677 94.878ZM68.0178 91.084H74.8638V98H73.7438V91.938H69.1378V98H68.0178V91.084ZM77.0412 91.084H78.1192V92.372C78.3992 91.868 78.8006 91.504 79.3232 91.28C79.8459 91.0467 80.4712 90.93 81.1992 90.93C82.3939 90.93 83.3179 91.2053 83.9712 91.756C84.6246 92.3067 84.9512 93.2353 84.9512 94.542C84.9512 95.8487 84.6246 96.7773 83.9712 97.328C83.3179 97.8787 82.3939 98.154 81.1992 98.154C80.4899 98.154 79.8786 98.0467 79.3652 97.832C78.8519 97.608 78.4506 97.258 78.1612 96.782V100.8H77.0412V91.084ZM83.8172 94.878V94.206C83.8172 93.3287 83.5699 92.7033 83.0752 92.33C82.5806 91.9473 81.8852 91.756 80.9892 91.756C80.0652 91.756 79.3606 91.9473 78.8752 92.33C78.3992 92.7127 78.1612 93.338 78.1612 94.206V94.878C78.1612 95.718 78.4086 96.334 78.9032 96.726C79.3979 97.118 80.0932 97.314 80.9892 97.314C81.8852 97.314 82.5806 97.118 83.0752 96.726C83.5699 96.334 83.8172 95.718 83.8172 94.878ZM86.2179 94.542C86.2179 93.2353 86.5632 92.3067 87.2539 91.756C87.9446 91.2053 88.9152 90.93 90.1659 90.93C91.4352 90.93 92.4106 91.2053 93.0919 91.756C93.7826 92.3067 94.1279 93.2353 94.1279 94.542C94.1279 95.8767 93.7826 96.8147 93.0919 97.356C92.4106 97.888 91.4352 98.154 90.1659 98.154C88.9152 98.154 87.9446 97.888 87.2539 97.356C86.5632 96.8147 86.2179 95.8767 86.2179 94.542ZM93.0079 94.878V94.206C93.0079 93.3567 92.7652 92.736 92.2799 92.344C91.7946 91.952 91.0899 91.756 90.1659 91.756C89.2606 91.756 88.5606 91.952 88.0659 92.344C87.5806 92.736 87.3379 93.3567 87.3379 94.206V94.878C87.3379 95.7273 87.5806 96.348 88.0659 96.74C88.5606 97.1227 89.2606 97.314 90.1659 97.314C91.0899 97.314 91.7946 97.1227 92.2799 96.74C92.7652 96.348 93.0079 95.7273 93.0079 94.878ZM102.798 99.96V98H95.8537V91.084H96.9737V97.146H101.58V91.084H102.7V97.146H103.82V99.96H102.798ZM104.689 94.542C104.689 93.2633 105.02 92.344 105.683 91.784C106.345 91.2147 107.26 90.93 108.427 90.93C109.621 90.93 110.545 91.196 111.199 91.728C111.852 92.26 112.179 93.1093 112.179 94.276V94.584H105.809V94.906C105.809 95.718 106.028 96.3293 106.467 96.74C106.915 97.1413 107.568 97.342 108.427 97.342C109.117 97.342 109.677 97.2393 110.107 97.034C110.545 96.8193 110.839 96.4927 110.989 96.054H112.095C111.889 96.782 111.465 97.314 110.821 97.65C110.186 97.986 109.388 98.154 108.427 98.154C107.26 98.154 106.345 97.874 105.683 97.314C105.02 96.754 104.689 95.83 104.689 94.542ZM108.427 91.728C107.671 91.728 107.055 91.8913 106.579 92.218C106.112 92.5447 105.86 93.0907 105.823 93.856H111.073C111.035 93.0907 110.793 92.5447 110.345 92.218C109.906 91.8913 109.267 91.728 108.427 91.728ZM113.398 94.556C113.398 93.324 113.71 92.414 114.336 91.826C114.97 91.2287 115.927 90.93 117.206 90.93C118.242 90.93 119.063 91.1073 119.67 91.462C120.276 91.8073 120.645 92.344 120.776 93.072H119.642C119.492 92.5867 119.222 92.246 118.83 92.05C118.438 91.854 117.892 91.756 117.192 91.756C116.277 91.756 115.605 91.952 115.176 92.344C114.746 92.736 114.532 93.352 114.532 94.192V94.906C114.532 95.7833 114.765 96.404 115.232 96.768C115.698 97.132 116.352 97.314 117.192 97.314C117.92 97.314 118.475 97.2067 118.858 96.992C119.25 96.768 119.52 96.4553 119.67 96.054H120.79C120.64 96.7353 120.262 97.258 119.656 97.622C119.058 97.9767 118.237 98.154 117.192 98.154C115.988 98.154 115.054 97.888 114.392 97.356C113.729 96.8147 113.398 95.8813 113.398 94.556ZM121.915 94.556C121.915 93.324 122.228 92.414 122.853 91.826C123.488 91.2287 124.444 90.93 125.723 90.93C126.759 90.93 127.58 91.1073 128.187 91.462C128.794 91.8073 129.162 92.344 129.293 93.072H128.159C128.01 92.5867 127.739 92.246 127.347 92.05C126.955 91.854 126.409 91.756 125.709 91.756C124.794 91.756 124.122 91.952 123.693 92.344C123.264 92.736 123.049 93.352 123.049 94.192V94.906C123.049 95.7833 123.282 96.404 123.749 96.768C124.216 97.132 124.869 97.314 125.709 97.314C126.437 97.314 126.992 97.2067 127.375 96.992C127.767 96.768 128.038 96.4553 128.187 96.054H129.307C129.158 96.7353 128.78 97.258 128.173 97.622C127.576 97.9767 126.754 98.154 125.709 98.154C124.505 98.154 123.572 97.888 122.909 97.356C122.246 96.8147 121.915 95.8813 121.915 94.556ZM134.299 91.084H141.145V98H140.025V91.938H135.419V98H134.299V91.084ZM142.86 94.542C142.86 93.2633 143.192 92.344 143.854 91.784C144.517 91.2147 145.432 90.93 146.598 90.93C147.793 90.93 148.717 91.196 149.37 91.728C150.024 92.26 150.35 93.1093 150.35 94.276V94.584H143.98V94.906C143.98 95.718 144.2 96.3293 144.638 96.74C145.086 97.1413 145.74 97.342 146.598 97.342C147.289 97.342 147.849 97.2393 148.278 97.034C148.717 96.8193 149.011 96.4927 149.16 96.054H150.266C150.061 96.782 149.636 97.314 148.992 97.65C148.358 97.986 147.56 98.154 146.598 98.154C145.432 98.154 144.517 97.874 143.854 97.314C143.192 96.754 142.86 95.83 142.86 94.542ZM146.598 91.728C145.842 91.728 145.226 91.8913 144.75 92.218C144.284 92.5447 144.032 93.0907 143.994 93.856H149.244C149.207 93.0907 148.964 92.5447 148.516 92.218C148.078 91.8913 147.438 91.728 146.598 91.728ZM152.031 91.084H153.109V92.372C153.389 91.868 153.791 91.504 154.313 91.28C154.836 91.0467 155.461 90.93 156.189 90.93C157.384 90.93 158.308 91.2053 158.961 91.756C159.615 92.3067 159.941 93.2353 159.941 94.542C159.941 95.8487 159.615 96.7773 158.961 97.328C158.308 97.8787 157.384 98.154 156.189 98.154C155.48 98.154 154.869 98.0467 154.355 97.832C153.842 97.608 153.441 97.258 153.151 96.782V100.8H152.031V91.084ZM158.807 94.878V94.206C158.807 93.3287 158.56 92.7033 158.065 92.33C157.571 91.9473 156.875 91.756 155.979 91.756C155.055 91.756 154.351 91.9473 153.865 92.33C153.389 92.7127 153.151 93.338 153.151 94.206V94.878C153.151 95.718 153.399 96.334 153.893 96.726C154.388 97.118 155.083 97.314 155.979 97.314C156.875 97.314 157.571 97.118 158.065 96.726C158.56 96.334 158.807 95.718 158.807 94.878ZM161.208 94.542C161.208 93.2633 161.539 92.344 162.202 91.784C162.865 91.2147 163.779 90.93 164.946 90.93C166.141 90.93 167.065 91.196 167.718 91.728C168.371 92.26 168.698 93.1093 168.698 94.276V94.584H162.328V94.906C162.328 95.718 162.547 96.3293 162.986 96.74C163.434 97.1413 164.087 97.342 164.946 97.342C165.637 97.342 166.197 97.2393 166.626 97.034C167.065 96.8193 167.359 96.4927 167.508 96.054H168.614C168.409 96.782 167.984 97.314 167.34 97.65C166.705 97.986 165.907 98.154 164.946 98.154C163.779 98.154 162.865 97.874 162.202 97.314C161.539 96.754 161.208 95.83 161.208 94.542ZM164.946 91.728C164.19 91.728 163.574 91.8913 163.098 92.218C162.631 92.5447 162.379 93.0907 162.342 93.856H167.592C167.555 93.0907 167.312 92.5447 166.864 92.218C166.425 91.8913 165.786 91.728 164.946 91.728ZM170.379 91.084H174.789C175.573 91.084 176.138 91.238 176.483 91.546C176.828 91.854 177.001 92.2507 177.001 92.736C177.001 93.0813 176.922 93.408 176.763 93.716C176.604 94.0147 176.287 94.2247 175.811 94.346C176.371 94.4767 176.754 94.7007 176.959 95.018C177.174 95.326 177.281 95.6573 177.281 96.012C177.281 96.7027 177.09 97.2067 176.707 97.524C176.324 97.8413 175.722 98 174.901 98H170.379V91.084ZM175.881 93.058V92.792C175.881 92.512 175.797 92.288 175.629 92.12C175.461 91.952 175.144 91.868 174.677 91.868H171.499V94.066H174.691C175.148 94.066 175.461 93.968 175.629 93.772C175.797 93.576 175.881 93.338 175.881 93.058ZM176.161 96.138V95.83C176.161 95.494 176.044 95.2373 175.811 95.06C175.578 94.8827 175.214 94.794 174.719 94.794H171.499V97.216H174.719C175.214 97.216 175.578 97.132 175.811 96.964C176.044 96.7867 176.161 96.5113 176.161 96.138ZM178.571 94.542C178.571 93.2353 178.917 92.3067 179.607 91.756C180.298 91.2053 181.269 90.93 182.519 90.93C183.789 90.93 184.764 91.2053 185.445 91.756C186.136 92.3067 186.481 93.2353 186.481 94.542C186.481 95.8767 186.136 96.8147 185.445 97.356C184.764 97.888 183.789 98.154 182.519 98.154C181.269 98.154 180.298 97.888 179.607 97.356C178.917 96.8147 178.571 95.8767 178.571 94.542ZM185.361 94.878V94.206C185.361 93.3567 185.119 92.736 184.633 92.344C184.148 91.952 183.443 91.756 182.519 91.756C181.614 91.756 180.914 91.952 180.419 92.344C179.934 92.736 179.691 93.3567 179.691 94.206V94.878C179.691 95.7273 179.934 96.348 180.419 96.74C180.914 97.1227 181.614 97.314 182.519 97.314C183.443 97.314 184.148 97.1227 184.633 96.74C185.119 96.348 185.361 95.7273 185.361 94.878ZM187.133 99.96V97.16H187.959C188.22 96.7307 188.411 96.2033 188.533 95.578C188.654 94.9527 188.715 94.2107 188.715 93.352V91.084H194.987V97.146H196.107V99.96H195.071V98H188.155V99.96H187.133ZM193.867 91.938H189.723V93.352C189.723 94.2107 189.662 94.9527 189.541 95.578C189.429 96.194 189.27 96.7167 189.065 97.146H193.867V91.938ZM197.028 96.124C197.028 95.5173 197.229 95.0367 197.63 94.682C198.041 94.3273 198.778 94.1267 199.842 94.08L203.132 93.954V93.744C203.132 93.0347 202.932 92.526 202.53 92.218C202.129 91.9007 201.522 91.742 200.71 91.742C200.076 91.742 199.553 91.84 199.142 92.036C198.741 92.2227 198.484 92.5587 198.372 93.044H197.238C197.36 92.344 197.705 91.8167 198.274 91.462C198.853 91.1073 199.665 90.93 200.71 90.93C201.905 90.93 202.792 91.154 203.37 91.602C203.958 92.05 204.252 92.764 204.252 93.744V98H203.174V96.698C202.913 97.1647 202.493 97.524 201.914 97.776C201.336 98.028 200.654 98.154 199.87 98.154C198.844 98.154 198.111 97.972 197.672 97.608C197.243 97.2347 197.028 96.74 197.028 96.124ZM198.148 96.166C198.148 96.5487 198.302 96.8427 198.61 97.048C198.928 97.244 199.408 97.342 200.052 97.342C200.463 97.342 200.855 97.3047 201.228 97.23C201.611 97.146 201.942 97.0153 202.222 96.838C202.502 96.6513 202.722 96.4087 202.88 96.11C203.048 95.8113 203.132 95.4473 203.132 95.018V94.682L200.038 94.808C199.404 94.8453 198.928 94.9527 198.61 95.13C198.302 95.3073 198.148 95.6013 198.148 96.012V96.166ZM23.092 109.084H24.212V114.796L28.916 109.084H30.19V116H29.084V110.274L24.38 116H23.092V109.084ZM32.3889 109.084H33.5089V112.052H38.2549V109.084H39.3749V116H38.2549V112.92H33.5089V116H32.3889V109.084ZM45.7067 116.154C44.2507 116.154 43.1167 115.888 42.3047 115.356C41.4927 114.815 41.0867 113.877 41.0867 112.542C41.0867 111.235 41.4927 110.307 42.3047 109.756C43.1167 109.205 44.2507 108.93 45.7067 108.93V105.78H46.8267V108.93C48.2827 108.93 49.4167 109.205 50.2287 109.756C51.05 110.307 51.4607 111.235 51.4607 112.542C51.4607 113.877 51.05 114.815 50.2287 115.356C49.4167 115.888 48.2827 116.154 46.8267 116.154V118.8H45.7067V116.154ZM45.7067 109.756C44.624 109.756 43.77 109.947 43.1447 110.33C42.5194 110.703 42.2067 111.338 42.2067 112.234V112.808C42.2067 113.713 42.51 114.357 43.1167 114.74C43.7327 115.123 44.596 115.314 45.7067 115.314V109.756ZM50.3407 112.808V112.22C50.3407 111.324 50.0327 110.689 49.4167 110.316C48.8007 109.943 47.9374 109.756 46.8267 109.756V115.314C47.928 115.314 48.7867 115.123 49.4027 114.74C50.028 114.357 50.3407 113.713 50.3407 112.808ZM52.7081 112.542C52.7081 111.235 53.0535 110.307 53.7441 109.756C54.4348 109.205 55.4055 108.93 56.6561 108.93C57.9255 108.93 58.9008 109.205 59.5821 109.756C60.2728 110.307 60.6181 111.235 60.6181 112.542C60.6181 113.877 60.2728 114.815 59.5821 115.356C58.9008 115.888 57.9255 116.154 56.6561 116.154C55.4055 116.154 54.4348 115.888 53.7441 115.356C53.0535 114.815 52.7081 113.877 52.7081 112.542ZM59.4981 112.878V112.206C59.4981 111.357 59.2555 110.736 58.7701 110.344C58.2848 109.952 57.5801 109.756 56.6561 109.756C55.7508 109.756 55.0508 109.952 54.5561 110.344C54.0708 110.736 53.8281 111.357 53.8281 112.206V112.878C53.8281 113.727 54.0708 114.348 54.5561 114.74C55.0508 115.123 55.7508 115.314 56.6561 115.314C57.5801 115.314 58.2848 115.123 58.7701 114.74C59.2555 114.348 59.4981 113.727 59.4981 112.878ZM62.344 109.084H63.422V110.372C63.702 109.868 64.1033 109.504 64.626 109.28C65.1486 109.047 65.774 108.93 66.502 108.93C67.6966 108.93 68.6206 109.205 69.274 109.756C69.9273 110.307 70.254 111.235 70.254 112.542C70.254 113.849 69.9273 114.777 69.274 115.328C68.6206 115.879 67.6966 116.154 66.502 116.154C65.7926 116.154 65.1813 116.047 64.668 115.832C64.1546 115.608 63.7533 115.258 63.464 114.782V118.8H62.344V109.084ZM69.12 112.878V112.206C69.12 111.329 68.8726 110.703 68.378 110.33C67.8833 109.947 67.188 109.756 66.292 109.756C65.368 109.756 64.6633 109.947 64.178 110.33C63.702 110.713 63.464 111.338 63.464 112.206V112.878C63.464 113.718 63.7113 114.334 64.206 114.726C64.7006 115.118 65.396 115.314 66.292 115.314C67.188 115.314 67.8833 115.118 68.378 114.726C68.8726 114.334 69.12 113.718 69.12 112.878ZM75.8046 114.964L72.9906 109.952V116H71.9826V109.084H73.5926L76.4346 114.124L79.2906 109.084H80.8726V116H79.7666V109.98L76.9526 114.964H75.8046ZM82.6085 114.124C82.6085 113.517 82.8092 113.037 83.2105 112.682C83.6212 112.327 84.3585 112.127 85.4225 112.08L88.7125 111.954V111.744C88.7125 111.035 88.5118 110.526 88.1105 110.218C87.7092 109.901 87.1025 109.742 86.2905 109.742C85.6558 109.742 85.1332 109.84 84.7225 110.036C84.3212 110.223 84.0645 110.559 83.9525 111.044H82.8185C82.9398 110.344 83.2852 109.817 83.8545 109.462C84.4332 109.107 85.2452 108.93 86.2905 108.93C87.4852 108.93 88.3718 109.154 88.9505 109.602C89.5385 110.05 89.8325 110.764 89.8325 111.744V116H88.7545V114.698C88.4932 115.165 88.0732 115.524 87.4945 115.776C86.9158 116.028 86.2345 116.154 85.4505 116.154C84.4238 116.154 83.6912 115.972 83.2525 115.608C82.8232 115.235 82.6085 114.74 82.6085 114.124ZM83.7285 114.166C83.7285 114.549 83.8825 114.843 84.1905 115.048C84.5078 115.244 84.9885 115.342 85.6325 115.342C86.0432 115.342 86.4352 115.305 86.8085 115.23C87.1912 115.146 87.5225 115.015 87.8025 114.838C88.0825 114.651 88.3018 114.409 88.4605 114.11C88.6285 113.811 88.7125 113.447 88.7125 113.018V112.682L85.6185 112.808C84.9838 112.845 84.5078 112.953 84.1905 113.13C83.8825 113.307 83.7285 113.601 83.7285 114.012V114.166ZM98.8602 117.96V116H91.9162V109.084H93.0362V115.146H97.6422V109.084H98.7622V115.146H99.8822V117.96H98.8602ZM101.309 109.084H102.429V114.796L107.133 109.084H108.407V116H107.301V110.274L102.597 116H101.309V109.084ZM110.606 109.084H111.726V114.796L116.43 109.084H117.704V116H116.598V110.274L111.894 116H110.606V109.084ZM123.307 109.084H127.717C128.501 109.084 129.066 109.238 129.411 109.546C129.756 109.854 129.929 110.251 129.929 110.736C129.929 111.081 129.85 111.408 129.691 111.716C129.532 112.015 129.215 112.225 128.739 112.346C129.299 112.477 129.682 112.701 129.887 113.018C130.102 113.326 130.209 113.657 130.209 114.012C130.209 114.703 130.018 115.207 129.635 115.524C129.252 115.841 128.65 116 127.829 116H123.307V109.084ZM128.809 111.058V110.792C128.809 110.512 128.725 110.288 128.557 110.12C128.389 109.952 128.072 109.868 127.605 109.868H124.427V112.066H127.619C128.076 112.066 128.389 111.968 128.557 111.772C128.725 111.576 128.809 111.338 128.809 111.058ZM129.089 114.138V113.83C129.089 113.494 128.972 113.237 128.739 113.06C128.506 112.883 128.142 112.794 127.647 112.794H124.427V115.216H127.647C128.142 115.216 128.506 115.132 128.739 114.964C128.972 114.787 129.089 114.511 129.089 114.138ZM139.509 116.154C138.053 116.154 136.919 115.888 136.107 115.356C135.295 114.815 134.889 113.877 134.889 112.542C134.889 111.235 135.295 110.307 136.107 109.756C136.919 109.205 138.053 108.93 139.509 108.93V105.78H140.629V108.93C142.085 108.93 143.219 109.205 144.031 109.756C144.853 110.307 145.263 111.235 145.263 112.542C145.263 113.877 144.853 114.815 144.031 115.356C143.219 115.888 142.085 116.154 140.629 116.154V118.8H139.509V116.154ZM139.509 109.756C138.427 109.756 137.573 109.947 136.947 110.33C136.322 110.703 136.009 111.338 136.009 112.234V112.808C136.009 113.713 136.313 114.357 136.919 114.74C137.535 115.123 138.399 115.314 139.509 115.314V109.756ZM144.143 112.808V112.22C144.143 111.324 143.835 110.689 143.219 110.316C142.603 109.943 141.74 109.756 140.629 109.756V115.314C141.731 115.314 142.589 115.123 143.205 114.74C143.831 114.357 144.143 113.713 144.143 112.808ZM146.511 112.542C146.511 111.235 146.856 110.307 147.547 109.756C148.238 109.205 149.208 108.93 150.459 108.93C151.728 108.93 152.704 109.205 153.385 109.756C154.076 110.307 154.421 111.235 154.421 112.542C154.421 113.877 154.076 114.815 153.385 115.356C152.704 115.888 151.728 116.154 150.459 116.154C149.208 116.154 148.238 115.888 147.547 115.356C146.856 114.815 146.511 113.877 146.511 112.542ZM153.301 112.878V112.206C153.301 111.357 153.058 110.736 152.573 110.344C152.088 109.952 151.383 109.756 150.459 109.756C149.554 109.756 148.854 109.952 148.359 110.344C147.874 110.736 147.631 111.357 147.631 112.206V112.878C147.631 113.727 147.874 114.348 148.359 114.74C148.854 115.123 149.554 115.314 150.459 115.314C151.383 115.314 152.088 115.123 152.573 114.74C153.058 114.348 153.301 113.727 153.301 112.878ZM156.147 109.084H157.225V110.372C157.505 109.868 157.906 109.504 158.429 109.28C158.951 109.047 159.577 108.93 160.305 108.93C161.499 108.93 162.423 109.205 163.077 109.756C163.73 110.307 164.057 111.235 164.057 112.542C164.057 113.849 163.73 114.777 163.077 115.328C162.423 115.879 161.499 116.154 160.305 116.154C159.595 116.154 158.984 116.047 158.471 115.832C157.957 115.608 157.556 115.258 157.267 114.782V118.8H156.147V109.084ZM162.923 112.878V112.206C162.923 111.329 162.675 110.703 162.181 110.33C161.686 109.947 160.991 109.756 160.095 109.756C159.171 109.756 158.466 109.947 157.981 110.33C157.505 110.713 157.267 111.338 157.267 112.206V112.878C157.267 113.718 157.514 114.334 158.009 114.726C158.503 115.118 159.199 115.314 160.095 115.314C160.991 115.314 161.686 115.118 162.181 114.726C162.675 114.334 162.923 113.718 162.923 112.878ZM169.607 114.964L166.793 109.952V116H165.785V109.084H167.395L170.237 114.124L173.093 109.084H174.675V116H173.569V109.98L170.755 114.964H169.607ZM176.411 114.124C176.411 113.517 176.612 113.037 177.013 112.682C177.424 112.327 178.161 112.127 179.225 112.08L182.515 111.954V111.744C182.515 111.035 182.315 110.526 181.913 110.218C181.512 109.901 180.905 109.742 180.093 109.742C179.459 109.742 178.936 109.84 178.525 110.036C178.124 110.223 177.867 110.559 177.755 111.044H176.621C176.743 110.344 177.088 109.817 177.657 109.462C178.236 109.107 179.048 108.93 180.093 108.93C181.288 108.93 182.175 109.154 182.753 109.602C183.341 110.05 183.635 110.764 183.635 111.744V116H182.557V114.698C182.296 115.165 181.876 115.524 181.297 115.776C180.719 116.028 180.037 116.154 179.253 116.154C178.227 116.154 177.494 115.972 177.055 115.608C176.626 115.235 176.411 114.74 176.411 114.124ZM177.531 114.166C177.531 114.549 177.685 114.843 177.993 115.048C178.311 115.244 178.791 115.342 179.435 115.342C179.846 115.342 180.238 115.305 180.611 115.23C180.994 115.146 181.325 115.015 181.605 114.838C181.885 114.651 182.105 114.409 182.263 114.11C182.431 113.811 182.515 113.447 182.515 113.018V112.682L179.421 112.808C178.787 112.845 178.311 112.953 177.993 113.13C177.685 113.307 177.531 113.601 177.531 114.012V114.166ZM187.559 109.938H184.563V109.084H191.675V109.938H188.679V116H187.559V109.938ZM191.796 117.204C192.029 117.204 192.202 117.139 192.314 117.008C192.426 116.877 192.482 116.672 192.482 116.392V116.154H192.426C192.164 116.154 191.968 116.093 191.838 115.972C191.707 115.841 191.642 115.655 191.642 115.412C191.642 115.169 191.707 114.987 191.838 114.866C191.978 114.745 192.178 114.684 192.44 114.684C192.71 114.684 192.916 114.745 193.056 114.866C193.196 114.987 193.266 115.179 193.266 115.44V116.308C193.266 116.868 193.144 117.269 192.902 117.512C192.659 117.764 192.29 117.89 191.796 117.89V117.204ZM23.092 127.084H24.212V132.796L28.916 127.084H30.19V134H29.084V128.274L24.38 134H23.092V127.084ZM31.9269 130.556C31.9269 129.324 32.2395 128.414 32.8649 127.826C33.4995 127.229 34.4562 126.93 35.7349 126.93C36.7709 126.93 37.5922 127.107 38.1989 127.462C38.8055 127.807 39.1742 128.344 39.3049 129.072H38.1709C38.0215 128.587 37.7509 128.246 37.3589 128.05C36.9669 127.854 36.4209 127.756 35.7209 127.756C34.8062 127.756 34.1342 127.952 33.7049 128.344C33.2755 128.736 33.0609 129.352 33.0609 130.192V130.906C33.0609 131.783 33.2942 132.404 33.7609 132.768C34.2275 133.132 34.8809 133.314 35.7209 133.314C36.4489 133.314 37.0042 133.207 37.3869 132.992C37.7789 132.768 38.0495 132.455 38.1989 132.054H39.3189C39.1695 132.735 38.7915 133.258 38.1849 133.622C37.5875 133.977 36.7662 134.154 35.7209 134.154C34.5169 134.154 33.5835 133.888 32.9209 133.356C32.2582 132.815 31.9269 131.881 31.9269 130.556ZM40.9065 127.084H47.7525V134H46.6325V127.938H42.0265V134H40.9065V127.084ZM49.4679 130.542C49.4679 129.235 49.8132 128.307 50.5039 127.756C51.1946 127.205 52.1652 126.93 53.4159 126.93C54.6852 126.93 55.6606 127.205 56.3419 127.756C57.0326 128.307 57.3779 129.235 57.3779 130.542C57.3779 131.877 57.0326 132.815 56.3419 133.356C55.6606 133.888 54.6852 134.154 53.4159 134.154C52.1652 134.154 51.1946 133.888 50.5039 133.356C49.8132 132.815 49.4679 131.877 49.4679 130.542ZM56.2579 130.878V130.206C56.2579 129.357 56.0152 128.736 55.5299 128.344C55.0446 127.952 54.3399 127.756 53.4159 127.756C52.5106 127.756 51.8106 127.952 51.3159 128.344C50.8306 128.736 50.5879 129.357 50.5879 130.206V130.878C50.5879 131.727 50.8306 132.348 51.3159 132.74C51.8106 133.123 52.5106 133.314 53.4159 133.314C54.3399 133.314 55.0446 133.123 55.5299 132.74C56.0152 132.348 56.2579 131.727 56.2579 130.878ZM58.0717 134V133.048H58.2117C58.445 133.048 58.6457 133.011 58.8137 132.936C58.9817 132.861 59.1217 132.717 59.2337 132.502C59.3457 132.287 59.4297 131.989 59.4857 131.606C59.5417 131.214 59.5697 130.705 59.5697 130.08V127.084H65.6317V134H64.5117V127.938H60.5917V130.094C60.5917 130.897 60.5497 131.555 60.4657 132.068C60.3817 132.581 60.2463 132.983 60.0597 133.272C59.873 133.552 59.6303 133.743 59.3317 133.846C59.0423 133.949 58.6923 134 58.2817 134H58.0717ZM67.8127 134V127.084H68.9327V129.562H72.2227C73.044 129.562 73.6507 129.744 74.0427 130.108C74.444 130.472 74.6447 131.004 74.6447 131.704C74.6447 132.432 74.444 132.997 74.0427 133.398C73.6507 133.799 73.044 134 72.2227 134H67.8127ZM73.5247 131.886V131.536C73.5247 131.191 73.4127 130.915 73.1887 130.71C72.974 130.495 72.61 130.388 72.0967 130.388H68.9327V133.174H72.0967C72.61 133.174 72.974 133.062 73.1887 132.838C73.4127 132.605 73.5247 132.287 73.5247 131.886ZM75.5082 132.026H76.6422C76.6796 132.493 76.9082 132.833 77.3282 133.048C77.7482 133.253 78.3409 133.356 79.1062 133.356C79.8996 133.356 80.4922 133.263 80.8842 133.076C81.2856 132.889 81.4862 132.572 81.4862 132.124V131.9C81.4862 131.527 81.3229 131.247 80.9962 131.06C80.6789 130.873 80.1936 130.78 79.5402 130.78H77.8882V129.996H79.5122C80.1562 129.996 80.6089 129.912 80.8702 129.744C81.1409 129.567 81.2762 129.31 81.2762 128.974V128.722C81.2762 128.377 81.1036 128.125 80.7582 127.966C80.4129 127.807 79.8622 127.728 79.1062 127.728C78.3596 127.728 77.7949 127.821 77.4122 128.008C77.0296 128.185 76.8009 128.475 76.7262 128.876H75.6062C75.6809 128.204 76.0262 127.714 76.6422 127.406C77.2582 127.089 78.0796 126.93 79.1062 126.93C80.1982 126.93 81.0196 127.084 81.5702 127.392C82.1302 127.691 82.4102 128.157 82.4102 128.792C82.4102 129.137 82.3122 129.45 82.1162 129.73C81.9296 130.01 81.5562 130.211 80.9962 130.332C81.5282 130.453 81.9296 130.659 82.2002 130.948C82.4709 131.228 82.6062 131.583 82.6062 132.012C82.6062 132.749 82.3122 133.291 81.7242 133.636C81.1456 133.981 80.2729 134.154 79.1062 134.154C78.0609 134.154 77.2116 133.991 76.5582 133.664C75.9142 133.337 75.5642 132.791 75.5082 132.026ZM84.0096 135.946H84.7656C85.1949 135.946 85.5263 135.871 85.7596 135.722C86.0023 135.573 86.2263 135.283 86.4316 134.854L86.7676 134.154L83.1976 127.084H84.4016L87.3416 132.978L90.2256 127.084H91.2896L87.3696 135.064C87.0616 135.708 86.7303 136.156 86.3756 136.408C86.0209 136.669 85.5216 136.8 84.8776 136.8H84.0096V135.946ZM92.4904 127.084H93.6104V129.996H95.2484C95.3418 128.885 95.7244 128.097 96.3964 127.63C97.0684 127.163 97.9738 126.93 99.1124 126.93C100.354 126.93 101.31 127.205 101.982 127.756C102.654 128.297 102.99 129.226 102.99 130.542C102.99 131.858 102.654 132.791 101.982 133.342C101.31 133.883 100.354 134.154 99.1124 134.154C97.9271 134.154 96.9938 133.902 96.3124 133.398C95.6404 132.894 95.2764 132.045 95.2204 130.85H93.6104V134H92.4904V127.084ZM101.856 130.864V130.206C101.856 129.31 101.614 128.68 101.128 128.316C100.652 127.943 99.9804 127.756 99.1124 127.756C98.2444 127.756 97.5678 127.943 97.0824 128.316C96.5971 128.68 96.3544 129.31 96.3544 130.206V130.864C96.3544 131.76 96.5971 132.395 97.0824 132.768C97.5678 133.132 98.2444 133.314 99.1124 133.314C99.9804 133.314 100.652 133.132 101.128 132.768C101.614 132.395 101.856 131.76 101.856 130.864ZM104.713 127.084H105.833V133.146H109.221V127.084H110.341V133.146H113.743V127.084H114.863V133.146H116.081V135.96H115.045V134H104.713V127.084ZM117.428 127.084H118.548V132.796L123.252 127.084H124.526V134H123.42V128.274L118.716 134H117.428V127.084ZM127.901 123.738H128.909C128.909 124.251 129.016 124.643 129.231 124.914C129.445 125.175 129.791 125.306 130.267 125.306C130.724 125.306 131.065 125.175 131.289 124.914C131.513 124.643 131.625 124.251 131.625 123.738H132.619C132.619 124.494 132.413 125.068 132.003 125.46C131.601 125.852 131.023 126.048 130.267 126.048C129.511 126.048 128.927 125.857 128.517 125.474C128.115 125.082 127.91 124.503 127.901 123.738ZM126.725 127.084H127.845V132.936L132.479 127.084H133.823V134H132.703V128.148L128.069 134H126.725V127.084ZM141.184 127.938H138.188V127.084H145.3V127.938H142.304V134H141.184V127.938ZM145.8 130.542C145.8 129.235 146.145 128.307 146.836 127.756C147.527 127.205 148.497 126.93 149.748 126.93C151.017 126.93 151.993 127.205 152.674 127.756C153.365 128.307 153.71 129.235 153.71 130.542C153.71 131.877 153.365 132.815 152.674 133.356C151.993 133.888 151.017 134.154 149.748 134.154C148.497 134.154 147.527 133.888 146.836 133.356C146.145 132.815 145.8 131.877 145.8 130.542ZM152.59 130.878V130.206C152.59 129.357 152.347 128.736 151.862 128.344C151.377 127.952 150.672 127.756 149.748 127.756C148.843 127.756 148.143 127.952 147.648 128.344C147.163 128.736 146.92 129.357 146.92 130.206V130.878C146.92 131.727 147.163 132.348 147.648 132.74C148.143 133.123 148.843 133.314 149.748 133.314C150.672 133.314 151.377 133.123 151.862 132.74C152.347 132.348 152.59 131.727 152.59 130.878ZM154.404 134V133.048H154.544C154.777 133.048 154.978 133.011 155.146 132.936C155.314 132.861 155.454 132.717 155.566 132.502C155.678 132.287 155.762 131.989 155.818 131.606C155.874 131.214 155.902 130.705 155.902 130.08V127.084H161.964V134H160.844V127.938H156.924V130.094C156.924 130.897 156.882 131.555 156.798 132.068C156.714 132.581 156.578 132.983 156.392 133.272C156.205 133.552 155.962 133.743 155.664 133.846C155.374 133.949 155.024 134 154.614 134H154.404ZM164.145 134V127.084H165.265V129.562H168.555C169.376 129.562 169.983 129.744 170.375 130.108C170.776 130.472 170.977 131.004 170.977 131.704C170.977 132.432 170.776 132.997 170.375 133.398C169.983 133.799 169.376 134 168.555 134H164.145ZM169.857 131.886V131.536C169.857 131.191 169.745 130.915 169.521 130.71C169.306 130.495 168.942 130.388 168.429 130.388H165.265V133.174H168.429C168.942 133.174 169.306 133.062 169.521 132.838C169.745 132.605 169.857 132.287 169.857 131.886ZM172.498 127.084H173.618V130.038H174.878L177.958 127.084H179.288L175.83 130.388L179.652 134H178.182L174.92 130.906H173.618V134H172.498V127.084ZM179.775 130.542C179.775 129.235 180.12 128.307 180.811 127.756C181.501 127.205 182.472 126.93 183.723 126.93C184.992 126.93 185.967 127.205 186.649 127.756C187.339 128.307 187.685 129.235 187.685 130.542C187.685 131.877 187.339 132.815 186.649 133.356C185.967 133.888 184.992 134.154 183.723 134.154C182.472 134.154 181.501 133.888 180.811 133.356C180.12 132.815 179.775 131.877 179.775 130.542ZM186.565 130.878V130.206C186.565 129.357 186.322 128.736 185.837 128.344C185.351 127.952 184.647 127.756 183.723 127.756C182.817 127.756 182.117 127.952 181.623 128.344C181.137 128.736 180.895 129.357 180.895 130.206V130.878C180.895 131.727 181.137 132.348 181.623 132.74C182.117 133.123 182.817 133.314 183.723 133.314C184.647 133.314 185.351 133.123 185.837 132.74C186.322 132.348 186.565 131.727 186.565 130.878ZM22.154 153.96V151.16H22.98C23.2413 150.731 23.4327 150.203 23.554 149.578C23.6753 148.953 23.736 148.211 23.736 147.352V145.084H30.008V151.146H31.128V153.96H30.092V152H23.176V153.96H22.154ZM28.888 145.938H24.744V147.352C24.744 148.211 24.6833 148.953 24.562 149.578C24.45 150.194 24.2913 150.717 24.086 151.146H28.888V145.938ZM32.5393 145.084H36.9493C37.7333 145.084 38.2979 145.238 38.6433 145.546C38.9886 145.854 39.1613 146.251 39.1613 146.736C39.1613 147.081 39.0819 147.408 38.9233 147.716C38.7646 148.015 38.4473 148.225 37.9713 148.346C38.5313 148.477 38.9139 148.701 39.1193 149.018C39.3339 149.326 39.4413 149.657 39.4413 150.012C39.4413 150.703 39.2499 151.207 38.8673 151.524C38.4846 151.841 37.8826 152 37.0613 152H32.5393V145.084ZM38.0413 147.058V146.792C38.0413 146.512 37.9573 146.288 37.7893 146.12C37.6213 145.952 37.3039 145.868 36.8373 145.868H33.6593V148.066H36.8513C37.3086 148.066 37.6213 147.968 37.7893 147.772C37.9573 147.576 38.0413 147.338 38.0413 147.058ZM38.3213 150.138V149.83C38.3213 149.494 38.2046 149.237 37.9713 149.06C37.7379 148.883 37.3739 148.794 36.8793 148.794H33.6593V151.216H36.8793C37.3739 151.216 37.7379 151.132 37.9713 150.964C38.2046 150.787 38.3213 150.511 38.3213 150.138ZM40.7316 148.542C40.7316 147.263 41.0629 146.344 41.7256 145.784C42.3882 145.215 43.3029 144.93 44.4696 144.93C45.6642 144.93 46.5882 145.196 47.2416 145.728C47.8949 146.26 48.2216 147.109 48.2216 148.276V148.584H41.8516V148.906C41.8516 149.718 42.0709 150.329 42.5096 150.74C42.9576 151.141 43.6109 151.342 44.4696 151.342C45.1602 151.342 45.7202 151.239 46.1496 151.034C46.5882 150.819 46.8822 150.493 47.0316 150.054H48.1376C47.9322 150.782 47.5076 151.314 46.8636 151.65C46.2289 151.986 45.4309 152.154 44.4696 152.154C43.3029 152.154 42.3882 151.874 41.7256 151.314C41.0629 150.754 40.7316 149.83 40.7316 148.542ZM44.4696 145.728C43.7136 145.728 43.0976 145.891 42.6216 146.218C42.1549 146.545 41.9029 147.091 41.8656 147.856H47.1156C47.0782 147.091 46.8356 146.545 46.3876 146.218C45.9489 145.891 45.3096 145.728 44.4696 145.728ZM60.2508 153.96V152H53.3068V145.084H54.4268V151.146H59.0328V145.084H60.1528V151.146H61.2728V153.96H60.2508ZM62.6994 145.084H63.8194V150.796L68.5234 145.084H69.7974V152H68.6914V146.274L63.9874 152H62.6994V145.084ZM76.1403 152.154C74.6843 152.154 73.5503 151.888 72.7383 151.356C71.9263 150.815 71.5203 149.877 71.5203 148.542C71.5203 147.235 71.9263 146.307 72.7383 145.756C73.5503 145.205 74.6843 144.93 76.1403 144.93V141.78H77.2603V144.93C78.7163 144.93 79.8503 145.205 80.6623 145.756C81.4836 146.307 81.8943 147.235 81.8943 148.542C81.8943 149.877 81.4836 150.815 80.6623 151.356C79.8503 151.888 78.7163 152.154 77.2603 152.154V154.8H76.1403V152.154ZM76.1403 145.756C75.0576 145.756 74.2036 145.947 73.5783 146.33C72.953 146.703 72.6403 147.338 72.6403 148.234V148.808C72.6403 149.713 72.9436 150.357 73.5503 150.74C74.1663 151.123 75.0296 151.314 76.1403 151.314V145.756ZM80.7743 148.808V148.22C80.7743 147.324 80.4663 146.689 79.8503 146.316C79.2343 145.943 78.371 145.756 77.2603 145.756V151.314C78.3616 151.314 79.2203 151.123 79.8363 150.74C80.4616 150.357 80.7743 149.713 80.7743 148.808ZM83.6037 145.084H84.6817V146.372C84.9617 145.868 85.3631 145.504 85.8857 145.28C86.4084 145.047 87.0337 144.93 87.7617 144.93C88.9564 144.93 89.8804 145.205 90.5337 145.756C91.1871 146.307 91.5137 147.235 91.5137 148.542C91.5137 149.849 91.1871 150.777 90.5337 151.328C89.8804 151.879 88.9564 152.154 87.7617 152.154C87.0524 152.154 86.4411 152.047 85.9277 151.832C85.4144 151.608 85.0131 151.258 84.7237 150.782V154.8H83.6037V145.084ZM90.3797 148.878V148.206C90.3797 147.329 90.1324 146.703 89.6377 146.33C89.1431 145.947 88.4477 145.756 87.5517 145.756C86.6277 145.756 85.9231 145.947 85.4377 146.33C84.9617 146.713 84.7237 147.338 84.7237 148.206V148.878C84.7237 149.718 84.9711 150.334 85.4657 150.726C85.9604 151.118 86.6557 151.314 87.5517 151.314C88.4477 151.314 89.1431 151.118 89.6377 150.726C90.1324 150.334 90.3797 149.718 90.3797 148.878ZM93.2424 152V145.084H94.3624V147.562H97.6524C98.4737 147.562 99.0804 147.744 99.4724 148.108C99.8737 148.472 100.074 149.004 100.074 149.704C100.074 150.432 99.8737 150.997 99.4724 151.398C99.0804 151.799 98.4737 152 97.6524 152H93.2424ZM98.9544 149.886V149.536C98.9544 149.191 98.8424 148.915 98.6184 148.71C98.4037 148.495 98.0397 148.388 97.5264 148.388H94.3624V151.174H97.5264C98.0397 151.174 98.4037 151.062 98.6184 150.838C98.8424 150.605 98.9544 150.287 98.9544 149.886ZM101.04 145.084H102.16V152H101.04V145.084ZM104.176 151.412C104.176 151.169 104.246 150.987 104.386 150.866C104.526 150.745 104.726 150.684 104.988 150.684C105.258 150.684 105.464 150.745 105.604 150.866C105.744 150.987 105.814 151.169 105.814 151.412C105.814 151.664 105.744 151.851 105.604 151.972C105.464 152.093 105.258 152.154 104.988 152.154C104.726 152.154 104.526 152.093 104.386 151.972C104.246 151.851 104.176 151.664 104.176 151.412ZM104.176 146.302C104.176 146.059 104.246 145.877 104.386 145.756C104.526 145.635 104.726 145.574 104.988 145.574C105.258 145.574 105.464 145.635 105.604 145.756C105.744 145.877 105.814 146.059 105.814 146.302C105.814 146.554 105.744 146.741 105.604 146.862C105.464 146.983 105.258 147.044 104.988 147.044C104.726 147.044 104.526 146.983 104.386 146.862C104.246 146.741 104.176 146.554 104.176 146.302ZM110.913 147.142C110.913 145.397 111.328 144.137 112.159 143.362C112.999 142.578 114.17 142.186 115.673 142.186C117.176 142.186 118.342 142.578 119.173 143.362C120.013 144.137 120.433 145.397 120.433 147.142C120.433 148.859 120.013 150.124 119.173 150.936C118.342 151.748 117.176 152.154 115.673 152.154C114.17 152.154 112.999 151.748 112.159 150.936C111.328 150.124 110.913 148.859 110.913 147.142ZM119.215 147.562V146.652C119.215 145.457 118.916 144.575 118.319 144.006C117.722 143.437 116.84 143.152 115.673 143.152C114.506 143.152 113.62 143.437 113.013 144.006C112.416 144.566 112.117 145.453 112.117 146.666V147.576C112.117 148.752 112.416 149.648 113.013 150.264C113.62 150.88 114.506 151.188 115.673 151.188C116.84 151.188 117.722 150.88 118.319 150.264C118.916 149.648 119.215 148.747 119.215 147.562ZM125.699 145.084H126.819V150.796L131.523 145.084H132.797V152H131.691V146.274L126.987 152H125.699V145.084ZM137.673 143.81L139.885 142.34H141.089V152H139.885V143.446L137.673 144.93V143.81ZM143.054 151.412C143.054 151.169 143.124 150.987 143.264 150.866C143.404 150.745 143.605 150.684 143.866 150.684C144.137 150.684 144.342 150.745 144.482 150.866C144.622 150.987 144.692 151.169 144.692 151.412C144.692 151.664 144.622 151.851 144.482 151.972C144.342 152.093 144.137 152.154 143.866 152.154C143.605 152.154 143.404 152.093 143.264 151.972C143.124 151.851 143.054 151.664 143.054 151.412ZM152.199 143.32H148.223V142.34H157.379V143.32H153.403V152H152.199V143.32ZM156.368 150.124C156.368 149.517 156.569 149.037 156.97 148.682C157.381 148.327 158.118 148.127 159.182 148.08L162.472 147.954V147.744C162.472 147.035 162.272 146.526 161.87 146.218C161.469 145.901 160.862 145.742 160.05 145.742C159.416 145.742 158.893 145.84 158.482 146.036C158.081 146.223 157.824 146.559 157.712 147.044H156.578C156.7 146.344 157.045 145.817 157.614 145.462C158.193 145.107 159.005 144.93 160.05 144.93C161.245 144.93 162.132 145.154 162.71 145.602C163.298 146.05 163.592 146.764 163.592 147.744V152H162.514V150.698C162.253 151.165 161.833 151.524 161.254 151.776C160.676 152.028 159.994 152.154 159.21 152.154C158.184 152.154 157.451 151.972 157.012 151.608C156.583 151.235 156.368 150.74 156.368 150.124ZM157.488 150.166C157.488 150.549 157.642 150.843 157.95 151.048C158.268 151.244 158.748 151.342 159.392 151.342C159.803 151.342 160.195 151.305 160.568 151.23C160.951 151.146 161.282 151.015 161.562 150.838C161.842 150.651 162.062 150.409 162.22 150.11C162.388 149.811 162.472 149.447 162.472 149.018V148.682L159.378 148.808C158.744 148.845 158.268 148.953 157.95 149.13C157.642 149.307 157.488 149.601 157.488 150.012V150.166ZM165.676 145.084H166.796V148.038H168.056L171.136 145.084H172.466L169.008 148.388L172.83 152H171.36L168.098 148.906H166.796V152H165.676V145.084ZM172.952 148.542C172.952 147.235 173.298 146.307 173.988 145.756C174.679 145.205 175.65 144.93 176.9 144.93C178.17 144.93 179.145 145.205 179.826 145.756C180.517 146.307 180.862 147.235 180.862 148.542C180.862 149.877 180.517 150.815 179.826 151.356C179.145 151.888 178.17 152.154 176.9 152.154C175.65 152.154 174.679 151.888 173.988 151.356C173.298 150.815 172.952 149.877 172.952 148.542ZM179.742 148.878V148.206C179.742 147.357 179.5 146.736 179.014 146.344C178.529 145.952 177.824 145.756 176.9 145.756C175.995 145.756 175.295 145.952 174.8 146.344C174.315 146.736 174.072 147.357 174.072 148.206V148.878C174.072 149.727 174.315 150.348 174.8 150.74C175.295 151.123 175.995 151.314 176.9 151.314C177.824 151.314 178.529 151.123 179.014 150.74C179.5 150.348 179.742 149.727 179.742 148.878ZM183.764 141.738H184.772C184.772 142.251 184.879 142.643 185.094 142.914C185.309 143.175 185.654 143.306 186.13 143.306C186.587 143.306 186.928 143.175 187.152 142.914C187.376 142.643 187.488 142.251 187.488 141.738H188.482C188.482 142.494 188.277 143.068 187.866 143.46C187.465 143.852 186.886 144.048 186.13 144.048C185.374 144.048 184.791 143.857 184.38 143.474C183.979 143.082 183.773 142.503 183.764 141.738ZM182.588 145.084H183.708V150.936L188.342 145.084H189.686V152H188.566V146.148L183.932 152H182.588V145.084ZM27.236 170.154C25.78 170.154 24.646 169.888 23.834 169.356C23.022 168.815 22.616 167.877 22.616 166.542C22.616 165.235 23.022 164.307 23.834 163.756C24.646 163.205 25.78 162.93 27.236 162.93V159.78H28.356V162.93C29.812 162.93 30.946 163.205 31.758 163.756C32.5793 164.307 32.99 165.235 32.99 166.542C32.99 167.877 32.5793 168.815 31.758 169.356C30.946 169.888 29.812 170.154 28.356 170.154V172.8H27.236V170.154ZM27.236 163.756C26.1533 163.756 25.2993 163.947 24.674 164.33C24.0487 164.703 23.736 165.338 23.736 166.234V166.808C23.736 167.713 24.0393 168.357 24.646 168.74C25.262 169.123 26.1253 169.314 27.236 169.314V163.756ZM31.87 166.808V166.22C31.87 165.324 31.562 164.689 30.946 164.316C30.33 163.943 29.4667 163.756 28.356 163.756V169.314C29.4573 169.314 30.316 169.123 30.932 168.74C31.5573 168.357 31.87 167.713 31.87 166.808ZM34.2374 166.542C34.2374 165.235 34.5828 164.307 35.2734 163.756C35.9641 163.205 36.9348 162.93 38.1854 162.93C39.4548 162.93 40.4301 163.205 41.1114 163.756C41.8021 164.307 42.1474 165.235 42.1474 166.542C42.1474 167.877 41.8021 168.815 41.1114 169.356C40.4301 169.888 39.4548 170.154 38.1854 170.154C36.9348 170.154 35.9641 169.888 35.2734 169.356C34.5828 168.815 34.2374 167.877 34.2374 166.542ZM41.0274 166.878V166.206C41.0274 165.357 40.7848 164.736 40.2994 164.344C39.8141 163.952 39.1094 163.756 38.1854 163.756C37.2801 163.756 36.5801 163.952 36.0854 164.344C35.6001 164.736 35.3574 165.357 35.3574 166.206V166.878C35.3574 167.727 35.6001 168.348 36.0854 168.74C36.5801 169.123 37.2801 169.314 38.1854 169.314C39.1094 169.314 39.8141 169.123 40.2994 168.74C40.7848 168.348 41.0274 167.727 41.0274 166.878ZM43.8733 163.084H44.9513V164.372C45.2313 163.868 45.6326 163.504 46.1553 163.28C46.6779 163.047 47.3033 162.93 48.0313 162.93C49.2259 162.93 50.1499 163.205 50.8033 163.756C51.4566 164.307 51.7833 165.235 51.7833 166.542C51.7833 167.849 51.4566 168.777 50.8033 169.328C50.1499 169.879 49.2259 170.154 48.0313 170.154C47.3219 170.154 46.7106 170.047 46.1973 169.832C45.6839 169.608 45.2826 169.258 44.9933 168.782V172.8H43.8733V163.084ZM50.6493 166.878V166.206C50.6493 165.329 50.4019 164.703 49.9073 164.33C49.4126 163.947 48.7173 163.756 47.8213 163.756C46.8973 163.756 46.1926 163.947 45.7073 164.33C45.2313 164.713 44.9933 165.338 44.9933 166.206V166.878C44.9933 167.718 45.2406 168.334 45.7353 168.726C46.2299 169.118 46.9253 169.314 47.8213 169.314C48.7173 169.314 49.4126 169.118 49.9073 168.726C50.4019 168.334 50.6493 167.718 50.6493 166.878ZM57.3339 168.964L54.5199 163.952V170H53.5119V163.084H55.1219L57.9639 168.124L60.8199 163.084H62.4019V170H61.2959V163.98L58.4819 168.964H57.3339ZM64.1378 168.124C64.1378 167.517 64.3385 167.037 64.7398 166.682C65.1505 166.327 65.8878 166.127 66.9518 166.08L70.2418 165.954V165.744C70.2418 165.035 70.0411 164.526 69.6398 164.218C69.2385 163.901 68.6318 163.742 67.8198 163.742C67.1851 163.742 66.6625 163.84 66.2518 164.036C65.8505 164.223 65.5938 164.559 65.4818 165.044H64.3478C64.4691 164.344 64.8145 163.817 65.3838 163.462C65.9625 163.107 66.7745 162.93 67.8198 162.93C69.0145 162.93 69.9011 163.154 70.4798 163.602C71.0678 164.05 71.3618 164.764 71.3618 165.744V170H70.2838V168.698C70.0225 169.165 69.6025 169.524 69.0238 169.776C68.4451 170.028 67.7638 170.154 66.9798 170.154C65.9531 170.154 65.2205 169.972 64.7818 169.608C64.3525 169.235 64.1378 168.74 64.1378 168.124ZM65.2578 168.166C65.2578 168.549 65.4118 168.843 65.7198 169.048C66.0371 169.244 66.5178 169.342 67.1618 169.342C67.5725 169.342 67.9645 169.305 68.3378 169.23C68.7205 169.146 69.0518 169.015 69.3318 168.838C69.6118 168.651 69.8311 168.409 69.9898 168.11C70.1578 167.811 70.2418 167.447 70.2418 167.018V166.682L67.1478 166.808C66.5131 166.845 66.0371 166.953 65.7198 167.13C65.4118 167.307 65.2578 167.601 65.2578 168.012V168.166ZM75.2858 163.938H72.2898V163.084H79.4018V163.938H76.4058V170H75.2858V163.938ZM83.7541 163.084H90.6001V170H89.4801V163.938H84.8741V170H83.7541V163.084ZM92.3155 166.542C92.3155 165.235 92.6609 164.307 93.3515 163.756C94.0422 163.205 95.0129 162.93 96.2635 162.93C97.5329 162.93 98.5082 163.205 99.1895 163.756C99.8802 164.307 100.226 165.235 100.226 166.542C100.226 167.877 99.8802 168.815 99.1895 169.356C98.5082 169.888 97.5329 170.154 96.2635 170.154C95.0129 170.154 94.0422 169.888 93.3515 169.356C92.6609 168.815 92.3155 167.877 92.3155 166.542ZM99.1055 166.878V166.206C99.1055 165.357 98.8629 164.736 98.3775 164.344C97.8922 163.952 97.1875 163.756 96.2635 163.756C95.3582 163.756 94.6582 163.952 94.1635 164.344C93.6782 164.736 93.4355 165.357 93.4355 166.206V166.878C93.4355 167.727 93.6782 168.348 94.1635 168.74C94.6582 169.123 95.3582 169.314 96.2635 169.314C97.1875 169.314 97.8922 169.123 98.3775 168.74C98.8629 168.348 99.1055 167.727 99.1055 166.878ZM101.293 168.026H102.427C102.465 168.493 102.693 168.833 103.113 169.048C103.533 169.253 104.126 169.356 104.891 169.356C105.685 169.356 106.277 169.263 106.669 169.076C107.071 168.889 107.271 168.572 107.271 168.124V167.9C107.271 167.527 107.108 167.247 106.781 167.06C106.464 166.873 105.979 166.78 105.325 166.78H103.673V165.996H105.297C105.941 165.996 106.394 165.912 106.655 165.744C106.926 165.567 107.061 165.31 107.061 164.974V164.722C107.061 164.377 106.889 164.125 106.543 163.966C106.198 163.807 105.647 163.728 104.891 163.728C104.145 163.728 103.58 163.821 103.197 164.008C102.815 164.185 102.586 164.475 102.511 164.876H101.391C101.466 164.204 101.811 163.714 102.427 163.406C103.043 163.089 103.865 162.93 104.891 162.93C105.983 162.93 106.805 163.084 107.355 163.392C107.915 163.691 108.195 164.157 108.195 164.792C108.195 165.137 108.097 165.45 107.901 165.73C107.715 166.01 107.341 166.211 106.781 166.332C107.313 166.453 107.715 166.659 107.985 166.948C108.256 167.228 108.391 167.583 108.391 168.012C108.391 168.749 108.097 169.291 107.509 169.636C106.931 169.981 106.058 170.154 104.891 170.154C103.846 170.154 102.997 169.991 102.343 169.664C101.699 169.337 101.349 168.791 101.293 168.026ZM110.086 163.084H114.496C115.28 163.084 115.845 163.238 116.19 163.546C116.535 163.854 116.708 164.251 116.708 164.736C116.708 165.081 116.629 165.408 116.47 165.716C116.311 166.015 115.994 166.225 115.518 166.346C116.078 166.477 116.461 166.701 116.666 167.018C116.881 167.326 116.988 167.657 116.988 168.012C116.988 168.703 116.797 169.207 116.414 169.524C116.031 169.841 115.429 170 114.608 170H110.086V163.084ZM115.588 165.058V164.792C115.588 164.512 115.504 164.288 115.336 164.12C115.168 163.952 114.851 163.868 114.384 163.868H111.206V166.066H114.398C114.855 166.066 115.168 165.968 115.336 165.772C115.504 165.576 115.588 165.338 115.588 165.058ZM115.868 168.138V167.83C115.868 167.494 115.751 167.237 115.518 167.06C115.285 166.883 114.921 166.794 114.426 166.794H111.206V169.216H114.426C114.921 169.216 115.285 169.132 115.518 168.964C115.751 168.787 115.868 168.511 115.868 168.138ZM118.278 166.542C118.278 165.235 118.624 164.307 119.314 163.756C120.005 163.205 120.976 162.93 122.226 162.93C123.496 162.93 124.471 163.205 125.152 163.756C125.843 164.307 126.188 165.235 126.188 166.542C126.188 167.877 125.843 168.815 125.152 169.356C124.471 169.888 123.496 170.154 122.226 170.154C120.976 170.154 120.005 169.888 119.314 169.356C118.624 168.815 118.278 167.877 118.278 166.542ZM125.068 166.878V166.206C125.068 165.357 124.826 164.736 124.34 164.344C123.855 163.952 123.15 163.756 122.226 163.756C121.321 163.756 120.621 163.952 120.126 164.344C119.641 164.736 119.398 165.357 119.398 166.206V166.878C119.398 167.727 119.641 168.348 120.126 168.74C120.621 169.123 121.321 169.314 122.226 169.314C123.15 169.314 123.855 169.123 124.34 168.74C124.826 168.348 125.068 167.727 125.068 166.878ZM126.882 170V169.048H127.022C127.256 169.048 127.456 169.011 127.624 168.936C127.792 168.861 127.932 168.717 128.044 168.502C128.156 168.287 128.24 167.989 128.296 167.606C128.352 167.214 128.38 166.705 128.38 166.08V163.084H134.442V170H133.322V163.938H129.402V166.094C129.402 166.897 129.36 167.555 129.276 168.068C129.192 168.581 129.057 168.983 128.87 169.272C128.684 169.552 128.441 169.743 128.142 169.846C127.853 169.949 127.503 170 127.092 170H126.882ZM141.859 167.34H139.185L137.239 170H136.021L138.023 167.242C137.407 167.149 136.945 166.929 136.637 166.584C136.339 166.229 136.189 165.781 136.189 165.24C136.189 164.577 136.385 164.055 136.777 163.672C137.169 163.28 137.762 163.084 138.555 163.084H142.979V170H141.859V167.34ZM141.859 163.896H138.709C138.28 163.896 137.939 163.994 137.687 164.19C137.435 164.386 137.309 164.671 137.309 165.044V165.436C137.309 165.791 137.431 166.061 137.673 166.248C137.916 166.435 138.261 166.528 138.709 166.528H141.859V163.896ZM144.706 166.542C144.706 165.263 145.038 164.344 145.7 163.784C146.363 163.215 147.278 162.93 148.444 162.93C149.639 162.93 150.563 163.196 151.216 163.728C151.87 164.26 152.196 165.109 152.196 166.276V166.584H145.826V166.906C145.826 167.718 146.046 168.329 146.484 168.74C146.932 169.141 147.586 169.342 148.444 169.342C149.135 169.342 149.695 169.239 150.124 169.034C150.563 168.819 150.857 168.493 151.006 168.054H152.112C151.907 168.782 151.482 169.314 150.838 169.65C150.204 169.986 149.406 170.154 148.444 170.154C147.278 170.154 146.363 169.874 145.7 169.314C145.038 168.754 144.706 167.83 144.706 166.542ZM148.444 163.728C147.688 163.728 147.072 163.891 146.596 164.218C146.13 164.545 145.878 165.091 145.84 165.856H151.09C151.053 165.091 150.81 164.545 150.362 164.218C149.924 163.891 149.284 163.728 148.444 163.728ZM155.745 163.938H152.749V163.084H159.861V163.938H156.865V170H155.745V163.938ZM23.092 181.084H27.502C28.286 181.084 28.8507 181.238 29.196 181.546C29.5413 181.854 29.714 182.251 29.714 182.736C29.714 183.081 29.6347 183.408 29.476 183.716C29.3173 184.015 29 184.225 28.524 184.346C29.084 184.477 29.4667 184.701 29.672 185.018C29.8867 185.326 29.994 185.657 29.994 186.012C29.994 186.703 29.8027 187.207 29.42 187.524C29.0373 187.841 28.4353 188 27.614 188H23.092V181.084ZM28.594 183.058V182.792C28.594 182.512 28.51 182.288 28.342 182.12C28.174 181.952 27.8567 181.868 27.39 181.868H24.212V184.066H27.404C27.8613 184.066 28.174 183.968 28.342 183.772C28.51 183.576 28.594 183.338 28.594 183.058ZM28.874 186.138V185.83C28.874 185.494 28.7573 185.237 28.524 185.06C28.2907 184.883 27.9267 184.794 27.432 184.794H24.212V187.216H27.432C27.9267 187.216 28.2907 187.132 28.524 186.964C28.7573 186.787 28.874 186.511 28.874 186.138ZM31.7463 188V181.084H32.8663V183.562H36.1563C36.9776 183.562 37.5843 183.744 37.9763 184.108C38.3776 184.472 38.5783 185.004 38.5783 185.704C38.5783 186.432 38.3776 186.997 37.9763 187.398C37.5843 187.799 36.9776 188 36.1563 188H31.7463ZM37.4583 185.886V185.536C37.4583 185.191 37.3463 184.915 37.1223 184.71C36.9076 184.495 36.5436 184.388 36.0303 184.388H32.8663V187.174H36.0303C36.5436 187.174 36.9076 187.062 37.1223 186.838C37.3463 186.605 37.4583 186.287 37.4583 185.886ZM39.5443 181.084H40.6643V188H39.5443V181.084ZM42.8615 181.084H43.9395V182.372C44.2195 181.868 44.6209 181.504 45.1435 181.28C45.6662 181.047 46.2915 180.93 47.0195 180.93C48.2142 180.93 49.1382 181.205 49.7915 181.756C50.4449 182.307 50.7715 183.235 50.7715 184.542C50.7715 185.849 50.4449 186.777 49.7915 187.328C49.1382 187.879 48.2142 188.154 47.0195 188.154C46.3102 188.154 45.6989 188.047 45.1855 187.832C44.6722 187.608 44.2709 187.258 43.9815 186.782V190.8H42.8615V181.084ZM49.6375 184.878V184.206C49.6375 183.329 49.3902 182.703 48.8955 182.33C48.4009 181.947 47.7055 181.756 46.8095 181.756C45.8855 181.756 45.1809 181.947 44.6955 182.33C44.2195 182.713 43.9815 183.338 43.9815 184.206V184.878C43.9815 185.718 44.2289 186.334 44.7235 186.726C45.2182 187.118 45.9135 187.314 46.8095 187.314C47.7055 187.314 48.4009 187.118 48.8955 186.726C49.3902 186.334 49.6375 185.718 49.6375 184.878ZM52.0382 186.124C52.0382 185.517 52.2389 185.037 52.6402 184.682C53.0509 184.327 53.7882 184.127 54.8522 184.08L58.1422 183.954V183.744C58.1422 183.035 57.9415 182.526 57.5402 182.218C57.1389 181.901 56.5322 181.742 55.7202 181.742C55.0855 181.742 54.5629 181.84 54.1522 182.036C53.7509 182.223 53.4942 182.559 53.3822 183.044H52.2482C52.3695 182.344 52.7149 181.817 53.2842 181.462C53.8629 181.107 54.6749 180.93 55.7202 180.93C56.9149 180.93 57.8015 181.154 58.3802 181.602C58.9682 182.05 59.2622 182.764 59.2622 183.744V188H58.1842V186.698C57.9229 187.165 57.5029 187.524 56.9242 187.776C56.3455 188.028 55.6642 188.154 54.8802 188.154C53.8535 188.154 53.1209 187.972 52.6822 187.608C52.2529 187.235 52.0382 186.74 52.0382 186.124ZM53.1582 186.166C53.1582 186.549 53.3122 186.843 53.6202 187.048C53.9375 187.244 54.4182 187.342 55.0622 187.342C55.4729 187.342 55.8649 187.305 56.2382 187.23C56.6209 187.146 56.9522 187.015 57.2322 186.838C57.5122 186.651 57.7315 186.409 57.8902 186.11C58.0582 185.811 58.1422 185.447 58.1422 185.018V184.682L55.0482 184.808C54.4135 184.845 53.9375 184.953 53.6202 185.13C53.3122 185.307 53.1582 185.601 53.1582 186.012V186.166ZM61.3459 181.084H62.4659V187.146H65.8539V181.084H66.9739V187.146H70.3759V181.084H71.4959V187.146H72.7139V189.96H71.6779V188H61.3459V181.084ZM74.0608 181.084H75.1808V186.796L79.8848 181.084H81.1588V188H80.0528V182.274L75.3488 188H74.0608V181.084ZM83.3576 181.084H87.7676C88.5516 181.084 89.1163 181.238 89.4616 181.546C89.807 181.854 89.9796 182.251 89.9796 182.736C89.9796 183.081 89.9003 183.408 89.7416 183.716C89.583 184.015 89.2656 184.225 88.7896 184.346C89.3496 184.477 89.7323 184.701 89.9376 185.018C90.1523 185.326 90.2596 185.657 90.2596 186.012C90.2596 186.703 90.0683 187.207 89.6856 187.524C89.303 187.841 88.701 188 87.8796 188H83.3576V181.084ZM88.8596 183.058V182.792C88.8596 182.512 88.7756 182.288 88.6076 182.12C88.4396 181.952 88.1223 181.868 87.6556 181.868H84.4776V184.066H87.6696C88.127 184.066 88.4396 183.968 88.6076 183.772C88.7756 183.576 88.8596 183.338 88.8596 183.058ZM89.1396 186.138V185.83C89.1396 185.494 89.023 185.237 88.7896 185.06C88.5563 184.883 88.1923 184.794 87.6976 184.794H84.4776V187.216H87.6976C88.1923 187.216 88.5563 187.132 88.7896 186.964C89.023 186.787 89.1396 186.511 89.1396 186.138ZM91.5499 186.124C91.5499 185.517 91.7506 185.037 92.1519 184.682C92.5626 184.327 93.2999 184.127 94.3639 184.08L97.6539 183.954V183.744C97.6539 183.035 97.4533 182.526 97.0519 182.218C96.6506 181.901 96.0439 181.742 95.2319 181.742C94.5973 181.742 94.0746 181.84 93.6639 182.036C93.2626 182.223 93.0059 182.559 92.8939 183.044H91.7599C91.8813 182.344 92.2266 181.817 92.7959 181.462C93.3746 181.107 94.1866 180.93 95.2319 180.93C96.4266 180.93 97.3133 181.154 97.8919 181.602C98.4799 182.05 98.7739 182.764 98.7739 183.744V188H97.6959V186.698C97.4346 187.165 97.0146 187.524 96.4359 187.776C95.8573 188.028 95.1759 188.154 94.3919 188.154C93.3653 188.154 92.6326 187.972 92.1939 187.608C91.7646 187.235 91.5499 186.74 91.5499 186.124ZM92.6699 186.166C92.6699 186.549 92.8239 186.843 93.1319 187.048C93.4493 187.244 93.9299 187.342 94.5739 187.342C94.9846 187.342 95.3766 187.305 95.7499 187.23C96.1326 187.146 96.4639 187.015 96.7439 186.838C97.0239 186.651 97.2433 186.409 97.4019 186.11C97.5699 185.811 97.6539 185.447 97.6539 185.018V184.682L94.5599 184.808C93.9253 184.845 93.4493 184.953 93.1319 185.13C92.8239 185.307 92.6699 185.601 92.6699 186.012V186.166ZM102.698 181.938H99.7019V181.084H106.814V181.938H103.818V188H102.698V181.938ZM108.104 188V181.084H109.224V183.562H112.514C113.335 183.562 113.942 183.744 114.334 184.108C114.735 184.472 114.936 185.004 114.936 185.704C114.936 186.432 114.735 186.997 114.334 187.398C113.942 187.799 113.335 188 112.514 188H108.104ZM113.816 185.886V185.536C113.816 185.191 113.704 184.915 113.48 184.71C113.265 184.495 112.901 184.388 112.388 184.388H109.224V187.174H112.388C112.901 187.174 113.265 187.062 113.48 186.838C113.704 186.605 113.816 186.287 113.816 185.886ZM126.655 189.96V188H119.711V181.084H120.831V187.146H125.437V181.084H126.557V187.146H127.677V189.96H126.655ZM129.104 181.084H133.514C134.298 181.084 134.862 181.238 135.208 181.546C135.553 181.854 135.726 182.251 135.726 182.736C135.726 183.081 135.646 183.408 135.488 183.716C135.329 184.015 135.012 184.225 134.536 184.346C135.096 184.477 135.478 184.701 135.684 185.018C135.898 185.326 136.006 185.657 136.006 186.012C136.006 186.703 135.814 187.207 135.432 187.524C135.049 187.841 134.447 188 133.626 188H129.104V181.084ZM134.606 183.058V182.792C134.606 182.512 134.522 182.288 134.354 182.12C134.186 181.952 133.868 181.868 133.402 181.868H130.224V184.066H133.416C133.873 184.066 134.186 183.968 134.354 183.772C134.522 183.576 134.606 183.338 134.606 183.058ZM134.886 186.138V185.83C134.886 185.494 134.769 185.237 134.536 185.06C134.302 184.883 133.938 184.794 133.444 184.794H130.224V187.216H133.444C133.938 187.216 134.302 187.132 134.536 186.964C134.769 186.787 134.886 186.511 134.886 186.138ZM137.296 184.542C137.296 183.263 137.627 182.344 138.29 181.784C138.953 181.215 139.867 180.93 141.034 180.93C142.229 180.93 143.153 181.196 143.806 181.728C144.459 182.26 144.786 183.109 144.786 184.276V184.584H138.416V184.906C138.416 185.718 138.635 186.329 139.074 186.74C139.522 187.141 140.175 187.342 141.034 187.342C141.725 187.342 142.285 187.239 142.714 187.034C143.153 186.819 143.447 186.493 143.596 186.054H144.702C144.497 186.782 144.072 187.314 143.428 187.65C142.793 187.986 141.995 188.154 141.034 188.154C139.867 188.154 138.953 187.874 138.29 187.314C137.627 186.754 137.296 185.83 137.296 184.542ZM141.034 181.728C140.278 181.728 139.662 181.891 139.186 182.218C138.719 182.545 138.467 183.091 138.43 183.856H143.68C143.643 183.091 143.4 182.545 142.952 182.218C142.513 181.891 141.874 181.728 141.034 181.728ZM148.335 181.938H145.339V181.084H152.451V181.938H149.455V188H148.335V181.938ZM153.74 188V181.084H154.86V183.562H158.15C158.972 183.562 159.578 183.744 159.97 184.108C160.372 184.472 160.572 185.004 160.572 185.704C160.572 186.432 160.372 186.997 159.97 187.398C159.578 187.799 158.972 188 158.15 188H153.74ZM159.452 185.886V185.536C159.452 185.191 159.34 184.915 159.116 184.71C158.902 184.495 158.538 184.388 158.024 184.388H154.86V187.174H158.024C158.538 187.174 158.902 187.062 159.116 186.838C159.34 186.605 159.452 186.287 159.452 185.886ZM161.538 181.084H162.658V188H161.538V181.084ZM23.092 199.084H24.212V202.052H28.958V199.084H30.078V206H28.958V202.92H24.212V206H23.092V199.084ZM31.8038 204.124C31.8038 203.517 32.0045 203.037 32.4058 202.682C32.8165 202.327 33.5538 202.127 34.6178 202.08L37.9078 201.954V201.744C37.9078 201.035 37.7072 200.526 37.3058 200.218C36.9045 199.901 36.2978 199.742 35.4858 199.742C34.8512 199.742 34.3285 199.84 33.9178 200.036C33.5165 200.223 33.2598 200.559 33.1478 201.044H32.0138C32.1352 200.344 32.4805 199.817 33.0498 199.462C33.6285 199.107 34.4405 198.93 35.4858 198.93C36.6805 198.93 37.5672 199.154 38.1458 199.602C38.7338 200.05 39.0278 200.764 39.0278 201.744V206H37.9498V204.698C37.6885 205.165 37.2685 205.524 36.6898 205.776C36.1112 206.028 35.4298 206.154 34.6458 206.154C33.6192 206.154 32.8865 205.972 32.4478 205.608C32.0185 205.235 31.8038 204.74 31.8038 204.124ZM32.9238 204.166C32.9238 204.549 33.0778 204.843 33.3858 205.048C33.7032 205.244 34.1838 205.342 34.8278 205.342C35.2385 205.342 35.6305 205.305 36.0038 205.23C36.3865 205.146 36.7178 205.015 36.9978 204.838C37.2778 204.651 37.4972 204.409 37.6558 204.11C37.8238 203.811 37.9078 203.447 37.9078 203.018V202.682L34.8138 202.808C34.1792 202.845 33.7032 202.953 33.3858 203.13C33.0778 203.307 32.9238 203.601 32.9238 204.012V204.166ZM44.5158 199.084H48.9258C49.7098 199.084 50.2745 199.238 50.6198 199.546C50.9652 199.854 51.1378 200.251 51.1378 200.736C51.1378 201.081 51.0585 201.408 50.8998 201.716C50.7412 202.015 50.4238 202.225 49.9478 202.346C50.5078 202.477 50.8905 202.701 51.0958 203.018C51.3105 203.326 51.4178 203.657 51.4178 204.012C51.4178 204.703 51.2265 205.207 50.8438 205.524C50.4612 205.841 49.8592 206 49.0378 206H44.5158V199.084ZM50.0178 201.058V200.792C50.0178 200.512 49.9338 200.288 49.7658 200.12C49.5978 199.952 49.2805 199.868 48.8138 199.868H45.6358V202.066H48.8278C49.2852 202.066 49.5978 201.968 49.7658 201.772C49.9338 201.576 50.0178 201.338 50.0178 201.058ZM50.2978 204.138V203.83C50.2978 203.494 50.1812 203.237 49.9478 203.06C49.7145 202.883 49.3505 202.794 48.8558 202.794H45.6358V205.216H48.8558C49.3505 205.216 49.7145 205.132 49.9478 204.964C50.1812 204.787 50.2978 204.511 50.2978 204.138ZM52.7081 202.556C52.7081 201.324 53.0208 200.414 53.6461 199.826C54.2808 199.229 55.2375 198.93 56.5161 198.93C57.5521 198.93 58.3735 199.107 58.9801 199.462C59.5868 199.807 59.9555 200.344 60.0861 201.072H58.9521C58.8028 200.587 58.5321 200.246 58.1401 200.05C57.7481 199.854 57.2021 199.756 56.5021 199.756C55.5875 199.756 54.9155 199.952 54.4861 200.344C54.0568 200.736 53.8421 201.352 53.8421 202.192V202.906C53.8421 203.783 54.0755 204.404 54.5421 204.768C55.0088 205.132 55.6621 205.314 56.5021 205.314C57.2301 205.314 57.7855 205.207 58.1681 204.992C58.5601 204.768 58.8308 204.455 58.9801 204.054H60.1001C59.9508 204.735 59.5728 205.258 58.9661 205.622C58.3688 205.977 57.5475 206.154 56.5021 206.154C55.2981 206.154 54.3648 205.888 53.7021 205.356C53.0395 204.815 52.7081 203.881 52.7081 202.556ZM61.2257 202.542C61.2257 201.263 61.557 200.344 62.2197 199.784C62.8824 199.215 63.797 198.93 64.9637 198.93C66.1584 198.93 67.0824 199.196 67.7357 199.728C68.389 200.26 68.7157 201.109 68.7157 202.276V202.584H62.3457V202.906C62.3457 203.718 62.565 204.329 63.0037 204.74C63.4517 205.141 64.105 205.342 64.9637 205.342C65.6544 205.342 66.2144 205.239 66.6437 205.034C67.0824 204.819 67.3764 204.493 67.5257 204.054H68.6317C68.4264 204.782 68.0017 205.314 67.3577 205.65C66.723 205.986 65.925 206.154 64.9637 206.154C63.797 206.154 62.8824 205.874 62.2197 205.314C61.557 204.754 61.2257 203.83 61.2257 202.542ZM64.9637 199.728C64.2077 199.728 63.5917 199.891 63.1157 200.218C62.649 200.545 62.397 201.091 62.3597 201.856H67.6097C67.5724 201.091 67.3297 200.545 66.8817 200.218C66.443 199.891 65.8037 199.728 64.9637 199.728ZM75.5579 206L72.9119 203.116L70.2099 206H68.9919L72.2539 202.5L69.1039 199.084H70.4759L73.0099 201.8L75.5579 199.084H76.7759L73.6539 202.416L76.9159 206H75.5579ZM88.4286 207.96V206H81.4846V199.084H82.6046V205.146H87.2106V199.084H88.3306V205.146H89.4506V207.96H88.4286ZM90.8772 199.084H91.9972V204.796L96.7012 199.084H97.9752V206H96.8692V200.274L92.1652 206H90.8772V199.084ZM104.318 206.154C102.862 206.154 101.728 205.888 100.916 205.356C100.104 204.815 99.698 203.877 99.698 202.542C99.698 201.235 100.104 200.307 100.916 199.756C101.728 199.205 102.862 198.93 104.318 198.93V195.78H105.438V198.93C106.894 198.93 108.028 199.205 108.84 199.756C109.661 200.307 110.072 201.235 110.072 202.542C110.072 203.877 109.661 204.815 108.84 205.356C108.028 205.888 106.894 206.154 105.438 206.154V208.8H104.318V206.154ZM104.318 199.756C103.235 199.756 102.381 199.947 101.756 200.33C101.131 200.703 100.818 201.338 100.818 202.234V202.808C100.818 203.713 101.121 204.357 101.728 204.74C102.344 205.123 103.207 205.314 104.318 205.314V199.756ZM108.952 202.808V202.22C108.952 201.324 108.644 200.689 108.028 200.316C107.412 199.943 106.549 199.756 105.438 199.756V205.314C106.539 205.314 107.398 205.123 108.014 204.74C108.639 204.357 108.952 203.713 108.952 202.808ZM111.781 199.084H112.859V200.372C113.139 199.868 113.541 199.504 114.063 199.28C114.586 199.047 115.211 198.93 115.939 198.93C117.134 198.93 118.058 199.205 118.711 199.756C119.365 200.307 119.691 201.235 119.691 202.542C119.691 203.849 119.365 204.777 118.711 205.328C118.058 205.879 117.134 206.154 115.939 206.154C115.23 206.154 114.619 206.047 114.105 205.832C113.592 205.608 113.191 205.258 112.901 204.782V208.8H111.781V199.084ZM118.557 202.878V202.206C118.557 201.329 118.31 200.703 117.815 200.33C117.321 199.947 116.625 199.756 115.729 199.756C114.805 199.756 114.101 199.947 113.615 200.33C113.139 200.713 112.901 201.338 112.901 202.206V202.878C112.901 203.718 113.149 204.334 113.643 204.726C114.138 205.118 114.833 205.314 115.729 205.314C116.625 205.314 117.321 205.118 117.815 204.726C118.31 204.334 118.557 203.718 118.557 202.878ZM120.958 202.542C120.958 201.235 121.303 200.307 121.994 199.756C122.685 199.205 123.655 198.93 124.906 198.93C126.175 198.93 127.151 199.205 127.832 199.756C128.523 200.307 128.868 201.235 128.868 202.542C128.868 203.877 128.523 204.815 127.832 205.356C127.151 205.888 126.175 206.154 124.906 206.154C123.655 206.154 122.685 205.888 121.994 205.356C121.303 204.815 120.958 203.877 120.958 202.542ZM127.748 202.878V202.206C127.748 201.357 127.505 200.736 127.02 200.344C126.535 199.952 125.83 199.756 124.906 199.756C124.001 199.756 123.301 199.952 122.806 200.344C122.321 200.736 122.078 201.357 122.078 202.206V202.878C122.078 203.727 122.321 204.348 122.806 204.74C123.301 205.123 124.001 205.314 124.906 205.314C125.83 205.314 126.535 205.123 127.02 204.74C127.505 204.348 127.748 203.727 127.748 202.878ZM130.594 199.084H135.004C135.788 199.084 136.353 199.238 136.698 199.546C137.043 199.854 137.216 200.251 137.216 200.736C137.216 201.081 137.137 201.408 136.978 201.716C136.819 202.015 136.502 202.225 136.026 202.346C136.586 202.477 136.969 202.701 137.174 203.018C137.389 203.326 137.496 203.657 137.496 204.012C137.496 204.703 137.305 205.207 136.922 205.524C136.539 205.841 135.937 206 135.116 206H130.594V199.084ZM136.096 201.058V200.792C136.096 200.512 136.012 200.288 135.844 200.12C135.676 199.952 135.359 199.868 134.892 199.868H131.714V202.066H134.906C135.363 202.066 135.676 201.968 135.844 201.772C136.012 201.576 136.096 201.338 136.096 201.058ZM136.376 204.138V203.83C136.376 203.494 136.259 203.237 136.026 203.06C135.793 202.883 135.429 202.794 134.934 202.794H131.714V205.216H134.934C135.429 205.216 135.793 205.132 136.026 204.964C136.259 204.787 136.376 204.511 136.376 204.138ZM139.248 206V199.084H140.368V201.562H143.658C144.48 201.562 145.086 201.744 145.478 202.108C145.88 202.472 146.08 203.004 146.08 203.704C146.08 204.432 145.88 204.997 145.478 205.398C145.086 205.799 144.48 206 143.658 206H139.248ZM144.96 203.886V203.536C144.96 203.191 144.848 202.915 144.624 202.71C144.41 202.495 144.046 202.388 143.532 202.388H140.368V205.174H143.532C144.046 205.174 144.41 205.062 144.624 204.838C144.848 204.605 144.96 204.287 144.96 203.886ZM147.046 199.084H148.166V206H147.046V199.084ZM155.907 206L153.261 203.116L150.559 206H149.341L152.603 202.5L149.453 199.084H150.825L153.359 201.8L155.907 199.084H157.125L154.003 202.416L157.265 206H155.907ZM23.092 217.084H24.212V220.052H28.958V217.084H30.078V224H28.958V220.92H24.212V224H23.092V217.084ZM31.8038 220.542C31.8038 219.235 32.1492 218.307 32.8398 217.756C33.5305 217.205 34.5012 216.93 35.7518 216.93C37.0212 216.93 37.9965 217.205 38.6778 217.756C39.3685 218.307 39.7138 219.235 39.7138 220.542C39.7138 221.877 39.3685 222.815 38.6778 223.356C37.9965 223.888 37.0212 224.154 35.7518 224.154C34.5012 224.154 33.5305 223.888 32.8398 223.356C32.1492 222.815 31.8038 221.877 31.8038 220.542ZM38.5938 220.878V220.206C38.5938 219.357 38.3512 218.736 37.8658 218.344C37.3805 217.952 36.6758 217.756 35.7518 217.756C34.8465 217.756 34.1465 217.952 33.6518 218.344C33.1665 218.736 32.9238 219.357 32.9238 220.206V220.878C32.9238 221.727 33.1665 222.348 33.6518 222.74C34.1465 223.123 34.8465 223.314 35.7518 223.314C36.6758 223.314 37.3805 223.123 37.8658 222.74C38.3512 222.348 38.5938 221.727 38.5938 220.878ZM40.9777 220.556C40.9777 219.324 41.2903 218.414 41.9157 217.826C42.5503 217.229 43.507 216.93 44.7857 216.93C45.8217 216.93 46.643 217.107 47.2497 217.462C47.8563 217.807 48.225 218.344 48.3557 219.072H47.2217C47.0723 218.587 46.8017 218.246 46.4097 218.05C46.0177 217.854 45.4717 217.756 44.7717 217.756C43.857 217.756 43.185 217.952 42.7557 218.344C42.3263 218.736 42.1117 219.352 42.1117 220.192V220.906C42.1117 221.783 42.345 222.404 42.8117 222.768C43.2783 223.132 43.9317 223.314 44.7717 223.314C45.4997 223.314 46.055 223.207 46.4377 222.992C46.8297 222.768 47.1003 222.455 47.2497 222.054H48.3697C48.2203 222.735 47.8423 223.258 47.2357 223.622C46.6383 223.977 45.817 224.154 44.7717 224.154C43.5677 224.154 42.6343 223.888 41.9717 223.356C41.309 222.815 40.9777 221.881 40.9777 220.556ZM49.9572 217.084H51.0772V222.796L55.7812 217.084H57.0552V224H55.9492V218.274L51.2452 224H49.9572V217.084ZM61.3541 217.938H58.3581V217.084H65.4701V217.938H62.4741V224H61.3541V217.938ZM65.9698 220.542C65.9698 219.263 66.3012 218.344 66.9638 217.784C67.6265 217.215 68.5412 216.93 69.7078 216.93C70.9025 216.93 71.8265 217.196 72.4798 217.728C73.1332 218.26 73.4598 219.109 73.4598 220.276V220.584H67.0898V220.906C67.0898 221.718 67.3092 222.329 67.7478 222.74C68.1958 223.141 68.8492 223.342 69.7078 223.342C70.3985 223.342 70.9585 223.239 71.3878 223.034C71.8265 222.819 72.1205 222.493 72.2698 222.054H73.3758C73.1705 222.782 72.7458 223.314 72.1018 223.65C71.4672 223.986 70.6692 224.154 69.7078 224.154C68.5412 224.154 67.6265 223.874 66.9638 223.314C66.3012 222.754 65.9698 221.83 65.9698 220.542ZM69.7078 217.728C68.9518 217.728 68.3358 217.891 67.8598 218.218C67.3932 218.545 67.1412 219.091 67.1038 219.856H72.3538C72.3165 219.091 72.0738 218.545 71.6258 218.218C71.1872 217.891 70.5478 217.728 69.7078 217.728ZM74.1498 224V223.048H74.2898C74.5231 223.048 74.7238 223.011 74.8918 222.936C75.0598 222.861 75.1998 222.717 75.3118 222.502C75.4238 222.287 75.5078 221.989 75.5638 221.606C75.6198 221.214 75.6478 220.705 75.6478 220.08V217.084H81.7098V224H80.5898V217.938H76.6698V220.094C76.6698 220.897 76.6278 221.555 76.5438 222.068C76.4598 222.581 76.3244 222.983 76.1378 223.272C75.9511 223.552 75.7084 223.743 75.4098 223.846C75.1204 223.949 74.7704 224 74.3598 224H74.1498ZM89.1268 221.34H86.4528L84.5068 224H83.2888L85.2908 221.242C84.6748 221.149 84.2128 220.929 83.9048 220.584C83.6062 220.229 83.4568 219.781 83.4568 219.24C83.4568 218.577 83.6528 218.055 84.0448 217.672C84.4368 217.28 85.0295 217.084 85.8228 217.084H90.2468V224H89.1268V221.34ZM89.1268 217.896H85.9768C85.5475 217.896 85.2068 217.994 84.9548 218.19C84.7028 218.386 84.5768 218.671 84.5768 219.044V219.436C84.5768 219.791 84.6982 220.061 84.9408 220.248C85.1835 220.435 85.5288 220.528 85.9768 220.528H89.1268V217.896ZM97.9798 224L95.3338 221.116L92.6318 224H91.4138L94.6758 220.5L91.5258 217.084H92.8978L95.4318 219.8L97.9798 217.084H99.1978L96.0758 220.416L99.3378 224H97.9798ZM100.194 225.204C100.427 225.204 100.6 225.139 100.712 225.008C100.824 224.877 100.88 224.672 100.88 224.392V224.154H100.824C100.563 224.154 100.367 224.093 100.236 223.972C100.105 223.841 100.04 223.655 100.04 223.412C100.04 223.169 100.105 222.987 100.236 222.866C100.376 222.745 100.577 222.684 100.838 222.684C101.109 222.684 101.314 222.745 101.454 222.866C101.594 222.987 101.664 223.179 101.664 223.44V224.308C101.664 224.868 101.543 225.269 101.3 225.512C101.057 225.764 100.689 225.89 100.194 225.89V225.204ZM106.518 217.084H113.364V224H112.244V217.938H107.638V224H106.518V217.084ZM115.541 217.084H116.619V218.372C116.899 217.868 117.301 217.504 117.823 217.28C118.346 217.047 118.971 216.93 119.699 216.93C120.894 216.93 121.818 217.205 122.471 217.756C123.125 218.307 123.451 219.235 123.451 220.542C123.451 221.849 123.125 222.777 122.471 223.328C121.818 223.879 120.894 224.154 119.699 224.154C118.99 224.154 118.379 224.047 117.865 223.832C117.352 223.608 116.951 223.258 116.661 222.782V226.8H115.541V217.084ZM122.317 220.878V220.206C122.317 219.329 122.07 218.703 121.575 218.33C121.081 217.947 120.385 217.756 119.489 217.756C118.565 217.756 117.861 217.947 117.375 218.33C116.899 218.713 116.661 219.338 116.661 220.206V220.878C116.661 221.718 116.909 222.334 117.403 222.726C117.898 223.118 118.593 223.314 119.489 223.314C120.385 223.314 121.081 223.118 121.575 222.726C122.07 222.334 122.317 221.718 122.317 220.878ZM125.18 217.084H126.3V222.796L131.004 217.084H132.278V224H131.172V218.274L126.468 224H125.18V217.084ZM137.881 217.084H139.001V220.052H143.747V217.084H144.867V224H143.747V220.92H139.001V224H137.881V217.084ZM146.593 222.124C146.593 221.517 146.794 221.037 147.195 220.682C147.606 220.327 148.343 220.127 149.407 220.08L152.697 219.954V219.744C152.697 219.035 152.496 218.526 152.095 218.218C151.694 217.901 151.087 217.742 150.275 217.742C149.64 217.742 149.118 217.84 148.707 218.036C148.306 218.223 148.049 218.559 147.937 219.044H146.803C146.924 218.344 147.27 217.817 147.839 217.462C148.418 217.107 149.23 216.93 150.275 216.93C151.47 216.93 152.356 217.154 152.935 217.602C153.523 218.05 153.817 218.764 153.817 219.744V224H152.739V222.698C152.478 223.165 152.058 223.524 151.479 223.776C150.9 224.028 150.219 224.154 149.435 224.154C148.408 224.154 147.676 223.972 147.237 223.608C146.808 223.235 146.593 222.74 146.593 222.124ZM147.713 222.166C147.713 222.549 147.867 222.843 148.175 223.048C148.492 223.244 148.973 223.342 149.617 223.342C150.028 223.342 150.42 223.305 150.793 223.23C151.176 223.146 151.507 223.015 151.787 222.838C152.067 222.651 152.286 222.409 152.445 222.11C152.613 221.811 152.697 221.447 152.697 221.018V220.682L149.603 220.808C148.968 220.845 148.492 220.953 148.175 221.13C147.867 221.307 147.713 221.601 147.713 222.012V222.166ZM155.033 224V223.048H155.173C155.406 223.048 155.607 223.011 155.775 222.936C155.943 222.861 156.083 222.717 156.195 222.502C156.307 222.287 156.391 221.989 156.447 221.606C156.503 221.214 156.531 220.705 156.531 220.08V217.084H162.593V224H161.473V217.938H157.553V220.094C157.553 220.897 157.511 221.555 157.427 222.068C157.343 222.581 157.207 222.983 157.021 223.272C156.834 223.552 156.591 223.743 156.293 223.846C156.003 223.949 155.653 224 155.243 224H155.033ZM164.774 217.084H165.894V222.796L170.598 217.084H171.872V224H170.766V218.274L166.062 224H164.774V217.084ZM179.237 221.186C178.882 221.242 178.509 221.284 178.117 221.312C177.734 221.34 177.314 221.354 176.857 221.354C175.662 221.354 174.808 221.153 174.295 220.752C173.791 220.351 173.539 219.665 173.539 218.694V217.084H174.659V218.666C174.659 219.385 174.845 219.87 175.219 220.122C175.601 220.365 176.241 220.486 177.137 220.486C177.529 220.486 177.902 220.472 178.257 220.444C178.621 220.416 178.947 220.379 179.237 220.332V217.084H180.357V224H179.237V221.186ZM182.547 217.084H183.667V222.796L188.371 217.084H189.645V224H188.539V218.274L183.835 224H182.547V217.084ZM191.844 217.084H192.964V222.796L197.668 217.084H198.942V224H197.836V218.274L193.132 224H191.844V217.084ZM22.434 239.998H23.568C23.6893 240.427 23.9367 240.759 24.31 240.992C24.6927 241.216 25.29 241.328 26.102 241.328C26.9887 241.328 27.6513 241.127 28.09 240.726C28.5287 240.325 28.748 239.732 28.748 238.948V238.892H24.87V238.108H28.748C28.7387 237.333 28.5193 236.75 28.09 236.358C27.6607 235.957 26.998 235.756 26.102 235.756C25.346 235.756 24.7767 235.854 24.394 236.05C24.0113 236.246 23.7453 236.568 23.596 237.016H22.476C22.6347 236.335 23.0127 235.817 23.61 235.462C24.2167 235.107 25.052 234.93 26.116 234.93C27.3667 234.93 28.3 235.224 28.916 235.812C29.5413 236.4 29.854 237.315 29.854 238.556C29.854 239.797 29.5413 240.707 28.916 241.286C28.2907 241.865 27.3527 242.154 26.102 242.154C25.0567 242.154 24.2213 241.981 23.596 241.636C22.9707 241.281 22.5833 240.735 22.434 239.998ZM31.5822 235.084H32.7022V238.038H33.9622L37.0422 235.084H38.3722L34.9142 238.388L38.7362 242H37.2662L34.0042 238.906H32.7022V242H31.5822V235.084ZM39.7443 235.084H40.8223V236.372C41.1023 235.868 41.5037 235.504 42.0263 235.28C42.549 235.047 43.1743 234.93 43.9023 234.93C45.097 234.93 46.021 235.205 46.6743 235.756C47.3277 236.307 47.6543 237.235 47.6543 238.542C47.6543 239.849 47.3277 240.777 46.6743 241.328C46.021 241.879 45.097 242.154 43.9023 242.154C43.193 242.154 42.5817 242.047 42.0683 241.832C41.555 241.608 41.1537 241.258 40.8643 240.782V244.8H39.7443V235.084ZM46.5203 238.878V238.206C46.5203 237.329 46.273 236.703 45.7783 236.33C45.2837 235.947 44.5883 235.756 43.6923 235.756C42.7683 235.756 42.0637 235.947 41.5783 236.33C41.1023 236.713 40.8643 237.338 40.8643 238.206V238.878C40.8643 239.718 41.1117 240.334 41.6063 240.726C42.101 241.118 42.7963 241.314 43.6923 241.314C44.5883 241.314 45.2837 241.118 45.7783 240.726C46.273 240.334 46.5203 239.718 46.5203 238.878ZM48.921 240.124C48.921 239.517 49.1217 239.037 49.523 238.682C49.9337 238.327 50.671 238.127 51.735 238.08L55.025 237.954V237.744C55.025 237.035 54.8243 236.526 54.423 236.218C54.0217 235.901 53.415 235.742 52.603 235.742C51.9683 235.742 51.4457 235.84 51.035 236.036C50.6337 236.223 50.377 236.559 50.265 237.044H49.131C49.2523 236.344 49.5977 235.817 50.167 235.462C50.7457 235.107 51.5577 234.93 52.603 234.93C53.7977 234.93 54.6843 235.154 55.263 235.602C55.851 236.05 56.145 236.764 56.145 237.744V242H55.067V240.698C54.8057 241.165 54.3857 241.524 53.807 241.776C53.2283 242.028 52.547 242.154 51.763 242.154C50.7363 242.154 50.0037 241.972 49.565 241.608C49.1357 241.235 48.921 240.74 48.921 240.124ZM50.041 240.166C50.041 240.549 50.195 240.843 50.503 241.048C50.8203 241.244 51.301 241.342 51.945 241.342C52.3557 241.342 52.7477 241.305 53.121 241.23C53.5037 241.146 53.835 241.015 54.115 240.838C54.395 240.651 54.6143 240.409 54.773 240.11C54.941 239.811 55.025 239.447 55.025 239.018V238.682L51.931 238.808C51.2963 238.845 50.8203 238.953 50.503 239.13C50.195 239.307 50.041 239.601 50.041 240.012V240.166ZM58.2287 235.084H59.3487V238.052H64.0947V235.084H65.2147V242H64.0947V238.92H59.3487V242H58.2287V235.084ZM66.9405 238.542C66.9405 237.235 67.2859 236.307 67.9765 235.756C68.6672 235.205 69.6379 234.93 70.8885 234.93C72.1579 234.93 73.1332 235.205 73.8145 235.756C74.5052 236.307 74.8505 237.235 74.8505 238.542C74.8505 239.877 74.5052 240.815 73.8145 241.356C73.1332 241.888 72.1579 242.154 70.8885 242.154C69.6379 242.154 68.6672 241.888 67.9765 241.356C67.2859 240.815 66.9405 239.877 66.9405 238.542ZM73.7305 238.878V238.206C73.7305 237.357 73.4879 236.736 73.0025 236.344C72.5172 235.952 71.8125 235.756 70.8885 235.756C69.9832 235.756 69.2832 235.952 68.7885 236.344C68.3032 236.736 68.0605 237.357 68.0605 238.206V238.878C68.0605 239.727 68.3032 240.348 68.7885 240.74C69.2832 241.123 69.9832 241.314 70.8885 241.314C71.8125 241.314 72.5172 241.123 73.0025 240.74C73.4879 240.348 73.7305 239.727 73.7305 238.878ZM76.5764 235.084H80.9864C81.7704 235.084 82.335 235.238 82.6804 235.546C83.0257 235.854 83.1984 236.251 83.1984 236.736C83.1984 237.081 83.119 237.408 82.9604 237.716C82.8017 238.015 82.4844 238.225 82.0084 238.346C82.5684 238.477 82.951 238.701 83.1564 239.018C83.371 239.326 83.4784 239.657 83.4784 240.012C83.4784 240.703 83.287 241.207 82.9044 241.524C82.5217 241.841 81.9197 242 81.0984 242H76.5764V235.084ZM82.0784 237.058V236.792C82.0784 236.512 81.9944 236.288 81.8264 236.12C81.6584 235.952 81.341 235.868 80.8744 235.868H77.6964V238.066H80.8884C81.3457 238.066 81.6584 237.968 81.8264 237.772C81.9944 237.576 82.0784 237.338 82.0784 237.058ZM82.3584 240.138V239.83C82.3584 239.494 82.2417 239.237 82.0084 239.06C81.775 238.883 81.411 238.794 80.9164 238.794H77.6964V241.216H80.9164C81.411 241.216 81.775 241.132 82.0084 240.964C82.2417 240.787 82.3584 240.511 82.3584 240.138ZM87.5739 243.96V241.16H88.3999C88.6613 240.731 88.8526 240.203 88.9739 239.578C89.0953 238.953 89.1559 238.211 89.1559 237.352V235.084H95.4279V241.146H96.5479V243.96H95.5119V242H88.5959V243.96H87.5739ZM94.3079 235.938H90.1639V237.352C90.1639 238.211 90.1033 238.953 89.9819 239.578C89.8699 240.194 89.7113 240.717 89.5059 241.146H94.3079V235.938ZM97.0912 242V241.048H97.2312C97.4645 241.048 97.6652 241.011 97.8332 240.936C98.0012 240.861 98.1412 240.717 98.2532 240.502C98.3652 240.287 98.4492 239.989 98.5052 239.606C98.5612 239.214 98.5892 238.705 98.5892 238.08V235.084H104.651V242H103.531V235.938H99.6112V238.094C99.6112 238.897 99.5692 239.555 99.4852 240.068C99.4012 240.581 99.2659 240.983 99.0792 241.272C98.8925 241.552 98.6499 241.743 98.3512 241.846C98.0619 241.949 97.7119 242 97.3012 242H97.0912ZM112.068 239.34H109.394L107.448 242H106.23L108.232 239.242C107.616 239.149 107.154 238.929 106.846 238.584C106.548 238.229 106.398 237.781 106.398 237.24C106.398 236.577 106.594 236.055 106.986 235.672C107.378 235.28 107.971 235.084 108.764 235.084H113.188V242H112.068V239.34ZM112.068 235.896H108.918C108.489 235.896 108.148 235.994 107.896 236.19C107.644 236.386 107.518 236.671 107.518 237.044V237.436C107.518 237.791 107.64 238.061 107.882 238.248C108.125 238.435 108.47 238.528 108.918 238.528H112.068V235.896ZM118.781 235.084H123.191C123.975 235.084 124.54 235.238 124.885 235.546C125.231 235.854 125.403 236.251 125.403 236.736C125.403 237.081 125.324 237.408 125.165 237.716C125.007 238.015 124.689 238.225 124.213 238.346C124.773 238.477 125.156 238.701 125.361 239.018C125.576 239.326 125.683 239.657 125.683 240.012C125.683 240.703 125.492 241.207 125.109 241.524C124.727 241.841 124.125 242 123.303 242H118.781V235.084ZM124.283 237.058V236.792C124.283 236.512 124.199 236.288 124.031 236.12C123.863 235.952 123.546 235.868 123.079 235.868H119.901V238.066H123.093C123.551 238.066 123.863 237.968 124.031 237.772C124.199 237.576 124.283 237.338 124.283 237.058ZM124.563 240.138V239.83C124.563 239.494 124.447 239.237 124.213 239.06C123.98 238.883 123.616 238.794 123.121 238.794H119.901V241.216H123.121C123.616 241.216 123.98 241.132 124.213 240.964C124.447 240.787 124.563 240.511 124.563 240.138ZM127.436 242V235.084H128.556V237.562H131.846C132.667 237.562 133.274 237.744 133.666 238.108C134.067 238.472 134.268 239.004 134.268 239.704C134.268 240.432 134.067 240.997 133.666 241.398C133.274 241.799 132.667 242 131.846 242H127.436ZM133.148 239.886V239.536C133.148 239.191 133.036 238.915 132.812 238.71C132.597 238.495 132.233 238.388 131.72 238.388H128.556V241.174H131.72C132.233 241.174 132.597 241.062 132.812 240.838C133.036 240.605 133.148 240.287 133.148 239.886ZM135.234 235.084H136.354V242H135.234V235.084ZM138.551 235.084H142.961C143.745 235.084 144.31 235.238 144.655 235.546C145 235.854 145.173 236.251 145.173 236.736C145.173 237.081 145.094 237.408 144.935 237.716C144.776 238.015 144.459 238.225 143.983 238.346C144.543 238.477 144.926 238.701 145.131 239.018C145.346 239.326 145.453 239.657 145.453 240.012C145.453 240.703 145.262 241.207 144.879 241.524C144.496 241.841 143.894 242 143.073 242H138.551V235.084ZM144.053 237.058V236.792C144.053 236.512 143.969 236.288 143.801 236.12C143.633 235.952 143.316 235.868 142.849 235.868H139.671V238.066H142.863C143.32 238.066 143.633 237.968 143.801 237.772C143.969 237.576 144.053 237.338 144.053 237.058ZM144.333 240.138V239.83C144.333 239.494 144.216 239.237 143.983 239.06C143.75 238.883 143.386 238.794 142.891 238.794H139.671V241.216H142.891C143.386 241.216 143.75 241.132 143.983 240.964C144.216 240.787 144.333 240.511 144.333 240.138ZM146.743 238.542C146.743 237.235 147.089 236.307 147.779 235.756C148.47 235.205 149.441 234.93 150.691 234.93C151.961 234.93 152.936 235.205 153.617 235.756C154.308 236.307 154.653 237.235 154.653 238.542C154.653 239.877 154.308 240.815 153.617 241.356C152.936 241.888 151.961 242.154 150.691 242.154C149.441 242.154 148.47 241.888 147.779 241.356C147.089 240.815 146.743 239.877 146.743 238.542ZM153.533 238.878V238.206C153.533 237.357 153.291 236.736 152.805 236.344C152.32 235.952 151.615 235.756 150.691 235.756C149.786 235.756 149.086 235.952 148.591 236.344C148.106 236.736 147.863 237.357 147.863 238.206V238.878C147.863 239.727 148.106 240.348 148.591 240.74C149.086 241.123 149.786 241.314 150.691 241.314C151.615 241.314 152.32 241.123 152.805 240.74C153.291 240.348 153.533 239.727 153.533 238.878ZM155.304 243.96V241.16H156.13C156.392 240.731 156.583 240.203 156.704 239.578C156.826 238.953 156.886 238.211 156.886 237.352V235.084H163.158V241.146H164.278V243.96H163.242V242H156.326V243.96H155.304ZM162.038 235.938H157.894V237.352C157.894 238.211 157.834 238.953 157.712 239.578C157.6 240.194 157.442 240.717 157.236 241.146H162.038V235.938ZM165.2 240.124C165.2 239.517 165.401 239.037 165.802 238.682C166.213 238.327 166.95 238.127 168.014 238.08L171.304 237.954V237.744C171.304 237.035 171.104 236.526 170.702 236.218C170.301 235.901 169.694 235.742 168.882 235.742C168.248 235.742 167.725 235.84 167.314 236.036C166.913 236.223 166.656 236.559 166.544 237.044H165.41C165.532 236.344 165.877 235.817 166.446 235.462C167.025 235.107 167.837 234.93 168.882 234.93C170.077 234.93 170.964 235.154 171.542 235.602C172.13 236.05 172.424 236.764 172.424 237.744V242H171.346V240.698C171.085 241.165 170.665 241.524 170.086 241.776C169.508 242.028 168.826 242.154 168.042 242.154C167.016 242.154 166.283 241.972 165.844 241.608C165.415 241.235 165.2 240.74 165.2 240.124ZM166.32 240.166C166.32 240.549 166.474 240.843 166.782 241.048C167.1 241.244 167.58 241.342 168.224 241.342C168.635 241.342 169.027 241.305 169.4 241.23C169.783 241.146 170.114 241.015 170.394 240.838C170.674 240.651 170.894 240.409 171.052 240.11C171.22 239.811 171.304 239.447 171.304 239.018V238.682L168.21 238.808C167.576 238.845 167.1 238.953 166.782 239.13C166.474 239.307 166.32 239.601 166.32 240.012V240.166ZM23.092 253.084H24.212V258.796L28.916 253.084H30.19V260H29.084V254.274L24.38 260H23.092V253.084ZM31.7309 258.026H32.8649C32.9022 258.493 33.1309 258.833 33.5509 259.048C33.9709 259.253 34.5635 259.356 35.3289 259.356C36.1222 259.356 36.7149 259.263 37.1069 259.076C37.5082 258.889 37.7089 258.572 37.7089 258.124V257.9C37.7089 257.527 37.5455 257.247 37.2189 257.06C36.9015 256.873 36.4162 256.78 35.7629 256.78H34.1109V255.996H35.7349C36.3789 255.996 36.8315 255.912 37.0929 255.744C37.3635 255.567 37.4989 255.31 37.4989 254.974V254.722C37.4989 254.377 37.3262 254.125 36.9809 253.966C36.6355 253.807 36.0849 253.728 35.3289 253.728C34.5822 253.728 34.0175 253.821 33.6349 254.008C33.2522 254.185 33.0235 254.475 32.9489 254.876H31.8289C31.9035 254.204 32.2489 253.714 32.8649 253.406C33.4809 253.089 34.3022 252.93 35.3289 252.93C36.4209 252.93 37.2422 253.084 37.7929 253.392C38.3529 253.691 38.6329 254.157 38.6329 254.792C38.6329 255.137 38.5349 255.45 38.3389 255.73C38.1522 256.01 37.7789 256.211 37.2189 256.332C37.7509 256.453 38.1522 256.659 38.4229 256.948C38.6935 257.228 38.8289 257.583 38.8289 258.012C38.8289 258.749 38.5349 259.291 37.9469 259.636C37.3682 259.981 36.4955 260.154 35.3289 260.154C34.2835 260.154 33.4342 259.991 32.7809 259.664C32.1369 259.337 31.7869 258.791 31.7309 258.026ZM40.0616 256.542C40.0616 255.235 40.407 254.307 41.0976 253.756C41.7883 253.205 42.759 252.93 44.0096 252.93C45.279 252.93 46.2543 253.205 46.9356 253.756C47.6263 254.307 47.9716 255.235 47.9716 256.542C47.9716 257.877 47.6263 258.815 46.9356 259.356C46.2543 259.888 45.279 260.154 44.0096 260.154C42.759 260.154 41.7883 259.888 41.0976 259.356C40.407 258.815 40.0616 257.877 40.0616 256.542ZM46.8516 256.878V256.206C46.8516 255.357 46.609 254.736 46.1236 254.344C45.6383 253.952 44.9336 253.756 44.0096 253.756C43.1043 253.756 42.4043 253.952 41.9096 254.344C41.4243 254.736 41.1816 255.357 41.1816 256.206V256.878C41.1816 257.727 41.4243 258.348 41.9096 258.74C42.4043 259.123 43.1043 259.314 44.0096 259.314C44.9336 259.314 45.6383 259.123 46.1236 258.74C46.609 258.348 46.8516 257.727 46.8516 256.878ZM49.5015 256.374C49.5015 255.095 49.5715 254.041 49.7115 253.21C49.8515 252.379 50.0941 251.721 50.4395 251.236C50.7848 250.751 51.2561 250.41 51.8535 250.214C52.4601 250.009 53.2161 249.892 54.1215 249.864C54.9055 249.845 55.5121 249.822 55.9415 249.794C56.3708 249.757 56.7021 249.719 56.9355 249.682V250.62C56.7301 250.667 56.4081 250.709 55.9695 250.746C55.5401 250.774 54.9381 250.793 54.1635 250.802C53.4821 250.811 52.9128 250.877 52.4555 250.998C52.0075 251.11 51.6435 251.311 51.3635 251.6C51.0928 251.889 50.8921 252.281 50.7615 252.776C50.6308 253.271 50.5421 253.901 50.4955 254.666C50.7568 254.162 51.1535 253.775 51.6855 253.504C52.2175 253.233 52.8895 253.098 53.7015 253.098C54.9055 253.098 55.8248 253.369 56.4595 253.91C57.0941 254.451 57.4115 255.333 57.4115 256.556C57.4115 257.835 57.0755 258.754 56.4035 259.314C55.7315 259.874 54.7468 260.154 53.4495 260.154C52.1708 260.154 51.1908 259.869 50.5095 259.3C49.8375 258.721 49.5015 257.746 49.5015 256.374ZM56.2775 256.864V256.276C56.2775 255.445 56.0301 254.848 55.5355 254.484C55.0501 254.12 54.3548 253.938 53.4495 253.938C52.5535 253.938 51.8581 254.12 51.3635 254.484C50.8688 254.848 50.6215 255.445 50.6215 256.276V256.864C50.6215 257.732 50.8688 258.357 51.3635 258.74C51.8581 259.123 52.5535 259.314 53.4495 259.314C54.3735 259.314 55.0735 259.123 55.5495 258.74C56.0348 258.357 56.2775 257.732 56.2775 256.864ZM59.1311 253.084H60.2091V254.372C60.4891 253.868 60.8904 253.504 61.4131 253.28C61.9357 253.047 62.5611 252.93 63.2891 252.93C64.4837 252.93 65.4077 253.205 66.0611 253.756C66.7144 254.307 67.0411 255.235 67.0411 256.542C67.0411 257.849 66.7144 258.777 66.0611 259.328C65.4077 259.879 64.4837 260.154 63.2891 260.154C62.5797 260.154 61.9684 260.047 61.4551 259.832C60.9417 259.608 60.5404 259.258 60.2511 258.782V262.8H59.1311V253.084ZM65.9071 256.878V256.206C65.9071 255.329 65.6597 254.703 65.1651 254.33C64.6704 253.947 63.9751 253.756 63.0791 253.756C62.1551 253.756 61.4504 253.947 60.9651 254.33C60.4891 254.713 60.2511 255.338 60.2511 256.206V256.878C60.2511 257.718 60.4984 258.334 60.9931 258.726C61.4877 259.118 62.1831 259.314 63.0791 259.314C63.9751 259.314 64.6704 259.118 65.1651 258.726C65.6597 258.334 65.9071 257.718 65.9071 256.878ZM68.3077 258.124C68.3077 257.517 68.5084 257.037 68.9097 256.682C69.3204 256.327 70.0577 256.127 71.1217 256.08L74.4117 255.954V255.744C74.4117 255.035 74.2111 254.526 73.8097 254.218C73.4084 253.901 72.8017 253.742 71.9897 253.742C71.3551 253.742 70.8324 253.84 70.4217 254.036C70.0204 254.223 69.7637 254.559 69.6517 255.044H68.5177C68.6391 254.344 68.9844 253.817 69.5537 253.462C70.1324 253.107 70.9444 252.93 71.9897 252.93C73.1844 252.93 74.0711 253.154 74.6497 253.602C75.2377 254.05 75.5317 254.764 75.5317 255.744V260H74.4537V258.698C74.1924 259.165 73.7724 259.524 73.1937 259.776C72.6151 260.028 71.9337 260.154 71.1497 260.154C70.1231 260.154 69.3904 259.972 68.9517 259.608C68.5224 259.235 68.3077 258.74 68.3077 258.124ZM69.4277 258.166C69.4277 258.549 69.5817 258.843 69.8897 259.048C70.2071 259.244 70.6877 259.342 71.3317 259.342C71.7424 259.342 72.1344 259.305 72.5077 259.23C72.8904 259.146 73.2217 259.015 73.5017 258.838C73.7817 258.651 74.0011 258.409 74.1597 258.11C74.3277 257.811 74.4117 257.447 74.4117 257.018V256.682L71.3177 256.808C70.6831 256.845 70.2071 256.953 69.8897 257.13C69.5817 257.307 69.4277 257.601 69.4277 258.012V258.166ZM81.9554 253.084H83.0754V256.038H84.1814L86.9394 253.084H88.2274L85.1474 256.374L88.5494 260H87.1354L84.2374 256.906H83.0754V260H81.9554V256.906H80.8074L77.9094 260H76.5654L79.8974 256.43L76.7614 253.084H78.1054L80.8634 256.038H81.9554V253.084ZM88.8429 256.542C88.8429 255.263 89.1742 254.344 89.8369 253.784C90.4996 253.215 91.4142 252.93 92.5809 252.93C93.7756 252.93 94.6996 253.196 95.3529 253.728C96.0062 254.26 96.3329 255.109 96.3329 256.276V256.584H89.9629V256.906C89.9629 257.718 90.1822 258.329 90.6209 258.74C91.0689 259.141 91.7222 259.342 92.5809 259.342C93.2716 259.342 93.8316 259.239 94.2609 259.034C94.6996 258.819 94.9936 258.493 95.1429 258.054H96.2489C96.0436 258.782 95.6189 259.314 94.9749 259.65C94.3402 259.986 93.5422 260.154 92.5809 260.154C91.4142 260.154 90.4996 259.874 89.8369 259.314C89.1742 258.754 88.8429 257.83 88.8429 256.542ZM92.5809 253.728C91.8249 253.728 91.2089 253.891 90.7329 254.218C90.2662 254.545 90.0142 255.091 89.9769 255.856H95.2269C95.1896 255.091 94.9469 254.545 94.4989 254.218C94.0602 253.891 93.4209 253.728 92.5809 253.728ZM98.0139 253.084H99.1339V256.052H103.88V253.084H105V260H103.88V256.92H99.1339V260H98.0139V253.084ZM107.188 253.084H108.308V258.796L113.012 253.084H114.286V260H113.18V254.274L108.476 260H107.188V253.084ZM121.721 257.34H119.047L117.101 260H115.883L117.885 257.242C117.269 257.149 116.807 256.929 116.499 256.584C116.2 256.229 116.051 255.781 116.051 255.24C116.051 254.577 116.247 254.055 116.639 253.672C117.031 253.28 117.623 253.084 118.417 253.084H122.841V260H121.721V257.34ZM121.721 253.896H118.571C118.141 253.896 117.801 253.994 117.549 254.19C117.297 254.386 117.171 254.671 117.171 255.044V255.436C117.171 255.791 117.292 256.061 117.535 256.248C117.777 256.435 118.123 256.528 118.571 256.528H121.721V253.896ZM124.652 259.412C124.652 259.169 124.722 258.987 124.861 258.866C125.002 258.745 125.202 258.684 125.464 258.684C125.734 258.684 125.94 258.745 126.08 258.866C126.22 258.987 126.29 259.169 126.29 259.412C126.29 259.664 126.22 259.851 126.08 259.972C125.94 260.093 125.734 260.154 125.464 260.154C125.202 260.154 125.002 260.093 124.861 259.972C124.722 259.851 124.652 259.664 124.652 259.412Z" fill="white"/>
<path d="M25.192 31.248V36.408H32.968V35.088H34.264V32.544H32.968V31.248H25.192ZM22.648 22.2H34.264V24.792H25.192V28.656H34.264V29.952H35.56V31.248H36.856V36.408H35.56V37.704H34.264V39H22.648V22.2ZM47.2116 31.248H45.8916V33.84H44.5956V35.136H43.2996V36.408H42.0036V37.704H40.7316V39H38.1636V27.36H40.7316V33.84H42.0276V32.544H43.3236V29.952H44.6196V28.656H45.9156V27.36H49.7556V39H47.2116V31.248ZM60.1023 27.36H62.6463V39H60.1023V33.84H53.5983V39H51.0543V27.36H53.5983V31.248H60.1023V27.36ZM69.1289 33.84V35.136H66.5369V36.408H70.4249V35.112H72.9929V33.84H69.1289ZM65.2409 37.704H63.9449V33.84H65.2409V32.544H67.8329V31.248H72.9929V29.952H66.5369V31.248H63.9449V28.656H65.2409V27.36H74.2649V28.656H75.5609V36.408H76.8569V39H74.2889V37.704H71.7209V39H65.2409V37.704ZM82.036 29.952V31.272H80.716V35.112H82.036V36.432H87.196V35.112H88.468V31.272H87.196V29.952H82.036ZM82.036 37.728H80.716V42.888H78.148V27.336H80.716V28.656H82.036V27.336H88.492V28.656H89.764V29.952H91.06V36.408H89.764V37.728H88.492V39.024H82.036V37.728ZM101.399 27.36H103.943V39H101.399V33.84H94.8951V39H92.3511V27.36H94.8951V31.248H101.399V27.36ZM106.538 36.408H105.242V29.952H106.538V28.656H107.81V27.384H114.29V28.656H115.562V29.952H116.858V36.408H115.562V37.704H114.29V39H107.81V37.704H106.538V36.408ZM109.106 29.952V31.248H107.834V35.112H109.106V36.408H112.994V35.112H114.266V31.248H112.994V29.952H109.106ZM127.18 29.928H122.02V31.248H127.18V29.928ZM120.724 33.84V35.112H122.02V36.408H127.18V35.112H131.068V36.408H129.772V37.704H128.476V39H120.748V37.704H119.452V36.408H118.156V29.952H119.452V28.656H120.748V27.384H128.476V28.656H129.772V29.952H131.068V33.84H120.724ZM31.696 55.952H25.24V65H22.648V53.36H34.24V65H31.696V55.952ZM39.4266 55.952V57.272H38.1066V61.112H39.4266V62.432H44.5866V61.112H45.8586V57.272H44.5866V55.952H39.4266ZM39.4266 63.728H38.1066V68.888H35.5386V53.336H38.1066V54.656H39.4266V53.336H45.8826V54.656H47.1546V55.952H48.4506V62.408H47.1546V63.728H45.8826V65.024H39.4266V63.728ZM58.7658 55.928H53.6058V57.248H58.7658V55.928ZM52.3098 59.84V61.112H53.6058V62.408H58.7658V61.112H62.6537V62.408H61.3578V63.704H60.0618V65H52.3338V63.704H51.0378V62.408H49.7418V55.952H51.0378V54.656H52.3338V53.384H60.0618V54.656H61.3578V55.952H62.6537V59.84H52.3098ZM65.2409 62.408H63.9449V55.952H65.2409V54.656H66.5129V53.384H72.9929V54.656H74.2649V55.952H75.5609V62.408H74.2649V63.704H72.9929V65H66.5129V63.704H65.2409V62.408ZM67.8089 55.952V57.248H66.5369V61.112H67.8089V62.408H71.6969V61.112H72.9689V57.248H71.6969V55.952H67.8089ZM79.4509 54.656H80.7469V53.36H87.2029V54.656H88.4989V55.952H89.7949V62.408H88.4989V63.704H87.2029V65H79.4509V63.704H78.1549V62.408H76.8589V52.064H78.1549V50.768H79.4509V49.472H82.0429V48.176H87.2029V46.88H89.7949V49.472H87.2029V50.768H82.0429V52.064H79.4509V54.656ZM79.4509 57.248V61.112H80.7469V62.408H85.9069V61.112H87.2029V57.248H85.9069V55.952H80.7469V57.248H79.4509ZM94.9735 55.952V57.272H93.6535V61.112H94.9735V62.432H100.134V61.112H101.406V57.272H100.134V55.952H94.9735ZM94.9735 63.728H93.6535V68.888H91.0855V53.336H93.6535V54.656H94.9735V53.336H101.43V54.656H102.702V55.952H103.997V62.408H102.702V63.728H101.43V65.024H94.9735V63.728ZM110.473 59.84V61.136H107.881V62.408H111.769V61.112H114.337V59.84H110.473ZM106.585 63.704H105.289V59.84H106.585V58.544H109.177V57.248H114.337V55.952H107.881V57.248H105.289V54.656H106.585V53.36H115.609V54.656H116.905V62.408H118.201V65H115.633V63.704H113.065V65H106.585V63.704ZM123.356 55.976V57.272H122.084V58.568H119.492V55.976H120.788V54.68H122.06V53.408H129.836V54.68H131.132V55.976H132.404V58.568H131.132V59.816H132.404V62.408H131.132V63.704H129.836V65H122.06V63.704H120.788V62.408H119.492V59.84H122.084V61.136H123.356V62.432H128.54V59.864H124.652V57.272H128.54V55.976H123.356ZM134.991 62.408H133.695V55.952H134.991V54.656H136.263V53.384H142.743V54.656H144.015V55.952H145.311V62.408H144.015V63.704H142.743V65H136.263V63.704H134.991V62.408ZM137.559 55.952V57.248H136.287V61.112H137.559V62.408H141.447V61.112H142.719V57.248H141.447V55.952H137.559ZM149.201 55.952V57.248H155.657V55.952H149.201ZM149.201 59.84V62.408H155.657V59.84H149.201ZM156.953 54.656H158.249V58.544H156.953V59.84H158.249V63.704H156.953V65H146.609V53.36H156.953V54.656ZM164.73 59.84V61.136H162.138V62.408H166.026V61.112H168.594V59.84H164.73ZM160.842 63.704H159.546V59.84H160.842V58.544H163.434V57.248H168.594V55.952H162.138V57.248H159.546V54.656H160.842V53.36H169.866V54.656H171.162V62.408H172.458V65H169.89V63.704H167.322V65H160.842V63.704ZM182.798 53.36H185.342V65H182.798V59.84H176.294V65H173.75V53.36H176.294V57.248H182.798V53.36ZM195.688 57.248H194.368V59.84H193.072V61.136H191.776V62.408H190.48V63.704H189.208V65H186.64V53.36H189.208V59.84H190.504V58.544H191.8V55.952H193.096V54.656H194.392V53.36H198.232V65H195.688V57.248ZM208.555 55.928H203.395V57.248H208.555V55.928ZM202.099 59.84V61.112H203.395V62.408H208.555V61.112H212.443V62.408H211.147V63.704H209.851V65H202.123V63.704H200.827V62.408H199.531V55.952H200.827V54.656H202.123V53.384H209.851V54.656H211.147V55.952H212.443V59.84H202.099Z" fill="white"/>
</svg>
