<svg width="237" height="177" viewBox="0 0 237 177" fill="none" xmlns="http://www.w3.org/2000/svg">
<rect x="2.5" y="2.5" width="232" height="172" fill="#161616" stroke="white" stroke-width="5"/>
<path d="M23.204 91.34H31.842V101H30.652V92.32H24.394V101H23.204V91.34ZM34.0705 94.084H35.1485V95.372C35.4285 94.868 35.8298 94.504 36.3525 94.28C36.8752 94.0467 37.5005 93.93 38.2285 93.93C39.4232 93.93 40.3472 94.2053 41.0005 94.756C41.6538 95.3067 41.9805 96.2353 41.9805 97.542C41.9805 98.8487 41.6538 99.7773 41.0005 100.328C40.3472 100.879 39.4232 101.154 38.2285 101.154C37.5192 101.154 36.9078 101.047 36.3945 100.832C35.8812 100.608 35.4798 100.258 35.1905 99.782V103.8H34.0705V94.084ZM40.8465 97.878V97.206C40.8465 96.3287 40.5992 95.7033 40.1045 95.33C39.6098 94.9473 38.9145 94.756 38.0185 94.756C37.0945 94.756 36.3898 94.9473 35.9045 95.33C35.4285 95.7127 35.1905 96.338 35.1905 97.206V97.878C35.1905 98.718 35.4378 99.334 35.9325 99.726C36.4272 100.118 37.1225 100.314 38.0185 100.314C38.9145 100.314 39.6098 100.118 40.1045 99.726C40.5992 99.334 40.8465 98.718 40.8465 97.878ZM43.2472 97.542C43.2472 96.2353 43.5925 95.3067 44.2832 94.756C44.9739 94.2053 45.9445 93.93 47.1952 93.93C48.4645 93.93 49.4399 94.2053 50.1212 94.756C50.8119 95.3067 51.1572 96.2353 51.1572 97.542C51.1572 98.8767 50.8119 99.8147 50.1212 100.356C49.4399 100.888 48.4645 101.154 47.1952 101.154C45.9445 101.154 44.9739 100.888 44.2832 100.356C43.5925 99.8147 43.2472 98.8767 43.2472 97.542ZM50.0372 97.878V97.206C50.0372 96.3567 49.7945 95.736 49.3092 95.344C48.8239 94.952 48.1192 94.756 47.1952 94.756C46.2899 94.756 45.5899 94.952 45.0952 95.344C44.6099 95.736 44.3672 96.3567 44.3672 97.206V97.878C44.3672 98.7273 44.6099 99.348 45.0952 99.74C45.5899 100.123 46.2899 100.314 47.1952 100.314C48.1192 100.314 48.8239 100.123 49.3092 99.74C49.7945 99.348 50.0372 98.7273 50.0372 97.878ZM52.883 94.084H53.961V95.372C54.241 94.868 54.6423 94.504 55.165 94.28C55.6877 94.0467 56.313 93.93 57.041 93.93C58.2357 93.93 59.1597 94.2053 59.813 94.756C60.4663 95.3067 60.793 96.2353 60.793 97.542C60.793 98.8487 60.4663 99.7773 59.813 100.328C59.1597 100.879 58.2357 101.154 57.041 101.154C56.3317 101.154 55.7203 101.047 55.207 100.832C54.6937 100.608 54.2923 100.258 54.003 99.782V103.8H52.883V94.084ZM59.659 97.878V97.206C59.659 96.3287 59.4117 95.7033 58.917 95.33C58.4223 94.9473 57.727 94.756 56.831 94.756C55.907 94.756 55.2023 94.9473 54.717 95.33C54.241 95.7127 54.003 96.338 54.003 97.206V97.878C54.003 98.718 54.2503 99.334 54.745 99.726C55.2397 100.118 55.935 100.314 56.831 100.314C57.727 100.314 58.4223 100.118 58.917 99.726C59.4117 99.334 59.659 98.718 59.659 97.878ZM62.0597 97.542C62.0597 96.2353 62.405 95.3067 63.0957 94.756C63.7864 94.2053 64.757 93.93 66.0077 93.93C67.277 93.93 68.2524 94.2053 68.9337 94.756C69.6244 95.3067 69.9697 96.2353 69.9697 97.542C69.9697 98.8767 69.6244 99.8147 68.9337 100.356C68.2524 100.888 67.277 101.154 66.0077 101.154C64.757 101.154 63.7864 100.888 63.0957 100.356C62.405 99.8147 62.0597 98.8767 62.0597 97.542ZM68.8497 97.878V97.206C68.8497 96.3567 68.607 95.736 68.1217 95.344C67.6364 94.952 66.9317 94.756 66.0077 94.756C65.1024 94.756 64.4024 94.952 63.9077 95.344C63.4224 95.736 63.1797 96.3567 63.1797 97.206V97.878C63.1797 98.7273 63.4224 99.348 63.9077 99.74C64.4024 100.123 65.1024 100.314 66.0077 100.314C66.9317 100.314 67.6364 100.123 68.1217 99.74C68.607 99.348 68.8497 98.7273 68.8497 97.878ZM71.2335 97.556C71.2335 96.324 71.5462 95.414 72.1715 94.826C72.8062 94.2287 73.7628 93.93 75.0415 93.93C76.0775 93.93 76.8988 94.1073 77.5055 94.462C78.1122 94.8073 78.4808 95.344 78.6115 96.072H77.4775C77.3282 95.5867 77.0575 95.246 76.6655 95.05C76.2735 94.854 75.7275 94.756 75.0275 94.756C74.1128 94.756 73.4408 94.952 73.0115 95.344C72.5822 95.736 72.3675 96.352 72.3675 97.192V97.906C72.3675 98.7833 72.6008 99.404 73.0675 99.768C73.5342 100.132 74.1875 100.314 75.0275 100.314C75.7555 100.314 76.3108 100.207 76.6935 99.992C77.0855 99.768 77.3562 99.4553 77.5055 99.054H78.6255C78.4762 99.7353 78.0982 100.258 77.4915 100.622C76.8942 100.977 76.0728 101.154 75.0275 101.154C73.8235 101.154 72.8902 100.888 72.2275 100.356C71.5648 99.8147 71.2335 98.8813 71.2335 97.556ZM82.1764 94.938H79.1804V94.084H86.2924V94.938H83.2964V101H82.1764V94.938ZM86.8741 99.124C86.8741 98.5173 87.0748 98.0367 87.4761 97.682C87.8868 97.3273 88.6241 97.1267 89.6881 97.08L92.9781 96.954V96.744C92.9781 96.0347 92.7775 95.526 92.3761 95.218C91.9748 94.9007 91.3681 94.742 90.5561 94.742C89.9215 94.742 89.3988 94.84 88.9881 95.036C88.5868 95.2227 88.3301 95.5587 88.2181 96.044H87.0841C87.2055 95.344 87.5508 94.8167 88.1201 94.462C88.6988 94.1073 89.5108 93.93 90.5561 93.93C91.7508 93.93 92.6375 94.154 93.2161 94.602C93.8041 95.05 94.0981 95.764 94.0981 96.744V101H93.0201V99.698C92.7588 100.165 92.3388 100.524 91.7601 100.776C91.1815 101.028 90.5001 101.154 89.7161 101.154C88.6895 101.154 87.9568 100.972 87.5181 100.608C87.0888 100.235 86.8741 99.74 86.8741 99.124ZM87.9941 99.166C87.9941 99.5487 88.1481 99.8427 88.4561 100.048C88.7735 100.244 89.2541 100.342 89.8981 100.342C90.3088 100.342 90.7008 100.305 91.0741 100.23C91.4568 100.146 91.7881 100.015 92.0681 99.838C92.3481 99.6513 92.5675 99.4087 92.7261 99.11C92.8941 98.8113 92.9781 98.4473 92.9781 98.018V97.682L89.8841 97.808C89.2495 97.8453 88.7735 97.9527 88.4561 98.13C88.1481 98.3073 87.9941 98.6013 87.9941 99.012V99.166ZM95.7198 97.542C95.7198 96.2633 96.0512 95.344 96.7138 94.784C97.3765 94.2147 98.2912 93.93 99.4578 93.93C100.653 93.93 101.577 94.196 102.23 94.728C102.883 95.26 103.21 96.1093 103.21 97.276V97.584H96.8398V97.906C96.8398 98.718 97.0592 99.3293 97.4978 99.74C97.9458 100.141 98.5992 100.342 99.4578 100.342C100.149 100.342 100.709 100.239 101.138 100.034C101.577 99.8193 101.871 99.4927 102.02 99.054H103.126C102.921 99.782 102.496 100.314 101.852 100.65C101.217 100.986 100.419 101.154 99.4578 101.154C98.2912 101.154 97.3765 100.874 96.7138 100.314C96.0512 99.754 95.7198 98.83 95.7198 97.542ZM99.4578 94.728C98.7018 94.728 98.0858 94.8913 97.6098 95.218C97.1432 95.5447 96.8912 96.0907 96.8538 96.856H102.104C102.067 96.0907 101.824 95.5447 101.376 95.218C100.937 94.8913 100.298 94.728 99.4578 94.728ZM106.758 94.938H103.762V94.084H110.874V94.938H107.878V101H106.758V94.938ZM115.227 94.084H119.637C120.421 94.084 120.985 94.238 121.331 94.546C121.676 94.854 121.849 95.2507 121.849 95.736C121.849 96.0813 121.769 96.408 121.611 96.716C121.452 97.0147 121.135 97.2247 120.659 97.346C121.219 97.4767 121.601 97.7007 121.807 98.018C122.021 98.326 122.129 98.6573 122.129 99.012C122.129 99.7027 121.937 100.207 121.555 100.524C121.172 100.841 120.57 101 119.749 101H115.227V94.084ZM120.729 96.058V95.792C120.729 95.512 120.645 95.288 120.477 95.12C120.309 94.952 119.991 94.868 119.525 94.868H116.347V97.066H119.539C119.996 97.066 120.309 96.968 120.477 96.772C120.645 96.576 120.729 96.338 120.729 96.058ZM121.009 99.138V98.83C121.009 98.494 120.892 98.2373 120.659 98.06C120.425 97.8827 120.061 97.794 119.567 97.794H116.347V100.216H119.567C120.061 100.216 120.425 100.132 120.659 99.964C120.892 99.7867 121.009 99.5113 121.009 99.138ZM127.285 94.084H134.131V101H133.011V94.938H128.405V101H127.285V94.084ZM136.309 94.084H137.387V95.372C137.667 94.868 138.068 94.504 138.591 94.28C139.113 94.0467 139.739 93.93 140.467 93.93C141.661 93.93 142.585 94.2053 143.239 94.756C143.892 95.3067 144.219 96.2353 144.219 97.542C144.219 98.8487 143.892 99.7773 143.239 100.328C142.585 100.879 141.661 101.154 140.467 101.154C139.757 101.154 139.146 101.047 138.633 100.832C138.119 100.608 137.718 100.258 137.429 99.782V103.8H136.309V94.084ZM143.085 97.878V97.206C143.085 96.3287 142.837 95.7033 142.343 95.33C141.848 94.9473 141.153 94.756 140.257 94.756C139.333 94.756 138.628 94.9473 138.143 95.33C137.667 95.7127 137.429 96.338 137.429 97.206V97.878C137.429 98.718 137.676 99.334 138.171 99.726C138.665 100.118 139.361 100.314 140.257 100.314C141.153 100.314 141.848 100.118 142.343 99.726C142.837 99.334 143.085 98.718 143.085 97.878ZM145.485 97.542C145.485 96.2633 145.817 95.344 146.479 94.784C147.142 94.2147 148.057 93.93 149.223 93.93C150.418 93.93 151.342 94.196 151.995 94.728C152.649 95.26 152.975 96.1093 152.975 97.276V97.584H146.605V97.906C146.605 98.718 146.825 99.3293 147.263 99.74C147.711 100.141 148.365 100.342 149.223 100.342C149.914 100.342 150.474 100.239 150.903 100.034C151.342 99.8193 151.636 99.4927 151.785 99.054H152.891C152.686 99.782 152.261 100.314 151.617 100.65C150.983 100.986 150.185 101.154 149.223 101.154C148.057 101.154 147.142 100.874 146.479 100.314C145.817 99.754 145.485 98.83 145.485 97.542ZM149.223 94.728C148.467 94.728 147.851 94.8913 147.375 95.218C146.909 95.5447 146.657 96.0907 146.619 96.856H151.869C151.832 96.0907 151.589 95.5447 151.141 95.218C150.703 94.8913 150.063 94.728 149.223 94.728ZM153.595 102.96V100.16H154.421C154.683 99.7307 154.874 99.2033 154.995 98.578C155.117 97.9527 155.177 97.2107 155.177 96.352V94.084H161.449V100.146H162.569V102.96H161.533V101H154.617V102.96H153.595ZM160.329 94.938H156.185V96.352C156.185 97.2107 156.125 97.9527 156.003 98.578C155.891 99.194 155.733 99.7167 155.527 100.146H160.329V94.938ZM163.423 97.542C163.423 96.2633 163.754 95.344 164.417 94.784C165.08 94.2147 165.994 93.93 167.161 93.93C168.356 93.93 169.28 94.196 169.933 94.728C170.586 95.26 170.913 96.1093 170.913 97.276V97.584H164.543V97.906C164.543 98.718 164.762 99.3293 165.201 99.74C165.649 100.141 166.302 100.342 167.161 100.342C167.852 100.342 168.412 100.239 168.841 100.034C169.28 99.8193 169.574 99.4927 169.723 99.054H170.829C170.624 99.782 170.199 100.314 169.555 100.65C168.92 100.986 168.122 101.154 167.161 101.154C165.994 101.154 165.08 100.874 164.417 100.314C163.754 99.754 163.423 98.83 163.423 97.542ZM167.161 94.728C166.405 94.728 165.789 94.8913 165.313 95.218C164.846 95.5447 164.594 96.0907 164.557 96.856H169.807C169.77 96.0907 169.527 95.5447 169.079 95.218C168.64 94.8913 168.001 94.728 167.161 94.728ZM171.603 101V100.048H171.743C171.976 100.048 172.177 100.011 172.345 99.936C172.513 99.8613 172.653 99.7167 172.765 99.502C172.877 99.2873 172.961 98.9887 173.017 98.606C173.073 98.214 173.101 97.7053 173.101 97.08V94.084H179.163V101H178.043V94.938H174.123V97.094C174.123 97.8967 174.081 98.5547 173.997 99.068C173.913 99.5813 173.778 99.9827 173.591 100.272C173.404 100.552 173.162 100.743 172.863 100.846C172.574 100.949 172.224 101 171.813 101H171.603ZM180.882 99.124C180.882 98.5173 181.083 98.0367 181.484 97.682C181.895 97.3273 182.632 97.1267 183.696 97.08L186.986 96.954V96.744C186.986 96.0347 186.785 95.526 186.384 95.218C185.983 94.9007 185.376 94.742 184.564 94.742C183.929 94.742 183.407 94.84 182.996 95.036C182.595 95.2227 182.338 95.5587 182.226 96.044H181.092C181.213 95.344 181.559 94.8167 182.128 94.462C182.707 94.1073 183.519 93.93 184.564 93.93C185.759 93.93 186.645 94.154 187.224 94.602C187.812 95.05 188.106 95.764 188.106 96.744V101H187.028V99.698C186.767 100.165 186.347 100.524 185.768 100.776C185.189 101.028 184.508 101.154 183.724 101.154C182.697 101.154 181.965 100.972 181.526 100.608C181.097 100.235 180.882 99.74 180.882 99.124ZM182.002 99.166C182.002 99.5487 182.156 99.8427 182.464 100.048C182.781 100.244 183.262 100.342 183.906 100.342C184.317 100.342 184.709 100.305 185.082 100.23C185.465 100.146 185.796 100.015 186.076 99.838C186.356 99.6513 186.575 99.4087 186.734 99.11C186.902 98.8113 186.986 98.4473 186.986 98.018V97.682L183.892 97.808C183.257 97.8453 182.781 97.9527 182.464 98.13C182.156 98.3073 182.002 98.6013 182.002 99.012V99.166ZM195.734 101L193.088 98.116L190.386 101H189.168L192.43 97.5L189.28 94.084H190.652L193.186 96.8L195.734 94.084H196.952L193.83 97.416L197.092 101H195.734ZM22.63 115.542C22.63 114.235 22.9753 113.307 23.666 112.756C24.3567 112.205 25.3273 111.93 26.578 111.93C27.8473 111.93 28.8227 112.205 29.504 112.756C30.1947 113.307 30.54 114.235 30.54 115.542C30.54 116.877 30.1947 117.815 29.504 118.356C28.8227 118.888 27.8473 119.154 26.578 119.154C25.3273 119.154 24.3567 118.888 23.666 118.356C22.9753 117.815 22.63 116.877 22.63 115.542ZM29.42 115.878V115.206C29.42 114.357 29.1773 113.736 28.692 113.344C28.2067 112.952 27.502 112.756 26.578 112.756C25.6727 112.756 24.9727 112.952 24.478 113.344C23.9927 113.736 23.75 114.357 23.75 115.206V115.878C23.75 116.727 23.9927 117.348 24.478 117.74C24.9727 118.123 25.6727 118.314 26.578 118.314C27.502 118.314 28.2067 118.123 28.692 117.74C29.1773 117.348 29.42 116.727 29.42 115.878ZM32.2658 112.084H39.1118V119H37.9918V112.938H33.3858V119H32.2658V112.084ZM40.8273 115.542C40.8273 114.263 41.1586 113.344 41.8213 112.784C42.4839 112.215 43.3986 111.93 44.5653 111.93C45.7599 111.93 46.6839 112.196 47.3373 112.728C47.9906 113.26 48.3173 114.109 48.3173 115.276V115.584H41.9473V115.906C41.9473 116.718 42.1666 117.329 42.6053 117.74C43.0533 118.141 43.7066 118.342 44.5653 118.342C45.2559 118.342 45.8159 118.239 46.2453 118.034C46.6839 117.819 46.9779 117.493 47.1273 117.054H48.2333C48.0279 117.782 47.6033 118.314 46.9593 118.65C46.3246 118.986 45.5266 119.154 44.5653 119.154C43.3986 119.154 42.4839 118.874 41.8213 118.314C41.1586 117.754 40.8273 116.83 40.8273 115.542ZM44.5653 112.728C43.8093 112.728 43.1933 112.891 42.7173 113.218C42.2506 113.545 41.9986 114.091 41.9613 114.856H47.2113C47.1739 114.091 46.9313 113.545 46.4833 113.218C46.0446 112.891 45.4053 112.728 44.5653 112.728ZM49.9983 112.084H51.0763V113.372C51.3563 112.868 51.7576 112.504 52.2803 112.28C52.8029 112.047 53.4283 111.93 54.1563 111.93C55.3509 111.93 56.2749 112.205 56.9283 112.756C57.5816 113.307 57.9083 114.235 57.9083 115.542C57.9083 116.849 57.5816 117.777 56.9283 118.328C56.2749 118.879 55.3509 119.154 54.1563 119.154C53.4469 119.154 52.8356 119.047 52.3223 118.832C51.8089 118.608 51.4076 118.258 51.1183 117.782V121.8H49.9983V112.084ZM56.7743 115.878V115.206C56.7743 114.329 56.5269 113.703 56.0323 113.33C55.5376 112.947 54.8423 112.756 53.9463 112.756C53.0223 112.756 52.3176 112.947 51.8323 113.33C51.3563 113.713 51.1183 114.338 51.1183 115.206V115.878C51.1183 116.718 51.3656 117.334 51.8603 117.726C52.3549 118.118 53.0503 118.314 53.9463 118.314C54.8423 118.314 55.5376 118.118 56.0323 117.726C56.5269 117.334 56.7743 116.718 56.7743 115.878ZM59.1749 117.124C59.1749 116.517 59.3756 116.037 59.7769 115.682C60.1876 115.327 60.9249 115.127 61.9889 115.08L65.2789 114.954V114.744C65.2789 114.035 65.0783 113.526 64.6769 113.218C64.2756 112.901 63.6689 112.742 62.8569 112.742C62.2223 112.742 61.6996 112.84 61.2889 113.036C60.8876 113.223 60.6309 113.559 60.5189 114.044H59.3849C59.5063 113.344 59.8516 112.817 60.4209 112.462C60.9996 112.107 61.8116 111.93 62.8569 111.93C64.0516 111.93 64.9383 112.154 65.5169 112.602C66.1049 113.05 66.3989 113.764 66.3989 114.744V119H65.3209V117.698C65.0596 118.165 64.6396 118.524 64.0609 118.776C63.4823 119.028 62.8009 119.154 62.0169 119.154C60.9903 119.154 60.2576 118.972 59.8189 118.608C59.3896 118.235 59.1749 117.74 59.1749 117.124ZM60.2949 117.166C60.2949 117.549 60.4489 117.843 60.7569 118.048C61.0743 118.244 61.5549 118.342 62.1989 118.342C62.6096 118.342 63.0016 118.305 63.3749 118.23C63.7576 118.146 64.0889 118.015 64.3689 117.838C64.6489 117.651 64.8683 117.409 65.0269 117.11C65.1949 116.811 65.2789 116.447 65.2789 116.018V115.682L62.1849 115.808C61.5503 115.845 61.0743 115.953 60.7569 116.13C60.4489 116.307 60.2949 116.601 60.2949 117.012V117.166ZM75.4266 120.96V119H68.4826V112.084H69.6026V118.146H74.2086V112.084H75.3286V118.146H76.4486V120.96H75.4266ZM77.8752 112.084H78.9952V117.796L83.6992 112.084H84.9732V119H83.8672V113.274L79.1632 119H77.8752V112.084ZM86.7101 115.542C86.7101 114.235 87.0554 113.307 87.7461 112.756C88.4367 112.205 89.4074 111.93 90.6581 111.93C91.9274 111.93 92.9027 112.205 93.5841 112.756C94.2747 113.307 94.6201 114.235 94.6201 115.542C94.6201 116.877 94.2747 117.815 93.5841 118.356C92.9027 118.888 91.9274 119.154 90.6581 119.154C89.4074 119.154 88.4367 118.888 87.7461 118.356C87.0554 117.815 86.7101 116.877 86.7101 115.542ZM93.5001 115.878V115.206C93.5001 114.357 93.2574 113.736 92.7721 113.344C92.2867 112.952 91.5821 112.756 90.6581 112.756C89.7527 112.756 89.0527 112.952 88.5581 113.344C88.0727 113.736 87.8301 114.357 87.8301 115.206V115.878C87.8301 116.727 88.0727 117.348 88.5581 117.74C89.0527 118.123 89.7527 118.314 90.6581 118.314C91.5821 118.314 92.2867 118.123 92.7721 117.74C93.2574 117.348 93.5001 116.727 93.5001 115.878ZM96.3459 112.084H97.4659V115.052H102.212V112.084H103.332V119H102.212V115.92H97.4659V119H96.3459V112.084ZM105.52 112.084H106.64V115.052H111.386V112.084H112.506V119H111.386V115.92H106.64V119H105.52V112.084ZM114.694 119V112.084H115.814V114.562H119.104C119.925 114.562 120.532 114.744 120.924 115.108C121.325 115.472 121.526 116.004 121.526 116.704C121.526 117.432 121.325 117.997 120.924 118.398C120.532 118.799 119.925 119 119.104 119H114.694ZM120.406 116.886V116.536C120.406 116.191 120.294 115.915 120.07 115.71C119.855 115.495 119.491 115.388 118.978 115.388H115.814V118.174H118.978C119.491 118.174 119.855 118.062 120.07 117.838C120.294 117.605 120.406 117.287 120.406 116.886ZM122.492 112.084H123.612V119H122.492V112.084ZM131.353 119L128.707 116.116L126.005 119H124.787L128.049 115.5L124.899 112.084H126.271L128.805 114.8L131.353 112.084H132.571L129.449 115.416L132.711 119H131.353ZM136.818 115.556C136.818 114.324 137.13 113.414 137.756 112.826C138.39 112.229 139.347 111.93 140.626 111.93C141.662 111.93 142.483 112.107 143.09 112.462C143.696 112.807 144.065 113.344 144.196 114.072H143.062C142.912 113.587 142.642 113.246 142.25 113.05C141.858 112.854 141.312 112.756 140.612 112.756C139.697 112.756 139.025 112.952 138.596 113.344C138.166 113.736 137.952 114.352 137.952 115.192V115.906C137.952 116.783 138.185 117.404 138.652 117.768C139.118 118.132 139.772 118.314 140.612 118.314C141.34 118.314 141.895 118.207 142.278 117.992C142.67 117.768 142.94 117.455 143.09 117.054H144.21C144.06 117.735 143.682 118.258 143.076 118.622C142.478 118.977 141.657 119.154 140.612 119.154C139.408 119.154 138.474 118.888 137.812 118.356C137.149 117.815 136.818 116.881 136.818 115.556ZM145.797 112.084H146.917V117.796L151.621 112.084H152.895V119H151.789V113.274L147.085 119H145.797V112.084ZM154.632 115.556C154.632 114.324 154.945 113.414 155.57 112.826C156.205 112.229 157.161 111.93 158.44 111.93C159.476 111.93 160.297 112.107 160.904 112.462C161.511 112.807 161.879 113.344 162.01 114.072H160.876C160.727 113.587 160.456 113.246 160.064 113.05C159.672 112.854 159.126 112.756 158.426 112.756C157.511 112.756 156.839 112.952 156.41 113.344C155.981 113.736 155.766 114.352 155.766 115.192V115.906C155.766 116.783 155.999 117.404 156.466 117.768C156.933 118.132 157.586 118.314 158.426 118.314C159.154 118.314 159.709 118.207 160.092 117.992C160.484 117.768 160.755 117.455 160.904 117.054H162.024C161.875 117.735 161.497 118.258 160.89 118.622C160.293 118.977 159.471 119.154 158.426 119.154C157.222 119.154 156.289 118.888 155.626 118.356C154.963 117.815 154.632 116.881 154.632 115.556ZM165.575 112.938H162.579V112.084H169.691V112.938H166.695V119H165.575V112.938ZM170.191 115.542C170.191 114.263 170.522 113.344 171.185 112.784C171.847 112.215 172.762 111.93 173.929 111.93C175.123 111.93 176.047 112.196 176.701 112.728C177.354 113.26 177.681 114.109 177.681 115.276V115.584H171.311V115.906C171.311 116.718 171.53 117.329 171.969 117.74C172.417 118.141 173.07 118.342 173.929 118.342C174.619 118.342 175.179 118.239 175.609 118.034C176.047 117.819 176.341 117.493 176.491 117.054H177.597C177.391 117.782 176.967 118.314 176.323 118.65C175.688 118.986 174.89 119.154 173.929 119.154C172.762 119.154 171.847 118.874 171.185 118.314C170.522 117.754 170.191 116.83 170.191 115.542ZM173.929 112.728C173.173 112.728 172.557 112.891 172.081 113.218C171.614 113.545 171.362 114.091 171.325 114.856H176.575C176.537 114.091 176.295 113.545 175.847 113.218C175.408 112.891 174.769 112.728 173.929 112.728ZM183.184 117.964L180.37 112.952V119H179.362V112.084H180.972L183.814 117.124L186.67 112.084H188.252V119H187.146V112.98L184.332 117.964H183.184ZM26.452 127.34H28.104L32.472 137H31.212L29.938 134.158H24.506L23.232 137H22.098L26.452 127.34ZM24.926 133.234H29.518L27.222 128.138L24.926 133.234ZM39.7367 137V132.828C39.7367 132.016 39.536 131.47 39.1347 131.19C38.7427 130.91 38.1594 130.77 37.3847 130.77C36.582 130.77 35.9427 130.929 35.4667 131.246C35 131.563 34.7667 132.109 34.7667 132.884V137H33.6467V130.084H34.7247V131.372C34.958 130.859 35.3407 130.49 35.8727 130.266C36.414 130.042 37.016 129.93 37.6787 129.93C38.668 129.93 39.4427 130.14 40.0027 130.56C40.572 130.98 40.8567 131.675 40.8567 132.646V137H39.7367ZM42.4816 133.584C42.4816 132.277 42.8129 131.344 43.4756 130.784C44.1382 130.215 45.0669 129.93 46.2616 129.93C46.9802 129.93 47.5916 130.037 48.0956 130.252C48.5996 130.457 48.9916 130.793 49.2716 131.26V126.78H50.3916V137H49.3276V135.684C49.0569 136.188 48.6602 136.561 48.1376 136.804C47.6242 137.037 46.9989 137.154 46.2616 137.154C45.0856 137.154 44.1616 136.883 43.4896 136.342C42.8176 135.791 42.4816 134.872 42.4816 133.584ZM49.2716 133.878V133.206C49.2716 132.357 49.0196 131.736 48.5156 131.344C48.0209 130.952 47.3256 130.756 46.4296 130.756C45.5429 130.756 44.8476 130.952 44.3436 131.344C43.8489 131.736 43.6016 132.366 43.6016 133.234V133.92C43.6016 134.751 43.8536 135.357 44.3576 135.74C44.8616 136.123 45.5569 136.314 46.4436 136.314C47.3302 136.314 48.0209 136.118 48.5156 135.726C49.0196 135.334 49.2716 134.718 49.2716 133.878ZM52.5822 130.084H53.6602V131.456C53.8562 130.999 54.1596 130.658 54.5702 130.434C54.9902 130.201 55.4802 130.084 56.0402 130.084H57.1602V131.064H55.9562C55.2282 131.064 54.6682 131.223 54.2762 131.54C53.8936 131.857 53.7022 132.394 53.7022 133.15V137H52.5822V130.084ZM57.7257 133.542C57.7257 132.235 58.071 131.307 58.7617 130.756C59.4524 130.205 60.423 129.93 61.6737 129.93C62.943 129.93 63.9184 130.205 64.5997 130.756C65.2904 131.307 65.6357 132.235 65.6357 133.542C65.6357 134.877 65.2904 135.815 64.5997 136.356C63.9184 136.888 62.943 137.154 61.6737 137.154C60.423 137.154 59.4524 136.888 58.7617 136.356C58.071 135.815 57.7257 134.877 57.7257 133.542ZM64.5157 133.878V133.206C64.5157 132.357 64.273 131.736 63.7877 131.344C63.3024 130.952 62.5977 130.756 61.6737 130.756C60.7684 130.756 60.0684 130.952 59.5737 131.344C59.0884 131.736 58.8457 132.357 58.8457 133.206V133.878C58.8457 134.727 59.0884 135.348 59.5737 135.74C60.0684 136.123 60.7684 136.314 61.6737 136.314C62.5977 136.314 63.3024 136.123 63.7877 135.74C64.273 135.348 64.5157 134.727 64.5157 133.878ZM67.3615 130.084H68.4815V137H67.3615V130.084ZM67.1515 127.816C67.1515 127.592 67.2169 127.419 67.3475 127.298C67.4875 127.177 67.6789 127.116 67.9215 127.116C68.1829 127.116 68.3789 127.177 68.5095 127.298C68.6402 127.419 68.7055 127.592 68.7055 127.816C68.7055 128.049 68.6402 128.227 68.5095 128.348C68.3789 128.469 68.1829 128.53 67.9215 128.53C67.6789 128.53 67.4875 128.469 67.3475 128.348C67.2169 128.227 67.1515 128.049 67.1515 127.816ZM70.2081 133.584C70.2081 132.277 70.5395 131.344 71.2021 130.784C71.8648 130.215 72.7935 129.93 73.9881 129.93C74.7068 129.93 75.3181 130.037 75.8221 130.252C76.3261 130.457 76.7181 130.793 76.9981 131.26V126.78H78.1181V137H77.0541V135.684C76.7835 136.188 76.3868 136.561 75.8641 136.804C75.3508 137.037 74.7255 137.154 73.9881 137.154C72.8121 137.154 71.8881 136.883 71.2161 136.342C70.5441 135.791 70.2081 134.872 70.2081 133.584ZM76.9981 133.878V133.206C76.9981 132.357 76.7461 131.736 76.2421 131.344C75.7475 130.952 75.0521 130.756 74.1561 130.756C73.2695 130.756 72.5741 130.952 72.0701 131.344C71.5755 131.736 71.3281 132.366 71.3281 133.234V133.92C71.3281 134.751 71.5801 135.357 72.0841 135.74C72.5881 136.123 73.2835 136.314 74.1701 136.314C75.0568 136.314 75.7475 136.118 76.2421 135.726C76.7461 135.334 76.9981 134.718 76.9981 133.878ZM80.0008 138.204C80.2341 138.204 80.4068 138.139 80.5188 138.008C80.6308 137.877 80.6868 137.672 80.6868 137.392V137.154H80.6308C80.3695 137.154 80.1735 137.093 80.0428 136.972C79.9121 136.841 79.8468 136.655 79.8468 136.412C79.8468 136.169 79.9121 135.987 80.0428 135.866C80.1828 135.745 80.3835 135.684 80.6448 135.684C80.9155 135.684 81.1208 135.745 81.2608 135.866C81.4008 135.987 81.4708 136.179 81.4708 136.44V137.308C81.4708 137.868 81.3495 138.269 81.1068 138.512C80.8641 138.764 80.4955 138.89 80.0008 138.89V138.204ZM86.3244 130.084H87.4444V137H86.3244V130.084ZM86.1144 127.816C86.1144 127.592 86.1798 127.419 86.3104 127.298C86.4504 127.177 86.6418 127.116 86.8844 127.116C87.1458 127.116 87.3418 127.177 87.4724 127.298C87.6031 127.419 87.6684 127.592 87.6684 127.816C87.6684 128.049 87.6031 128.227 87.4724 128.348C87.3418 128.469 87.1458 128.53 86.8844 128.53C86.6418 128.53 86.4504 128.469 86.3104 128.348C86.1798 128.227 86.1144 128.049 86.1144 127.816ZM89.255 132.17C89.255 130.378 89.7077 129.099 90.613 128.334C91.5277 127.569 92.8717 127.186 94.645 127.186C96.4183 127.186 97.7577 127.569 98.663 128.334C99.5777 129.099 100.035 130.378 100.035 132.17C100.035 133.934 99.5777 135.208 98.663 135.992C97.7577 136.767 96.4183 137.154 94.645 137.154C92.8717 137.154 91.5277 136.767 90.613 135.992C89.7077 135.208 89.255 133.934 89.255 132.17ZM98.831 132.618V131.652C98.831 130.439 98.481 129.552 97.781 128.992C97.081 128.432 96.0357 128.152 94.645 128.152C93.2543 128.152 92.209 128.432 91.509 128.992C90.809 129.552 90.459 130.439 90.459 131.652V132.618C90.459 133.822 90.809 134.718 91.509 135.306C92.209 135.894 93.2543 136.188 94.645 136.188C96.0357 136.188 97.081 135.894 97.781 135.306C98.481 134.718 98.831 133.822 98.831 132.618ZM101.338 134.424H102.57C102.747 135.124 103.107 135.6 103.648 135.852C104.189 136.095 104.997 136.216 106.07 136.216C107.181 136.216 107.988 136.067 108.492 135.768C108.996 135.469 109.248 135.017 109.248 134.41C109.248 133.589 108.842 133.094 108.03 132.926C107.227 132.749 106.345 132.618 105.384 132.534C104.423 132.441 103.536 132.249 102.724 131.96C101.921 131.671 101.52 130.994 101.52 129.93C101.52 128.997 101.898 128.306 102.654 127.858C103.419 127.41 104.497 127.186 105.888 127.186C107.251 127.186 108.296 127.396 109.024 127.816C109.752 128.227 110.167 128.899 110.27 129.832H109.052C108.959 129.179 108.632 128.731 108.072 128.488C107.512 128.245 106.784 128.124 105.888 128.124C104.871 128.124 104.087 128.259 103.536 128.53C102.985 128.801 102.71 129.263 102.71 129.916C102.71 130.7 103.111 131.167 103.914 131.316C104.726 131.465 105.613 131.587 106.574 131.68C107.535 131.764 108.417 131.96 109.22 132.268C110.032 132.576 110.438 133.276 110.438 134.368C110.438 135.32 110.088 136.025 109.388 136.482C108.697 136.93 107.591 137.154 106.07 137.154C104.558 137.154 103.429 136.949 102.682 136.538C101.935 136.118 101.487 135.413 101.338 134.424ZM115.569 130.084H116.689V135.796L121.393 130.084H122.667V137H121.561V131.274L116.857 137H115.569V130.084ZM127.458 127.34H128.662L130.916 135.95L133.506 127.34H135.004L137.524 135.908L139.834 127.34H140.898L138.28 137H136.712L134.192 128.446L131.602 137H129.978L127.458 127.34ZM142.229 130.084H143.349V137H142.229V130.084ZM142.019 127.816C142.019 127.592 142.084 127.419 142.215 127.298C142.355 127.177 142.546 127.116 142.789 127.116C143.05 127.116 143.246 127.177 143.377 127.298C143.507 127.419 143.573 127.592 143.573 127.816C143.573 128.049 143.507 128.227 143.377 128.348C143.246 128.469 143.05 128.53 142.789 128.53C142.546 128.53 142.355 128.469 142.215 128.348C142.084 128.227 142.019 128.049 142.019 127.816ZM151.627 137V132.828C151.627 132.016 151.427 131.47 151.025 131.19C150.633 130.91 150.05 130.77 149.275 130.77C148.473 130.77 147.833 130.929 147.357 131.246C146.891 131.563 146.657 132.109 146.657 132.884V137H145.537V130.084H146.615V131.372C146.849 130.859 147.231 130.49 147.763 130.266C148.305 130.042 148.907 129.93 149.569 129.93C150.559 129.93 151.333 130.14 151.893 130.56C152.463 130.98 152.747 131.675 152.747 132.646V137H151.627ZM154.372 133.584C154.372 132.277 154.704 131.344 155.366 130.784C156.029 130.215 156.958 129.93 158.152 129.93C158.871 129.93 159.482 130.037 159.986 130.252C160.49 130.457 160.882 130.793 161.162 131.26V126.78H162.282V137H161.218V135.684C160.948 136.188 160.551 136.561 160.028 136.804C159.515 137.037 158.89 137.154 158.152 137.154C156.976 137.154 156.052 136.883 155.38 136.342C154.708 135.791 154.372 134.872 154.372 133.584ZM161.162 133.878V133.206C161.162 132.357 160.91 131.736 160.406 131.344C159.912 130.952 159.216 130.756 158.32 130.756C157.434 130.756 156.738 130.952 156.234 131.344C155.74 131.736 155.492 132.366 155.492 133.234V133.92C155.492 134.751 155.744 135.357 156.248 135.74C156.752 136.123 157.448 136.314 158.334 136.314C159.221 136.314 159.912 136.118 160.406 135.726C160.91 135.334 161.162 134.718 161.162 133.878ZM164.011 133.542C164.011 132.235 164.356 131.307 165.047 130.756C165.738 130.205 166.708 129.93 167.959 129.93C169.228 129.93 170.204 130.205 170.885 130.756C171.576 131.307 171.921 132.235 171.921 133.542C171.921 134.877 171.576 135.815 170.885 136.356C170.204 136.888 169.228 137.154 167.959 137.154C166.708 137.154 165.738 136.888 165.047 136.356C164.356 135.815 164.011 134.877 164.011 133.542ZM170.801 133.878V133.206C170.801 132.357 170.558 131.736 170.073 131.344C169.588 130.952 168.883 130.756 167.959 130.756C167.054 130.756 166.354 130.952 165.859 131.344C165.374 131.736 165.131 132.357 165.131 133.206V133.878C165.131 134.727 165.374 135.348 165.859 135.74C166.354 136.123 167.054 136.314 167.959 136.314C168.883 136.314 169.588 136.123 170.073 135.74C170.558 135.348 170.801 134.727 170.801 133.878ZM175.146 137L172.654 130.084H173.746L175.916 136.118L177.96 130.084H179.29L181.362 136.104L183.504 130.084H184.498L182.02 137H180.634L178.562 130.966L176.532 137H175.146ZM185.173 134.9H186.293C186.358 135.451 186.601 135.829 187.021 136.034C187.45 136.23 188.043 136.328 188.799 136.328C189.611 136.328 190.217 136.23 190.619 136.034C191.029 135.838 191.235 135.516 191.235 135.068C191.235 134.527 190.927 134.205 190.311 134.102C189.695 133.999 189.018 133.92 188.281 133.864C187.553 133.799 186.881 133.659 186.265 133.444C185.649 133.22 185.341 132.716 185.341 131.932C185.341 131.269 185.635 130.765 186.223 130.42C186.811 130.075 187.646 129.902 188.729 129.902C189.783 129.902 190.595 130.07 191.165 130.406C191.743 130.733 192.065 131.246 192.131 131.946H190.997C190.95 131.461 190.712 131.134 190.283 130.966C189.863 130.789 189.345 130.7 188.729 130.7C188.019 130.7 187.459 130.798 187.049 130.994C186.647 131.181 186.447 131.484 186.447 131.904C186.447 132.427 186.755 132.739 187.371 132.842C187.987 132.935 188.659 133.015 189.387 133.08C190.115 133.136 190.787 133.281 191.403 133.514C192.019 133.747 192.327 134.256 192.327 135.04C192.327 135.777 192.014 136.309 191.389 136.636C190.773 136.963 189.909 137.126 188.799 137.126C187.66 137.126 186.787 136.953 186.181 136.608C185.583 136.253 185.247 135.684 185.173 134.9ZM196.626 128.81L198.838 127.34H200.042V137H198.838V128.446L196.626 129.93V128.81ZM201.657 128.81L203.869 127.34H205.073V137H203.869V128.446L201.657 129.93V128.81ZM207.038 136.412C207.038 136.169 207.108 135.987 207.248 135.866C207.388 135.745 207.589 135.684 207.85 135.684C208.121 135.684 208.326 135.745 208.466 135.866C208.606 135.987 208.676 136.169 208.676 136.412C208.676 136.664 208.606 136.851 208.466 136.972C208.326 137.093 208.121 137.154 207.85 137.154C207.589 137.154 207.388 137.093 207.248 136.972C207.108 136.851 207.038 136.664 207.038 136.412Z" fill="white"/>
<path d="M22.648 22.2H35.536V24.792H30.4V39H27.808V24.792H22.648V22.2ZM45.8757 31.248H44.5557V33.84H43.2597V35.136H41.9637V36.408H40.6677V37.704H39.3957V39H36.8277V27.36H39.3957V33.84H40.6917V32.544H41.9877V29.952H43.2837V28.656H44.5797V27.36H48.4197V39H45.8757V31.248ZM58.7663 29.952H52.3103V39H49.7183V27.36H61.3103V39H58.7663V29.952ZM71.1003 36.408H69.8043V29.952H71.1003V28.656H72.3963V27.384H78.8523V28.656H80.1483V29.952H81.4443V32.52H78.8523V31.224H77.5563V29.928H73.6923V31.224H72.3963V35.136H73.6923V36.432H77.5563V35.136H78.8523V33.84H81.4443V36.408H80.1483V37.704H78.8523V39H72.3963V37.704H71.1003V36.408ZM86.6298 29.952V31.272H85.3098V35.112H86.6298V36.432H91.7898V35.112H93.0618V31.272H91.7898V29.952H86.6298ZM86.6298 37.728H85.3098V42.888H82.7418V27.336H85.3098V28.656H86.6298V27.336H93.0858V28.656H94.3578V29.952H95.6537V36.408H94.3578V37.728H93.0858V39.024H86.6298V37.728ZM105.969 29.928H100.809V31.248H105.969V29.928ZM99.5129 33.84V35.112H100.809V36.408H105.969V35.112H109.857V36.408H108.561V37.704H107.265V39H99.5369V37.704H98.2409V36.408H96.9449V29.952H98.2409V28.656H99.5369V27.384H107.265V28.656H108.561V29.952H109.857V33.84H99.5129ZM116.314 29.976V33.84H115.018V36.408H113.722V37.704H121.474V29.976H116.314ZM124.018 37.704H125.314V42.864H122.746V40.296H112.426V42.864H109.882V37.704H111.13V36.408H112.426V33.84H113.722V27.384H124.018V37.704ZM135.665 33.84H129.209V36.408H135.665V33.84ZM139.529 39V27.36H142.121V39H139.529ZM136.937 32.544H138.233V37.704H136.937V39H126.617V27.36H129.209V31.248H136.937V32.544ZM23.944 62.408H22.648V55.952H23.944V54.656H25.216V53.384H31.696V54.656H32.968V55.952H34.264V62.408H32.968V63.704H31.696V65H25.216V63.704H23.944V62.408ZM26.512 55.952V57.248H25.24V61.112H26.512V62.408H30.4V61.112H31.672V57.248H30.4V55.952H26.512ZM38.1541 54.656H39.4501V53.36H45.9061V54.656H47.2021V55.952H48.4981V62.408H47.2021V63.704H45.9061V65H38.1541V63.704H36.8581V62.408H35.5621V52.064H36.8581V50.768H38.1541V49.472H40.7461V48.176H45.9061V46.88H48.4981V49.472H45.9061V50.768H40.7461V52.064H38.1541V54.656ZM38.1541 57.248V61.112H39.4501V62.408H44.6101V61.112H45.9061V57.248H44.6101V55.952H39.4501V57.248H38.1541ZM58.8366 57.248H57.5166V59.84H56.2206V61.136H54.9246V62.408H53.6286V63.704H52.3566V65H49.7886V53.36H52.3566V59.84H53.6526V58.544H54.9486V55.952H56.2446V54.656H57.5406V53.36H61.3806V65H58.8366V57.248ZM67.8393 55.904H62.6793V53.36H75.5912V55.904H70.4313V65H67.8393V55.904ZM82.0664 59.84V61.136H79.4744V62.408H83.3624V61.112H85.9304V59.84H82.0664ZM78.1784 63.704H76.8824V59.84H78.1784V58.544H80.7704V57.248H85.9304V55.952H79.4744V57.248H76.8824V54.656H78.1784V53.36H87.2024V54.656H88.4984V62.408H89.7944V65H87.2264V63.704H84.6584V65H78.1784V63.704ZM100.134 53.36H102.678V65H100.134V59.84H93.6295V65H91.0855V53.36H93.6295V57.248H100.134V53.36ZM113.024 53.36H115.568V65H113.024V59.84H106.52V65H103.976V53.36H106.52V57.248H113.024V53.36ZM125.915 57.248H124.595V59.84H123.299V61.136H122.003V62.408H120.707V63.704H119.435V65H116.867V53.36H119.435V59.84H120.731V58.544H122.027V55.952H123.323V54.656H124.619V53.36H128.459V65H125.915V57.248ZM132.349 55.952V57.248H140.101V55.952H132.349ZM131.053 63.704V62.408H132.349V61.112H133.645V59.84H131.053V58.544H129.757V54.656H131.053V53.36H142.693V65H140.101V59.84H137.533V61.112H136.237V62.408H134.941V63.704H133.645V65H129.757V63.704H131.053Z" fill="white"/>
</svg>
