<svg width="237" height="245" viewBox="0 0 237 245" fill="none" xmlns="http://www.w3.org/2000/svg">
<rect x="2.5" y="2.5" width="232" height="240" fill="#161616" stroke="white" stroke-width="5"/>
<path d="M23.204 90.34H30.904V91.292H24.394V94.61H29.686V95.548H24.394V99.048H30.96V100H23.204V90.34ZM32.5119 93.084H38.0139V93.938H33.6319V100H32.5119V93.084ZM38.4894 96.542C38.4894 95.2353 38.8347 94.3067 39.5254 93.756C40.216 93.2053 41.1867 92.93 42.4374 92.93C43.7067 92.93 44.682 93.2053 45.3634 93.756C46.054 94.3067 46.3994 95.2353 46.3994 96.542C46.3994 97.8767 46.054 98.8147 45.3634 99.356C44.682 99.888 43.7067 100.154 42.4374 100.154C41.1867 100.154 40.216 99.888 39.5254 99.356C38.8347 98.8147 38.4894 97.8767 38.4894 96.542ZM45.2794 96.878V96.206C45.2794 95.3567 45.0367 94.736 44.5514 94.344C44.066 93.952 43.3614 93.756 42.4374 93.756C41.532 93.756 40.832 93.952 40.3374 94.344C39.852 94.736 39.6094 95.3567 39.6094 96.206V96.878C39.6094 97.7273 39.852 98.348 40.3374 98.74C40.832 99.1227 41.532 99.314 42.4374 99.314C43.3614 99.314 44.066 99.1227 44.5514 98.74C45.0367 98.348 45.2794 97.7273 45.2794 96.878ZM51.5295 93.084H58.3755V100H57.2555V93.938H52.6495V100H51.5295V93.084ZM60.0909 96.542C60.0909 95.2353 60.4363 94.3067 61.1269 93.756C61.8176 93.2053 62.7883 92.93 64.0389 92.93C65.3083 92.93 66.2836 93.2053 66.9649 93.756C67.6556 94.3067 68.0009 95.2353 68.0009 96.542C68.0009 97.8767 67.6556 98.8147 66.9649 99.356C66.2836 99.888 65.3083 100.154 64.0389 100.154C62.7883 100.154 61.8176 99.888 61.1269 99.356C60.4363 98.8147 60.0909 97.8767 60.0909 96.542ZM66.8809 96.878V96.206C66.8809 95.3567 66.6383 94.736 66.1529 94.344C65.6676 93.952 64.9629 93.756 64.0389 93.756C63.1336 93.756 62.4336 93.952 61.9389 94.344C61.4536 94.736 61.2109 95.3567 61.2109 96.206V96.878C61.2109 97.7273 61.4536 98.348 61.9389 98.74C62.4336 99.1227 63.1336 99.314 64.0389 99.314C64.9629 99.314 65.6676 99.1227 66.1529 98.74C66.6383 98.348 66.8809 97.7273 66.8809 96.878ZM73.1311 93.084H77.5411C78.3251 93.084 78.8897 93.238 79.2351 93.546C79.5804 93.854 79.7531 94.2507 79.7531 94.736C79.7531 95.0813 79.6737 95.408 79.5151 95.716C79.3564 96.0147 79.0391 96.2247 78.5631 96.346C79.1231 96.4767 79.5057 96.7007 79.7111 97.018C79.9257 97.326 80.0331 97.6573 80.0331 98.012C80.0331 98.7027 79.8417 99.2067 79.4591 99.524C79.0764 99.8413 78.4744 100 77.6531 100H73.1311V93.084ZM78.6331 95.058V94.792C78.6331 94.512 78.5491 94.288 78.3811 94.12C78.2131 93.952 77.8957 93.868 77.4291 93.868H74.2511V96.066H77.4431C77.9004 96.066 78.2131 95.968 78.3811 95.772C78.5491 95.576 78.6331 95.338 78.6331 95.058ZM78.9131 98.138V97.83C78.9131 97.494 78.7964 97.2373 78.5631 97.06C78.3297 96.8827 77.9657 96.794 77.4711 96.794H74.2511V99.216H77.4711C77.9657 99.216 78.3297 99.132 78.5631 98.964C78.7964 98.7867 78.9131 98.5113 78.9131 98.138ZM81.3234 96.556C81.3234 95.324 81.636 94.414 82.2614 93.826C82.896 93.2287 83.8527 92.93 85.1314 92.93C86.1674 92.93 86.9887 93.1073 87.5954 93.462C88.202 93.8073 88.5707 94.344 88.7014 95.072H87.5674C87.418 94.5867 87.1474 94.246 86.7554 94.05C86.3634 93.854 85.8174 93.756 85.1174 93.756C84.2027 93.756 83.5307 93.952 83.1014 94.344C82.672 94.736 82.4574 95.352 82.4574 96.192V96.906C82.4574 97.7833 82.6907 98.404 83.1574 98.768C83.624 99.132 84.2774 99.314 85.1174 99.314C85.8454 99.314 86.4007 99.2067 86.7834 98.992C87.1754 98.768 87.446 98.4553 87.5954 98.054H88.7154C88.566 98.7353 88.188 99.258 87.5814 99.622C86.984 99.9767 86.1627 100.154 85.1174 100.154C83.9134 100.154 82.98 99.888 82.3174 99.356C81.6547 98.8147 81.3234 97.8813 81.3234 96.556ZM89.8409 96.542C89.8409 95.2633 90.1723 94.344 90.8349 93.784C91.4976 93.2147 92.4123 92.93 93.5789 92.93C94.7736 92.93 95.6976 93.196 96.3509 93.728C97.0043 94.26 97.3309 95.1093 97.3309 96.276V96.584H90.9609V96.906C90.9609 97.718 91.1803 98.3293 91.6189 98.74C92.0669 99.1413 92.7203 99.342 93.5789 99.342C94.2696 99.342 94.8296 99.2393 95.2589 99.034C95.6976 98.8193 95.9916 98.4927 96.1409 98.054H97.2469C97.0416 98.782 96.6169 99.314 95.9729 99.65C95.3383 99.986 94.5403 100.154 93.5789 100.154C92.4123 100.154 91.4976 99.874 90.8349 99.314C90.1723 98.754 89.8409 97.83 89.8409 96.542ZM93.5789 93.728C92.8229 93.728 92.2069 93.8913 91.7309 94.218C91.2643 94.5447 91.0123 95.0907 90.9749 95.856H96.2249C96.1876 95.0907 95.9449 94.5447 95.4969 94.218C95.0583 93.8913 94.4189 93.728 93.5789 93.728ZM102.834 98.964L100.02 93.952V100H99.0119V93.084H100.622L103.464 98.124L106.32 93.084H107.902V100H106.796V93.98L103.982 98.964H102.834ZM109.918 101.946H110.674C111.103 101.946 111.434 101.871 111.668 101.722C111.91 101.573 112.134 101.283 112.34 100.854L112.676 100.154L109.106 93.084H110.31L113.25 98.978L116.134 93.084H117.198L113.278 101.064C112.97 101.708 112.638 102.156 112.284 102.408C111.929 102.669 111.43 102.8 110.786 102.8H109.918V101.946ZM121.475 93.084H128.321V100H127.201V93.938H122.595V100H121.475V93.084ZM130.036 96.542C130.036 95.2633 130.368 94.344 131.03 93.784C131.693 93.2147 132.608 92.93 133.774 92.93C134.969 92.93 135.893 93.196 136.546 93.728C137.2 94.26 137.526 95.1093 137.526 96.276V96.584H131.156V96.906C131.156 97.718 131.376 98.3293 131.814 98.74C132.262 99.1413 132.916 99.342 133.774 99.342C134.465 99.342 135.025 99.2393 135.454 99.034C135.893 98.8193 136.187 98.4927 136.336 98.054H137.442C137.237 98.782 136.812 99.314 136.168 99.65C135.534 99.986 134.736 100.154 133.774 100.154C132.608 100.154 131.693 99.874 131.03 99.314C130.368 98.754 130.036 97.83 130.036 96.542ZM133.774 93.728C133.018 93.728 132.402 93.8913 131.926 94.218C131.46 94.5447 131.208 95.0907 131.17 95.856H136.42C136.383 95.0907 136.14 94.5447 135.692 94.218C135.254 93.8913 134.614 93.728 133.774 93.728ZM139.207 93.084H140.285V94.372C140.565 93.868 140.967 93.504 141.489 93.28C142.012 93.0467 142.637 92.93 143.365 92.93C144.56 92.93 145.484 93.2053 146.137 93.756C146.791 94.3067 147.117 95.2353 147.117 96.542C147.117 97.8487 146.791 98.7773 146.137 99.328C145.484 99.8787 144.56 100.154 143.365 100.154C142.656 100.154 142.045 100.047 141.531 99.832C141.018 99.608 140.617 99.258 140.327 98.782V102.8H139.207V93.084ZM145.983 96.878V96.206C145.983 95.3287 145.736 94.7033 145.241 94.33C144.747 93.9473 144.051 93.756 143.155 93.756C142.231 93.756 141.527 93.9473 141.041 94.33C140.565 94.7127 140.327 95.338 140.327 96.206V96.878C140.327 97.718 140.575 98.334 141.069 98.726C141.564 99.118 142.259 99.314 143.155 99.314C144.051 99.314 144.747 99.118 145.241 98.726C145.736 98.334 145.983 97.718 145.983 96.878ZM148.846 93.084H149.966V98.796L154.67 93.084H155.944V100H154.838V94.274L150.134 100H148.846V93.084ZM161.965 98.964L159.151 93.952V100H158.143V93.084H159.753L162.595 98.124L165.451 93.084H167.033V100H165.927V93.98L163.113 98.964H161.965ZM168.769 96.542C168.769 95.2633 169.1 94.344 169.763 93.784C170.425 93.2147 171.34 92.93 172.507 92.93C173.701 92.93 174.625 93.196 175.279 93.728C175.932 94.26 176.259 95.1093 176.259 96.276V96.584H169.889V96.906C169.889 97.718 170.108 98.3293 170.547 98.74C170.995 99.1413 171.648 99.342 172.507 99.342C173.197 99.342 173.757 99.2393 174.187 99.034C174.625 98.8193 174.919 98.4927 175.069 98.054H176.175C175.969 98.782 175.545 99.314 174.901 99.65C174.266 99.986 173.468 100.154 172.507 100.154C171.34 100.154 170.425 99.874 169.763 99.314C169.1 98.754 168.769 97.83 168.769 96.542ZM172.507 93.728C171.751 93.728 171.135 93.8913 170.659 94.218C170.192 94.5447 169.94 95.0907 169.903 95.856H175.153C175.115 95.0907 174.873 94.5447 174.425 94.218C173.986 93.8913 173.347 93.728 172.507 93.728ZM179.807 93.938H176.811V93.084H183.923V93.938H180.927V100H179.807V93.938ZM185.213 93.084H186.291V94.372C186.571 93.868 186.972 93.504 187.495 93.28C188.018 93.0467 188.643 92.93 189.371 92.93C190.566 92.93 191.49 93.2053 192.143 93.756C192.796 94.3067 193.123 95.2353 193.123 96.542C193.123 97.8487 192.796 98.7773 192.143 99.328C191.49 99.8787 190.566 100.154 189.371 100.154C188.662 100.154 188.05 100.047 187.537 99.832C187.024 99.608 186.622 99.258 186.333 98.782V102.8H185.213V93.084ZM191.989 96.878V96.206C191.989 95.3287 191.742 94.7033 191.247 94.33C190.752 93.9473 190.057 93.756 189.161 93.756C188.237 93.756 187.532 93.9473 187.047 94.33C186.571 94.7127 186.333 95.338 186.333 96.206V96.878C186.333 97.718 186.58 98.334 187.075 98.726C187.57 99.118 188.265 99.314 189.161 99.314C190.057 99.314 190.752 99.118 191.247 98.726C191.742 98.334 191.989 97.718 191.989 96.878ZM194.492 101.946H195.248C195.677 101.946 196.009 101.871 196.242 101.722C196.485 101.573 196.709 101.283 196.914 100.854L197.25 100.154L193.68 93.084H194.884L197.824 98.978L200.708 93.084H201.772L197.852 101.064C197.544 101.708 197.213 102.156 196.858 102.408C196.503 102.669 196.004 102.8 195.36 102.8H194.492V101.946ZM23.092 111.084H29.938V118H28.818V111.938H24.212V118H23.092V111.084ZM31.6534 114.542C31.6534 113.235 31.9988 112.307 32.6894 111.756C33.3801 111.205 34.3508 110.93 35.6014 110.93C36.8708 110.93 37.8461 111.205 38.5274 111.756C39.2181 112.307 39.5634 113.235 39.5634 114.542C39.5634 115.877 39.2181 116.815 38.5274 117.356C37.8461 117.888 36.8708 118.154 35.6014 118.154C34.3508 118.154 33.3801 117.888 32.6894 117.356C31.9988 116.815 31.6534 115.877 31.6534 114.542ZM38.4434 114.878V114.206C38.4434 113.357 38.2008 112.736 37.7154 112.344C37.2301 111.952 36.5254 111.756 35.6014 111.756C34.6961 111.756 33.9961 111.952 33.5014 112.344C33.0161 112.736 32.7734 113.357 32.7734 114.206V114.878C32.7734 115.727 33.0161 116.348 33.5014 116.74C33.9961 117.123 34.6961 117.314 35.6014 117.314C36.5254 117.314 37.2301 117.123 37.7154 116.74C38.2008 116.348 38.4434 115.727 38.4434 114.878ZM44.2316 114.542C44.2316 113.235 44.5769 112.307 45.2676 111.756C45.9582 111.205 46.9289 110.93 48.1796 110.93C49.4489 110.93 50.4242 111.205 51.1056 111.756C51.7962 112.307 52.1416 113.235 52.1416 114.542C52.1416 115.877 51.7962 116.815 51.1056 117.356C50.4242 117.888 49.4489 118.154 48.1796 118.154C46.9289 118.154 45.9582 117.888 45.2676 117.356C44.5769 116.815 44.2316 115.877 44.2316 114.542ZM51.0216 114.878V114.206C51.0216 113.357 50.7789 112.736 50.2936 112.344C49.8082 111.952 49.1036 111.756 48.1796 111.756C47.2742 111.756 46.5742 111.952 46.0796 112.344C45.5942 112.736 45.3516 113.357 45.3516 114.206V114.878C45.3516 115.727 45.5942 116.348 46.0796 116.74C46.5742 117.123 47.2742 117.314 48.1796 117.314C49.1036 117.314 49.8082 117.123 50.2936 116.74C50.7789 116.348 51.0216 115.727 51.0216 114.878ZM53.4054 114.556C53.4054 113.324 53.7181 112.414 54.3434 111.826C54.9781 111.229 55.9347 110.93 57.2134 110.93C58.2494 110.93 59.0707 111.107 59.6774 111.462C60.2841 111.807 60.6527 112.344 60.7834 113.072H59.6494C59.5001 112.587 59.2294 112.246 58.8374 112.05C58.4454 111.854 57.8994 111.756 57.1994 111.756C56.2847 111.756 55.6127 111.952 55.1834 112.344C54.7541 112.736 54.5394 113.352 54.5394 114.192V114.906C54.5394 115.783 54.7727 116.404 55.2394 116.768C55.7061 117.132 56.3594 117.314 57.1994 117.314C57.9274 117.314 58.4827 117.207 58.8654 116.992C59.2574 116.768 59.5281 116.455 59.6774 116.054H60.7974C60.6481 116.735 60.2701 117.258 59.6634 117.622C59.0661 117.977 58.2447 118.154 57.1994 118.154C55.9954 118.154 55.0621 117.888 54.3994 117.356C53.7367 116.815 53.4054 115.881 53.4054 114.556ZM62.385 111.084H63.505V116.796L68.209 111.084H69.483V118H68.377V112.274L63.673 118H62.385V111.084ZM74.4981 117.16L79.8461 111.938H74.5681V111.084H81.1901V111.91L75.8421 117.146H81.4281V118H74.4981V117.16ZM85.8488 114.542C85.8488 113.235 86.1941 112.307 86.8848 111.756C87.5754 111.205 88.5461 110.93 89.7968 110.93C91.0661 110.93 92.0414 111.205 92.7228 111.756C93.4134 112.307 93.7588 113.235 93.7588 114.542C93.7588 115.877 93.4134 116.815 92.7228 117.356C92.0414 117.888 91.0661 118.154 89.7968 118.154C88.5461 118.154 87.5754 117.888 86.8848 117.356C86.1941 116.815 85.8488 115.877 85.8488 114.542ZM92.6388 114.878V114.206C92.6388 113.357 92.3961 112.736 91.9108 112.344C91.4254 111.952 90.7208 111.756 89.7968 111.756C88.8914 111.756 88.1914 111.952 87.6968 112.344C87.2114 112.736 86.9688 113.357 86.9688 114.206V114.878C86.9688 115.727 87.2114 116.348 87.6968 116.74C88.1914 117.123 88.8914 117.314 89.7968 117.314C90.7208 117.314 91.4254 117.123 91.9108 116.74C92.3961 116.348 92.6388 115.727 92.6388 114.878ZM95.4846 111.084H96.6046V114.038H97.8646L100.945 111.084H102.275L98.8166 114.388L102.639 118H101.169L97.9066 114.906H96.6046V118H95.4846V111.084ZM103.647 111.084H104.725V112.372C105.005 111.868 105.406 111.504 105.929 111.28C106.451 111.047 107.077 110.93 107.805 110.93C108.999 110.93 109.923 111.205 110.577 111.756C111.23 112.307 111.557 113.235 111.557 114.542C111.557 115.849 111.23 116.777 110.577 117.328C109.923 117.879 108.999 118.154 107.805 118.154C107.095 118.154 106.484 118.047 105.971 117.832C105.457 117.608 105.056 117.258 104.767 116.782V120.8H103.647V111.084ZM110.423 114.878V114.206C110.423 113.329 110.175 112.703 109.681 112.33C109.186 111.947 108.491 111.756 107.595 111.756C106.671 111.756 105.966 111.947 105.481 112.33C105.005 112.713 104.767 113.338 104.767 114.206V114.878C104.767 115.718 105.014 116.334 105.509 116.726C106.003 117.118 106.699 117.314 107.595 117.314C108.491 117.314 109.186 117.118 109.681 116.726C110.175 116.334 110.423 115.718 110.423 114.878ZM112.926 119.946H113.682C114.111 119.946 114.442 119.871 114.676 119.722C114.918 119.573 115.142 119.283 115.348 118.854L115.684 118.154L112.114 111.084H113.318L116.258 116.978L119.142 111.084H120.206L116.286 119.064C115.978 119.708 115.646 120.156 115.292 120.408C114.937 120.669 114.438 120.8 113.794 120.8H112.926V119.946ZM125.746 111.084H126.866V114.038H127.972L130.73 111.084H132.018L128.938 114.374L132.34 118H130.926L128.028 114.906H126.866V118H125.746V114.906H124.598L121.7 118H120.356L123.688 114.43L120.552 111.084H121.896L124.654 114.038H125.746V111.084ZM132.853 116.124C132.853 115.517 133.053 115.037 133.455 114.682C133.865 114.327 134.603 114.127 135.667 114.08L138.957 113.954V113.744C138.957 113.035 138.756 112.526 138.355 112.218C137.953 111.901 137.347 111.742 136.535 111.742C135.9 111.742 135.377 111.84 134.967 112.036C134.565 112.223 134.309 112.559 134.197 113.044H133.063C133.184 112.344 133.529 111.817 134.099 111.462C134.677 111.107 135.489 110.93 136.535 110.93C137.729 110.93 138.616 111.154 139.195 111.602C139.783 112.05 140.077 112.764 140.077 113.744V118H138.999V116.698C138.737 117.165 138.317 117.524 137.739 117.776C137.16 118.028 136.479 118.154 135.695 118.154C134.668 118.154 133.935 117.972 133.497 117.608C133.067 117.235 132.853 116.74 132.853 116.124ZM133.973 116.166C133.973 116.549 134.127 116.843 134.435 117.048C134.752 117.244 135.233 117.342 135.877 117.342C136.287 117.342 136.679 117.305 137.053 117.23C137.435 117.146 137.767 117.015 138.047 116.838C138.327 116.651 138.546 116.409 138.705 116.11C138.873 115.811 138.957 115.447 138.957 115.018V114.682L135.863 114.808C135.228 114.845 134.752 114.953 134.435 115.13C134.127 115.307 133.973 115.601 133.973 116.012V116.166ZM142.16 111.084H143.28V113.996H144.918C145.012 112.885 145.394 112.097 146.066 111.63C146.738 111.163 147.644 110.93 148.782 110.93C150.024 110.93 150.98 111.205 151.652 111.756C152.324 112.297 152.66 113.226 152.66 114.542C152.66 115.858 152.324 116.791 151.652 117.342C150.98 117.883 150.024 118.154 148.782 118.154C147.597 118.154 146.664 117.902 145.982 117.398C145.31 116.894 144.946 116.045 144.89 114.85H143.28V118H142.16V111.084ZM151.526 114.864V114.206C151.526 113.31 151.284 112.68 150.798 112.316C150.322 111.943 149.65 111.756 148.782 111.756C147.914 111.756 147.238 111.943 146.752 112.316C146.267 112.68 146.024 113.31 146.024 114.206V114.864C146.024 115.76 146.267 116.395 146.752 116.768C147.238 117.132 147.914 117.314 148.782 117.314C149.65 117.314 150.322 117.132 150.798 116.768C151.284 116.395 151.526 115.76 151.526 114.864ZM156.169 111.938H153.173V111.084H160.285V111.938H157.289V118H156.169V111.938ZM22.434 134.026H23.568C23.6053 134.493 23.834 134.833 24.254 135.048C24.674 135.253 25.2667 135.356 26.032 135.356C26.8253 135.356 27.418 135.263 27.81 135.076C28.2113 134.889 28.412 134.572 28.412 134.124V133.9C28.412 133.527 28.2487 133.247 27.922 133.06C27.6047 132.873 27.1193 132.78 26.466 132.78H24.814V131.996H26.438C27.082 131.996 27.5347 131.912 27.796 131.744C28.0667 131.567 28.202 131.31 28.202 130.974V130.722C28.202 130.377 28.0293 130.125 27.684 129.966C27.3387 129.807 26.788 129.728 26.032 129.728C25.2853 129.728 24.7207 129.821 24.338 130.008C23.9553 130.185 23.7267 130.475 23.652 130.876H22.532C22.6067 130.204 22.952 129.714 23.568 129.406C24.184 129.089 25.0053 128.93 26.032 128.93C27.124 128.93 27.9453 129.084 28.496 129.392C29.056 129.691 29.336 130.157 29.336 130.792C29.336 131.137 29.238 131.45 29.042 131.73C28.8553 132.01 28.482 132.211 27.922 132.332C28.454 132.453 28.8553 132.659 29.126 132.948C29.3967 133.228 29.532 133.583 29.532 134.012C29.532 134.749 29.238 135.291 28.65 135.636C28.0713 135.981 27.1987 136.154 26.032 136.154C24.9867 136.154 24.1373 135.991 23.484 135.664C22.84 135.337 22.49 134.791 22.434 134.026ZM31.2268 129.084H32.3468V132.052H37.0928V129.084H38.2128V136H37.0928V132.92H32.3468V136H31.2268V129.084ZM39.9386 134.124C39.9386 133.517 40.1393 133.037 40.5406 132.682C40.9513 132.327 41.6886 132.127 42.7526 132.08L46.0426 131.954V131.744C46.0426 131.035 45.8419 130.526 45.4406 130.218C45.0393 129.901 44.4326 129.742 43.6206 129.742C42.9859 129.742 42.4633 129.84 42.0526 130.036C41.6513 130.223 41.3946 130.559 41.2826 131.044H40.1486C40.2699 130.344 40.6153 129.817 41.1846 129.462C41.7633 129.107 42.5753 128.93 43.6206 128.93C44.8153 128.93 45.7019 129.154 46.2806 129.602C46.8686 130.05 47.1626 130.764 47.1626 131.744V136H46.0846V134.698C45.8233 135.165 45.4033 135.524 44.8246 135.776C44.2459 136.028 43.5646 136.154 42.7806 136.154C41.7539 136.154 41.0213 135.972 40.5826 135.608C40.1533 135.235 39.9386 134.74 39.9386 134.124ZM41.0586 134.166C41.0586 134.549 41.2126 134.843 41.5206 135.048C41.8379 135.244 42.3186 135.342 42.9626 135.342C43.3733 135.342 43.7653 135.305 44.1386 135.23C44.5213 135.146 44.8526 135.015 45.1326 134.838C45.4126 134.651 45.6319 134.409 45.7906 134.11C45.9586 133.811 46.0426 133.447 46.0426 133.018V132.682L42.9486 132.808C42.3139 132.845 41.8379 132.953 41.5206 133.13C41.2126 133.307 41.0586 133.601 41.0586 134.012V134.166ZM54.385 133.186C54.0303 133.242 53.657 133.284 53.265 133.312C52.8823 133.34 52.4623 133.354 52.005 133.354C50.8103 133.354 49.9563 133.153 49.443 132.752C48.939 132.351 48.687 131.665 48.687 130.694V129.084H49.807V130.666C49.807 131.385 49.9936 131.87 50.367 132.122C50.7496 132.365 51.389 132.486 52.285 132.486C52.677 132.486 53.0503 132.472 53.405 132.444C53.769 132.416 54.0956 132.379 54.385 132.332V129.084H55.505V136H54.385V133.186ZM57.2335 132.542C57.2335 131.263 57.5648 130.344 58.2275 129.784C58.8902 129.215 59.8048 128.93 60.9715 128.93C62.1662 128.93 63.0902 129.196 63.7435 129.728C64.3968 130.26 64.7235 131.109 64.7235 132.276V132.584H58.3535V132.906C58.3535 133.718 58.5728 134.329 59.0115 134.74C59.4595 135.141 60.1128 135.342 60.9715 135.342C61.6622 135.342 62.2222 135.239 62.6515 135.034C63.0902 134.819 63.3842 134.493 63.5335 134.054H64.6395C64.4342 134.782 64.0095 135.314 63.3655 135.65C62.7308 135.986 61.9328 136.154 60.9715 136.154C59.8048 136.154 58.8902 135.874 58.2275 135.314C57.5648 134.754 57.2335 133.83 57.2335 132.542ZM60.9715 129.728C60.2155 129.728 59.5995 129.891 59.1235 130.218C58.6568 130.545 58.4048 131.091 58.3675 131.856H63.6175C63.5802 131.091 63.3375 130.545 62.8895 130.218C62.4508 129.891 61.8115 129.728 60.9715 129.728ZM66.4045 129.084H67.5245V132.052H72.2705V129.084H73.3905V136H72.2705V132.92H67.5245V136H66.4045V129.084ZM75.5783 129.084H76.6983V134.796L81.4023 129.084H82.6763V136H81.5703V130.274L76.8663 136H75.5783V129.084ZM90.1112 133.34H87.4372L85.4912 136H84.2732L86.2752 133.242C85.6592 133.149 85.1972 132.929 84.8892 132.584C84.5905 132.229 84.4412 131.781 84.4412 131.24C84.4412 130.577 84.6372 130.055 85.0292 129.672C85.4212 129.28 86.0139 129.084 86.8072 129.084H91.2312V136H90.1112V133.34ZM90.1112 129.896H86.9612C86.5319 129.896 86.1912 129.994 85.9392 130.19C85.6872 130.386 85.5612 130.671 85.5612 131.044V131.436C85.5612 131.791 85.6825 132.061 85.9252 132.248C86.1679 132.435 86.5132 132.528 86.9612 132.528H90.1112V129.896ZM96.8244 129.084H101.234C102.018 129.084 102.583 129.238 102.928 129.546C103.274 129.854 103.446 130.251 103.446 130.736C103.446 131.081 103.367 131.408 103.208 131.716C103.05 132.015 102.732 132.225 102.256 132.346C102.816 132.477 103.199 132.701 103.404 133.018C103.619 133.326 103.726 133.657 103.726 134.012C103.726 134.703 103.535 135.207 103.152 135.524C102.77 135.841 102.168 136 101.346 136H96.8244V129.084ZM102.326 131.058V130.792C102.326 130.512 102.242 130.288 102.074 130.12C101.906 129.952 101.589 129.868 101.122 129.868H97.9444V132.066H101.136C101.594 132.066 101.906 131.968 102.074 131.772C102.242 131.576 102.326 131.338 102.326 131.058ZM102.606 134.138V133.83C102.606 133.494 102.49 133.237 102.256 133.06C102.023 132.883 101.659 132.794 101.164 132.794H97.9444V135.216H101.164C101.659 135.216 102.023 135.132 102.256 134.964C102.49 134.787 102.606 134.511 102.606 134.138ZM105.479 136V129.084H106.599V131.562H109.889C110.71 131.562 111.317 131.744 111.709 132.108C112.11 132.472 112.311 133.004 112.311 133.704C112.311 134.432 112.11 134.997 111.709 135.398C111.317 135.799 110.71 136 109.889 136H105.479ZM111.191 133.886V133.536C111.191 133.191 111.079 132.915 110.855 132.71C110.64 132.495 110.276 132.388 109.763 132.388H106.599V135.174H109.763C110.276 135.174 110.64 135.062 110.855 134.838C111.079 134.605 111.191 134.287 111.191 133.886ZM113.277 129.084H114.397V136H113.277V129.084ZM116.132 132.556C116.132 131.324 116.445 130.414 117.07 129.826C117.705 129.229 118.661 128.93 119.94 128.93C120.976 128.93 121.797 129.107 122.404 129.462C123.011 129.807 123.379 130.344 123.51 131.072H122.376C122.227 130.587 121.956 130.246 121.564 130.05C121.172 129.854 120.626 129.756 119.926 129.756C119.011 129.756 118.339 129.952 117.91 130.344C117.481 130.736 117.266 131.352 117.266 132.192V132.906C117.266 133.783 117.499 134.404 117.966 134.768C118.433 135.132 119.086 135.314 119.926 135.314C120.654 135.314 121.209 135.207 121.592 134.992C121.984 134.768 122.255 134.455 122.404 134.054H123.524C123.375 134.735 122.997 135.258 122.39 135.622C121.793 135.977 120.971 136.154 119.926 136.154C118.722 136.154 117.789 135.888 117.126 135.356C116.463 134.815 116.132 133.881 116.132 132.556ZM124.65 132.542C124.65 131.235 124.995 130.307 125.686 129.756C126.376 129.205 127.347 128.93 128.598 128.93C129.867 128.93 130.842 129.205 131.524 129.756C132.214 130.307 132.56 131.235 132.56 132.542C132.56 133.877 132.214 134.815 131.524 135.356C130.842 135.888 129.867 136.154 128.598 136.154C127.347 136.154 126.376 135.888 125.686 135.356C124.995 134.815 124.65 133.877 124.65 132.542ZM131.44 132.878V132.206C131.44 131.357 131.197 130.736 130.712 130.344C130.226 129.952 129.522 129.756 128.598 129.756C127.692 129.756 126.992 129.952 126.498 130.344C126.012 130.736 125.77 131.357 125.77 132.206V132.878C125.77 133.727 126.012 134.348 126.498 134.74C126.992 135.123 127.692 135.314 128.598 135.314C129.522 135.314 130.226 135.123 130.712 134.74C131.197 134.348 131.44 133.727 131.44 132.878ZM136.071 129.938H133.075V129.084H140.187V129.938H137.191V136H136.071V129.938ZM141.477 136V129.084H142.597V131.562H145.887C146.708 131.562 147.315 131.744 147.707 132.108C148.108 132.472 148.309 133.004 148.309 133.704C148.309 134.432 148.108 134.997 147.707 135.398C147.315 135.799 146.708 136 145.887 136H141.477ZM147.189 133.886V133.536C147.189 133.191 147.077 132.915 146.853 132.71C146.638 132.495 146.274 132.388 145.761 132.388H142.597V135.174H145.761C146.274 135.174 146.638 135.062 146.853 134.838C147.077 134.605 147.189 134.287 147.189 133.886ZM149.275 129.084H150.395V136H149.275V129.084ZM152.284 137.204C152.517 137.204 152.69 137.139 152.802 137.008C152.914 136.877 152.97 136.672 152.97 136.392V136.154H152.914C152.653 136.154 152.457 136.093 152.326 135.972C152.195 135.841 152.13 135.655 152.13 135.412C152.13 135.169 152.195 134.987 152.326 134.866C152.466 134.745 152.667 134.684 152.928 134.684C153.199 134.684 153.404 134.745 153.544 134.866C153.684 134.987 153.754 135.179 153.754 135.44V136.308C153.754 136.868 153.633 137.269 153.39 137.512C153.147 137.764 152.779 137.89 152.284 137.89V137.204ZM23.092 147.084H24.212V150.038H25.472L28.552 147.084H29.882L26.424 150.388L30.246 154H28.776L25.514 150.906H24.212V154H23.092V147.084ZM30.3683 150.542C30.3683 149.235 30.7136 148.307 31.4043 147.756C32.0949 147.205 33.0656 146.93 34.3163 146.93C35.5856 146.93 36.5609 147.205 37.2423 147.756C37.9329 148.307 38.2783 149.235 38.2783 150.542C38.2783 151.877 37.9329 152.815 37.2423 153.356C36.5609 153.888 35.5856 154.154 34.3163 154.154C33.0656 154.154 32.0949 153.888 31.4043 153.356C30.7136 152.815 30.3683 151.877 30.3683 150.542ZM37.1583 150.878V150.206C37.1583 149.357 36.9156 148.736 36.4303 148.344C35.9449 147.952 35.2403 147.756 34.3163 147.756C33.4109 147.756 32.7109 147.952 32.2163 148.344C31.7309 148.736 31.4883 149.357 31.4883 150.206V150.878C31.4883 151.727 31.7309 152.348 32.2163 152.74C32.7109 153.123 33.4109 153.314 34.3163 153.314C35.2403 153.314 35.9449 153.123 36.4303 152.74C36.9156 152.348 37.1583 151.727 37.1583 150.878ZM41.7897 147.938H38.7937V147.084H45.9057V147.938H42.9097V154H41.7897V147.938ZM46.4054 150.542C46.4054 149.235 46.7507 148.307 47.4414 147.756C48.1321 147.205 49.1027 146.93 50.3534 146.93C51.6227 146.93 52.5981 147.205 53.2794 147.756C53.9701 148.307 54.3154 149.235 54.3154 150.542C54.3154 151.877 53.9701 152.815 53.2794 153.356C52.5981 153.888 51.6227 154.154 50.3534 154.154C49.1027 154.154 48.1321 153.888 47.4414 153.356C46.7507 152.815 46.4054 151.877 46.4054 150.542ZM53.1954 150.878V150.206C53.1954 149.357 52.9527 148.736 52.4674 148.344C51.9821 147.952 51.2774 147.756 50.3534 147.756C49.4481 147.756 48.7481 147.952 48.2534 148.344C47.7681 148.736 47.5254 149.357 47.5254 150.206V150.878C47.5254 151.727 47.7681 152.348 48.2534 152.74C48.7481 153.123 49.4481 153.314 50.3534 153.314C51.2774 153.314 51.9821 153.123 52.4674 152.74C52.9527 152.348 53.1954 151.727 53.1954 150.878ZM56.0412 147.084H57.1192V148.372C57.3992 147.868 57.8006 147.504 58.3232 147.28C58.8459 147.047 59.4712 146.93 60.1992 146.93C61.3939 146.93 62.3179 147.205 62.9712 147.756C63.6246 148.307 63.9512 149.235 63.9512 150.542C63.9512 151.849 63.6246 152.777 62.9712 153.328C62.3179 153.879 61.3939 154.154 60.1992 154.154C59.4899 154.154 58.8786 154.047 58.3652 153.832C57.8519 153.608 57.4506 153.258 57.1612 152.782V156.8H56.0412V147.084ZM62.8172 150.878V150.206C62.8172 149.329 62.5699 148.703 62.0752 148.33C61.5806 147.947 60.8852 147.756 59.9892 147.756C59.0652 147.756 58.3606 147.947 57.8752 148.33C57.3992 148.713 57.1612 149.338 57.1612 150.206V150.878C57.1612 151.718 57.4086 152.334 57.9032 152.726C58.3979 153.118 59.0932 153.314 59.9892 153.314C60.8852 153.314 61.5806 153.118 62.0752 152.726C62.5699 152.334 62.8172 151.718 62.8172 150.878ZM65.6799 154V147.084H66.7999V149.562H70.0899C70.9112 149.562 71.5179 149.744 71.9099 150.108C72.3112 150.472 72.5119 151.004 72.5119 151.704C72.5119 152.432 72.3112 152.997 71.9099 153.398C71.5179 153.799 70.9112 154 70.0899 154H65.6799ZM71.3919 151.886V151.536C71.3919 151.191 71.2799 150.915 71.0559 150.71C70.8412 150.495 70.4772 150.388 69.9639 150.388H66.7999V153.174H69.9639C70.4772 153.174 70.8412 153.062 71.0559 152.838C71.2799 152.605 71.3919 152.287 71.3919 151.886ZM73.4779 147.084H74.5979V154H73.4779V147.084ZM76.3331 150.542C76.3331 149.263 76.6645 148.344 77.3271 147.784C77.9898 147.215 78.9045 146.93 80.0711 146.93C81.2658 146.93 82.1898 147.196 82.8431 147.728C83.4965 148.26 83.8231 149.109 83.8231 150.276V150.584H77.4531V150.906C77.4531 151.718 77.6725 152.329 78.1111 152.74C78.5591 153.141 79.2125 153.342 80.0711 153.342C80.7618 153.342 81.3218 153.239 81.7511 153.034C82.1898 152.819 82.4838 152.493 82.6331 152.054H83.7391C83.5338 152.782 83.1091 153.314 82.4651 153.65C81.8305 153.986 81.0325 154.154 80.0711 154.154C78.9045 154.154 77.9898 153.874 77.3271 153.314C76.6645 152.754 76.3331 151.83 76.3331 150.542ZM80.0711 147.728C79.3151 147.728 78.6991 147.891 78.2231 148.218C77.7565 148.545 77.5045 149.091 77.4671 149.856H82.7171C82.6798 149.091 82.4371 148.545 81.9891 148.218C81.5505 147.891 80.9111 147.728 80.0711 147.728ZM88.9084 147.084H93.3184C94.1024 147.084 94.6671 147.238 95.0124 147.546C95.3577 147.854 95.5304 148.251 95.5304 148.736C95.5304 149.081 95.4511 149.408 95.2924 149.716C95.1337 150.015 94.8164 150.225 94.3404 150.346C94.9004 150.477 95.2831 150.701 95.4884 151.018C95.7031 151.326 95.8104 151.657 95.8104 152.012C95.8104 152.703 95.6191 153.207 95.2364 153.524C94.8537 153.841 94.2517 154 93.4304 154H88.9084V147.084ZM94.4104 149.058V148.792C94.4104 148.512 94.3264 148.288 94.1584 148.12C93.9904 147.952 93.6731 147.868 93.2064 147.868H90.0284V150.066H93.2204C93.6777 150.066 93.9904 149.968 94.1584 149.772C94.3264 149.576 94.4104 149.338 94.4104 149.058ZM94.6904 152.138V151.83C94.6904 151.494 94.5737 151.237 94.3404 151.06C94.1071 150.883 93.7431 150.794 93.2484 150.794H90.0284V153.216H93.2484C93.7431 153.216 94.1071 153.132 94.3404 152.964C94.5737 152.787 94.6904 152.511 94.6904 152.138ZM97.5627 154V147.084H98.6827V149.562H101.973C102.794 149.562 103.401 149.744 103.793 150.108C104.194 150.472 104.395 151.004 104.395 151.704C104.395 152.432 104.194 152.997 103.793 153.398C103.401 153.799 102.794 154 101.973 154H97.5627ZM103.275 151.886V151.536C103.275 151.191 103.163 150.915 102.939 150.71C102.724 150.495 102.36 150.388 101.847 150.388H98.6827V153.174H101.847C102.36 153.174 102.724 153.062 102.939 152.838C103.163 152.605 103.275 152.287 103.275 151.886ZM105.361 147.084H106.481V154H105.361V147.084ZM108.216 150.556C108.216 149.324 108.529 148.414 109.154 147.826C109.789 147.229 110.745 146.93 112.024 146.93C113.06 146.93 113.881 147.107 114.488 147.462C115.095 147.807 115.463 148.344 115.594 149.072H114.46C114.311 148.587 114.04 148.246 113.648 148.05C113.256 147.854 112.71 147.756 112.01 147.756C111.095 147.756 110.423 147.952 109.994 148.344C109.565 148.736 109.35 149.352 109.35 150.192V150.906C109.35 151.783 109.583 152.404 110.05 152.768C110.517 153.132 111.17 153.314 112.01 153.314C112.738 153.314 113.293 153.207 113.676 152.992C114.068 152.768 114.339 152.455 114.488 152.054H115.608C115.459 152.735 115.081 153.258 114.474 153.622C113.877 153.977 113.055 154.154 112.01 154.154C110.806 154.154 109.873 153.888 109.21 153.356C108.547 152.815 108.216 151.881 108.216 150.556ZM122.362 151.186C122.007 151.242 121.634 151.284 121.242 151.312C120.859 151.34 120.439 151.354 119.982 151.354C118.787 151.354 117.933 151.153 117.42 150.752C116.916 150.351 116.664 149.665 116.664 148.694V147.084H117.784V148.666C117.784 149.385 117.97 149.87 118.344 150.122C118.726 150.365 119.366 150.486 120.262 150.486C120.654 150.486 121.027 150.472 121.382 150.444C121.746 150.416 122.072 150.379 122.362 150.332V147.084H123.482V154H122.362V151.186ZM125.672 147.084H126.792V152.796L131.496 147.084H132.77V154H131.664V148.274L126.96 154H125.672V147.084ZM137.069 147.938H134.073V147.084H141.185V147.938H138.189V154H137.069V147.938ZM142.475 154V147.084H143.595V149.562H146.885C147.706 149.562 148.313 149.744 148.705 150.108C149.106 150.472 149.307 151.004 149.307 151.704C149.307 152.432 149.106 152.997 148.705 153.398C148.313 153.799 147.706 154 146.885 154H142.475ZM148.187 151.886V151.536C148.187 151.191 148.075 150.915 147.851 150.71C147.636 150.495 147.272 150.388 146.759 150.388H143.595V153.174H146.759C147.272 153.174 147.636 153.062 147.851 152.838C148.075 152.605 148.187 152.287 148.187 151.886ZM150.273 147.084H151.393V154H150.273V147.084ZM153.59 147.084H158C158.784 147.084 159.349 147.238 159.694 147.546C160.039 147.854 160.212 148.251 160.212 148.736C160.212 149.081 160.133 149.408 159.974 149.716C159.815 150.015 159.498 150.225 159.022 150.346C159.582 150.477 159.965 150.701 160.17 151.018C160.385 151.326 160.492 151.657 160.492 152.012C160.492 152.703 160.301 153.207 159.918 153.524C159.535 153.841 158.933 154 158.112 154H153.59V147.084ZM159.092 149.058V148.792C159.092 148.512 159.008 148.288 158.84 148.12C158.672 147.952 158.355 147.868 157.888 147.868H154.71V150.066H157.902C158.359 150.066 158.672 149.968 158.84 149.772C159.008 149.576 159.092 149.338 159.092 149.058ZM159.372 152.138V151.83C159.372 151.494 159.255 151.237 159.022 151.06C158.789 150.883 158.425 150.794 157.93 150.794H154.71V153.216H157.93C158.425 153.216 158.789 153.132 159.022 152.964C159.255 152.787 159.372 152.511 159.372 152.138ZM161.782 152.124C161.782 151.517 161.983 151.037 162.384 150.682C162.795 150.327 163.532 150.127 164.596 150.08L167.886 149.954V149.744C167.886 149.035 167.686 148.526 167.284 148.218C166.883 147.901 166.276 147.742 165.464 147.742C164.83 147.742 164.307 147.84 163.896 148.036C163.495 148.223 163.238 148.559 163.126 149.044H161.992C162.114 148.344 162.459 147.817 163.028 147.462C163.607 147.107 164.419 146.93 165.464 146.93C166.659 146.93 167.546 147.154 168.124 147.602C168.712 148.05 169.006 148.764 169.006 149.744V154H167.928V152.698C167.667 153.165 167.247 153.524 166.668 153.776C166.09 154.028 165.408 154.154 164.624 154.154C163.598 154.154 162.865 153.972 162.426 153.608C161.997 153.235 161.782 152.74 161.782 152.124ZM162.902 152.166C162.902 152.549 163.056 152.843 163.364 153.048C163.682 153.244 164.162 153.342 164.806 153.342C165.217 153.342 165.609 153.305 165.982 153.23C166.365 153.146 166.696 153.015 166.976 152.838C167.256 152.651 167.476 152.409 167.634 152.11C167.802 151.811 167.886 151.447 167.886 151.018V150.682L164.792 150.808C164.158 150.845 163.682 150.953 163.364 151.13C163.056 151.307 162.902 151.601 162.902 152.012V152.166ZM171.09 147.084H172.21V149.996H173.848C173.941 148.885 174.324 148.097 174.996 147.63C175.668 147.163 176.573 146.93 177.712 146.93C178.953 146.93 179.91 147.205 180.582 147.756C181.254 148.297 181.59 149.226 181.59 150.542C181.59 151.858 181.254 152.791 180.582 153.342C179.91 153.883 178.953 154.154 177.712 154.154C176.527 154.154 175.593 153.902 174.912 153.398C174.24 152.894 173.876 152.045 173.82 150.85H172.21V154H171.09V147.084ZM180.456 150.864V150.206C180.456 149.31 180.213 148.68 179.728 148.316C179.252 147.943 178.58 147.756 177.712 147.756C176.844 147.756 176.167 147.943 175.682 148.316C175.197 148.68 174.954 149.31 174.954 150.206V150.864C174.954 151.76 175.197 152.395 175.682 152.768C176.167 153.132 176.844 153.314 177.712 153.314C178.58 153.314 179.252 153.132 179.728 152.768C180.213 152.395 180.456 151.76 180.456 150.864ZM185.098 147.938H182.102V147.084H189.214V147.938H186.218V154H185.098V147.938ZM189.714 150.556C189.714 149.324 190.027 148.414 190.652 147.826C191.287 147.229 192.243 146.93 193.522 146.93C194.558 146.93 195.379 147.107 195.986 147.462C196.593 147.807 196.961 148.344 197.092 149.072H195.958C195.809 148.587 195.538 148.246 195.146 148.05C194.754 147.854 194.208 147.756 193.508 147.756C192.593 147.756 191.921 147.952 191.492 148.344C191.063 148.736 190.848 149.352 190.848 150.192V150.906C190.848 151.783 191.081 152.404 191.548 152.768C192.015 153.132 192.668 153.314 193.508 153.314C194.236 153.314 194.791 153.207 195.174 152.992C195.566 152.768 195.837 152.455 195.986 152.054H197.106C196.957 152.735 196.579 153.258 195.972 153.622C195.375 153.977 194.553 154.154 193.508 154.154C192.304 154.154 191.371 153.888 190.708 153.356C190.045 152.815 189.714 151.881 189.714 150.556ZM203.93 151.34H201.256L199.31 154H198.092L200.094 151.242C199.478 151.149 199.016 150.929 198.708 150.584C198.409 150.229 198.26 149.781 198.26 149.24C198.26 148.577 198.456 148.055 198.848 147.672C199.24 147.28 199.832 147.084 200.626 147.084H205.05V154H203.93V151.34ZM203.93 147.896H200.78C200.35 147.896 200.01 147.994 199.758 148.19C199.506 148.386 199.38 148.671 199.38 149.044V149.436C199.38 149.791 199.501 150.061 199.744 150.248C199.986 150.435 200.332 150.528 200.78 150.528H203.93V147.896ZM23.092 165.084H29.938V172H28.818V165.938H24.212V172H23.092V165.084ZM31.6534 168.542C31.6534 167.235 31.9988 166.307 32.6894 165.756C33.3801 165.205 34.3508 164.93 35.6014 164.93C36.8708 164.93 37.8461 165.205 38.5274 165.756C39.2181 166.307 39.5634 167.235 39.5634 168.542C39.5634 169.877 39.2181 170.815 38.5274 171.356C37.8461 171.888 36.8708 172.154 35.6014 172.154C34.3508 172.154 33.3801 171.888 32.6894 171.356C31.9988 170.815 31.6534 169.877 31.6534 168.542ZM38.4434 168.878V168.206C38.4434 167.357 38.2008 166.736 37.7154 166.344C37.2301 165.952 36.5254 165.756 35.6014 165.756C34.6961 165.756 33.9961 165.952 33.5014 166.344C33.0161 166.736 32.7734 167.357 32.7734 168.206V168.878C32.7734 169.727 33.0161 170.348 33.5014 170.74C33.9961 171.123 34.6961 171.314 35.6014 171.314C36.5254 171.314 37.2301 171.123 37.7154 170.74C38.2008 170.348 38.4434 169.727 38.4434 168.878ZM48.8376 172.154C47.3816 172.154 46.2476 171.888 45.4356 171.356C44.6236 170.815 44.2176 169.877 44.2176 168.542C44.2176 167.235 44.6236 166.307 45.4356 165.756C46.2476 165.205 47.3816 164.93 48.8376 164.93V161.78H49.9576V164.93C51.4136 164.93 52.5476 165.205 53.3596 165.756C54.1809 166.307 54.5916 167.235 54.5916 168.542C54.5916 169.877 54.1809 170.815 53.3596 171.356C52.5476 171.888 51.4136 172.154 49.9576 172.154V174.8H48.8376V172.154ZM48.8376 165.756C47.7549 165.756 46.9009 165.947 46.2756 166.33C45.6502 166.703 45.3376 167.338 45.3376 168.234V168.808C45.3376 169.713 45.6409 170.357 46.2476 170.74C46.8636 171.123 47.7269 171.314 48.8376 171.314V165.756ZM53.4716 168.808V168.22C53.4716 167.324 53.1636 166.689 52.5476 166.316C51.9316 165.943 51.0682 165.756 49.9576 165.756V171.314C51.0589 171.314 51.9176 171.123 52.5336 170.74C53.1589 170.357 53.4716 169.713 53.4716 168.808ZM55.839 168.542C55.839 167.235 56.1843 166.307 56.875 165.756C57.5657 165.205 58.5363 164.93 59.787 164.93C61.0563 164.93 62.0317 165.205 62.713 165.756C63.4037 166.307 63.749 167.235 63.749 168.542C63.749 169.877 63.4037 170.815 62.713 171.356C62.0317 171.888 61.0563 172.154 59.787 172.154C58.5363 172.154 57.5657 171.888 56.875 171.356C56.1843 170.815 55.839 169.877 55.839 168.542ZM62.629 168.878V168.206C62.629 167.357 62.3863 166.736 61.901 166.344C61.4157 165.952 60.711 165.756 59.787 165.756C58.8817 165.756 58.1817 165.952 57.687 166.344C57.2017 166.736 56.959 167.357 56.959 168.206V168.878C56.959 169.727 57.2017 170.348 57.687 170.74C58.1817 171.123 58.8817 171.314 59.787 171.314C60.711 171.314 61.4157 171.123 61.901 170.74C62.3863 170.348 62.629 169.727 62.629 168.878ZM65.4748 165.084H66.5528V166.372C66.8328 165.868 67.2341 165.504 67.7568 165.28C68.2795 165.047 68.9048 164.93 69.6328 164.93C70.8275 164.93 71.7515 165.205 72.4048 165.756C73.0581 166.307 73.3848 167.235 73.3848 168.542C73.3848 169.849 73.0581 170.777 72.4048 171.328C71.7515 171.879 70.8275 172.154 69.6328 172.154C68.9235 172.154 68.3121 172.047 67.7988 171.832C67.2855 171.608 66.8841 171.258 66.5948 170.782V174.8H65.4748V165.084ZM72.2508 168.878V168.206C72.2508 167.329 72.0035 166.703 71.5088 166.33C71.0141 165.947 70.3188 165.756 69.4228 165.756C68.4988 165.756 67.7941 165.947 67.3088 166.33C66.8328 166.713 66.5948 167.338 66.5948 168.206V168.878C66.5948 169.718 66.8421 170.334 67.3368 170.726C67.8315 171.118 68.5268 171.314 69.4228 171.314C70.3188 171.314 71.0141 171.118 71.5088 170.726C72.0035 170.334 72.2508 169.718 72.2508 168.878ZM78.9355 170.964L76.1215 165.952V172H75.1135V165.084H76.7235L79.5655 170.124L82.4215 165.084H84.0035V172H82.8975V165.98L80.0835 170.964H78.9355ZM86.0194 173.946H86.7754C87.2047 173.946 87.536 173.871 87.7694 173.722C88.012 173.573 88.236 173.283 88.4414 172.854L88.7774 172.154L85.2074 165.084H86.4114L89.3514 170.978L92.2354 165.084H93.2994L89.3794 173.064C89.0714 173.708 88.74 174.156 88.3854 174.408C88.0307 174.669 87.5314 174.8 86.8874 174.8H86.0194V173.946ZM93.2631 172V171.048H93.4031C93.6364 171.048 93.8371 171.011 94.0051 170.936C94.1731 170.861 94.3131 170.717 94.4251 170.502C94.5371 170.287 94.6211 169.989 94.6771 169.606C94.7331 169.214 94.7611 168.705 94.7611 168.08V165.084H100.823V172H99.7031V165.938H95.7831V168.094C95.7831 168.897 95.7411 169.555 95.6571 170.068C95.5731 170.581 95.4377 170.983 95.2511 171.272C95.0644 171.552 94.8217 171.743 94.5231 171.846C94.2337 171.949 93.8837 172 93.4731 172H93.2631ZM102.542 168.542C102.542 167.263 102.873 166.344 103.536 165.784C104.199 165.215 105.113 164.93 106.28 164.93C107.475 164.93 108.399 165.196 109.052 165.728C109.705 166.26 110.032 167.109 110.032 168.276V168.584H103.662V168.906C103.662 169.718 103.881 170.329 104.32 170.74C104.768 171.141 105.421 171.342 106.28 171.342C106.971 171.342 107.531 171.239 107.96 171.034C108.399 170.819 108.693 170.493 108.842 170.054H109.948C109.743 170.782 109.318 171.314 108.674 171.65C108.039 171.986 107.241 172.154 106.28 172.154C105.113 172.154 104.199 171.874 103.536 171.314C102.873 170.754 102.542 169.83 102.542 168.542ZM106.28 165.728C105.524 165.728 104.908 165.891 104.432 166.218C103.965 166.545 103.713 167.091 103.676 167.856H108.926C108.889 167.091 108.646 166.545 108.198 166.218C107.759 165.891 107.12 165.728 106.28 165.728ZM114.529 171.16L119.877 165.938H114.599V165.084H121.221V165.91L115.873 171.146H121.459V172H114.529V171.16ZM122.84 165.014H130.764V165.98H122.84V165.014ZM122.84 168.038H130.764V169.004H122.84V168.038ZM132.43 168.29C132.43 167.142 132.542 166.162 132.766 165.35C132.999 164.529 133.312 163.852 133.704 163.32C134.105 162.788 134.576 162.382 135.118 162.102C135.659 161.822 136.242 161.645 136.868 161.57V162.508C136.392 162.583 135.953 162.746 135.552 162.998C135.16 163.25 134.819 163.581 134.53 163.992C134.24 164.403 134.016 164.897 133.858 165.476C133.699 166.045 133.62 166.689 133.62 167.408V169.13C133.62 169.858 133.699 170.516 133.858 171.104C134.016 171.683 134.24 172.177 134.53 172.588C134.819 172.999 135.16 173.33 135.552 173.582C135.953 173.834 136.392 173.997 136.868 174.072V175.01C136.233 174.935 135.64 174.758 135.09 174.478C134.548 174.198 134.082 173.792 133.69 173.26C133.298 172.728 132.99 172.051 132.766 171.23C132.542 170.409 132.43 169.429 132.43 168.29ZM138.196 165.084H139.274V166.372C139.554 165.868 139.955 165.504 140.478 165.28C141 165.047 141.626 164.93 142.354 164.93C143.548 164.93 144.472 165.205 145.126 165.756C145.779 166.307 146.106 167.235 146.106 168.542C146.106 169.849 145.779 170.777 145.126 171.328C144.472 171.879 143.548 172.154 142.354 172.154C141.644 172.154 141.033 172.047 140.52 171.832C140.006 171.608 139.605 171.258 139.316 170.782V174.8H138.196V165.084ZM144.972 168.878V168.206C144.972 167.329 144.724 166.703 144.23 166.33C143.735 165.947 143.04 165.756 142.144 165.756C141.22 165.756 140.515 165.947 140.03 166.33C139.554 166.713 139.316 167.338 139.316 168.206V168.878C139.316 169.718 139.563 170.334 140.058 170.726C140.552 171.118 141.248 171.314 142.144 171.314C143.04 171.314 143.735 171.118 144.23 170.726C144.724 170.334 144.972 169.718 144.972 168.878ZM147.372 170.124C147.372 169.517 147.573 169.037 147.974 168.682C148.385 168.327 149.122 168.127 150.186 168.08L153.476 167.954V167.744C153.476 167.035 153.276 166.526 152.874 166.218C152.473 165.901 151.866 165.742 151.054 165.742C150.42 165.742 149.897 165.84 149.486 166.036C149.085 166.223 148.828 166.559 148.716 167.044H147.582C147.704 166.344 148.049 165.817 148.618 165.462C149.197 165.107 150.009 164.93 151.054 164.93C152.249 164.93 153.136 165.154 153.714 165.602C154.302 166.05 154.596 166.764 154.596 167.744V172H153.518V170.698C153.257 171.165 152.837 171.524 152.258 171.776C151.68 172.028 150.998 172.154 150.214 172.154C149.188 172.154 148.455 171.972 148.016 171.608C147.587 171.235 147.372 170.74 147.372 170.124ZM148.492 170.166C148.492 170.549 148.646 170.843 148.954 171.048C149.272 171.244 149.752 171.342 150.396 171.342C150.807 171.342 151.199 171.305 151.572 171.23C151.955 171.146 152.286 171.015 152.566 170.838C152.846 170.651 153.066 170.409 153.224 170.11C153.392 169.811 153.476 169.447 153.476 169.018V168.682L150.382 168.808C149.748 168.845 149.272 168.953 148.954 169.13C148.646 169.307 148.492 169.601 148.492 170.012V170.166ZM156.022 170.026H157.156C157.193 170.493 157.422 170.833 157.842 171.048C158.262 171.253 158.855 171.356 159.62 171.356C160.413 171.356 161.006 171.263 161.398 171.076C161.799 170.889 162 170.572 162 170.124V169.9C162 169.527 161.837 169.247 161.51 169.06C161.193 168.873 160.707 168.78 160.054 168.78H158.402V167.996H160.026C160.67 167.996 161.123 167.912 161.384 167.744C161.655 167.567 161.79 167.31 161.79 166.974V166.722C161.79 166.377 161.617 166.125 161.272 165.966C160.927 165.807 160.376 165.728 159.62 165.728C158.873 165.728 158.309 165.821 157.926 166.008C157.543 166.185 157.315 166.475 157.24 166.876H156.12C156.195 166.204 156.54 165.714 157.156 165.406C157.772 165.089 158.593 164.93 159.62 164.93C160.712 164.93 161.533 165.084 162.084 165.392C162.644 165.691 162.924 166.157 162.924 166.792C162.924 167.137 162.826 167.45 162.63 167.73C162.443 168.01 162.07 168.211 161.51 168.332C162.042 168.453 162.443 168.659 162.714 168.948C162.985 169.228 163.12 169.583 163.12 170.012C163.12 170.749 162.826 171.291 162.238 171.636C161.659 171.981 160.787 172.154 159.62 172.154C158.575 172.154 157.725 171.991 157.072 171.664C156.428 171.337 156.078 170.791 156.022 170.026ZM168.637 170.964L165.823 165.952V172H164.815V165.084H166.425L169.267 170.124L172.123 165.084H173.705V172H172.599V165.98L169.785 170.964H168.637ZM175.441 168.542C175.441 167.263 175.772 166.344 176.435 165.784C177.097 165.215 178.012 164.93 179.179 164.93C180.373 164.93 181.297 165.196 181.951 165.728C182.604 166.26 182.931 167.109 182.931 168.276V168.584H176.561V168.906C176.561 169.718 176.78 170.329 177.219 170.74C177.667 171.141 178.32 171.342 179.179 171.342C179.869 171.342 180.429 171.239 180.859 171.034C181.297 170.819 181.591 170.493 181.741 170.054H182.847C182.641 170.782 182.217 171.314 181.573 171.65C180.938 171.986 180.14 172.154 179.179 172.154C178.012 172.154 177.097 171.874 176.435 171.314C175.772 170.754 175.441 169.83 175.441 168.542ZM179.179 165.728C178.423 165.728 177.807 165.891 177.331 166.218C176.864 166.545 176.612 167.091 176.575 167.856H181.825C181.787 167.091 181.545 166.545 181.097 166.218C180.658 165.891 180.019 165.728 179.179 165.728ZM184.612 165.084H185.69V166.372C185.97 165.868 186.371 165.504 186.894 165.28C187.416 165.047 188.042 164.93 188.77 164.93C189.964 164.93 190.888 165.205 191.542 165.756C192.195 166.307 192.522 167.235 192.522 168.542C192.522 169.849 192.195 170.777 191.542 171.328C190.888 171.879 189.964 172.154 188.77 172.154C188.06 172.154 187.449 172.047 186.936 171.832C186.422 171.608 186.021 171.258 185.732 170.782V174.8H184.612V165.084ZM191.388 168.878V168.206C191.388 167.329 191.14 166.703 190.646 166.33C190.151 165.947 189.456 165.756 188.56 165.756C187.636 165.756 186.931 165.947 186.446 166.33C185.97 166.713 185.732 167.338 185.732 168.206V168.878C185.732 169.718 185.979 170.334 186.474 170.726C186.968 171.118 187.664 171.314 188.56 171.314C189.456 171.314 190.151 171.118 190.646 170.726C191.14 170.334 191.388 169.718 191.388 168.878ZM22.434 187.998H23.568C23.6893 188.427 23.9367 188.759 24.31 188.992C24.6927 189.216 25.29 189.328 26.102 189.328C26.9887 189.328 27.6513 189.127 28.09 188.726C28.5287 188.325 28.748 187.732 28.748 186.948V186.892H24.87V186.108H28.748C28.7387 185.333 28.5193 184.75 28.09 184.358C27.6607 183.957 26.998 183.756 26.102 183.756C25.346 183.756 24.7767 183.854 24.394 184.05C24.0113 184.246 23.7453 184.568 23.596 185.016H22.476C22.6347 184.335 23.0127 183.817 23.61 183.462C24.2167 183.107 25.052 182.93 26.116 182.93C27.3667 182.93 28.3 183.224 28.916 183.812C29.5413 184.4 29.854 185.315 29.854 186.556C29.854 187.797 29.5413 188.707 28.916 189.286C28.2907 189.865 27.3527 190.154 26.102 190.154C25.0567 190.154 24.2213 189.981 23.596 189.636C22.9707 189.281 22.5833 188.735 22.434 187.998ZM31.5822 183.084H32.7022V186.038H33.9622L37.0422 183.084H38.3722L34.9142 186.388L38.7362 190H37.2662L34.0042 186.906H32.7022V190H31.5822V183.084ZM39.7443 183.084H40.8223V184.372C41.1023 183.868 41.5037 183.504 42.0263 183.28C42.549 183.047 43.1743 182.93 43.9023 182.93C45.097 182.93 46.021 183.205 46.6743 183.756C47.3277 184.307 47.6543 185.235 47.6543 186.542C47.6543 187.849 47.3277 188.777 46.6743 189.328C46.021 189.879 45.097 190.154 43.9023 190.154C43.193 190.154 42.5817 190.047 42.0683 189.832C41.555 189.608 41.1537 189.258 40.8643 188.782V192.8H39.7443V183.084ZM46.5203 186.878V186.206C46.5203 185.329 46.273 184.703 45.7783 184.33C45.2837 183.947 44.5883 183.756 43.6923 183.756C42.7683 183.756 42.0637 183.947 41.5783 184.33C41.1023 184.713 40.8643 185.338 40.8643 186.206V186.878C40.8643 187.718 41.1117 188.334 41.6063 188.726C42.101 189.118 42.7963 189.314 43.6923 189.314C44.5883 189.314 45.2837 189.118 45.7783 188.726C46.273 188.334 46.5203 187.718 46.5203 186.878ZM48.921 188.124C48.921 187.517 49.1217 187.037 49.523 186.682C49.9337 186.327 50.671 186.127 51.735 186.08L55.025 185.954V185.744C55.025 185.035 54.8243 184.526 54.423 184.218C54.0217 183.901 53.415 183.742 52.603 183.742C51.9683 183.742 51.4457 183.84 51.035 184.036C50.6337 184.223 50.377 184.559 50.265 185.044H49.131C49.2523 184.344 49.5977 183.817 50.167 183.462C50.7457 183.107 51.5577 182.93 52.603 182.93C53.7977 182.93 54.6843 183.154 55.263 183.602C55.851 184.05 56.145 184.764 56.145 185.744V190H55.067V188.698C54.8057 189.165 54.3857 189.524 53.807 189.776C53.2283 190.028 52.547 190.154 51.763 190.154C50.7363 190.154 50.0037 189.972 49.565 189.608C49.1357 189.235 48.921 188.74 48.921 188.124ZM50.041 188.166C50.041 188.549 50.195 188.843 50.503 189.048C50.8203 189.244 51.301 189.342 51.945 189.342C52.3557 189.342 52.7477 189.305 53.121 189.23C53.5037 189.146 53.835 189.015 54.115 188.838C54.395 188.651 54.6143 188.409 54.773 188.11C54.941 187.811 55.025 187.447 55.025 187.018V186.682L51.931 186.808C51.2963 186.845 50.8203 186.953 50.503 187.13C50.195 187.307 50.041 187.601 50.041 188.012V188.166ZM58.2287 183.084H59.3487V186.052H64.0947V183.084H65.2147V190H64.0947V186.92H59.3487V190H58.2287V183.084ZM66.9405 188.124C66.9405 187.517 67.1412 187.037 67.5425 186.682C67.9532 186.327 68.6905 186.127 69.7545 186.08L73.0445 185.954V185.744C73.0445 185.035 72.8439 184.526 72.4425 184.218C72.0412 183.901 71.4345 183.742 70.6225 183.742C69.9879 183.742 69.4652 183.84 69.0545 184.036C68.6532 184.223 68.3965 184.559 68.2845 185.044H67.1505C67.2719 184.344 67.6172 183.817 68.1865 183.462C68.7652 183.107 69.5772 182.93 70.6225 182.93C71.8172 182.93 72.7039 183.154 73.2825 183.602C73.8705 184.05 74.1645 184.764 74.1645 185.744V190H73.0865V188.698C72.8252 189.165 72.4052 189.524 71.8265 189.776C71.2479 190.028 70.5665 190.154 69.7825 190.154C68.7559 190.154 68.0232 189.972 67.5845 189.608C67.1552 189.235 66.9405 188.74 66.9405 188.124ZM68.0605 188.166C68.0605 188.549 68.2145 188.843 68.5225 189.048C68.8399 189.244 69.3205 189.342 69.9645 189.342C70.3752 189.342 70.7672 189.305 71.1405 189.23C71.5232 189.146 71.8545 189.015 72.1345 188.838C72.4145 188.651 72.6339 188.409 72.7925 188.11C72.9605 187.811 73.0445 187.447 73.0445 187.018V186.682L69.9505 186.808C69.3159 186.845 68.8399 186.953 68.5225 187.13C68.2145 187.307 68.0605 187.601 68.0605 188.012V188.166ZM75.8283 186.29C75.8283 185.142 75.9403 184.162 76.1643 183.35C76.3976 182.529 76.7103 181.852 77.1023 181.32C77.5036 180.788 77.9749 180.382 78.5163 180.102C79.0576 179.822 79.6409 179.645 80.2663 179.57V180.508C79.7903 180.583 79.3516 180.746 78.9503 180.998C78.5583 181.25 78.2176 181.581 77.9283 181.992C77.6389 182.403 77.4149 182.897 77.2563 183.476C77.0976 184.045 77.0183 184.689 77.0183 185.408V187.13C77.0183 187.858 77.0976 188.516 77.2563 189.104C77.4149 189.683 77.6389 190.177 77.9283 190.588C78.2176 190.999 78.5583 191.33 78.9503 191.582C79.3516 191.834 79.7903 191.997 80.2663 192.072V193.01C79.6316 192.935 79.0389 192.758 78.4883 192.478C77.9469 192.198 77.4803 191.792 77.0883 191.26C76.6963 190.728 76.3883 190.051 76.1643 189.23C75.9403 188.409 75.8283 187.429 75.8283 186.29ZM81.594 183.084H82.672V184.372C82.952 183.868 83.3533 183.504 83.876 183.28C84.3986 183.047 85.024 182.93 85.752 182.93C86.9466 182.93 87.8706 183.205 88.524 183.756C89.1773 184.307 89.504 185.235 89.504 186.542C89.504 187.849 89.1773 188.777 88.524 189.328C87.8706 189.879 86.9466 190.154 85.752 190.154C85.0426 190.154 84.4313 190.047 83.918 189.832C83.4046 189.608 83.0033 189.258 82.714 188.782V192.8H81.594V183.084ZM88.37 186.878V186.206C88.37 185.329 88.1226 184.703 87.628 184.33C87.1333 183.947 86.438 183.756 85.542 183.756C84.618 183.756 83.9133 183.947 83.428 184.33C82.952 184.713 82.714 185.338 82.714 186.206V186.878C82.714 187.718 82.9613 188.334 83.456 188.726C83.9506 189.118 84.646 189.314 85.542 189.314C86.438 189.314 87.1333 189.118 87.628 188.726C88.1226 188.334 88.37 187.718 88.37 186.878ZM96.4075 190L93.7615 187.116L91.0595 190H89.8415L93.1035 186.5L89.9535 183.084H91.3255L93.8595 185.8L96.4075 183.084H97.6255L94.5035 186.416L97.7655 190H96.4075ZM102.514 186.29C102.514 187.438 102.397 188.423 102.164 189.244C101.94 190.056 101.627 190.728 101.226 191.26C100.834 191.792 100.367 192.198 99.8259 192.478C99.2846 192.758 98.7012 192.935 98.0759 193.01V192.072C98.5519 191.997 98.9859 191.834 99.3779 191.582C99.7792 191.33 100.125 190.999 100.414 190.588C100.703 190.177 100.927 189.687 101.086 189.118C101.245 188.539 101.324 187.891 101.324 187.172V185.45C101.324 184.722 101.245 184.069 101.086 183.49C100.927 182.902 100.703 182.403 100.414 181.992C100.125 181.581 99.7792 181.25 99.3779 180.998C98.9859 180.746 98.5519 180.583 98.0759 180.508V179.57C98.7106 179.645 99.2986 179.822 99.8399 180.102C100.391 180.382 100.862 180.788 101.254 181.32C101.646 181.852 101.954 182.529 102.178 183.35C102.402 184.171 102.514 185.151 102.514 186.29ZM108.938 179.64H110.1L104.626 191.33H103.464L108.938 179.64ZM110.753 181.81L112.965 180.34H114.169V190H112.965V181.446L110.753 182.93V181.81ZM116.204 185.142C116.204 183.397 116.619 182.137 117.45 181.362C118.29 180.578 119.461 180.186 120.964 180.186C122.467 180.186 123.633 180.578 124.464 181.362C125.304 182.137 125.724 183.397 125.724 185.142C125.724 186.859 125.304 188.124 124.464 188.936C123.633 189.748 122.467 190.154 120.964 190.154C119.461 190.154 118.29 189.748 117.45 188.936C116.619 188.124 116.204 186.859 116.204 185.142ZM124.506 185.562V184.652C124.506 183.457 124.207 182.575 123.61 182.006C123.013 181.437 122.131 181.152 120.964 181.152C119.797 181.152 118.911 181.437 118.304 182.006C117.707 182.566 117.408 183.453 117.408 184.666V185.576C117.408 186.752 117.707 187.648 118.304 188.264C118.911 188.88 119.797 189.188 120.964 189.188C122.131 189.188 123.013 188.88 123.61 188.264C124.207 187.648 124.506 186.747 124.506 185.562ZM127.278 185.142C127.278 183.397 127.693 182.137 128.524 181.362C129.364 180.578 130.535 180.186 132.038 180.186C133.541 180.186 134.707 180.578 135.538 181.362C136.378 182.137 136.798 183.397 136.798 185.142C136.798 186.859 136.378 188.124 135.538 188.936C134.707 189.748 133.541 190.154 132.038 190.154C130.535 190.154 129.364 189.748 128.524 188.936C127.693 188.124 127.278 186.859 127.278 185.142ZM135.58 185.562V184.652C135.58 183.457 135.281 182.575 134.684 182.006C134.087 181.437 133.205 181.152 132.038 181.152C130.871 181.152 129.985 181.437 129.378 182.006C128.781 182.566 128.482 183.453 128.482 184.666V185.576C128.482 186.752 128.781 187.648 129.378 188.264C129.985 188.88 130.871 189.188 132.038 189.188C133.205 189.188 134.087 188.88 134.684 188.264C135.281 187.648 135.58 186.747 135.58 185.562ZM141.711 186.29C141.711 187.438 141.594 188.423 141.361 189.244C141.137 190.056 140.824 190.728 140.423 191.26C140.031 191.792 139.564 192.198 139.023 192.478C138.482 192.758 137.898 192.935 137.273 193.01V192.072C137.749 191.997 138.183 191.834 138.575 191.582C138.976 191.33 139.322 190.999 139.611 190.588C139.9 190.177 140.124 189.687 140.283 189.118C140.442 188.539 140.521 187.891 140.521 187.172V185.45C140.521 184.722 140.442 184.069 140.283 183.49C140.124 182.902 139.9 182.403 139.611 181.992C139.322 181.581 138.976 181.25 138.575 180.998C138.183 180.746 137.749 180.583 137.273 180.508V179.57C137.908 179.645 138.496 179.822 139.037 180.102C139.588 180.382 140.059 180.788 140.451 181.32C140.843 181.852 141.151 182.529 141.375 183.35C141.599 184.171 141.711 185.151 141.711 186.29ZM143.179 183.658L145.097 182.748L143.179 181.838L143.585 181.152L145.475 182.188L145.405 180.34H146.273L146.203 182.188L148.107 181.152L148.513 181.838L146.595 182.748L148.513 183.658L148.107 184.344L146.203 183.322L146.273 185.156H145.405L145.475 183.322L143.585 184.344L143.179 183.658ZM150.391 183.084H154.801C155.585 183.084 156.149 183.238 156.495 183.546C156.84 183.854 157.013 184.251 157.013 184.736C157.013 185.081 156.933 185.408 156.775 185.716C156.616 186.015 156.299 186.225 155.823 186.346C156.383 186.477 156.765 186.701 156.971 187.018C157.185 187.326 157.293 187.657 157.293 188.012C157.293 188.703 157.101 189.207 156.719 189.524C156.336 189.841 155.734 190 154.913 190H150.391V183.084ZM155.893 185.058V184.792C155.893 184.512 155.809 184.288 155.641 184.12C155.473 183.952 155.155 183.868 154.689 183.868H151.511V186.066H154.703C155.16 186.066 155.473 185.968 155.641 185.772C155.809 185.576 155.893 185.338 155.893 185.058ZM156.173 188.138V187.83C156.173 187.494 156.056 187.237 155.823 187.06C155.589 186.883 155.225 186.794 154.731 186.794H151.511V189.216H154.731C155.225 189.216 155.589 189.132 155.823 188.964C156.056 188.787 156.173 188.511 156.173 188.138ZM159.045 190V183.084H160.165V185.562H163.455C164.276 185.562 164.883 185.744 165.275 186.108C165.676 186.472 165.877 187.004 165.877 187.704C165.877 188.432 165.676 188.997 165.275 189.398C164.883 189.799 164.276 190 163.455 190H159.045ZM164.757 187.886V187.536C164.757 187.191 164.645 186.915 164.421 186.71C164.206 186.495 163.842 186.388 163.329 186.388H160.165V189.174H163.329C163.842 189.174 164.206 189.062 164.421 188.838C164.645 188.605 164.757 188.287 164.757 187.886ZM166.843 183.084H167.963V190H166.843V183.084ZM169.698 186.556C169.698 185.324 170.011 184.414 170.636 183.826C171.271 183.229 172.228 182.93 173.506 182.93C174.542 182.93 175.364 183.107 175.97 183.462C176.577 183.807 176.946 184.344 177.076 185.072H175.942C175.793 184.587 175.522 184.246 175.13 184.05C174.738 183.854 174.192 183.756 173.492 183.756C172.578 183.756 171.906 183.952 171.476 184.344C171.047 184.736 170.832 185.352 170.832 186.192V186.906C170.832 187.783 171.066 188.404 171.532 188.768C171.999 189.132 172.652 189.314 173.492 189.314C174.22 189.314 174.776 189.207 175.158 188.992C175.55 188.768 175.821 188.455 175.97 188.054H177.09C176.941 188.735 176.563 189.258 175.956 189.622C175.359 189.977 174.538 190.154 173.492 190.154C172.288 190.154 171.355 189.888 170.692 189.356C170.03 188.815 169.698 187.881 169.698 186.556ZM178.216 186.542C178.216 185.235 178.561 184.307 179.252 183.756C179.943 183.205 180.913 182.93 182.164 182.93C183.433 182.93 184.409 183.205 185.09 183.756C185.781 184.307 186.126 185.235 186.126 186.542C186.126 187.877 185.781 188.815 185.09 189.356C184.409 189.888 183.433 190.154 182.164 190.154C180.913 190.154 179.943 189.888 179.252 189.356C178.561 188.815 178.216 187.877 178.216 186.542ZM185.006 186.878V186.206C185.006 185.357 184.763 184.736 184.278 184.344C183.793 183.952 183.088 183.756 182.164 183.756C181.259 183.756 180.559 183.952 180.064 184.344C179.579 184.736 179.336 185.357 179.336 186.206V186.878C179.336 187.727 179.579 188.348 180.064 188.74C180.559 189.123 181.259 189.314 182.164 189.314C183.088 189.314 183.793 189.123 184.278 188.74C184.763 188.348 185.006 187.727 185.006 186.878ZM189.637 183.938H186.641V183.084H193.753V183.938H190.757V190H189.637V183.938ZM194.861 191.946H195.617C196.047 191.946 196.378 191.871 196.611 191.722C196.854 191.573 197.078 191.283 197.283 190.854L197.619 190.154L194.049 183.084H195.253L198.193 188.978L201.077 183.084H202.141L198.221 191.064C197.913 191.708 197.582 192.156 197.227 192.408C196.873 192.669 196.373 192.8 195.729 192.8H194.861V191.946ZM22.63 204.542C22.63 203.235 22.9753 202.307 23.666 201.756C24.3567 201.205 25.3273 200.93 26.578 200.93C27.8473 200.93 28.8227 201.205 29.504 201.756C30.1947 202.307 30.54 203.235 30.54 204.542C30.54 205.877 30.1947 206.815 29.504 207.356C28.8227 207.888 27.8473 208.154 26.578 208.154C25.3273 208.154 24.3567 207.888 23.666 207.356C22.9753 206.815 22.63 205.877 22.63 204.542ZM29.42 204.878V204.206C29.42 203.357 29.1773 202.736 28.692 202.344C28.2067 201.952 27.502 201.756 26.578 201.756C25.6727 201.756 24.9727 201.952 24.478 202.344C23.9927 202.736 23.75 203.357 23.75 204.206V204.878C23.75 205.727 23.9927 206.348 24.478 206.74C24.9727 207.123 25.6727 207.314 26.578 207.314C27.502 207.314 28.2067 207.123 28.692 206.74C29.1773 206.348 29.42 205.727 29.42 204.878ZM32.0698 204.374C32.0698 203.095 32.1398 202.041 32.2798 201.21C32.4198 200.379 32.6625 199.721 33.0078 199.236C33.3532 198.751 33.8245 198.41 34.4218 198.214C35.0285 198.009 35.7845 197.892 36.6898 197.864C37.4738 197.845 38.0805 197.822 38.5098 197.794C38.9392 197.757 39.2705 197.719 39.5038 197.682V198.62C39.2985 198.667 38.9765 198.709 38.5378 198.746C38.1085 198.774 37.5065 198.793 36.7318 198.802C36.0505 198.811 35.4812 198.877 35.0238 198.998C34.5758 199.11 34.2118 199.311 33.9318 199.6C33.6612 199.889 33.4605 200.281 33.3298 200.776C33.1992 201.271 33.1105 201.901 33.0638 202.666C33.3252 202.162 33.7218 201.775 34.2538 201.504C34.7858 201.233 35.4578 201.098 36.2698 201.098C37.4738 201.098 38.3932 201.369 39.0278 201.91C39.6625 202.451 39.9798 203.333 39.9798 204.556C39.9798 205.835 39.6438 206.754 38.9718 207.314C38.2998 207.874 37.3152 208.154 36.0178 208.154C34.7392 208.154 33.7592 207.869 33.0778 207.3C32.4058 206.721 32.0698 205.746 32.0698 204.374ZM38.8458 204.864V204.276C38.8458 203.445 38.5985 202.848 38.1038 202.484C37.6185 202.12 36.9232 201.938 36.0178 201.938C35.1218 201.938 34.4265 202.12 33.9318 202.484C33.4372 202.848 33.1898 203.445 33.1898 204.276V204.864C33.1898 205.732 33.4372 206.357 33.9318 206.74C34.4265 207.123 35.1218 207.314 36.0178 207.314C36.9418 207.314 37.6418 207.123 38.1178 206.74C38.6032 206.357 38.8458 205.732 38.8458 204.864ZM42.5737 208V201.938H40.5717V201.084H43.6937V203.562H46.9837C47.805 203.562 48.4117 203.744 48.8037 204.108C49.205 204.472 49.4057 205.004 49.4057 205.704C49.4057 206.432 49.205 206.997 48.8037 207.398C48.4117 207.799 47.805 208 46.9837 208H42.5737ZM48.2857 205.886V205.536C48.2857 205.191 48.1737 204.915 47.9497 204.71C47.735 204.495 47.371 204.388 46.8577 204.388H43.6937V207.174H46.8577C47.371 207.174 47.735 207.062 47.9497 206.838C48.1737 206.605 48.2857 206.287 48.2857 205.886ZM50.4659 204.542C50.4659 203.263 50.7973 202.344 51.4599 201.784C52.1226 201.215 53.0373 200.93 54.2039 200.93C55.3986 200.93 56.3226 201.196 56.9759 201.728C57.6293 202.26 57.9559 203.109 57.9559 204.276V204.584H51.5859V204.906C51.5859 205.718 51.8053 206.329 52.2439 206.74C52.6919 207.141 53.3453 207.342 54.2039 207.342C54.8946 207.342 55.4546 207.239 55.8839 207.034C56.3226 206.819 56.6166 206.493 56.7659 206.054H57.8719C57.6666 206.782 57.2419 207.314 56.5979 207.65C55.9633 207.986 55.1653 208.154 54.2039 208.154C53.0373 208.154 52.1226 207.874 51.4599 207.314C50.7973 206.754 50.4659 205.83 50.4659 204.542ZM54.2039 201.728C53.4479 201.728 52.8319 201.891 52.3559 202.218C51.8893 202.545 51.6373 203.091 51.5999 203.856H56.8499C56.8126 203.091 56.5699 202.545 56.1219 202.218C55.6833 201.891 55.0439 201.728 54.2039 201.728ZM59.6369 201.084H60.7569V204.038H62.0169L65.0969 201.084H66.4269L62.9689 204.388L66.7909 208H65.3209L62.0589 204.906H60.7569V208H59.6369V201.084ZM69.899 201.938H66.903V201.084H74.015V201.938H71.019V208H69.899V201.938ZM74.5968 206.124C74.5968 205.517 74.7975 205.037 75.1988 204.682C75.6095 204.327 76.3468 204.127 77.4108 204.08L80.7008 203.954V203.744C80.7008 203.035 80.5001 202.526 80.0988 202.218C79.6975 201.901 79.0908 201.742 78.2788 201.742C77.6441 201.742 77.1215 201.84 76.7108 202.036C76.3095 202.223 76.0528 202.559 75.9408 203.044H74.8068C74.9281 202.344 75.2735 201.817 75.8428 201.462C76.4215 201.107 77.2335 200.93 78.2788 200.93C79.4735 200.93 80.3601 201.154 80.9388 201.602C81.5268 202.05 81.8208 202.764 81.8208 203.744V208H80.7428V206.698C80.4815 207.165 80.0615 207.524 79.4828 207.776C78.9041 208.028 78.2228 208.154 77.4388 208.154C76.4121 208.154 75.6795 207.972 75.2408 207.608C74.8115 207.235 74.5968 206.74 74.5968 206.124ZM75.7168 206.166C75.7168 206.549 75.8708 206.843 76.1788 207.048C76.4961 207.244 76.9768 207.342 77.6208 207.342C78.0315 207.342 78.4235 207.305 78.7968 207.23C79.1795 207.146 79.5108 207.015 79.7908 206.838C80.0708 206.651 80.2901 206.409 80.4488 206.11C80.6168 205.811 80.7008 205.447 80.7008 205.018V204.682L77.6068 204.808C76.9721 204.845 76.4961 204.953 76.1788 205.13C75.8708 205.307 75.7168 205.601 75.7168 206.012V206.166ZM83.4845 204.29C83.4845 203.142 83.5965 202.162 83.8205 201.35C84.0538 200.529 84.3665 199.852 84.7585 199.32C85.1598 198.788 85.6312 198.382 86.1725 198.102C86.7138 197.822 87.2972 197.645 87.9225 197.57V198.508C87.4465 198.583 87.0078 198.746 86.6065 198.998C86.2145 199.25 85.8738 199.581 85.5845 199.992C85.2952 200.403 85.0712 200.897 84.9125 201.476C84.7538 202.045 84.6745 202.689 84.6745 203.408V205.13C84.6745 205.858 84.7538 206.516 84.9125 207.104C85.0712 207.683 85.2952 208.177 85.5845 208.588C85.8738 208.999 86.2145 209.33 86.6065 209.582C87.0078 209.834 87.4465 209.997 87.9225 210.072V211.01C87.2878 210.935 86.6952 210.758 86.1445 210.478C85.6032 210.198 85.1365 209.792 84.7445 209.26C84.3525 208.728 84.0445 208.051 83.8205 207.23C83.5965 206.409 83.4845 205.429 83.4845 204.29ZM89.2502 201.084H90.3282V202.372C90.6082 201.868 91.0095 201.504 91.5322 201.28C92.0549 201.047 92.6802 200.93 93.4082 200.93C94.6029 200.93 95.5269 201.205 96.1802 201.756C96.8335 202.307 97.1602 203.235 97.1602 204.542C97.1602 205.849 96.8335 206.777 96.1802 207.328C95.5269 207.879 94.6029 208.154 93.4082 208.154C92.6989 208.154 92.0875 208.047 91.5742 207.832C91.0609 207.608 90.6595 207.258 90.3702 206.782V210.8H89.2502V201.084ZM96.0262 204.878V204.206C96.0262 203.329 95.7789 202.703 95.2842 202.33C94.7895 201.947 94.0942 201.756 93.1982 201.756C92.2742 201.756 91.5695 201.947 91.0842 202.33C90.6082 202.713 90.3702 203.338 90.3702 204.206V204.878C90.3702 205.718 90.6175 206.334 91.1122 206.726C91.6069 207.118 92.3022 207.314 93.1982 207.314C94.0942 207.314 94.7895 207.118 95.2842 206.726C95.7789 206.334 96.0262 205.718 96.0262 204.878ZM104.064 208L101.418 205.116L98.7157 208H97.4977L100.76 204.5L97.6097 201.084H98.9817L101.516 203.8L104.064 201.084H105.282L102.16 204.416L105.422 208H104.064ZM110.17 204.29C110.17 205.438 110.053 206.423 109.82 207.244C109.596 208.056 109.283 208.728 108.882 209.26C108.49 209.792 108.023 210.198 107.482 210.478C106.941 210.758 106.357 210.935 105.732 211.01V210.072C106.208 209.997 106.642 209.834 107.034 209.582C107.435 209.33 107.781 208.999 108.07 208.588C108.359 208.177 108.583 207.687 108.742 207.118C108.901 206.539 108.98 205.891 108.98 205.172V203.45C108.98 202.722 108.901 202.069 108.742 201.49C108.583 200.902 108.359 200.403 108.07 199.992C107.781 199.581 107.435 199.25 107.034 198.998C106.642 198.746 106.208 198.583 105.732 198.508V197.57C106.367 197.645 106.955 197.822 107.496 198.102C108.047 198.382 108.518 198.788 108.91 199.32C109.302 199.852 109.61 200.529 109.834 201.35C110.058 202.171 110.17 203.151 110.17 204.29ZM111.554 207.412C111.554 207.169 111.624 206.987 111.764 206.866C111.904 206.745 112.105 206.684 112.366 206.684C112.637 206.684 112.842 206.745 112.982 206.866C113.122 206.987 113.192 207.169 113.192 207.412C113.192 207.664 113.122 207.851 112.982 207.972C112.842 208.093 112.637 208.154 112.366 208.154C112.105 208.154 111.904 208.093 111.764 207.972C111.624 207.851 111.554 207.664 111.554 207.412Z" fill="white"/>
<path d="M23.944 35.112H22.648V26.088H23.944V24.792H25.24V23.496H26.512V22.2H32.992V23.496H34.264V24.792H35.56V26.088H36.856V28.632H34.288V27.384H32.992V26.088H31.72V24.792H27.808V26.088H26.536V27.384H25.24V33.816H26.536V35.112H27.808V36.408H31.72V35.112H32.992V33.816H34.288V32.544H36.856V35.112H35.56V36.408H34.264V37.704H32.992V39H26.512V37.704H25.24V36.408H23.944V35.112ZM43.3236 29.904H38.1636V27.36H51.0756V29.904H45.9156V39H43.3236V29.904ZM56.2548 29.952V31.272H54.9348V35.112H56.2548V36.432H61.4148V35.112H62.6868V31.272H61.4148V29.952H56.2548ZM56.2548 37.728H54.9348V42.888H52.3668V27.336H54.9348V28.656H56.2548V27.336H62.7108V28.656H63.9828V29.952H65.2787V36.408H63.9828V37.728H62.7108V39.024H56.2548V37.728ZM67.8659 36.408H66.5699V29.952H67.8659V28.656H69.1379V27.384H75.6179V28.656H76.8899V29.952H78.1859V36.408H76.8899V37.704H75.6179V39H69.1379V37.704H67.8659V36.408ZM70.4339 29.952V31.248H69.1619V35.112H70.4339V36.408H74.3219V35.112H75.5939V31.248H74.3219V29.952H70.4339ZM88.5079 29.928H83.3479V31.248H88.5079V29.928ZM82.0519 33.84V35.112H83.3479V36.408H88.5079V35.112H92.3959V36.408H91.0999V37.704H89.8039V39H82.0759V37.704H80.7799V36.408H79.4839V29.952H80.7799V28.656H82.0759V27.384H89.8039V28.656H91.0999V29.952H92.3959V33.84H82.0519ZM102.735 27.36H105.279V39H102.735V33.84H96.2311V39H93.6871V27.36H96.2311V31.248H102.735V27.36ZM115.626 31.248H114.306V33.84H113.01V35.136H111.714V36.408H110.418V37.704H109.146V39H106.578V27.36H109.146V33.84H110.442V32.544H111.738V29.952H113.034V28.656H114.33V27.36H118.17V39H115.626V31.248ZM128.492 29.928H123.332V31.248H128.492V29.928ZM122.036 33.84V35.112H123.332V36.408H128.492V35.112H132.38V36.408H131.084V37.704H129.788V39H122.06V37.704H120.764V36.408H119.468V29.952H120.764V28.656H122.06V27.384H129.788V28.656H131.084V29.952H132.38V33.84H122.036ZM23.944 62.408H22.648V55.952H23.944V54.656H25.24V53.384H31.696V54.656H32.992V55.952H34.288V58.52H31.696V57.224H30.4V55.928H26.536V57.224H25.24V61.136H26.536V62.432H30.4V61.136H31.696V59.84H34.288V62.408H32.992V63.704H31.696V65H25.24V63.704H23.944V62.408ZM39.4799 55.904H34.3199V53.36H47.2319V55.904H42.0719V65H39.4799V55.904ZM56.2814 55.928H51.1214V57.248H56.2814V55.928ZM49.8254 59.84V61.112H51.1214V62.408H56.2814V61.112H60.1694V62.408H58.8734V63.704H57.5774V65H49.8494V63.704H48.5534V62.408H47.2574V55.952H48.5534V54.656H49.8494V53.384H57.5774V54.656H58.8734V55.952H60.1694V59.84H49.8254ZM64.0525 54.656H65.3485V53.36H71.8045V54.656H73.1005V55.952H74.3965V62.408H73.1005V63.704H71.8045V65H64.0525V63.704H62.7565V62.408H61.4605V52.064H62.7565V50.768H64.0525V49.472H66.6445V48.176H71.8045V46.88H74.3965V49.472H71.8045V50.768H66.6445V52.064H64.0525V54.656ZM64.0525 57.248V61.112H65.3485V62.408H70.5085V61.112H71.8045V57.248H70.5085V55.952H65.3485V57.248H64.0525ZM80.8774 55.952V62.408H79.5814V63.704H78.2854V65H74.4214V62.408H76.9894V61.112H78.2854V53.36H88.6054V65H86.0614V55.952H80.8774ZM92.4822 55.952V57.248H100.234V55.952H92.4822ZM91.1862 63.704V62.408H92.4822V61.112H93.7782V59.84H91.1862V58.544H89.8902V54.656H91.1862V53.36H102.826V65H100.234V59.84H97.6662V61.112H96.3702V62.408H95.0742V63.704H93.7782V65H89.8902V63.704H91.1862Z" fill="white"/>
</svg>
