<?xml version="1.0" encoding="UTF-8"?>
<svg id="Layer_2" data-name="Layer 2" xmlns="http://www.w3.org/2000/svg" viewBox="0 0 1347.0131 833.5839">
  <defs>
    <style>
      .cls-1 {
        fill: none;
        stroke: #fff;
        stroke-miterlimit: 10;
        stroke-width: 4px;
      }
    </style>
  </defs>
  <g id="Layer_4" data-name="Layer 4">
    <g>
      <path class="cls-1" d="M185.7892,100.0197c-9.2033,96.7867-14.0773,177.3626-16.8511,236.6808-3.6713,78.5143-3.3712,113.5485,0,153.1915,6.1251,72.0269,9.7084,114.1637,32.1702,163.1489,43.1231,94.0438,43.6595,94.9786,43.6596,94.9787,3.7375,6.5128,13.4032,22.9354,18.383,46.7234,3.0062,14.3604,3.2927,26.5706,3.0638,34.6383"/>
      <path class="cls-1" d="M333.619,46.7006c-17.5938,84.0076-33.4216,174.8292-45.9575,271.9149-15.8591,122.8238-21.3093,222.8304-26.0425,305.617-3.3383,58.388-5.2464,107.3993-6.3854,142.7536"/>
      <path class="cls-1" d="M131.3424,200.658c5.6937,89.4282,7.6841,158.3578,8.4255,206.1853.6522,42.0709.6246,86.2948,18.383,142.3253,9.7312,30.7033,21.6178,54.9021,30.6383,71.234"/>
      <path class="cls-1" d="M266.276,225.275c-25.857,70.2003-47.9532,131.9846-65.9336,183.0638-39.8373,113.1707-53.9706,158.1662-62.8085,219.0638-6.3802,43.9625-9.1662,90.4631,0,144,4.2237,24.6695,9.9608,44.849,14.5532,58.9787"/>
      <path class="cls-1" d="M272.1722,294.1048c-4.8963,15.4454-11.6114,32.8669-20.9386,51.3192-14.4622,28.6108-31.9614,50.6059-47.9976,71.234-5.062,6.5116-9.3535,11.7945-12.2553,15.3192"/>
      <path class="cls-1" d="M338.9807,68.6155c25.2209,120.6716,36.6383,222.8796,42.1277,299.4893.7044,9.8308,7.2439,105.6312,0,226.7234-2.7271,45.5877-6.5897,81.0843-19.3671,123.3192-14.7852,48.8713-35.3569,86.436-51.1009,111.234"/>
      <path class="cls-1" d="M401.1509,98.0197c-5.4936,49.0605-10.6132,98.8527-15.3191,149.3617-2.6114,28.0279-5.0565,55.8589-7.3416,83.4893"/>
      <path class="cls-1" d="M519.7466,558.9985c-5.0496,72.684-8.6177,128.8909-9.1915,166.9787-.2382,15.8091-.2748,49.3617-14.5532,89.617-2.0764,5.8541-4.0142,10.6099-5.3617,13.7872"/>
      <path class="cls-1" d="M601.8318,543.807c-27.1325,31.7942-43.2428,61.1405-52.8511,81.9574-13.6441,29.5608-21.5348,57.8632-29.1064,85.0213-4.9173,17.6376-8.4169,32.4749-10.7234,42.8936"/>
      <path class="cls-1" d="M1272.6828,112.6155c-2.2463,46.2083-4.0902,116.1498,0,201.4468,2.6661,55.5992,8.671,120.0448,20.6808,248.9362,5.8235,62.4987,11.9694,124.3775,7.6596,209.8723-1.2698,25.1904-3.127,46.0749-4.5958,60.5106"/>
      <path class="cls-1" d="M1165.4488,378.3602c6.8973,54.0705,18.7972,95.938,28.3405,124.0851,9.9062,29.2175,13.335,32.0363,51.3192,124.851,17.0681,41.7061,18.8742,47.2418,34.4681,85.0213,17.907,43.3834,32.9939,78.4049,42.8936,101.1064"/>
      <path class="cls-1" d="M1146.2998,63.424c-18.8229,37.9147-41.6474,93.5829-54.3829,163.9149-17.5879,97.1292-7.3084,174.5884-3.0638,201.4468,16.8243,106.4586,48.4042,111.245,62.8085,218.2979,2.2191,16.4923,9.6205,76.956,16.8511,140.9362,1.9931,17.6361,3.5819,32.0764,4.5958,41.3617"/>
      <path class="cls-1" d="M1067.4062,150.275c-11.9637,44.7739-27.9871,108.0375-44.4255,184.5957-20.0303,93.2869-31.3422,145.9693-39.0638,222.1277-11.8317,116.697-5.3796,191.3212,0,233.617,2.1583,16.9695,4.4349,31.0226,6.1276,40.766"/>
      <path class="cls-1" d="M964.8743,196.9984c-.0009,57.3287,4.6757,101.325,9.1915,131.7447,1.7591,11.8497,6.2791,39.8147,15.3192,95.7447,2.8859,17.8549,5.2791,32.5875,6.8936,42.5107"/>
      <path class="cls-1" d="M1135.5764,461.9346c16.2144,31.9376,31.9618,59.6159,45.9575,82.7234,5.1406,8.4873,23.9001,39.2337,51.3192,78.1277,8.7647,12.4328,16.4066,22.8502,22.2128,30.6383"/>
      <path class="cls-1" d="M389.8206,251.9772c4.1071-10.0298,11.8961-24.7415,26.5218-37.5319,5.8345-5.1024,16.4225-13.1046,31.4043-17.4468,7.6705-2.2232,19.2821-5.5887,24.5106,0,5.0373,5.3842,2.5253,17.3428,1.3652,17.4468-.7963.0714-2.5626-5.2983-1.3652-6.1277,1.387-.9607,7.6873,3.521,9.9574,9.9575.5615,1.5922,2.5569,7.2496,0,10.7234-4.1311,5.6124-15.6134-.632-37.5319,0-8.2107.2368-14.9521.4945-22.9787,3.8298-3.8488,1.5993-13.5157,5.7672-20.5532,16.0851-8.8031,12.9065-7.5285,26.6928-7.0213,30.6383"/>
      <path class="cls-1" d="M509.1509,653.424c-5.006-15.2236-13.6928-26.5544-21.5745-26.1277-11.0071.596-17.0057,23.9366-18.383,36-1.3754,12.0467.6386,23.5276,3.0638,23.7447,3.5959.3218,3.7444-24.5088,16.8336-29.8782,6.5335-2.6801,14.1444.3693,20.06,3.8356"/>
      <path class="cls-1" d="M590.2147,579.041c-.7765-1.5453,15.1134-15.745,37.5319-20.0425,15.0739-2.8896,26.9942-.1321,41.3617,3.1915,13.6765,3.1638,25.7032,8.0172,25.2766,10.7234-.4113,2.6085-11.9998.7275-14.5532,6.1277-2.7829,5.8855,7.9164,14.6043,6.1277,16.8511-2.3056,2.8961-20.2062-11.4353-48.2553-19.0876-11.4919-3.1351-18.4043-3.435-23.7447-3.1252-14.4236.8368-23.1936,6.4583-23.7447,5.3617Z"/>
      <path class="cls-1" d="M155.9169,294.1048c18.5159-14.9201,32.8601-28.2718,43.0501-38.2979,14.3922-14.1606,24.7801-25.9009,32.6095-22.9787,5.175,1.9315,3.3142,8.0601,11.6596,18.3829,8.8704,10.9722,17.8575,12.5645,17.617,18.383-.2232,5.399-8.1716,9.1212-9.9574,9.9575-14.7119,6.8895-26.3223-3.709-45.9574,0-7.4058,1.3989-13.003,4.2759-16.1489,6.1276"/>
      <path class="cls-1" d="M89.2786,284.1474c1.2654-3.2758-13.0091-9.2316-37.5319-26.8085-22.2892-15.976-26.4256-22.4728-33.7021-20.5912-11.5169,2.978-20.3892,24.2265-13.7872,38.9742.7179,1.6037,3.7126,8.2935,10.7234,11.4893,9.3816,4.2767,17.2438-1.674,30.5856-4.5957,24.7325-5.4161,42.2657,5.2769,43.7122,1.5319Z"/>
      <path class="cls-1" d="M171.0714,74.6432c-6.2534-5.2619-15.1899-12.2463-26.6439-19.5171-14.0303-8.9062-17.4196-9.0895-19.9149-8.4255-13.3901,3.5632-15.8462,35.4689-12.2553,36.7659,3.3442,1.2079,11.8898-24.1471,22.9787-22.9787,3.0096.3171,5.3291,2.4955,6.9393,4.5544"/>
      <path class="cls-1" d="M194.2147,60.4878c2.5925-9.9887,8.3261-25.916,22.0713-39.8298,10.0893-10.2131,24.8081-19.6582,29.2479-16.0851,4.9483,3.9822-6.7532,21.0117,0,27.9575,5.4637,5.6195,17.7212-.7983,20.7421,4.2128,1.963,3.2562-.7855,9.9919-5.4183,13.7872-9.5114,7.792-21.6585-1.1581-39.0686,3.8298-8.3894,2.4035-14.5003,7.0405-18.383,10.6274"/>
      <path class="cls-1" d="M407.9169,83.5084c.3163-2.1428,2.9464-18.1828,16.8511-25.3184,8.2109-4.2137,20.9408-5.6238,25.2766,0,4.1434,5.3743-3.3669,11.9994,0,25.3184,2.0395,8.068,6.0173,10.4708,4.3918,14.5114-2.525,6.2769-14.6542,6.7672-17.7828,6.8936-9.1453.3697-16.3518-2.7536-20.3111-4.8936"/>
      <path class="cls-1" d="M127.5764,181.5091c5.9315-16.5456,1.7215-23.1665,0-25.2766-4.1705-5.1121-15.5771-5.0096-38.2202-4.5958-19.8973.3636-22.1886,1.7297-35.3117.766-12.3048-.9037-18.6706-2.7202-19.2553-1.1109-.9709,2.6722,15.0513,11.8889,29.9787,17.9619,14.3607,5.8424,20.1239,5.6898,32.1702,12.2554,7.9601,4.3384,13.8688,8.9971,17.617,12.2553"/>
      <path class="cls-1" d="M140.9193,164.658c3.9639-5.8599,8.1578-8.5678,11.1678-9.9575,13.8843-6.41,27.0927,3.9135,36.7021-4.0504,2.7582-2.2859,1.5818-3.0633,5.4255-7.439,9.1629-10.4309,21.8262-12.8185,22.0713-12.2553.4187.962-35.9595,9.2391-60.3692,41.2514-3.462,4.5402-5.9736,8.6273-7.6596,11.5997"/>
      <path class="cls-1" d="M136.002,147.041c3.835-4.5269,10.2813-11.0287,19.9149-16.1617,1.7182-.9155,13.1588-7.0114,15.1545-4.5191.9606,1.1996.1571,4.9185-11.0056,17.6171"/>
      <path class="cls-1" d="M45.6781,169.2537c-10.1745-1.7501-19.963,1.823-25.3357,9.1915-6.0875,8.3489-5.8384,20.6548-2.2979,22.2128,4.2617,1.8754,10.1981-13.1835,27.6336-19.9149,6.595-2.5462,12.6347-3.0513,16.792-3.0638"/>
      <path class="cls-1" d="M130.6384,136.4035c-.8581-1.1628-13.0561-17.4462-19.8712-14.639-1.1145.459-2.5594,2.7521-5.4036,7.3195-6.2523,10.0402-5.7248,11.3505-5.3617,11.8294,1.1821,1.5593,5.3466.5402,5.3617,0,.0248-.8843-11.1139,1.0702-22.6709-4.5099-9.7864-4.7252-14.0198-12.0271-16.3929-10.6376-3.0097,1.7623,2.9209,14.0223,0,15.9767-1.8572,1.2427-7.2097-1.7366-20.6218-15.9767"/>
      <path class="cls-1" d="M198.967,466.9985c9.2704-13.1286,19.1596-20.7601,25.8861-25.0638,12.2589-7.8435,17.0422-6.5721,18.383-6.1277,6.5104,2.158,7.8288,10.0009,11.9976,19.1489,10.6896,23.4577,30.5525,34.5004,29.3641,35.8723-1.3434,1.5509-20.2986-19.982-49.7872-23.8298-7.4954-.978-13.918-.5847-18.5209,0"/>
      <path class="cls-1" d="M153.6855,431.9772c4.1921-16.9519,2.8054-31.1102-3.1303-33.7021-7.2348-3.1591-24.6493,9.3709-24.5106,25.2766.105,12.0366,10.2394,23.4034,24.5106,25.4468"/>
      <path class="cls-1" d="M166.296,829.3814c4.2582-14.9948,8.5119-28.0615,12.3085-38.9362,3.851-11.0307,7.2062-19.7337,15.6103-26.8085,5.5665-4.6861,12.3825-7.8449,14.1726-6.1277,1.7527,1.6814-2.2398,7.148,0,9.477,1.2253,1.274,3.3644.6202,7.9023,0,8.0904-1.1057,12.7825-1.7469,14.2766,0,2.42,2.8293-3.3268,12.1824-8.777,18.8635-9.8804,12.1118-17.2221,13.5249-27.5745,23.7447-4.3135,4.2583-10.2915,11.1726-15.6103,21.7872"/>
      <path class="cls-1" d="M266.9177,248.1474c4.0097-2.6514,9.9703-6.0039,17.731-8.4255,2.4834-.7749,12.3744-3.7084,25.9915-2.9742,11.9808.6459,23.1414,3.9312,22.9787,5.6062-.2216,2.2817-21.2921-.0903-22.9787,5.7935-1.1653,4.0652,7.7754,9.0949,6.8936,10.7234-.7,1.2927-7.3379-.0212-32.8852-11.1201"/>
      <path class="cls-1" d="M333.619,30.6155c5.7844-10.7834,2.6328-22.6352-4.5957-26.8133-8.7647-5.066-22.717,1.6159-22.9787,6.8984-.2037,4.1118,7.8674,7.7767,12.4114,9.5554"/>
      <path class="cls-1" d="M160.0658,183.807c-1.0502-2.7985,13.021-12.2225,28.7234-14.9918,5.2932-.9335,15.565-2.5959,23.0426,3.3922.5783.4631,5.4395,4.4247,4.4578,7.0039-1.1866,3.1177-9.9224,1.6204-21.3089,1.5319-22.854-.1776-34.0029,5.494-34.9149,3.0638Z"/>
      <path class="cls-1" d="M260.8578,206.7857c6.6477-6.7637-.9139-26.6824-12.26-37.9705-10.5241-10.4703-25.6584-14.8627-28.3404-11.472-2.9152,3.6854,10.2426,14.8452,6.1277,24.7213-2.1951,5.2684-7.2693,5.2845-7.5572,8.6362-.7581,8.8267,33.0138,25.2586,42.03,16.0851Z"/>
      <path class="cls-1" d="M226.385,141.9979c-.822-3.2299,7.0637-9.5534,15.4229-10.2791,9.5081-.8255,16.7313,5.8428,21.5368,10.2791,13.2768,12.2568,18.5719,29.0403,16.6573,30.2094-2.0754,1.2673-9.1275-17.9488-28.7234-25.1663-13.0629-4.8113-23.9784-1.4467-24.8936-5.0431Z"/>
      <path class="cls-1" d="M333.619,196.9984c.7139-3.8426,19.6025-3.2711,20.6809-3.234,18.2423.6281,23.8535,6.554,43.6596,6.8936,5.9815.1025,9.8891-.3621,9.9574.1603.1454,1.1113-17.3878,4.3119-32.9362,5.9673-13.8172,1.4711-18.7668.9446-22.9787,0-8.9511-2.0074-18.9232-6.8794-18.383-9.7872Z"/>
      <path class="cls-1" d="M378.4902,184.4133c4.4645-.8112,11.5201-1.4968,19.7014.4035,4.9732,1.1552,18.341,4.2602,19.6827,12.1816.7718,4.5569-2.5101,10.2711-6.1277,10.7036-3.8065.4551-8.8194-4.8375-10.7234-13.9376"/>
      <path class="cls-1" d="M249.1084,128.1474c-4.9732-4.3882-10.3656-9.5844-9.4468-10.9787.7249-1.1001,5.1694.4836,7.9149,1.7872,11.791,5.5986,18.8202,18.6494,17.617,19.6596-1.3571,1.1395-15.9713-10.7004-22.2128-27.3192-1.4895-3.9659-3.9631-12.0939-1.9008-13.2766,3.4682-1.989,18.0701,16.6354,25.8378,27.7462,6.7819,9.7007,13.6056,21.1858,13.4638,21.2751-.1546.0974-8.854-13.1792-15.188-30.1276-1.8904-5.0583-4.043-11.7092-1.8488-19.0409.4483-1.4979,2.3992-8.0167,5.6786-8.2783,4.8761-.3889,9.6407,13.2991,13.2766,23.7447,5.8658,16.8519,8.7987,25.2778,6.8936,33.7021-.689,3.0468-2.3598,8.2267,0,10.3021,1.4278,1.2557,4.1782,1.2405,5.2328,0,1.3884-1.6331-.7855-4.6559-2.169-9.2808-2.1829-7.2975-.9355-13.6949-.2553-17.183.4001-2.0521,1.8788-8.7568,6.8936-15.7531,3.0387-4.2394,6.977-9.7339,9.9574-8.9362,4.7141,1.2618,4.2476,17.52,3.3192,25.4589-.6895,5.8958-1.7356,14.0054-7.4043,21.5198-3.1456,4.1699-6.5842,6.6579-6.383,6.8936.3385.3966,9.2743-7.5838,22.9447-16.0851,6.6436-4.1315,10.0527-6.2248,14.3319-7.5737,13.1131-4.1337,27.6482-1.1495,28.0851,2.212.4571,3.5167-14.3071,9.0485-21.9574,11.234-3.6896,1.0541-7.5965,1.8646-13.5319,4.3405-3.9147,1.633-10.8057,4.8638-10.4681,5.8865.3904,1.1826,10.0076-1.921,27.5745-3.8594,3.1378-.3463,10.7388-1.1198,20.4255,0,3.5197.4069,10.6364,1.2296,10.7234,2.824.0893,1.636-7.2488,3.6243-13.2766,4.3405-8.473,1.0067-16.0811-.2952-16.0851-.2553-.005.05,12.2486-.6434,21.9574,6.383,2.6336,1.906,6.3129,5.2722,5.617,6.6339-1.1007,2.1537-12.791-1.4032-19.4043-3.8759-10.8669-4.0632-11.2986-6.4228-17.1064-6.8431-6.6776-.4833-9.0596,2.4224-18.8936,4.8511-7.0568,1.7428-13.5473,2.1525-19.0519,1.9921"/>
      <path class="cls-1" d="M1270.2583,106.4453c-.7529-3.7938-3.3374-14.1586-12.6393-22.2128-7.7316-6.6946-15.9683-8.2117-21.7021-9.1915-14.3062-2.4446-34.9343-.3864-36.5107,6.6383-1.1147,4.9673,12.8739,15.0563,40.8511,35.2341,6.33,4.5654,15.3514,10.9333,20.1702,22.7234,2.1873,5.3514,2.8516,10.2123,3.0638,13.5319"/>
      <path class="cls-1" d="M1201.7041,90.8708c-10.5246-1.5818-20.9282,2.3871-26.8085,10.4681-7.3736,10.1331-6.6296,25.3499,0,30.8936,4.0456,3.3829,8.7344,1.869,10.9567,5.8723,2.7,4.8638-2.6883,9.8602-.171,14.0425,2.3251,3.8632,10.1195,4.9125,16.0228,2.8085,9.9282-3.5384,8.463-13.8411,18.8936-18.1276,5.4821-2.2529,11.1008-1.5497,17.3617-.766,6.0891.7621,10.9728,2.4334,14.2979,3.8298"/>
      <path class="cls-1" d="M962.2147,188.9133c.3008-3.2375,1.679-21.4227-11.4894-35.7447-2.1925-2.3846-9.8002-10.4249-22.7234-13.0213-13.6959-2.7516-24.3161,2.4286-28.5958,4.5958-4.8719,2.467-17.821,9.0243-18.383,19.3943-.0678,1.251-.204,7.146,3.5745,10.4781,3.4577,3.0493,7.9851,2.0045,8.6809,4.3404.5367,1.8018-2.0217,2.8777-4.0851,7.4042-.6006,1.3176-2.0339,4.5517-1.7872,8.4255.0494.7761.5761,7.4227,5.8723,10.9788,4.2247,2.8366,8.9424,1.9999,13.0212,1.2766,5.1038-.9052,8.5378-2.9033,13.5319-5.8723,2.0548-1.2216,7.3889-4.5133,14.2979-10.2128,6.5706-5.4203,7.6961-7.3514,10.4681-7.4042,2.8061-.0534,6.5323,1.8326,10.9787,9.4468"/>
      <path class="cls-1" d="M1152.1211,397.8772c.3008-3.2375,1.679-21.4227-11.4894-35.7447-2.1925-2.3846-9.8002-10.4249-22.7234-13.0213-13.6959-2.7516-24.3161,2.4286-28.5958,4.5958-4.8719,2.467-17.821,9.0243-18.383,19.3943-.0678,1.251-.204,7.146,3.5745,10.4781,3.4577,3.0493,7.9851,2.0045,8.6809,4.3404.5367,1.8018-2.0217,2.8777-4.0851,7.4042-.6006,1.3176-2.0339,4.5517-1.7872,8.4255.0494.7761.5761,7.4227,5.8723,10.9788,4.2247,2.8366,8.9424,1.9999,13.0212,1.2766,5.1038-.9052,8.5378-2.9033,13.5319-5.8723,2.0548-1.2216,7.3889-4.5133,14.2979-10.2128,6.5706-5.4203,7.6961-7.3514,10.4681-7.4042,2.8061-.0534,6.5323,1.8326,10.9787,9.4468"/>
      <path class="cls-1" d="M962.4035,146.275c-.3154-.0941.2435-2.5099.2435-2.51,5.1829-22.4011,7.7742-33.6017,10.0358-38.8517,4.8011-11.1453,9.832-22.8238,21.7021-33.9575,5.0349-4.7224,15.4499-13.2391,30.8936-17.8723,6.0023-1.8007,16.2556-4.7496,28.8511-2.2979,6.1782,1.2026,18.886,3.6761,21.7021,12.6383,1.8718,5.9571-1.6013,11.6793-2.0425,12.383-3.9533,6.3056-11.1252,7.6655-13.7872,8.1702-10.4429,1.9801-13.6808-3.7762-26.2979-4.8511-10.9075-.9292-19.501,2.4348-25.0213,4.5958-4.2266,1.6545-14.4678,6.1663-23.7447,15.8298-18.4873,19.2579-21.6393,46.9904-22.5347,46.7234Z"/>
      <path class="cls-1" d="M1335.236,268.3176c-2.6744-4.965-8.7689-14.3529-19.6596-18.1276-3.2285-1.119-10.0475-3.4825-14.0425,0-3.2073,2.7958-2.8701,7.8568-2.8085,8.614.224,2.7531,1.3621,4.612,5.617,10.535,3.8909,5.4163,5.8364,8.1244,7.149,9.7021,8.4733,10.1844,15.4489,15.6149,15.0638,16.0851-.3099.3785-4.7819-3.199-12.2553-7.9149-1.4491-.9144-8.2701-5.1902-16.8511-9.4468-11.6257-5.767-11.0901-3.8635-19.9149-8.6808-4.9699-2.7131-8.8019-5.3159-15.8298-7.6596-3.6589-1.2202-8.6161-2.8734-9.4468-1.5319-1.1458,1.8502,5.9684,8.7354,12.5106,13.2766,2.0291,1.4084,5.2776,3.476,14.8085,7.6596,12.8917,5.6588,19.7781,7.5075,19.6596,7.9149-.1991.6846-19.9408-3.5435-34.2128-9.9575-8.1321-3.6547-14.2979-7.0276-14.2979-7.0277-5.1837-2.8358-6.5815-3.932-6.766-3.6957-.5938.7609,10.944,15.9095,28.9788,21.9575,4.9374,1.6558,7.0504,1.5189,19.9149,5.3617,13.064,3.9023,14.8514,5.2283,14.8085,5.3617-.1055.3275-11.5676-5.4927-22.9787-1.7872-3.3265,1.0802-7.386,3.2094-7.1489,4.8511.3055,2.1154,7.4406,1.3167,17.1064,4.8511,3.6093,1.3198,6.8317,3.2628,13.2766,7.1489,13.34,8.0437,14.5571,10.7489,19.9149,11.7447,3.8322.7122,9.8157.556,18.1277-4.5958"/>
      <path class="cls-1" d="M1135.5764,289.2537c1.1663,1.1846,9.8755-5.1498,17.617-11.7446,7.9435-6.767,6.7684-6.9083,23.4894-23.4894,2.9574-2.9326,8.2214-8.1118,13.7872-16.0851,1.8972-2.7179,5.5966-8.0175,4.8511-8.6808-1.0714-.9534-11.5381,7.4771-20.4255,17.6171-6.1403,7.0056-9.1145,12.0753-17.3617,18.1276-3.4737,2.5492-8.1587,5.4753-8.6808,4.8511-.3947-.4719,1.7291-2.8062,8.9362-10.6326,10.8744-11.809,11.8514-12.8567,11.8515-12.8568,6.6083-7.0865,9.9877-10.7235,13.6804-15.3192.5085-.6328,4.0685-5.114,7.4042-11.7446,3.425-6.8082,2.8126-8.327,2.2979-8.9362-1.2608-1.4924-4.6656-.7592-6.6383,0-4.5339,1.7449-6.2828,5.4664-10.9788,13.0213-.4313.6939-4.1375,6.6376-8.6808,13.0213-5.7479,8.0762-9.5715,12.2701-11.234,14.0425-3.4781,3.7084-3.1822,2.8798-5.6171,5.617-7.3726,8.2882-10.0762,15.8743-11.7446,15.3192-.1464-.0487-.6259-.2736-.766-1.7872-.7254-7.8403,10.6461-17.9727,19.6596-33.1915,3.8763-6.5449,6.0298-11.8581,6.1276-18.1277.0273-1.7516.1595-10.2311-3.3192-11.4894-4.77-1.7253-13.5651,11.1269-19.4042,19.6596-4.3906,6.416-9.0836,13.3724-12.8781,23.7447-4.5148,12.3413-5.3055,22.8157-6.0155,22.7234-.827-.1076,3.1191-13.9447-2.5532-28.5958-1.4938-3.8584-4.5261-11.3738-12.2553-15.8298-5.0292-2.8994-9.8095-3.2136-11.7447-3.3192-2.8967-.158-13.1047-.7147-16.851,4.8511-4.506,6.6942,2.6512,18.8049,5.8723,24.2553,1.7372,2.9396,6.4683,10.2956,12,18.1277,2.4014,3.4,4.6385,6.4434,3.8298,7.4042-1.0419,1.2379-6.4926-1.7492-8.4255-2.8085-8.8067-4.8263-9.4201-8.3948-16.0851-11.4893-2.5294-1.1744-5.8565-1.7191-12.5106-2.8085-9.4214-1.5425-14.1813-2.2675-16.5958,0-3.8344,3.6011-1.6199,11.3721-1.2766,12.5106,1.5632,5.1844,5.1208,8.1448,9.4468,11.7447,1.0787.8976,5.4949,4.4815,12.2553,7.1489,2.6434,1.043,4.8093,1.8976,7.9149,2.2979,4.414.569,5.4616-.4585,13.0213-.766,5.2351-.213,4.4962.2894,9.1915,0,5.0959-.3141,6.4315-.9345,8.9362,0,2.6378.9841,3.3408,2.4872,5.3617,2.2979.5009-.0469,2.0575-.2891,4.3404-3.0638,2.1489-2.6118,2.4598-4.4515,4.3405-9.1915,1.9828-4.9977,3.0169-7.5406,5.1064-9.7021,2.5966-2.6861,5.3326-3.6477,5.8723-3.8298,3.9264-1.325,9.5352-1.188,10.7234,1.2766.5097,1.0573-.04,2.0329-2.2979,6.8936-3.8195,8.2224-3.7786,8.7288-3.5745,8.9362Z"/>
      <path class="cls-1" d="M1241.5339,294.6155c-6.4485-1.0236-21.1011-2.4196-37.2766,4.5957-17.772,7.7077-26.6375,20.9088-31.1489,27.8298-6.7169,10.3043-16.443,30.2945-10.7234,35.4893,4.4845,4.073,12.9552-5.9525,38.0425-11.234,15.7822-3.3225,23.3804-1.6602,27.5745-7.9149,3.997-5.9608-.1909-11.5163,2.2979-22.7234,2.075-9.3439,7.341-16.0862,11.2341-20.1702"/>
      <path class="cls-1" d="M1255.0658,305.8495c-5.2399-.08-8.0121.0672-11.1064,1.5319-.7165.3391-6.252,2.9594-5.9999,5.8723.2655,3.0682,6.8256,4.9979,10.7234,5.6171,7.9564,1.264,9.9509-2.1168,17.1064-1.0213,5.3515.8193,9.1074,3.4561,13.2766,6.383,7.7349,5.4301,7.5543,8.6866,13.5319,11.234.638.2719,10.0327,4.1558,14.0425,0,3.3857-3.5089,1.3332-11.0921-1.7872-15.5745-3.35-4.8121-8.2083-6.4489-17.1064-9.4468-7.2964-2.4583-13.1926-3.2646-17.4884-3.8298-4.5928-.6042-8.126-.6581-15.1924-.766Z"/>
      <path class="cls-1" d="M1215.7467,290.0197c-5.196-1.1468-12.8969-2.3438-22.2128-1.9092-9.21.4296-15.387,2.2386-27.0638,5.6584-13.7235,4.0192-20.7047,6.1495-26.5532,12.0633-4.5188,4.5692-6.6642,9.272-7.6596,11.5067-3.5475,7.9642-5.293,18.743-2.5532,20.0366,2.0925.988,4.9613-4.426,17.1064-14.6749,5.7789-4.8767,8.8478-7.4308,13.8435-9.9012,5.8221-2.8791,12.5192-4.7831,14.7522-5.4179,2.5012-.7111,4.6171-1.2144,6.1277-1.5492"/>
      <path class="cls-1" d="M1236.4275,274.7006c-10.3875-3.7296-18.4606-7.4509-24-10.2128-7.9105-3.9441-12.4971-6.8506-19.6596-7.1489-6.7358-.2805-11.891,1.9108-14.5532,3.0638-20.0548,8.6862-27.3589,32.5256-26.0425,33.3662,1.0549.6736,6.5982-14.0926,22.2128-20.345,7.2192-2.8907,13.5662-2.7502,22.4681-2.5532,15.4457.3419,26.3071,4.6974,29.1064,5.8723,5.1323,2.1541,9.1722,4.5329,11.9916,6.383"/>
      <path class="cls-1" d="M969.3637,413.0835c-11.6188-17.3911-24.4691-28.3703-33.1915-34.7234-4.7513-3.4607-15.6782-8.7752-37.5319-19.4043-17.1028-8.3183-26.0352-12.0742-36-9.4468-.76.2004-11.2127,3.0542-11.4894,7.9149-.1557,2.7356,2.9229,5.9132,3.0638,6.056,2.352,2.3825,4.6554,2.5876,4.5957,3.6462-.0493.8739-1.6525,1.3264-6.6383,3.0638-6.0377,2.1039-6.7821,2.5189-7.4042,3.3192-1.8685,2.4036-1.2085,6.4484,0,8.9362,2.7658,5.6935,10.3726,7.2827,16.851,8.4255,17.2766,3.0476,24.5822,2.5771,37.0213,4.0851,16.421,1.9908,29.0124,5.8807,35.4894,7.9149,9.1213,2.8647,16.5208,5.8806,21.7021,8.1702"/>
      <path class="cls-1" d="M973.9594,337.4906c-3.1-1.5948-7.9252-3.6234-14.0425-4.3219-11.4546-1.308-20.3576,2.8559-32.9362,8.9362-15.341,7.4156-26.8231,12.108-26.0425,15.8298.6075,2.8968,8.3528,4.1201,14.0425,3.5745,3.5389-.3394,6.202-1.3554,18.6383-8.4255,7.6329-4.3393,11.4466-6.695,18.1277-9.7021,6.5305-2.9393,9.6234-3.7209,13.1276-3.3192,4.819.5524,8.3743,3.1085,10.3618,4.8511"/>
      <path class="cls-1" d="M1079.9169,304.5729c-5.072-2.1457-12.2756-4.7646-21.1915-6.622-4.8708-1.0147-12.8423-2.6753-21.1915-2.3141-18.861.8159-37.576,11.8593-36.5106,17.1182,1.1743,5.796,25.1671-1.3986,39.3191,13.7755,4.6965,5.0356,5.931,9.9847,11.2341,10.9602,8.381,1.5416,16.566-8.7471,17.8723-10.4496,5.203-6.7809,6.1589-14.0305,6.383-17.3617"/>
      <path class="cls-1" d="M1004.701,470.2363c3.7792-8.0519,10.6898-20.0884,22.9787-30.8936,3.1349-2.7564,9.269-7.762,39.0638-20.9362,42.7571-18.9055,50.7482-17.716,55.9149-16.0851,12.7268,4.0173,21.2689,14.801,24.5107,18.8936,4.7843,6.0399,9.5225,12.0215,7.6595,16.3404-3.172,7.3538-23.4899,5.27-37.5319,3.8298-26.912-2.7602-34.819-8.7537-53.617-7.6596-12.5029.7278-22.4066,4.1592-28.3404,6.6383"/>
      <path class="cls-1" d="M1277.0233,493.7644c-2.1248-4.9136-5.9412-11.5513-12.766-17.1064-7.2047-5.8643-14.488-7.8571-20.2979-9.4468-6.1847-1.6923-11.2295-2.1494-21.3191-3.0638-12.4955-1.1324-16.1273-.5162-22.7234-3.3192-5.4141-2.3007-8.863-5.2211-10.9788-7.4043-2.7667-2.8549-7.7078-7.9535-6.8936-13.5319.509-3.4875,2.6834-3.161,6.1277-9.4468,2.5051-4.5718,1.7063-5.3859,4.8511-12,1.0027-2.109,2.4288-5.0754,4.851-8.5638,2.7202-3.9175,4.4286-6.3779,7.4043-8.2872,5.8051-3.7249,12.3715-2.7465,13.5319-2.5532,5.2049.8672,8.5265,3.7469,17.3617,13.2766,8.7971,9.4886,12.6064,14.2942,20.1702,22.9787,10.9966,12.6261,12.2044,13.1003,14.8085,17.8723,3.8384,7.034,4.6204,12.2456,6.8936,22.9787,1.72,8.121,4.3834,19.826,8.3193,34.2128"/>
      <path class="cls-1" d="M1068.9381,145.2537c1.7484-1.6511,11.8699-11.5172,10.9788-25.7872-.1833-2.9364-.7612-10.395-6.6383-16.5957-.6714-.7084-8.1454-8.3379-19.1489-7.4043-7.1517.6068-15.8875,4.8387-15.8298,9.1915.0729,5.5131,14.1946,6.8561,14.5532,13.5319.1926,3.5854-3.6555,7.3944-7.4043,8.4255-5.7126,1.5713-10.3674-3.5352-11.4893-2.2979-1.4569,1.6067,3.9306,12.9313,12.7659,14.8085,7.4067,1.5737,13.6441-4.2549,16.0851-1.7872,1.5192,1.5358.4131,5.1172-.766,7.9149"/>
      <path class="cls-1" d="M1147.0658,49.852c-.6218-2.1799-4.952-18.3381,4.9574-31.4919,6.4144-8.5145,15.3734-11.2279,20.0299-12.6382,5.4192-1.6413,14.3992-4.3611,22.934,0,6.3438,3.2416,12.3134,10.3297,10.6744,14.3617-2.2463,5.5262-17.9297,3.2068-18.3829,6.4493-.3351,2.3975,8.0977,4.6798,7.7086,6.7635-.371,1.9866-8.2598,1.1083-15.7511,2.8723-6.005,1.414-13.4886,4.9341-21.2554,13.6833"/>
      <path class="cls-1" d="M1286.3638,747.9346c-14.0763-15.8308-27.6048-23.4977-37.6171-27.5745-14.3856-5.8574-21.4976-4.2975-33-13.2128-8.9478-6.9352-12.6866-14.1128-20.3277-13.7872-6.1298.2611-10.7662,5.1803-13.4639,8.0425-6.6253,7.0294-8.2571,14.4801-9.902,19.2435-8.116,23.5039-33.8353,31.6479-31.8809,35.331,1.8328,3.4538,25.05-2.5766,45.3829-13.2128,8.331-4.358,16.1401-9.4695,30.1915-14.3617,9.3774-3.2649,15.4992-4.3307,22.2044-3.3239,7.9234,1.1897,13.7787,4.8408,17.1147,7.3452"/>
      <path class="cls-1" d="M838.3849,706.9559c13.2166-3.1502,24.0778-5.1963,31.7872-6.5106,11.4848-1.958,19.4951-2.8925,21.4468-8.0426,1.0502-2.7711.313-6.6757-1.9149-8.8085-9.58-9.1711-46.4871,14.6434-46.3405,14.9362.1075.2145,18.5447-15.303,48.7168-20.2979,4.8047-.7954,24.617-3.7591,49.7087-5.3617,7.4291-.4745,17.278-.9546,17.617-3.4468.2419-1.7781-4.3674-4.5042-8.8085-5.3617-6.7928-1.3116-11.0838,2.1553-13.0213,0-1.4109-1.5695.5345-3.7751,0-9.1915-.2478-2.5108-1.056-5.9893-2.2979-7.6596-3.7481-5.041-17.9193-2.3163-31.4043,3.4468-26.7985,11.4528-39.2584,29.935-41.7447,27.9574-2.1164-1.6834,4.6544-16.8716,16.4681-29.8723,10.9837-12.0874,21.4608-16.9289,20.3025-19.5319-1.1672-2.6229-11.6409,2.6614-29.111,1.9149-15.1587-.6477-16.894-5.0373-26.8085-3.4468-10.4655,1.6789-21.6381,8.6725-27.1915,19.1489-5.6613,10.6802-4.0481,22.2734-2.2979,34.8511,1.2404,8.9142,3.434,15.4553,2.6808,15.7021-.8355.2738-4.0751-7.5991-12.2553-24.5106-5.5975-11.5722-6.3878-12.6556-8.0425-13.7872-7.438-5.0867-13.9007,1.4646-31.7872,1.5319-15.9884.0602-22.0648-5.1322-26.4255-.766-5.0416,5.0479-1.6786,16.7533,0,22.5957.9863,3.4329,2.7977,9.7376,6.8936,14.5532,8.2897,9.7462,24.864,12.1304,41.7447,7.2766"/>
      <path class="cls-1" d="M728.4701,657.1644c-11.4141-2.1996-20.7286-1.4135-27.5745,0-8.3089,1.7156-17.5553,5.2999-17.234,7.2809.331,2.0407,10.758,2.0274,10.7344,2.6999-.0307.8758-17.6286-1.5008-21.1068,5.3427-.7406,1.4573-.9658,3.5782,0,4.9787,2.1268,3.0841,8.583.5791,17.266,0,13.4608-.8977,24.022,3.3835,27.9575,4.9787,3.9944,1.6192,9.9937,4.5529,16.4868,9.9574"/>
      <path class="cls-1" d="M816.1722,706.5729c12.3926-10.2451,14.7031-13.3801,14.1702-14.1702-.9554-1.4166-10.9069,4.9178-27.1915,11.1064-16.8458,6.4019-25.2687,9.6029-34.4681,9.1915-14.119-.6314-18.3419-7.3019-42.1277-10.2519-7.7597-.9624-12.3968-1.5038-13.0213.0732-1.5424,3.8946,20.1289,23.8942,44.4255,23.583,14.54-.1862,20.2853-7.5216,48.2553-11.4894,6.5096-.9234,11.8784-1.3318,15.3192-1.5319"/>
      <path class="cls-1" d="M713.4563,710.7857c-10.6553-1.3986-19.6595-1.8226-26.3479-1.9149-20.7006-.2858-25.8312,2.5137-28.3404,4.2128-7.8463,5.313-12.6381,15.1549-10.3404,18,2.0885,2.5861,8.9871-1.9054,27.5745-4.9751,13.7489-2.2706,16.8017-.9406,18.394,0,6.6338,3.9189,4.1587,10.6737,11.4784,16.8475,8.2422,6.9519,19.3874,5.1407,20.2979,4.9787,7.417-1.3196,12.1146-5.6939,14.1702-7.6596,4.5196-4.3218,6.6678-9.034,7.6596-11.7172"/>
      <path class="cls-1" d="M859.4488,713.8495c20.0676-1.4382,35.479-5.3963,45.9574-8.8085,14.0234-4.5667,21.0598-8.7577,35.2341-10.3404,11.178-1.2482,19.1599-.0215,31.7872,1.9149,44.6389,6.8455,64.0474,9.7896,63.9575,10.3404-.1332.8158-40.9407-16.4582-85.0213-2.9413-15.5974,4.7828-22.4238,10.6054-42.8936,13.6647-5.2317.7819-22.3333,3.0241-44.4255,0-10.7213-1.4676-19.5896-3.7609-26.0425-5.7447"/>
      <path class="cls-1" d="M648.0445,771.2963c-.6112-1.2477-1.3893-3.0396-2.0293-5.2759-.5522-1.9297-1.8468-6.6276-1.0345-12.3411.6289-4.4239,1.3204-9.2875,5.3617-12.2553,4.5729-3.3583,12.2744-3.437,14.9362,0,5.1646,6.6689-9.7003,25.2105-8.4255,26.0425.9361.611,10.274-8.526,18-22.5957,4.5588-8.302,5.2148-12.2359,10.3404-16.3131,6.1677-4.906,15.7321-7.5735,18.6295-4.3678,3.5783,3.9591-3.3686,16.4813-9.427,24.075-11.3749,14.2576-25.4342,18.4318-24.9046,19.5845.5664,1.233,17.5033-1.6901,31.7872-14.1702,11.706-10.2277,17.3513-23.1357,17.617-22.9787.4317.255-21.008,30.4783-15.0726,36.766,5.3276,5.6438,29.5527-11.3432,31.1764-8.8085,1.2498,1.951-10.7847,15.635-28.3591,20.6809-3.7299,1.0709-17.3479,4.9808-32.1702,0-8.6315-2.9005-15.1422-7.9661-16.8511-6.1277-1.8724,2.0143,5.591,8.4746,3.4468,13.7872-2.5923,6.4229-18.1705,8.5489-22.5957,3.0638-2.729-3.3826-.3995-8.6472-1.9149-9.1915-1.9228-.6907-5.7376,7.7625-11.8723,15.7021-7.8617,10.1748-19.7094,19.7339-22.8511,17.617-4.144-2.7922,6.1626-26.3683,6-26.4255-.1709-.0602-5.8076,28.0286-19.9149,31.4043-3.0649.7334-9.0555.9047-11.4894-2.2979-2.0263-2.6662-.4738-6.2055-1.9149-6.8936-2.384-1.1384-6.3488,8.6834-13.4043,9.6625-5.8945.8179-13.3206-4.6231-14.1702-10.4284-1.2118-8.2806,11.215-15.5385,16.0851-18.383,25.0548-14.6335,52.8519-7.923,53.234-10.7234.4238-3.1064-33.9052-10.4461-33.7021-11.4894.232-1.1916,45.3668,6.5744,46.3404,2.6415.6218-2.5118-17.51-6.8028-17.617-14.8968-.0449-3.3976,3.0924-6.9942,6.5106-8.0952,3.2608-1.0502,6.2024.3558,9.5745,1.9675,2.7347,1.3071,7.2195,3.9404,11.4894,9.1915"/>
      <path class="cls-1" d="M856.3849,750.2325c4.9344-4.4264,12.5405-10.143,22.9787-14.1702,6.4077-2.4721,22.69-8.754,28.3405-2.2979,2.9014,3.3151,2.7442,9.6969,0,13.0213-2.8932,3.5049-8.7516,3.7202-8.7964,3.5527-.0619-.2315,9.857-5.3889,17.2219-2.0734,4.5878,2.0653,8.1356,7.3963,6.8936,10.3931-.9882,2.3842-4.3285,1.651-16.8511,3.8298-2.1542.3748-8.5845,1.5325-18.383,3.0638-4.3999.6876-6.7455,1.0234-9.5745,0-4.1824-1.513-4.1521-4.0906-8.0426-6.8936-3.989-2.874-6.1319-1.6851-20.6808-3.8298-9.037-1.3321-10.8362-2.1779-11.4893-1.1489-1.707,2.6892,7.2255,13.7536,18.766,19.1489,8.1831,3.8257,12.2747,5.7386,17.617,5.7447,2.4879.0028,6.084-.3593,8.0426,1.9149,1.7195,1.9965,1.2671,4.9685,1.1489,5.7447-.6533,4.2913-3.9824,6.9266-8.4255,10.3404-5.9346,4.5598-8.9019,6.8398-12.6383,6.8936-5.7661.0831-7.2116-4.3492-13.0213-3.8298-3.1806.2844-4.1303,1.7365-8.8085,4.2128-4.7497,2.5141-5.9011,2.1448-15.7021,5.3617-14.5741,4.7834-14.8223,6.517-19.5319,6.1277-5.3351-.441-12.3795-3.2742-13.7872-8.4255-.8589-3.1432.696-5.996,3.0638-10.3404,1.1844-2.1856,3.2634-5.5478,10.7234-13.4043,6.562-6.9107,8.5984-8.1479,9.1915-11.4894.7148-4.0267-1.2579-7.777-3.0638-10.3404"/>
      <path class="cls-1" d="M501.7466,445.5729c-1.1477-2.9123-2.5864-7.5139-2.6808-13.2128-.1469-8.8666,3.1048-11.6768,2.1064-19.3404-.2616-2.0079-1.3585-8.5211-6.5106-14.1702-.6915-.7582-7.6419-8.1612-17.617-8.4255-6.3016-.167-7.7899,2.6745-13.7872,1.3404-4.334-.9641-5.2151-2.8169-9.766-3.2553-3.3932-.3269-9.0036.1156-9.9574,2.6808-.5096,1.3705.4175,3.0578,7.2766,10.149,9.934,10.27,10.7408,9.5752,13.2128,13.5957,3.0492,4.9594,2.5994,7.2815,6.7021,12.4468,1.8856,2.3739,3.5891,3.9086,5.9362,5.9362,11.1362,9.6205,17.5747,13.7647,17.234,14.3617-.5336.9351-15.5415-10.6154-38.1064-16.0851-6.9919-1.6948-6.4135-.7949-33.5106-5.3617-17.901-3.0169-24.4655-4.4734-24.5106-6.5107-.0397-1.7947,4.9804-4.0302,9.383-4.4043,5.2392-.4452,8.0503,1.8775,9.5745.383,2.1954-2.1527-2.5323-8.0551-.383-10.5319,1.4097-1.6246,4.4563-.2522,13.0213,1.5319,9.9888,2.0807,10.7666,1.2392,17.0426,3.1808,4.6586,1.4413,8.6213,3.2635,11.8723,5.0532"/>
      <path class="cls-1" d="M506.9169,416.658c2.2167-1.5396,5.6817-3.4784,10.1489-4.0213,6.521-.7924,8.457,2.2064,18,2.8723,5.068.3537,9.112.6359,13.9787-1.0692,4.815-1.687,6.8-4.0456,9.1915-3.1436,3.6183,1.3647,3.9827,8.6149,4.0213,9.5745.6638,16.5015-19.1756,31.1867-19.1489,31.2128.0221.0216,9.7291-13.9217,25.8511-20.6808,9.067-3.8014,18.8496-4.7798,21.0638-4.9787,9.6992-.8716,17.3596.3449,17.4255-.1915.1183-.962-24.699-3.4268-24.7021-6.7021-.0015-1.5619,5.6399-2.9772,13.5957-4.2128-8.2323-6.1003-17.7218-7.9631-24.5106-4.2204-1.4543.8018-3.2748,2.131-4.9787,4.4119"/>
      <path class="cls-1" d="M487.7679,448.9985c-9.5875-6.8615-18.2361-8.5003-22.7872-8.9787-6.1585-.6474-11.2248.1562-16.2766.9574-3.5157.5576-10.4473,1.8772-18.9574,5.1702-11.7022,4.5282-13.3473,7.7413-22.0213,9.1915-6.943,1.1608-12.4463.1985-12.4468,0-.0009-.354,17.5136,2.839,38.4894-2.6809,9.2847-2.4433,13.7415-5.1447,23.9362-5.5532,10.1205-.4054,16.1401,1.8398,18.5745,2.8723,2.7858,1.1816,7.9098,3.4194,12.2553,8.4255,6.1629,7.0997,4.793,12.8931,8.0425,13.5958,4.7009,1.0164,13.6073-9.802,15.1277-21.6383.9993-7.7802-1.6112-12.7416.766-14.1702,2.7545-1.6554,9.261,3.2021,12.6383,8.234.3768.5614,5.1297,7.8754,3.2553,16.4681-.9048,4.1478-3.0228,7.0764-2.6808,7.2766.4929.2886,3.5925-6.5567,10.7234-11.6808,1.3172-.9465,3.9188-2.7863,7.6596-4.0213,9.8617-3.2556,19.0655.5234,21.2553,1.4958,6.4785,2.877,5.9169,5.3258,12.2553,7.3127,6.4053,2.0078,10.3135.5523,11.2979,2.6808,1.2029,2.6012-3.3183,7.619-7.4681,10.3404-4.6355,3.0399-9.2204,3.485-14.7447,4.0213-5.4449.5286-9.5936.1724-15.7021-.383-5.9343-.5395-10.8066-1.3079-14.1702-1.9149"/>
      <path class="cls-1" d="M572.4062,446.5304c4.5557.4836,10.0768,1.2883,16.2766,2.6808,13.038,2.9284,14.2269,5.1205,25.0851,7.0851,9.7551,1.765,15.6849,1.2422,16.2766,3.6383.461,1.8668-2.6236,4.2699-5.5532,6.1277-5.0149.5493-13.4134.7273-22.6596-2.8723-3.647-1.4198-6.686-3.1393-9.1277-4.7872"/>
      <path class="cls-1" d="M496.7679,482.1474c-3.3038-1.5057-8.0722-3.1682-13.9787-3.6383-3.9273-.3126-9.6844-.7709-15.8936,1.8192-4.7323,1.974-6.0613,4.1894-11.2979,5.0745-4.0149.6786-5.7917-.1913-6.5106.9575-1.5194,2.428,3.6992,10.6588,10.9149,12.0638.7414.1444,3.5304.6112,8.617-1.3404,9.004-3.4547,15.9174-10.9231,15.3191-11.6808-.8479-1.074-19.583,7.7911-20.2979,19.149-.2351,3.7353,1.4813,7.7,4.2128,10.1489,4.6997,4.2136,9.0777.9572,22.4043,2.4893,10.0536,1.1559,13.457,3.6869,21.2553,1.9149,2.7062-.6149,7.1974-1.6938,8.234-4.7873.5225-1.5593.0713-3.3438-4.7872-11.1064-2.3075-3.6867-4.3375-6.6901-5.8085-8.8085"/>
      <path class="cls-1" d="M470.1509,472.1899c-5.9666-1.9843-10.5681-4.0649-13.5957-5.5532-7.1981-3.5382-9.5211-5.7041-14.3617-5.9362-4.6479-.2228-10.767,1.3781-11.4894,4.5957-.6181,2.753,2.7853,6.3743,5.7447,8.0426,2.2503,1.2686,4.306,1.4428,4.2648,1.9225-.0747.8713-6.7733-.6688-10.967,3.0024-1.7184,1.5043-3.4604,4.2723-2.8723,6.7559,1.2234,5.1665,11.847,6.2147,13.0213,6.3192,1.0864.0966,2.0076.1022,2.6808.0853"/>
      <path class="cls-1" d="M608.4062,489.424c-4.6582-3.4218-7.7829-6.87-9.766-9.383-3.015-3.8207-5.5329-7.0115-4.4043-9.383.9926-2.0858,4.6481-3.2061,7.0851-2.1064,2.4186,1.0915,2.1479,3.6976,5.1702,9.7122,2.4463,4.8682,4.8932,7.6773,5.1702,7.5219.416-.2334-4.7185-6.7821-2.4894-11.4894.8029-1.6955,2.5517-3.1322,4.4043-3.2553,3.8215-.2539,6.5213,5.1861,6.8936,5.9362,2.2041,4.441,1.541,9.2316,1.1489,12.0638-.4781,3.454-1.3823,5.5507-.9574,5.7447.7733.3531,2.8985-6.9911,9.5745-11.4894,1.2215-.8231,5.8546-3.8487,11.6808-3.0638,2.3731.3197,6.5999,1.4946,6.7021,3.2553.1202,2.0697-5.5833,2.7957-13.5957,7.9438-4.8247,3.0999-9.0375,6.8721-8.617,7.5583.5787.9443,9.0034-5.4763,22.4043-7.4595,4.0152-.5942,8.7491-.8303,13.9787-.0988,7.3167,1.0234,13.5593,3.6548,13.4043,4.3115-.0787.3333-1.8053.1596-15.5107-.9574-5.2097-.4246-8.5622-.6584-12.4468.9574-1.9036.7918-5.6512,2.7416-5.3617,4.2128.3694,1.8775,6.9154.9485,18,3.0638,4.9749.9494,9.0975,1.767,13.9787,4.2128,2.98,1.4931,8.2569,4.2154,12.0638,9.9574.5031.7588,5.7385,8.6555,3.0638,11.8723-2.0339,2.4463-7.5742.9018-8.0426.766-5.0914-1.4763-6.0845-5.1486-13.2128-8.234-1.9799-.857-3.4991-1.2645-4.5957-.5745-1.541.9697-.7678,3.1758-2.1064,5.3617-1.9182,3.1324-6.5204,3.5248-7.8511,3.6383-4.8356.4123-9.9973-1.9041-12.4468-5.7447-1.078-1.6901-.2773-1.5534-2.4893-7.8511-1.812-5.1588-2.826-6.6078-3.8298-7.6596-1.924-2.016-4.0714-2.8317-5.1702-3.2553-17.0269-6.5641-21.5215-12.1833-34.6596-12.2553-1.2069-.0066-6.3003.0127-12.6383,1.7234-7.7084,2.0805-14.9619,4.0383-17.2341,10.149-1.8924,5.0895.0858,11.9441,4.7872,15.5106,4.03,3.0572,9.6145,3.3598,13.5957,1.9149,3.7627-1.3656,5.5413-4.0918,7.2766-3.2553,1.4438.696.779,2.8564,2.2979,6.3192,1.3838,3.1547,4.3873,6.9509,6.5106,6.5107,2.0915-.4337,2.7929-4.8666,3.4468-9,.8234-5.2046.6584-9.561.383-12.4468"/>
    </g>
  </g>
</svg>