<svg width="561" height="268" viewBox="0 0 561 268" fill="none" xmlns="http://www.w3.org/2000/svg">
<path d="M549.906 10.248V11.568H555.09V6.384H553.794V7.68H552.498V8.952H551.202V10.248H549.906ZM555.09 1.2H557.682V11.568H560.25V14.112H557.682V18H555.09V14.112H544.746V11.544H546.042V10.248H547.338V8.952H548.634V7.656H549.906V6.36H551.202V5.088H552.498V3.792H553.794V2.496H555.09V1.2Z" fill="white"/>
<path d="M548.627 91.656H556.379V92.952H557.675V94.248H558.971V99.408H557.675V100.704H556.379V102H548.627V100.704H547.331V99.408H546.035V96.816H548.627V98.112H549.923V99.408H555.083V98.112H556.379V95.544H555.083V94.248H549.923V95.544H546.035V87.816H547.331V85.2H557.675V87.792H549.923V89.088H548.627V91.656Z" fill="white"/>
<path d="M548.271 178.544V181.112H549.567V182.408H553.431V181.112H554.727V178.544H553.431V177.248H549.567V178.544H548.271ZM546.975 182.408H545.679V170.792H546.975V169.496H548.271V168.2H554.727V169.496H556.023V170.792H557.319V173.384H554.727V172.088H553.431V170.792H549.567V172.088H548.271V175.952H549.567V174.656H554.727V175.952H556.023V177.248H557.319V182.408H556.023V183.704H554.727V185H548.271V183.704H546.975V182.408Z" fill="white"/>
<path d="M3.12456 2.792H4.42056V1.496H5.71656V0.199999H8.30856V14.408H10.8766V17H3.12456V14.408H5.71656V4.088H4.42056V5.384H3.12456V2.792Z" fill="white"/>
<path d="M3.61444 84.2H11.3904V85.496H12.6624V86.792H13.9584V90.656H12.6624V91.952H11.3904V93.248H10.0944V94.544H8.79844V95.84H7.50244V97.112H6.20644V98.408H13.9584V101H1.04644V98.408H2.31844V97.112H3.61444V95.816H4.91044V94.544H6.20644V93.248H7.50244V91.952H8.79844V90.656H10.0944V89.36H11.3664V88.088H10.0944V86.792H4.88644V88.088H3.59044V90.656H1.04644V86.792H2.31844V85.496H3.61444V84.2Z" fill="white"/>
<path d="M2.98697 181.408H1.69097V178.816H4.28297V180.112H5.55497V181.408H9.44297V180.112H10.739V178.84H9.44297V177.544H8.14697V176.248H4.25897V173.656H9.44297V172.36H10.739V171.088H9.44297V169.792H5.55497V171.088H4.25897V172.384H1.69097V169.792H2.98697V168.496H4.25897V167.2H10.739V168.496H12.035V169.792H13.307V173.656H12.035V174.952H10.739V176.248H12.035V177.544H13.307V181.408H12.035V182.704H10.739V184H4.25897V182.704H2.98697V181.408Z" fill="white"/>
<path d="M22.5 8H64L124 31" stroke="white" stroke-width="5"/>
<path d="M22 92.5H66L153.5 102.5" stroke="white" stroke-width="5"/>
<path d="M22 175H65.5L181 265.5" stroke="white" stroke-width="5"/>
<path d="M533.5 13H501L363.5 69.5" stroke="white" stroke-width="5"/>
<path d="M535 93H499.5L335 114" stroke="white" stroke-width="5"/>
<path d="M537.5 177.5H498.5L363.5 215.5" stroke="white" stroke-width="5"/>
</svg>
