<svg width="531" height="531" viewBox="0 0 531 531" fill="none" xmlns="http://www.w3.org/2000/svg">
<path d="M267.298 12.9439L266.027 12.9069L266.289 3.88674L267.561 3.92377L267.636 1.33286L268.932 1.37059L268.969 0.0751337L276.742 0.301458L276.704 1.59691L278 1.63463L277.924 4.22553L279.22 4.26325L279.145 6.83017L276.554 6.75472L276.592 5.45927L275.296 5.42155L275.371 2.85464L270.189 2.70376L270.115 5.27067L268.819 5.23295L268.631 11.6862L269.927 11.7239L269.851 14.3148L275.033 14.4657L275.108 11.8988L276.403 11.9365L276.441 10.6411L279.032 10.7165L278.957 13.2834L277.662 13.2457L277.586 15.8366L276.291 15.7989L276.253 17.0943L268.504 16.8687L268.542 15.5733L267.223 15.5348L267.298 12.9439ZM281.51 0.498475L284.094 0.711449L283.033 13.5798L284.324 13.6863L284.218 14.9779L288.069 15.2954L288.175 14.0038L289.443 14.1083L290.504 1.23994L293.087 1.45291L291.92 15.6129L290.628 15.5064L290.522 16.798L289.254 16.6935L289.147 17.9851L282.689 17.4527L282.796 16.1611L281.528 16.0565L281.635 14.7649L280.343 14.6584L281.51 0.498475ZM295.287 1.69489L304.25 2.92939L304.073 4.21327L305.357 4.39009L305.181 5.67397L306.464 5.8508L305.937 9.67866L304.653 9.50184L304.3 12.0696L305.584 12.2464L305.407 13.5303L306.691 13.7071L306.163 17.535L304.88 17.3582L304.703 18.6421L303.419 18.4652L303.242 19.7491L292.995 18.3378L295.287 1.69489ZM297.501 4.6163L296.797 9.72805L301.909 10.4321L302.086 9.14819L303.369 9.32501L303.72 6.78103L302.436 6.6042L302.613 5.32032L297.501 4.6163ZM296.443 12.2958L295.916 16.1237L302.312 17.0045L302.489 15.7206L303.772 15.8975L303.946 14.6374L302.662 14.4605L302.839 13.1767L296.443 12.2958ZM310.274 3.81971L321.702 6.03281L321.209 8.57753L312.326 6.85724L311.591 10.6508L319.202 12.1246L318.709 14.6694L311.098 13.1955L310.117 18.2614L319 19.9816L318.508 22.5264L307.08 20.3133L310.274 3.81971ZM329.051 21.0795L327.827 20.7338L330.279 12.0494L331.503 12.3951L332.208 9.90069L333.455 10.2529L333.807 9.00569L341.29 11.119L340.938 12.3662L342.185 12.7184L341.481 15.2129L342.728 15.5651L342.03 18.0364L339.536 17.332L339.888 16.0848L338.641 15.7326L339.339 13.2612L334.35 11.8523L333.652 14.3237L332.405 13.9715L330.65 20.1845L331.897 20.5367L331.193 23.0311L336.182 24.44L336.88 21.9687L338.127 22.3209L338.479 21.0737L340.974 21.7781L340.276 24.2494L339.029 23.8972L338.324 26.3917L337.077 26.0394L336.725 27.2867L329.264 25.1799L329.617 23.9327L328.346 23.5739L329.051 21.0795ZM345.909 12.488L348.36 13.3305L344.163 25.5413L345.389 25.9626L344.968 27.1882L348.622 28.4442L349.043 27.2185L350.246 27.632L354.443 15.4211L356.894 16.2636L352.276 29.7001L351.05 29.2789L350.629 30.5045L349.426 30.091L349.005 31.3167L342.877 29.2104L343.298 27.9848L342.095 27.5714L342.516 26.3457L341.291 25.9245L345.909 12.488ZM358.971 17.0417L367.353 20.4476L366.865 21.6482L368.066 22.1361L367.578 23.3368L368.779 23.8246L367.324 27.4044L366.124 26.9165L365.148 29.3179L366.349 29.8057L365.861 31.0064L367.062 31.4943L365.607 35.0741L364.406 34.5862L363.918 35.7869L362.718 35.299L362.23 36.4997L352.647 32.606L358.971 17.0417ZM360.396 20.4187L358.454 25.1992L363.234 27.1415L363.722 25.9409L364.923 26.4287L365.89 24.0496L364.689 23.5617L365.177 22.3611L360.396 20.4187ZM357.478 27.6005L356.024 31.1803L362.005 33.6105L362.493 32.4098L363.693 32.8977L364.172 31.7193L362.972 31.2314L363.459 30.0307L357.478 27.6005ZM372.971 22.7951L383.501 27.7564L382.396 30.1012L374.211 26.2446L372.564 29.7401L379.577 33.0442L378.472 35.389L371.46 32.0848L369.26 36.7527L377.445 40.6092L376.34 42.9539L365.811 37.9926L372.971 22.7951ZM386.918 44.1505L385.818 43.5128L390.342 35.7047L391.442 36.3424L392.742 34.0996L393.863 34.7494L394.513 33.628L401.241 37.5263L400.592 38.6477L401.713 39.2974L400.413 41.5401L401.535 42.1899L400.247 44.4118L398.005 43.1124L398.654 41.991L397.533 41.3413L398.82 39.1193L394.335 36.5204L393.048 38.7424L391.926 38.0927L388.69 43.6788L389.811 44.3285L388.511 46.5713L392.997 49.1702L394.284 46.9482L395.406 47.5979L396.055 46.4765L398.298 47.776L397.011 49.9979L395.889 49.3482L394.59 51.591L393.469 50.9413L392.819 52.0626L386.111 48.1763L386.761 47.055L385.619 46.3932L386.918 44.1505ZM405.354 39.9785L407.524 41.3973L400.456 52.203L401.54 52.9124L400.831 53.997L404.064 56.1122L404.774 55.0276L405.838 55.7239L412.906 44.9182L415.076 46.3371L407.298 58.2273L406.213 57.5179L405.504 58.6025L404.439 57.9062L403.73 58.9907L398.307 55.4436L399.017 54.359L397.952 53.6627L398.661 52.5781L397.577 51.8687L405.354 39.9785ZM416.882 47.5892L424.177 52.9415L423.41 53.9865L424.455 54.7531L423.689 55.798L424.734 56.5647L422.448 59.6801L421.403 58.9135L419.87 61.0033L420.915 61.77L420.148 62.8149L421.193 63.5815L418.907 66.697L417.862 65.9303L417.096 66.9752L416.051 66.2086L415.284 67.2535L406.944 61.1346L416.882 47.5892ZM417.438 51.2124L414.386 55.3727L418.546 58.4251L419.313 57.3802L420.358 58.1468L421.877 56.0763L420.832 55.3097L421.599 54.2647L417.438 51.2124ZM412.853 57.4626L410.567 60.578L415.772 64.397L416.539 63.3521L417.584 64.1188L418.336 63.0932L417.291 62.3265L418.058 61.2816L412.853 57.4626ZM429.048 56.5896L438.047 63.9735L436.402 65.9773L429.408 60.2376L426.957 63.2246L432.949 68.1422L431.305 70.1459L425.312 65.2283L422.039 69.2172L429.034 74.9569L427.389 76.9606L418.391 69.5767L429.048 56.5896ZM437.34 80.7203L436.428 79.8335L442.719 73.3643L443.631 74.2511L445.438 72.3929L446.367 73.2965L447.271 72.3674L452.845 77.7887L451.942 78.7178L452.871 79.6213L451.064 81.4795L451.993 82.3831L450.202 84.224L448.344 82.4169L449.248 81.4878L448.319 80.5843L450.109 78.7433L446.393 75.1291L444.602 76.9701L443.673 76.0665L439.172 80.6948L440.101 81.5983L438.294 83.4565L442.01 87.0707L443.801 85.2297L444.73 86.1333L445.633 85.2042L447.492 87.0113L445.701 88.8523L444.772 87.9487L442.965 89.8069L442.036 88.9033L441.132 89.8324L435.575 84.4278L436.479 83.4987L435.532 82.5785L437.34 80.7203ZM456.23 81.1627L457.989 83.0667L448.504 91.8279L449.384 92.7799L448.432 93.6592L451.053 96.4976L452.005 95.6183L452.868 96.5526L462.353 87.7914L464.112 89.6954L453.675 99.336L452.796 98.384L451.844 99.2634L450.981 98.329L450.029 99.2084L445.632 94.4484L446.584 93.569L445.721 92.6346L446.673 91.7552L445.793 90.8032L456.23 81.1627ZM465.566 91.3577L471.335 98.3276L470.337 99.154L471.163 100.152L470.165 100.979L470.991 101.977L468.015 104.441L467.188 103.443L465.192 105.095L466.018 106.094L465.02 106.92L465.846 107.918L462.87 110.382L462.043 109.384L461.045 110.21L460.219 109.212L459.22 110.038L452.624 102.07L465.566 91.3577ZM465.222 95.0072L461.247 98.2974L464.537 102.272L465.536 101.446L466.362 102.444L468.34 100.807L467.514 99.8084L468.512 98.982L465.222 95.0072ZM459.25 99.9502L456.274 102.414L460.39 107.387L461.389 106.561L462.215 107.559L463.195 106.748L462.369 105.75L463.367 104.923L459.25 99.9502ZM475.179 103.068L482.095 112.43L480.01 113.971L474.635 106.693L471.527 108.989L476.132 115.224L474.048 116.764L469.442 110.529L465.291 113.594L470.667 120.872L468.582 122.412L461.666 113.05L475.179 103.068ZM477.322 128.475L476.653 127.393L484.327 122.646L484.996 123.727L487.201 122.364L487.882 123.466L488.985 122.784L493.075 129.397L491.973 130.079L492.655 131.181L490.451 132.545L491.133 133.647L488.949 134.998L487.585 132.793L488.687 132.112L488.005 131.009L490.189 129.658L487.462 125.25L485.278 126.601L484.596 125.499L479.106 128.895L479.788 129.997L477.584 131.361L480.311 135.77L482.495 134.419L483.177 135.521L484.279 134.839L485.642 137.043L483.459 138.394L482.777 137.292L480.572 138.656L479.891 137.554L478.788 138.235L474.71 131.643L475.812 130.961L475.118 129.839L477.322 128.475ZM495.551 133.514L496.791 135.79L485.454 141.969L486.074 143.107L484.936 143.727L486.785 147.12L487.923 146.5L488.532 147.617L499.869 141.438L501.109 143.713L488.634 150.513L488.014 149.375L486.876 149.995L486.267 148.878L485.129 149.498L482.028 143.808L483.166 143.188L482.557 142.071L483.695 141.451L483.075 140.313L495.551 133.514ZM502.126 145.711L506.002 153.886L504.831 154.441L505.387 155.612L504.216 156.168L504.771 157.339L501.279 158.994L500.724 157.823L498.382 158.933L498.937 160.105L497.766 160.66L498.321 161.831L494.83 163.486L494.275 162.315L493.104 162.87L492.548 161.699L491.377 162.255L486.946 152.908L502.126 145.711ZM500.894 149.163L496.232 151.374L498.443 156.036L499.614 155.481L500.169 156.652L502.489 155.552L501.934 154.381L503.105 153.826L500.894 149.163ZM493.89 152.484L490.398 154.14L493.164 159.973L494.335 159.418L494.891 160.589L496.04 160.044L495.485 158.873L496.656 158.318L493.89 152.484ZM508.554 159.407L512.966 170.178L510.568 171.161L507.138 162.788L503.563 164.253L506.501 171.426L504.102 172.409L501.164 165.235L496.389 167.191L499.819 175.564L497.42 176.546L493.008 165.775L508.554 159.407ZM504.408 184.57L504.025 183.357L512.631 180.642L513.014 181.855L515.486 181.076L515.876 182.312L517.112 181.922L519.451 189.338L518.215 189.728L518.604 190.964L516.132 191.743L516.522 192.979L514.073 193.752L513.293 191.28L514.529 190.89L514.14 189.654L516.589 188.882L515.03 183.938L512.58 184.71L512.191 183.474L506.034 185.416L506.423 186.652L503.951 187.431L505.511 192.375L507.96 191.603L508.35 192.839L509.585 192.449L510.365 194.921L507.916 195.694L507.526 194.458L505.054 195.237L504.664 194.001L503.428 194.391L501.097 186.998L502.333 186.608L501.936 185.349L504.408 184.57ZM520.842 193.96L521.481 196.472L508.967 199.655L509.287 200.911L508.031 201.231L508.983 204.975L510.239 204.656L510.553 205.889L523.066 202.706L523.705 205.218L509.936 208.72L509.616 207.464L508.36 207.784L508.047 206.551L506.791 206.87L505.193 200.59L506.449 200.271L506.136 199.038L507.392 198.719L507.072 197.463L520.842 193.96ZM524.194 207.386L525.937 216.265L524.666 216.514L524.915 217.786L523.644 218.036L523.894 219.308L520.102 220.052L519.852 218.78L517.309 219.28L517.559 220.552L516.287 220.801L516.537 222.073L512.745 222.818L512.495 221.546L511.224 221.796L510.974 220.524L509.702 220.774L507.709 210.624L524.194 207.386ZM522.15 210.429L517.087 211.424L518.081 216.487L519.353 216.237L519.602 217.509L522.122 217.014L521.873 215.742L523.144 215.492L522.15 210.429ZM514.543 211.923L510.752 212.668L511.996 219.003L513.267 218.753L513.517 220.025L514.765 219.779L514.516 218.508L515.787 218.258L514.543 211.923ZM527.051 222.247L528.673 233.773L526.106 234.134L524.846 225.175L521.019 225.713L522.099 233.389L519.533 233.75L518.453 226.074L513.343 226.793L514.603 235.752L512.037 236.114L510.415 224.587L527.051 222.247ZM516.834 245.608L516.761 244.338L525.77 243.822L525.843 245.092L528.43 244.943L528.505 246.237L529.799 246.163L530.244 253.926L528.95 254L529.024 255.294L526.436 255.443L526.51 256.737L523.947 256.884L523.798 254.296L525.092 254.222L525.018 252.928L527.582 252.781L527.285 247.605L524.721 247.752L524.647 246.458L518.202 246.828L518.276 248.122L515.688 248.27L515.985 253.446L518.548 253.299L518.623 254.592L519.917 254.518L520.065 257.106L517.501 257.253L517.427 255.959L514.839 256.107L514.765 254.814L513.471 254.888L513.027 247.148L514.321 247.074L514.246 245.756L516.834 245.608ZM530.458 258.715L530.465 261.307L517.553 261.344L517.557 262.64L516.261 262.644L516.272 266.508L517.568 266.504L517.572 267.776L530.484 267.739L530.491 270.331L516.283 270.372L516.279 269.076L514.983 269.079L514.98 267.807L513.684 267.811L513.665 261.331L514.961 261.327L514.958 260.055L516.254 260.052L516.25 258.756L530.458 258.715ZM530.438 272.532L529.976 281.569L528.681 281.502L528.615 282.797L527.321 282.731L527.255 284.025L523.396 283.828L523.462 282.533L520.873 282.401L520.807 283.695L519.513 283.629L519.447 284.923L515.588 284.726L515.654 283.432L514.36 283.366L514.426 282.071L513.132 282.005L513.66 271.675L530.438 272.532ZM527.717 274.989L522.564 274.725L522.3 279.878L523.594 279.945L523.528 281.239L526.093 281.37L526.159 280.076L527.453 280.142L527.717 274.989ZM519.975 274.593L516.116 274.396L515.786 280.843L517.081 280.909L517.014 282.204L518.285 282.269L518.351 280.974L519.645 281.04L519.975 274.593ZM529.605 287.646L528.38 299.221L525.802 298.949L526.755 289.951L522.912 289.544L522.096 297.253L519.518 296.98L520.334 289.271L515.203 288.728L514.251 297.726L511.673 297.453L512.898 285.878L529.605 287.646ZM514.013 307.831L514.252 306.582L523.115 308.277L522.877 309.526L525.422 310.013L525.179 311.286L526.452 311.529L524.991 319.167L523.718 318.924L523.475 320.197L520.929 319.71L520.686 320.983L518.163 320.5L518.65 317.954L519.923 318.198L520.167 316.925L522.689 317.407L523.663 312.316L521.14 311.833L521.384 310.56L515.043 309.348L514.799 310.62L512.253 310.134L511.28 315.225L513.802 315.708L513.558 316.981L514.831 317.224L514.344 319.77L511.822 319.288L512.066 318.015L509.52 317.528L509.763 316.255L508.49 316.011L509.946 308.397L511.219 308.641L511.467 307.344L514.013 307.831ZM524.031 323.868L523.405 326.383L510.875 323.268L510.562 324.526L509.304 324.213L508.372 327.963L509.63 328.276L509.323 329.51L521.854 332.625L521.228 335.141L507.44 331.713L507.753 330.455L506.495 330.143L506.802 328.908L505.544 328.596L507.107 322.307L508.365 322.62L508.672 321.385L509.93 321.698L510.242 320.44L524.031 323.868ZM520.637 337.271L517.979 345.92L516.74 345.539L516.359 346.778L515.121 346.397L514.74 347.636L511.046 346.501L511.427 345.262L508.949 344.501L508.569 345.74L507.33 345.359L506.949 346.598L503.256 345.463L503.636 344.224L502.398 343.843L502.778 342.604L501.539 342.224L504.578 332.336L520.637 337.271ZM517.398 338.987L512.465 337.472L510.95 342.404L512.188 342.785L511.808 344.023L514.262 344.778L514.643 343.539L515.882 343.92L517.398 338.987ZM509.988 336.71L506.294 335.575L504.398 341.746L505.637 342.127L505.256 343.366L506.472 343.739L506.852 342.501L508.091 342.881L509.988 336.71ZM516.12 351.753L512.079 362.669L509.648 361.77L512.79 353.284L509.166 351.943L506.475 359.213L504.044 358.313L506.735 351.043L501.896 349.252L498.755 357.737L496.324 356.837L500.365 345.921L516.12 351.753ZM496.033 367.471L496.573 366.319L504.745 370.146L504.206 371.298L506.553 372.397L506.004 373.571L507.177 374.12L503.88 381.163L502.706 380.613L502.157 381.787L499.809 380.688L499.26 381.861L496.934 380.772L498.033 378.425L499.207 378.975L499.757 377.801L502.082 378.89L504.28 374.195L501.955 373.106L502.504 371.932L496.658 369.195L496.108 370.368L493.761 369.269L491.562 373.964L493.888 375.053L493.338 376.227L494.512 376.776L493.413 379.124L491.087 378.035L491.637 376.861L489.289 375.762L489.839 374.588L488.665 374.039L491.953 367.018L493.126 367.568L493.686 366.372L496.033 367.471ZM501.793 385.479L500.567 387.763L489.189 381.659L488.576 382.801L487.434 382.188L485.608 385.593L486.75 386.206L486.148 387.327L497.526 393.431L496.301 395.715L483.781 388.998L484.394 387.856L483.252 387.243L483.853 386.123L482.711 385.51L485.774 379.8L486.916 380.412L487.518 379.292L488.66 379.904L489.272 378.762L501.793 385.479ZM495.192 397.65L490.478 405.373L489.372 404.698L488.697 405.804L487.591 405.129L486.915 406.235L483.617 404.222L484.293 403.116L482.08 401.765L481.405 402.872L480.299 402.196L479.624 403.303L476.325 401.289L477.001 400.183L475.894 399.508L476.57 398.402L475.463 397.726L480.853 388.897L495.192 397.65ZM491.63 398.512L487.225 395.824L484.537 400.228L485.643 400.903L484.968 402.01L487.16 403.348L487.835 402.241L488.941 402.917L491.63 398.512ZM485.013 394.473L481.715 392.46L478.351 397.971L479.457 398.646L478.782 399.752L479.868 400.415L480.543 399.309L481.649 399.984L485.013 394.473ZM487.254 410.54L480.658 420.13L478.522 418.661L483.65 411.207L480.466 409.017L476.073 415.404L473.937 413.935L478.33 407.548L474.079 404.624L468.951 412.079L466.816 410.61L473.412 401.019L487.254 410.54ZM468.924 424.948L469.743 423.944L471.733 425.567L470.095 427.576L468.105 425.953L467.301 426.938L465.292 425.3L464.473 426.304L462.465 424.666L460.826 426.674L462.835 428.312L462.016 429.317L464.024 430.955L463.205 431.959L465.195 433.583L463.571 435.573L461.581 433.949L462.386 432.964L460.377 431.325L461.196 430.321L459.188 428.682L460.007 427.678L458.017 426.055L458.836 425.051L456.828 423.412L458.466 421.404L460.475 423.042L461.294 422.038L463.284 423.661L464.103 422.657L466.112 424.296L466.916 423.31L468.924 424.948ZM449.812 437.357L450.699 436.445L457.168 442.736L456.281 443.648L458.139 445.455L457.235 446.384L458.165 447.288L452.743 452.862L451.814 451.959L450.91 452.888L449.052 451.081L448.149 452.01L446.308 450.219L448.115 448.361L449.044 449.265L449.948 448.336L451.788 450.126L455.403 446.41L453.562 444.619L454.465 443.69L449.837 439.189L448.934 440.118L447.076 438.311L443.461 442.027L445.302 443.818L444.399 444.747L445.328 445.65L443.521 447.509L441.68 445.718L442.583 444.789L440.725 442.982L441.629 442.053L440.7 441.149L446.104 435.592L447.034 436.496L447.954 435.549L449.812 437.357ZM449.369 456.247L447.465 458.006L438.704 448.521L437.752 449.4L436.873 448.448L434.034 451.07L434.913 452.022L433.979 452.885L442.74 462.37L440.836 464.129L431.196 453.692L432.148 452.812L431.268 451.86L432.203 450.997L431.323 450.045L436.084 445.648L436.963 446.6L437.897 445.737L438.777 446.689L439.729 445.81L449.369 456.247ZM439.173 465.582L432.203 471.352L431.377 470.353L430.378 471.18L429.552 470.181L428.554 471.007L426.09 468.031L427.088 467.204L425.436 465.208L424.437 466.034L423.611 465.036L422.613 465.862L420.149 462.885L421.147 462.059L420.321 461.061L421.319 460.234L420.493 459.236L428.462 452.64L439.173 465.582ZM435.524 465.238L432.234 461.263L428.259 464.553L429.085 465.552L428.087 466.378L429.724 468.356L430.723 467.53L431.549 468.528L435.524 465.238ZM430.581 459.267L428.118 456.29L423.144 460.406L423.97 461.405L422.972 462.231L423.783 463.211L424.781 462.385L425.608 463.383L430.581 459.267ZM427.463 475.195L418.1 482.111L416.56 480.026L423.838 474.65L421.542 471.542L415.307 476.148L413.767 474.063L420.003 469.457L416.937 465.307L409.659 470.682L408.119 468.597L417.482 461.682L427.463 475.195ZM402.056 477.337L403.137 476.668L407.885 484.342L406.803 485.011L408.167 487.216L407.064 487.897L407.746 489L401.133 493.09L400.451 491.988L399.349 492.67L397.986 490.466L396.883 491.147L395.533 488.963L397.737 487.6L398.419 488.702L399.521 488.02L400.872 490.204L405.28 487.477L403.93 485.293L405.032 484.611L401.635 479.121L400.533 479.803L399.17 477.598L394.761 480.325L396.112 482.509L395.01 483.191L395.691 484.293L393.487 485.657L392.136 483.473L393.238 482.791L391.875 480.587L392.977 479.905L392.295 478.803L398.888 474.725L399.57 475.827L400.692 475.133L402.056 477.337ZM397.016 495.565L394.74 496.806L388.562 485.468L387.424 486.088L386.804 484.95L383.411 486.799L384.031 487.937L382.914 488.545L389.092 499.883L386.816 501.124L380.018 488.648L381.156 488.028L380.536 486.89L381.652 486.281L381.032 485.143L386.722 482.042L387.342 483.18L388.459 482.572L389.08 483.71L390.218 483.089L397.016 495.565ZM384.819 502.14L376.643 506.016L376.088 504.845L374.917 505.4L374.362 504.229L373.191 504.784L371.536 501.293L372.707 500.738L371.596 498.395L370.425 498.951L369.87 497.78L368.699 498.335L367.044 494.843L368.215 494.288L367.66 493.117L368.831 492.562L368.275 491.391L377.622 486.96L384.819 502.14ZM381.367 500.908L379.156 496.246L374.494 498.456L375.049 499.627L373.878 500.182L374.978 502.503L376.149 501.948L376.704 503.119L381.367 500.908ZM378.046 493.904L376.391 490.412L370.557 493.178L371.112 494.349L369.941 494.904L370.486 496.053L371.657 495.498L372.212 496.669L378.046 493.904ZM371.123 508.568L360.351 512.979L359.369 510.581L367.742 507.151L366.277 503.576L359.103 506.514L358.121 504.115L365.295 501.177L363.339 496.402L354.966 499.831L353.984 497.433L364.755 493.021L371.123 508.568ZM345.96 504.42L347.173 504.038L349.887 512.644L348.674 513.026L349.453 515.499L348.217 515.888L348.607 517.124L341.191 519.463L340.801 518.227L339.565 518.616L338.786 516.144L337.55 516.534L336.777 514.085L339.249 513.305L339.639 514.541L340.875 514.152L341.647 516.601L346.591 515.042L345.819 512.593L347.055 512.203L345.114 506.046L343.878 506.436L343.098 503.964L338.154 505.523L338.927 507.972L337.691 508.361L338.08 509.597L335.608 510.377L334.836 507.928L336.072 507.538L335.293 505.066L336.529 504.676L336.139 503.44L343.532 501.109L343.922 502.345L345.181 501.948L345.96 504.42ZM336.569 520.854L334.057 521.493L330.874 508.979L329.618 509.298L329.299 508.042L325.554 508.995L325.873 510.251L324.641 510.564L327.823 523.078L325.311 523.717L321.809 509.947L323.065 509.628L322.746 508.372L323.979 508.058L323.659 506.802L329.939 505.205L330.259 506.461L331.491 506.147L331.811 507.403L333.067 507.084L336.569 520.854ZM323.143 524.205L314.264 525.948L314.015 524.677L312.743 524.926L312.493 523.655L311.222 523.904L310.477 520.113L311.749 519.863L311.249 517.32L309.978 517.569L309.728 516.297L308.456 516.547L307.712 512.756L308.983 512.506L308.734 511.234L310.005 510.984L309.756 509.713L319.906 507.72L323.143 524.205ZM320.1 522.161L319.106 517.098L314.042 518.092L314.292 519.364L313.02 519.613L313.515 522.133L314.787 521.883L315.037 523.155L320.1 522.161ZM318.606 514.554L317.862 510.763L311.527 512.006L311.777 513.278L310.505 513.528L310.75 514.776L312.022 514.526L312.271 515.798L318.606 514.554ZM308.282 527.062L296.755 528.683L296.395 526.116L305.354 524.856L304.816 521.03L297.14 522.11L296.779 519.543L304.455 518.463L303.737 513.353L294.777 514.614L294.416 512.047L305.942 510.426L308.282 527.062ZM284.921 516.843L286.191 516.77L286.707 525.78L285.437 525.852L285.586 528.44L284.292 528.514L284.366 529.808L276.603 530.253L276.528 528.959L275.235 529.033L275.086 526.445L273.792 526.52L273.646 523.956L276.233 523.808L276.307 525.101L277.601 525.027L277.748 527.591L282.924 527.295L282.777 524.731L284.071 524.657L283.701 518.211L282.408 518.285L282.259 515.698L277.084 515.994L277.231 518.558L275.937 518.632L276.011 519.926L273.423 520.074L273.276 517.51L274.57 517.436L274.422 514.848L275.716 514.774L275.642 513.48L283.381 513.037L283.455 514.331L284.773 514.255L284.921 516.843ZM271.814 530.467L269.222 530.474L269.186 517.562L267.89 517.566L267.886 516.27L264.022 516.281L264.026 517.577L262.754 517.58L262.79 530.492L260.198 530.5L260.158 516.292L261.454 516.288L261.45 514.992L262.722 514.988L262.719 513.692L269.199 513.674L269.202 514.97L270.474 514.967L270.478 516.263L271.774 516.259L271.814 530.467ZM257.996 530.446L248.96 529.984L249.026 528.69L247.732 528.623L247.798 527.329L246.504 527.263L246.701 523.404L247.996 523.47L248.128 520.881L246.834 520.815L246.9 519.521L245.606 519.455L245.803 515.596L247.098 515.662L247.164 514.368L248.458 514.434L248.525 513.14L258.855 513.668L257.996 530.446ZM255.54 527.725L255.804 522.572L250.651 522.308L250.584 523.603L249.29 523.536L249.159 526.101L250.453 526.167L250.387 527.462L255.54 527.725ZM255.936 519.983L256.134 516.125L249.686 515.794L249.62 517.089L248.326 517.023L248.261 518.293L249.555 518.359L249.489 519.653L255.936 519.983ZM242.883 529.613L231.308 528.387L231.581 525.81L240.578 526.762L240.985 522.92L233.276 522.103L233.549 519.526L241.258 520.342L241.801 515.211L232.804 514.258L233.077 511.681L244.652 512.906L242.883 529.613ZM222.698 514.02L223.948 514.259L222.252 523.122L221.003 522.883L220.516 525.429L219.243 525.186L218.999 526.459L211.362 524.998L211.605 523.725L210.333 523.481L210.819 520.936L209.547 520.692L210.029 518.17L212.575 518.657L212.331 519.93L213.604 520.173L213.122 522.695L218.214 523.669L218.696 521.147L219.969 521.391L221.182 515.05L219.909 514.806L220.396 512.26L215.304 511.286L214.822 513.809L213.549 513.565L213.305 514.838L210.759 514.351L211.242 511.829L212.515 512.072L213.002 509.526L214.275 509.77L214.518 508.497L222.132 509.953L221.889 511.226L223.185 511.474L222.698 514.02ZM206.661 524.037L204.146 523.412L207.261 510.881L206.004 510.568L206.316 509.311L202.567 508.378L202.254 509.636L201.019 509.329L197.904 521.86L195.389 521.234L198.817 507.446L200.074 507.759L200.387 506.501L201.622 506.808L201.934 505.55L208.223 507.114L207.91 508.371L209.144 508.678L208.832 509.936L210.089 510.249L206.661 524.037ZM193.258 520.642L184.609 517.984L184.99 516.745L183.751 516.365L184.132 515.126L182.893 514.745L184.028 511.052L185.267 511.432L186.029 508.955L184.79 508.574L185.171 507.335L183.932 506.954L185.067 503.261L186.306 503.642L186.687 502.403L187.925 502.784L188.306 501.545L198.194 504.584L193.258 520.642ZM191.542 517.403L193.058 512.471L188.126 510.955L187.745 512.194L186.506 511.813L185.752 514.268L186.99 514.649L186.61 515.887L191.542 517.403ZM193.819 509.993L194.955 506.3L188.784 504.403L188.403 505.642L187.164 505.261L186.79 506.477L188.029 506.858L187.648 508.097L193.819 509.993ZM178.776 516.125L167.86 512.084L168.76 509.653L177.245 512.794L178.587 509.171L171.317 506.479L172.217 504.049L179.487 506.74L181.278 501.901L172.793 498.76L173.693 496.329L184.609 500.37L178.776 516.125ZM163.059 496.038L164.211 496.577L160.384 504.75L159.232 504.21L158.133 506.558L156.959 506.008L156.409 507.182L149.367 503.884L149.917 502.71L148.743 502.161L149.842 499.813L148.669 499.264L149.758 496.938L152.105 498.037L151.556 499.211L152.729 499.761L151.64 502.086L156.335 504.285L157.424 501.959L158.598 502.509L161.335 496.662L160.162 496.112L161.261 493.765L156.566 491.566L155.477 493.892L154.304 493.343L153.754 494.516L151.407 493.417L152.496 491.091L153.669 491.641L154.768 489.294L155.942 489.843L156.492 488.669L163.512 491.957L162.963 493.131L164.158 493.69L163.059 496.038ZM145.051 501.796L142.767 500.571L148.871 489.193L147.729 488.58L148.342 487.438L144.937 485.611L144.324 486.753L143.204 486.152L137.099 497.53L134.815 496.304L141.532 483.785L142.674 484.397L143.287 483.255L144.408 483.857L145.021 482.715L150.731 485.778L150.118 486.92L151.239 487.522L150.626 488.664L151.768 489.276L145.051 501.796ZM132.88 495.196L125.157 490.481L125.832 489.375L124.726 488.7L125.401 487.593L124.295 486.918L126.309 483.62L127.415 484.295L128.765 482.083L127.659 481.408L128.335 480.302L127.228 479.626L129.242 476.328L130.348 477.004L131.023 475.897L132.129 476.573L132.805 475.467L141.633 480.856L132.88 495.196ZM132.018 491.633L134.707 487.228L130.302 484.54L129.627 485.646L128.521 484.971L127.183 487.163L128.289 487.838L127.614 488.944L132.018 491.633ZM136.057 485.016L138.071 481.718L132.56 478.354L131.885 479.46L130.779 478.785L130.116 479.871L131.222 480.546L130.547 481.652L136.057 485.016ZM119.991 487.257L110.401 480.66L111.87 478.525L119.324 483.652L121.514 480.469L115.127 476.075L116.596 473.94L122.983 478.333L125.908 474.082L118.453 468.954L119.922 466.818L129.512 473.415L119.991 487.257ZM109.683 463.939L110.668 464.743L104.963 471.735L103.978 470.93L102.339 472.939L101.335 472.119L100.515 473.123L94.4906 468.207L95.3099 467.203L94.3058 466.384L95.9445 464.376L94.9403 463.556L96.5638 461.567L98.5721 463.205L97.7528 464.209L98.7569 465.029L97.1334 467.018L101.15 470.296L102.773 468.306L103.778 469.126L107.859 464.123L106.855 463.304L108.494 461.296L104.477 458.018L102.854 460.008L101.849 459.189L101.03 460.193L99.0219 458.554L100.645 456.565L101.65 457.384L103.288 455.376L104.292 456.195L105.112 455.191L111.118 460.092L110.299 461.096L111.321 461.93L109.683 463.939ZM90.7935 465.109L88.8805 463.361L97.5926 453.831L96.6361 452.956L97.5105 452L94.6586 449.393L93.7842 450.349L92.8454 449.491L84.1332 459.021L82.2202 457.272L91.8067 446.785L92.7633 447.66L93.6377 446.703L94.5765 447.562L95.451 446.605L100.234 450.977L99.3592 451.934L100.298 452.792L99.4236 453.749L100.38 454.623L90.7935 465.109ZM80.6342 455.741L74.2957 449.284L75.2206 448.377L74.3127 447.452L75.2375 446.544L74.3296 445.619L77.087 442.912L77.9949 443.837L79.8446 442.021L78.9367 441.096L79.8616 440.188L78.9537 439.264L81.7111 436.557L82.619 437.482L83.5439 436.574L84.4517 437.498L85.3766 436.591L92.6229 443.972L80.6342 455.741ZM80.6681 452.076L84.3503 448.461L80.7356 444.779L79.8107 445.687L78.9028 444.762L77.0703 446.561L77.9782 447.486L77.0533 448.393L80.6681 452.076ZM86.2 446.645L88.9575 443.938L84.4348 439.331L83.5099 440.239L82.6021 439.314L81.6943 440.205L82.6022 441.13L81.6774 442.038L86.2 446.645ZM70.0823 444.908L62.3843 436.177L64.3285 434.463L70.3123 441.25L73.2106 438.695L68.0839 432.88L70.0281 431.166L75.1548 436.98L79.0253 433.568L73.0415 426.781L74.9857 425.067L82.6837 433.798L70.0823 444.908ZM65.7479 419.777L66.5059 420.798L59.2589 426.175L58.5009 425.154L56.4193 426.698L55.6471 425.658L54.6063 426.43L49.9728 420.185L51.0136 419.413L50.2414 418.372L52.323 416.828L51.5507 415.787L53.613 414.257L55.1575 416.338L54.1167 417.11L54.889 418.151L52.8267 419.681L55.9156 423.845L57.9779 422.314L58.7502 423.355L63.9349 419.508L63.1626 418.467L65.2442 416.923L62.1553 412.76L60.0929 414.29L59.3207 413.249L58.2799 414.021L56.7354 411.94L58.7977 410.41L59.57 411.45L61.6516 409.906L62.4238 410.947L63.4646 410.175L68.0838 416.4L67.043 417.172L67.8295 418.232L65.7479 419.777ZM47.1696 416.308L45.7395 414.146L56.5082 407.022L55.7931 405.941L56.874 405.226L54.742 402.003L53.6611 402.718L52.9593 401.657L42.1906 408.782L40.7605 406.62L52.61 398.78L53.3251 399.861L54.406 399.146L55.1078 400.207L56.1887 399.492L59.7641 404.896L58.6832 405.611L59.385 406.672L58.3041 407.387L59.0192 408.468L47.1696 416.308ZM39.5967 404.753L35.0175 396.95L36.1352 396.294L35.4793 395.176L36.5971 394.52L35.9412 393.402L39.2738 391.447L39.9297 392.565L42.1652 391.253L41.5093 390.135L42.6271 389.479L41.9711 388.361L45.3037 386.406L45.9596 387.524L47.0774 386.868L47.7333 387.985L48.8511 387.329L54.0862 396.251L39.5967 404.753ZM40.5204 401.206L44.9708 398.595L42.3593 394.144L41.2415 394.8L40.5856 393.682L38.3708 394.982L39.0267 396.1L37.9089 396.756L40.5204 401.206ZM47.2063 397.283L50.5389 395.327L47.2715 389.759L46.1537 390.415L45.4978 389.297L44.4007 389.941L45.0566 391.059L43.9389 391.715L47.2063 397.283ZM31.9859 391.664L26.652 381.318L28.9559 380.13L33.102 388.172L36.5364 386.402L32.9842 379.512L35.288 378.324L38.8403 385.214L43.4267 382.85L39.2805 374.807L41.5844 373.62L46.9182 383.966L31.9859 391.664ZM33.9414 366.219L34.4258 367.395L26.0821 370.832L25.5976 369.656L23.2009 370.643L22.7073 369.445L21.509 369.939L18.5472 362.749L19.7455 362.255L19.2519 361.057L21.6485 360.069L21.1549 358.871L23.5293 357.893L24.5166 360.29L23.3183 360.783L23.8119 361.982L21.4375 362.96L23.412 367.753L25.7864 366.775L26.2801 367.973L32.2494 365.514L31.7558 364.316L34.1524 363.329L32.1779 358.535L29.8035 359.513L29.3098 358.315L28.1115 358.809L27.1243 356.412L29.4987 355.434L29.9923 356.632L32.3889 355.645L32.8826 356.843L34.0809 356.35L37.0335 363.517L35.8352 364.011L36.338 365.232L33.9414 366.219ZM16.7775 358.295L15.9219 355.848L28.1102 351.586L27.6824 350.363L28.9058 349.935L27.6303 346.288L26.407 346.715L25.9871 345.515L13.7988 349.777L12.9432 347.33L26.3549 342.64L26.7827 343.863L28.006 343.436L28.4259 344.636L29.6493 344.209L31.7882 350.325L30.5648 350.753L30.9847 351.954L29.7613 352.382L30.1891 353.605L16.7775 358.295ZM12.2723 345.231L9.75169 336.541L10.9964 336.18L10.6353 334.935L11.88 334.574L11.519 333.329L15.23 332.253L15.5911 333.498L18.0805 332.776L17.7194 331.531L18.9641 331.17L18.6031 329.925L22.3141 328.849L22.6752 330.093L23.9199 329.732L24.2809 330.977L25.5256 330.616L28.4072 340.551L12.2723 345.231ZM14.0396 342.019L18.9953 340.582L17.5578 335.626L16.3132 335.987L15.9521 334.742L13.4858 335.458L13.8468 336.702L12.6021 337.064L14.0396 342.019ZM21.4847 339.86L25.1957 338.783L23.3972 332.583L22.1525 332.944L21.7915 331.699L20.5699 332.054L20.9309 333.298L19.6862 333.659L21.4847 339.86ZM8.1068 330.643L5.49972 319.299L8.02587 318.718L10.0524 327.536L13.8182 326.671L12.082 319.116L14.6081 318.535L16.3444 326.09L21.3733 324.935L19.3468 316.116L21.8729 315.536L24.48 326.88L8.1068 330.643ZM16.2893 306.48L16.4691 307.739L7.53568 309.014L7.3559 307.755L4.78992 308.121L4.60675 306.838L3.32375 307.022L2.22471 299.324L3.50771 299.141L3.32453 297.858L5.89051 297.491L5.70734 296.208L8.24956 295.845L8.61591 298.411L7.33292 298.594L7.51609 299.877L4.97387 300.24L5.70656 305.372L8.24878 305.009L8.43196 306.292L14.8231 305.38L14.64 304.097L17.206 303.731L16.4733 298.599L13.931 298.962L13.7479 297.679L12.4649 297.862L12.0985 295.296L14.6408 294.933L14.8239 296.216L17.3899 295.849L17.5731 297.132L18.8561 296.949L19.9517 304.623L18.6687 304.807L18.8553 306.113L16.2893 306.48ZM1.60708 294.576L1.37999 291.994L14.2423 290.863L14.1288 289.572L15.4198 289.458L15.0813 285.609L13.7903 285.723L13.6788 284.455L0.816462 285.587L0.589371 283.005L14.7427 281.76L14.8563 283.051L16.1473 282.937L16.2587 284.204L17.5498 284.091L18.1175 290.546L16.8265 290.659L16.9379 291.927L15.6469 292.04L15.7604 293.331L1.60708 294.576ZM0.455669 280.812L0.147354 271.769L1.4426 271.725L1.39844 270.43L2.69369 270.386L2.64953 269.09L6.51128 268.959L6.55544 270.254L9.14594 270.166L9.10178 268.87L10.397 268.826L10.3529 267.531L14.2146 267.399L14.2588 268.695L15.554 268.651L15.5982 269.946L16.8934 269.902L17.2459 280.24L0.455669 280.812ZM2.95784 278.133L8.11484 277.957L7.93901 272.8L6.64377 272.845L6.59961 271.549L4.0331 271.637L4.07726 272.932L2.78201 272.976L2.95784 278.133ZM10.7053 277.869L14.5671 277.737L14.3471 271.285L13.0519 271.329L13.0077 270.034L11.7364 270.077L11.7806 271.373L10.4853 271.417L10.7053 277.869ZM-0.000424136 265.688L0.231834 254.051L2.82332 254.102L2.64278 263.149L6.50601 263.226L6.66069 255.475L9.25217 255.527L9.09749 263.277L14.2565 263.38L14.437 254.334L17.0285 254.386L16.7962 266.024L-0.000424136 265.688ZM13.7957 244.245L13.6644 245.51L4.6886 244.579L4.81984 243.314L2.24168 243.046L2.3754 241.757L1.08631 241.623L1.88864 233.889L3.17773 234.023L3.31145 232.734L5.88961 233.001L6.02333 231.712L8.57763 231.977L8.31019 234.555L7.0211 234.421L6.88738 235.71L4.33309 235.445L3.7982 240.602L6.3525 240.867L6.21877 242.156L12.6403 242.822L12.774 241.533L15.3522 241.8L15.8871 236.644L13.3328 236.379L13.4665 235.09L12.1774 234.956L12.4449 232.378L14.9992 232.643L14.8655 233.932L17.4436 234.2L17.3099 235.489L18.599 235.622L17.7991 243.333L16.51 243.199L16.3738 244.512L13.7957 244.245ZM2.44248 229.13L2.84935 226.57L15.6013 228.597L15.8047 227.317L17.0847 227.521L17.6912 223.704L16.4113 223.501L16.6109 222.245L3.859 220.218L4.26588 217.658L18.2977 219.888L18.0943 221.168L19.3742 221.372L19.1746 222.628L20.4545 222.831L19.4373 229.231L18.1574 229.028L17.9577 230.284L16.6778 230.08L16.4743 231.36L2.44248 229.13ZM4.67394 215.478L6.58224 206.634L7.84909 206.907L8.12243 205.64L9.38928 205.914L9.66262 204.647L13.4397 205.462L13.1664 206.729L15.7001 207.275L15.9734 206.009L17.2402 206.282L17.5136 205.015L21.2907 205.83L21.0173 207.097L22.2842 207.37L22.0108 208.637L23.2777 208.91L21.096 219.022L4.67394 215.478ZM7.75431 213.491L12.7982 214.58L13.8865 209.536L12.6197 209.262L12.893 207.996L10.3828 207.454L10.1094 208.721L8.8426 208.447L7.75431 213.491ZM15.3319 215.126L19.109 215.941L20.4706 209.63L19.2038 209.357L19.4771 208.09L18.2338 207.822L17.9604 209.089L16.6936 208.816L15.3319 215.126ZM7.92621 200.691L10.9986 189.464L13.4987 190.148L11.1104 198.876L14.8374 199.895L16.8836 192.418L19.3836 193.102L17.3375 200.58L22.3145 201.942L24.7027 193.214L27.2028 193.899L24.1304 205.126L7.92621 200.691ZM26.5602 183.274L26.1219 184.468L17.6504 181.359L18.0886 180.165L15.6552 179.272L16.1017 178.056L14.8851 177.609L17.564 170.309L18.7806 170.756L19.2271 169.539L21.6604 170.432L22.1069 169.215L24.5177 170.1L23.6247 172.533L22.4081 172.087L21.9616 173.304L19.5508 172.419L17.7649 177.285L20.1757 178.17L19.7292 179.387L25.79 181.611L26.2365 180.394L28.6698 181.287L30.4557 176.421L28.0449 175.536L28.4914 174.319L27.2747 173.873L28.1677 171.439L30.5785 172.324L30.132 173.541L32.5653 174.434L32.1189 175.65L33.3355 176.097L30.6649 183.374L29.4482 182.928L28.9935 184.167L26.5602 183.274ZM19.2771 165.819L20.3029 163.438L32.1607 168.548L32.6736 167.358L33.8638 167.871L35.393 164.323L34.2029 163.81L34.7063 162.642L22.8484 157.531L23.8742 155.151L36.9222 160.774L36.4093 161.964L37.5995 162.477L37.0961 163.645L38.2863 164.158L35.7218 170.109L34.5316 169.596L34.0282 170.764L32.838 170.251L32.3251 171.442L19.2771 165.819ZM24.8042 153.145L28.8321 145.043L29.9926 145.62L30.5695 144.46L31.73 145.037L32.307 143.876L35.767 145.596L35.19 146.757L37.511 147.911L38.088 146.75L39.2485 147.327L39.8254 146.167L43.2854 147.887L42.7085 149.047L43.869 149.624L43.292 150.785L44.4525 151.362L39.8477 160.624L24.8042 153.145ZM28.2791 151.978L32.8996 154.275L35.1967 149.655L34.0362 149.078L34.6131 147.917L32.3136 146.774L31.7366 147.935L30.5762 147.358L28.2791 151.978ZM35.2206 155.429L38.6806 157.149L41.5546 151.368L40.3941 150.791L40.971 149.631L39.832 149.065L39.2551 150.225L38.0946 149.648L35.2206 155.429ZM31.5962 139.618L37.3368 129.492L39.5917 130.771L35.1293 138.642L38.4907 140.548L42.3139 133.804L44.5687 135.082L40.7456 141.826L45.2344 144.371L49.6967 136.5L51.9516 137.778L46.2109 147.904L31.5962 139.618ZM53.946 127.321L53.2269 128.37L45.7832 123.269L46.5022 122.22L44.3641 120.755L45.0968 119.685L44.0277 118.953L48.4235 112.539L49.4926 113.271L50.2252 112.202L52.3633 113.667L53.0959 112.598L55.2142 114.05L53.749 116.188L52.6799 115.456L51.9473 116.525L49.829 115.073L46.8985 119.349L49.0168 120.801L48.2841 121.87L53.6096 125.519L54.3422 124.45L56.4803 125.916L59.4108 121.639L57.2925 120.188L58.0252 119.119L56.9561 118.386L58.4214 116.248L60.5397 117.7L59.8071 118.769L61.9452 120.234L61.2125 121.303L62.2816 122.036L57.8994 128.43L56.8303 127.698L56.0841 128.786L53.946 127.321ZM51.1718 108.632L52.7491 106.575L62.9952 114.432L63.7838 113.404L64.8122 114.193L67.1636 111.127L66.1352 110.338L66.9093 109.328L56.6632 101.471L58.2406 99.4142L69.515 108.06L68.7263 109.089L69.7547 109.877L68.9807 110.887L70.0091 111.675L66.0658 116.817L65.0374 116.029L64.2633 117.038L63.2349 116.25L62.4462 117.278L51.1718 108.632ZM59.6196 97.712L65.5001 90.8356L66.4851 91.6779L67.3274 90.6929L68.3124 91.5352L69.1547 90.5503L72.0913 93.0616L71.249 94.0466L73.2189 95.7312L74.0612 94.7462L75.0461 95.5886L75.8884 94.6036L78.825 97.115L77.9827 98.0999L78.9677 98.9422L78.1254 99.9272L79.1103 100.769L72.3874 108.631L59.6196 97.712ZM63.2741 97.4267L67.1956 100.78L70.5493 96.8588L69.5643 96.0165L70.4067 95.0315L68.455 93.3625L67.6127 94.3474L66.6277 93.5051L63.2741 97.4267ZM69.1655 102.465L72.1021 104.976L76.2981 100.07L75.3132 99.2275L76.1555 98.2425L75.1888 97.4158L74.3465 98.4008L73.3615 97.5585L69.1655 102.465ZM69.5217 86.2292L77.5697 77.8197L79.4423 79.6118L73.1865 86.1487L75.9781 88.8202L81.3378 83.2197L83.2105 85.0118L77.8507 90.6124L81.5786 94.18L87.8345 87.6431L89.7071 89.4353L81.6591 97.8448L69.5217 86.2292ZM94.1967 79.7926L93.2445 80.6361L87.2608 73.8812L88.213 73.0378L86.4942 71.0976L87.4644 70.2382L86.605 69.2681L92.4257 64.1119L93.285 65.082L94.2551 64.2227L95.9738 66.1629L96.944 65.3035L98.6468 67.2258L96.7066 68.9445L95.8472 67.9744L94.8771 68.8338L93.1743 66.9115L89.2938 70.349L90.9966 72.2712L90.0265 73.1306L94.3074 77.9632L95.2775 77.1038L96.9963 79.044L100.877 75.6066L99.1739 73.6843L100.144 72.825L99.2846 71.8548L101.225 70.1361L102.928 72.0584L101.958 72.9177L103.676 74.858L102.706 75.7173L103.566 76.6874L97.7628 81.8277L96.9035 80.8576L95.9154 81.7329L94.1967 79.7926ZM96.0465 60.9837L98.0765 59.372L106.105 69.4845L107.12 68.6787L107.926 69.6937L110.952 67.2911L110.146 66.2761L111.143 65.4852L103.114 55.3727L105.144 53.761L113.978 64.8885L112.963 65.6943L113.769 66.7094L112.773 67.5003L113.579 68.5153L108.504 72.5445L107.698 71.5295L106.702 72.3204L105.896 71.3054L104.881 72.1112L96.0465 60.9837ZM106.927 52.4244L114.315 47.2004L115.063 48.2585L116.121 47.5103L116.869 48.5684L117.928 47.8202L120.158 50.9751L119.1 51.7233L120.597 53.8397L121.655 53.0914L122.403 54.1496L123.461 53.4013L125.692 56.5562L124.634 57.3045L125.382 58.3626L124.324 59.1109L125.073 60.1691L116.627 66.1413L106.927 52.4244ZM110.54 53.0442L113.519 57.2572L117.732 54.278L116.984 53.2198L118.042 52.4716L116.559 50.3748L115.501 51.1231L114.753 50.0649L110.54 53.0442ZM115.016 59.3736L117.247 62.5285L122.518 58.801L121.77 57.7428L122.828 56.9946L122.093 55.956L121.035 56.7042L120.287 55.6461L115.016 59.3736ZM119.319 43.7349L129.174 37.5399L130.553 39.7343L122.893 44.5498L124.949 47.8211L131.512 43.6953L132.892 45.8897L126.329 50.0155L129.075 54.384L136.735 49.5684L138.115 51.7628L128.26 57.9579L119.319 43.7349ZM144.815 43.501L143.686 44.0872L139.528 36.0785L140.656 35.4923L139.462 33.192L140.612 32.5947L140.015 31.4446L146.916 27.861L147.513 29.0112L148.663 28.414L149.858 30.7143L151.008 30.117L152.192 32.3961L149.891 33.5906L149.294 32.4404L148.144 33.0377L146.96 30.7586L142.36 33.1477L143.543 35.4267L142.393 36.024L145.368 41.7535L146.518 41.1563L147.713 43.4566L152.313 41.0676L151.13 38.7886L152.28 38.1913L151.683 37.0411L153.983 35.8466L155.167 38.1257L154.017 38.7229L155.211 41.0233L154.061 41.6205L154.658 42.7707L147.778 46.3432L147.181 45.193L146.01 45.8013L144.815 43.501ZM151.233 25.6912L153.597 24.6289L158.889 36.4069L160.071 35.8757L160.602 37.0579L164.127 35.4744L163.596 34.2922L164.756 33.771L159.464 21.993L161.829 20.9308L167.651 33.8909L166.469 34.422L167 35.6042L165.84 36.1255L166.371 37.3076L160.46 39.9632L159.929 38.781L158.769 39.3023L158.238 38.1201L157.056 38.6513L151.233 25.6912ZM163.878 20.0771L172.322 16.8282L172.788 18.0378L173.997 17.5725L174.463 18.782L175.672 18.3167L177.06 21.923L175.85 22.3883L176.781 24.8075L177.99 24.3421L178.456 25.5517L179.665 25.0864L181.053 28.6927L179.843 29.158L180.308 30.3676L179.099 30.833L179.564 32.0425L169.91 35.7567L163.878 20.0771ZM167.228 21.5655L169.08 26.3814L173.896 24.5286L173.431 23.319L174.64 22.8537L173.718 20.4569L172.509 20.9223L172.043 19.7127L167.228 21.5655ZM170.011 28.8005L171.399 32.4069L177.424 30.0887L176.959 28.8792L178.168 28.4138L177.711 27.2266L176.502 27.692L176.037 26.4824L170.011 28.8005ZM178.025 14.6984L189.1 11.115L189.898 13.5811L181.289 16.3666L182.479 20.0429L189.854 17.6564L190.652 20.1226L183.277 22.509L184.865 27.4184L193.474 24.633L194.272 27.0991L183.197 30.6825L178.025 14.6984ZM202.803 20.7392L201.565 21.0281L199.515 12.2401L200.753 11.9511L200.164 9.42691L201.427 9.13248L201.132 7.87037L208.705 6.10375L208.999 7.36586L210.261 7.07142L210.85 9.59564L212.112 9.3012L212.696 11.8021L210.172 12.3909L209.877 11.1288L208.615 11.4233L208.032 8.9224L202.983 10.1002L203.567 12.601L202.304 12.8954L203.771 19.1826L205.033 18.8882L205.622 21.4124L210.671 20.2347L210.087 17.7338L211.349 17.4394L211.055 16.1773L213.579 15.5884L214.162 18.0892L212.9 18.3837L213.489 20.9079L212.227 21.2023L212.522 22.4644L204.972 24.2256L204.678 22.9635L203.392 23.2634L202.803 20.7392ZM213.409 5.07022L215.962 4.62305L218.19 17.3414L219.467 17.1179L219.69 18.3944L223.496 17.7278L223.273 16.4512L224.525 16.2318L222.298 3.51339L224.851 3.06621L227.302 17.0612L226.026 17.2848L226.249 18.5613L224.996 18.7808L225.22 20.0573L218.837 21.1753L218.613 19.8987L217.361 20.1182L217.137 18.8416L215.86 19.0652L213.409 5.07022ZM227.046 2.74356L236.031 1.67441L236.184 2.96133L237.471 2.80819L237.624 4.09511L238.911 3.94197L239.368 7.7789L238.081 7.93204L238.387 10.5059L239.674 10.3527L239.827 11.6397L241.114 11.4865L241.571 15.3234L240.284 15.4766L240.437 16.7635L239.15 16.9166L239.303 18.2036L229.032 19.4259L227.046 2.74356ZM229.927 5.01112L230.536 10.135L235.66 9.52524L235.507 8.23832L236.794 8.08518L236.491 5.53517L235.204 5.68831L235.05 4.40139L229.927 5.01112ZM230.843 12.7088L231.299 16.5457L237.71 15.7829L237.557 14.4959L238.844 14.3428L238.693 13.0797L237.407 13.2329L237.253 11.9459L230.843 12.7088ZM242.074 1.0149L253.689 0.262863L253.857 2.84945L244.828 3.43402L245.077 7.28994L252.813 6.78911L252.981 9.37569L245.245 9.87653L245.578 15.0257L254.607 14.4412L254.775 17.0278L243.159 17.7798L242.074 1.0149Z" fill="white"/>
</svg>
